M48
; DRILL file {KiCad 8.0.5} date 2025-05-17T10:41:44-0400
; FORMAT={-:-/ absolute / inch / decimal}
; #@! TF.CreationDate,2025-05-17T10:41:44-04:00
; #@! TF.GenerationSoftware,Kicad,Pcbnew,8.0.5
; #@! TF.FileFunction,Plated,1,2,PTH
FMAT,2
INCH
; #@! TA.AperFunction,Plated,PTH,ViaDrill
T1C0.0118
; #@! TA.AperFunction,Plated,PTH,ComponentDrill
T2C0.0394
%
G90
G05
T1
X4.8053Y-3.4671
X4.8232Y-3.8435
X4.8724Y-4.0413
X4.9616Y-3.1435
X4.9793Y-3.414
X4.9813Y-3.6246
X5.0124Y-3.351
X5.0269Y-2.9134
X5.0397Y-3.7648
X5.1126Y-4.2274
X5.1399Y-4.0309
X5.1439Y-3.8695
X5.1746Y-3.2992
X5.2128Y-3.9581
X5.2208Y-3.3061
X5.2257Y-3.502
X5.2425Y-3.6654
X5.2435Y-2.9931
X5.2508Y-4.2013
X5.2533Y-3.2006
X5.2533Y-4.2717
X5.2553Y-3.8002
X5.2651Y-3.2953
X5.2779Y-3.6634
X5.282Y-3.0813
X5.2858Y-3.4961
X5.3006Y-3.2992
X5.3006Y-3.7146
X5.3183Y-4.2008
X5.3242Y-3.497
X5.3486Y-3.5652
X5.3643Y-3.3569
X5.375Y-3.3183
X5.3766Y-3.0118
X5.3789Y-3.1069
X5.3822Y-3.7992
X5.4118Y-3.1348
X5.4206Y-3.0219
X5.4393Y-3.5372
X5.4522Y-3.761
X5.4561Y-3.2224
X5.458Y-3.8002
X5.4704Y-3.6005
X5.4789Y-3.7144
X5.4814Y-3.2868
X5.4826Y-3.5098
X5.4836Y-3.7589
X5.4872Y-4.1927
X5.4876Y-4.6811
X5.4964Y-2.4803
X5.4978Y-2.9301
X5.4978Y-4.0915
X5.5116Y-3.3657
X5.5131Y-3.2884
X5.5151Y-3.4222
X5.5451Y-3.2899
X5.5604Y-3.3465
X5.5771Y-3.4793
X5.587Y-3.1348
X5.6184Y-3.6779
X5.6273Y-2.5059
X5.6472Y-3.6652
X5.648Y-3.2333
X5.6588Y-3.5089
X5.662Y-3.7262
X5.6765Y-3.688
X5.6933Y-3.4656
X5.712Y-4.6093
X5.7307Y-3.8159
X5.7309Y-3.1652
X5.7366Y-3.6181
X5.7454Y-3.5472
X5.7523Y-4.1673
X5.7553Y-3.8602
X5.7563Y-3.7057
X5.8114Y-3.5689
X5.8527Y-2.7736
X5.8537Y-3.0781
X5.8813Y-2.4528
X5.8862Y-4.9469
X5.897Y-4.5876
X5.898Y-3.5768
X5.9242Y-4.0537
X5.9295Y-4.7756
X5.961Y-3.7215
X5.9856Y-4.6585
X6.0053Y-2.9695
X6.0104Y-2.5758
X6.0161Y-3.4094
X6.0191Y-2.879
X6.0328Y-4.7943
X6.0423Y-4.3356
X6.0588Y-3.7994
X6.0796Y-4.7698
X6.0827Y-4.729
X6.085Y-4.6024
X6.1244Y-2.5738
X6.1342Y-2.7854
X6.1391Y-4.185
X6.1598Y-3.7427
X6.1962Y-4.5778
X6.2021Y-4.6752
X6.2116Y-3.7392
X6.2139Y-4.8278
X6.2238Y-4.1841
X6.2326Y-3.4183
X6.2385Y-2.5719
X6.2462Y-3.5226
X6.2484Y-3.7805
X6.2506Y-3.6596
X6.2621Y-4.189
X6.2622Y-3.3474
X6.2681Y-3.4094
X6.274Y-4.6467
X6.2789Y-4.1309
X6.2986Y-4.812
X6.3104Y-4.7539
X6.3545Y-2.5482
X6.3685Y-3.4823
X6.4039Y-2.6486
X6.4462Y-4.626
X6.4521Y-4.9577
X6.4689Y-3.4026
X6.4689Y-4.0364
X6.5141Y-3.4469
X6.5309Y-3.5906
X6.5378Y-3.0837
X6.5486Y-2.4754
X6.5633Y-4.7608
X6.5693Y-2.8652
X6.5693Y-3.3533
X6.585Y-3.2766
X6.6352Y-3.3819
X6.6824Y-3.1663
X6.6903Y-4.187
X6.7257Y-3.8356
X6.7592Y-3.6211
X6.775Y-3.2657
X6.8675Y-4.6791
X7.2454Y-4.0669
X7.2681Y-3.6713
X7.2996Y-3.2283
T2
X4.8655Y-3.5807
X4.8655Y-3.6807
X4.9984Y-3.898
X4.9984Y-3.998
X4.9984Y-4.098
X4.9984Y-4.198
X5.1637Y-4.4882
X5.1798Y-2.792
X5.2345Y-4.5589
X5.2505Y-2.7213
X5.2667Y-4.3864
X5.2822Y-2.8944
X5.3052Y-4.6296
X5.3212Y-2.6506
X5.3374Y-4.4571
X5.3529Y-2.8237
X5.4081Y-4.5278
X5.4236Y-2.753
X5.6362Y-2.813
X5.7362Y-2.813
X5.9876Y-3.9941
X6.086Y-3.0689
X6.086Y-3.1689
X6.086Y-3.2689
X6.086Y-3.3689
X6.086Y-3.4689
X6.086Y-3.5689
X6.086Y-3.6689
X6.0876Y-3.9941
X6.186Y-3.0689
X6.186Y-3.1689
X6.186Y-3.2689
X6.186Y-3.3689
X6.186Y-3.4689
X6.186Y-3.5689
X6.186Y-3.6689
X6.1876Y-3.9941
X6.2876Y-3.9941
X6.4846Y-3.0089
X6.5417Y-3.7451
X6.5417Y-3.8451
X6.5417Y-3.9451
X6.5417Y-4.0451
X6.5846Y-3.0089
X6.6846Y-3.0089
X6.7846Y-3.0089
X6.8773Y-2.7746
X6.8788Y-4.5269
X6.948Y-2.8453
X6.9495Y-4.4562
X6.9797Y-2.6722
X6.9806Y-4.6288
X7.0187Y-2.916
X7.0202Y-4.3854
X7.0504Y-2.743
X7.0513Y-4.5581
X7.1211Y-2.8137
X7.122Y-4.4874
M30
