%TF.GenerationSoftware,KiCad,Pcbnew,8.0.5*%
%TF.CreationDate,2025-05-17T10:41:44-04:00*%
%TF.ProjectId,RTLS_VIC,52544c53-5f56-4494-932e-6b696361645f,rev?*%
%TF.SameCoordinates,Original*%
%TF.FileFunction,Copper,L2,Bot*%
%TF.FilePolarity,Positive*%
%FSLAX46Y46*%
G04 Gerber Fmt 4.6, Leading zero omitted, Abs format (unit mm)*
G04 Created by KiCad (PCBNEW 8.0.5) date 2025-05-17 10:41:44*
%MOMM*%
%LPD*%
G01*
G04 APERTURE LIST*
G04 Aperture macros list*
%AMHorizOval*
0 Thick line with rounded ends*
0 $1 width*
0 $2 $3 position (X,Y) of the first rounded end (center of the circle)*
0 $4 $5 position (X,Y) of the second rounded end (center of the circle)*
0 Add line between two ends*
20,1,$1,$2,$3,$4,$5,0*
0 Add two circle primitives to create the rounded ends*
1,1,$1,$2,$3*
1,1,$1,$4,$5*%
%AMRotRect*
0 Rectangle, with rotation*
0 The origin of the aperture is its center*
0 $1 length*
0 $2 width*
0 $3 Rotation angle, in degrees counterclockwise*
0 Add horizontal line*
21,1,$1,$2,0,0,$3*%
G04 Aperture macros list end*
%TA.AperFunction,ComponentPad*%
%ADD10RotRect,1.700000X1.700000X45.000000*%
%TD*%
%TA.AperFunction,ComponentPad*%
%ADD11HorizOval,1.700000X0.000000X0.000000X0.000000X0.000000X0*%
%TD*%
%TA.AperFunction,ComponentPad*%
%ADD12R,1.700000X1.700000*%
%TD*%
%TA.AperFunction,ComponentPad*%
%ADD13O,1.700000X1.700000*%
%TD*%
%TA.AperFunction,ComponentPad*%
%ADD14RotRect,1.700000X1.700000X315.000000*%
%TD*%
%TA.AperFunction,ComponentPad*%
%ADD15HorizOval,1.700000X0.000000X0.000000X0.000000X0.000000X0*%
%TD*%
%TA.AperFunction,ConnectorPad*%
%ADD16C,0.787400*%
%TD*%
%TA.AperFunction,ViaPad*%
%ADD17C,0.600000*%
%TD*%
%TA.AperFunction,Conductor*%
%ADD18C,0.400000*%
%TD*%
%TA.AperFunction,Conductor*%
%ADD19C,0.200000*%
%TD*%
G04 APERTURE END LIST*
D10*
%TO.P,J5,1,Pin_1*%
%TO.N,GND*%
X133773555Y-111414555D03*
D11*
%TO.P,J5,2,Pin_2*%
%TO.N,PWM_3*%
X135569606Y-113210606D03*
%TO.P,J5,3,Pin_3*%
%TO.N,+ESC_5V*%
X137365657Y-115006657D03*
%TD*%
D12*
%TO.P,J7,1,Pin_1*%
%TO.N,+3V3*%
X152084000Y-101450000D03*
D13*
%TO.P,J7,2,Pin_2*%
%TO.N,GPS_TX*%
X154624000Y-101450000D03*
%TO.P,J7,3,Pin_3*%
%TO.N,GPS_RX*%
X157163999Y-101450000D03*
%TO.P,J7,4,Pin_4*%
%TO.N,GND*%
X159704000Y-101450000D03*
%TD*%
D10*
%TO.P,J4,1,Pin_1*%
%TO.N,GND*%
X174684000Y-70475000D03*
D11*
%TO.P,J4,2,Pin_2*%
%TO.N,PWM_2*%
X176480051Y-72271051D03*
%TO.P,J4,3,Pin_3*%
%TO.N,+ESC_5V*%
X178276102Y-74067102D03*
%TD*%
D12*
%TO.P,J12,1,Pin_1*%
%TO.N,GND*%
X143159000Y-71450000D03*
D13*
%TO.P,J12,2,Pin_2*%
%TO.N,+3V3*%
X145699000Y-71450000D03*
%TD*%
D14*
%TO.P,J3,1,Pin_1*%
%TO.N,GND*%
X137759000Y-69925000D03*
D15*
%TO.P,J3,2,Pin_2*%
%TO.N,PWM_1*%
X135962949Y-71721051D03*
%TO.P,J3,3,Pin_3*%
%TO.N,+ESC_5V*%
X134166898Y-73517102D03*
%TD*%
D12*
%TO.P,J10,1,Pin_1*%
%TO.N,+3V3*%
X164709000Y-76425000D03*
D13*
%TO.P,J10,2,Pin_2*%
%TO.N,SDA*%
X167249000Y-76425000D03*
%TO.P,J10,3,Pin_3*%
%TO.N,SCL*%
X169788999Y-76425000D03*
%TO.P,J10,4,Pin_4*%
%TO.N,GND*%
X172329000Y-76425000D03*
%TD*%
D14*
%TO.P,J14,1,Pin_1*%
%TO.N,GND*%
X135159000Y-67325000D03*
D15*
%TO.P,J14,2,Pin_2*%
%TO.N,PWM_CH2_1*%
X133362949Y-69121051D03*
%TO.P,J14,3,Pin_3*%
%TO.N,+ESC_5V*%
X131566898Y-70917102D03*
%TD*%
D10*
%TO.P,J15,1,Pin_1*%
%TO.N,GND*%
X177284000Y-67875000D03*
D11*
%TO.P,J15,2,Pin_2*%
%TO.N,PWM_CH2_2*%
X179080051Y-69671051D03*
%TO.P,J15,3,Pin_3*%
%TO.N,+ESC_5V*%
X180876102Y-71467102D03*
%TD*%
D12*
%TO.P,J8,1,Pin_1*%
%TO.N,BOOT0*%
X123584000Y-90950000D03*
D13*
%TO.P,J8,2,Pin_2*%
%TO.N,+3V3*%
X123584000Y-93490000D03*
%TD*%
D14*
%TO.P,J17,1,Pin_1*%
%TO.N,GND*%
X180898756Y-113979721D03*
D15*
%TO.P,J17,2,Pin_2*%
%TO.N,PWM_CH2_4*%
X179102705Y-115775772D03*
%TO.P,J17,3,Pin_3*%
%TO.N,+ESC_5V*%
X177306654Y-117571823D03*
%TD*%
D12*
%TO.P,J11,1,Pin_1*%
%TO.N,DEBUG_NSS*%
X166159000Y-95125000D03*
D13*
%TO.P,J11,2,Pin_2*%
%TO.N,SPI_SCK*%
X166159000Y-97665000D03*
%TO.P,J11,3,Pin_3*%
%TO.N,SPI_MISO*%
X166159000Y-100205000D03*
%TO.P,J11,4,Pin_4*%
%TO.N,SPI_MOSI*%
X166159000Y-102745000D03*
%TD*%
D12*
%TO.P,J1,1,Pin_1*%
%TO.N,SDA*%
X157124000Y-77950000D03*
D13*
%TO.P,J1,2,Pin_2*%
%TO.N,SPI_MISO*%
X157124000Y-80490000D03*
%TO.P,J1,3,Pin_3*%
%TO.N,SPI_SCK*%
X157124000Y-83030000D03*
%TO.P,J1,4,Pin_4*%
%TO.N,+BATT*%
X157124000Y-85570000D03*
%TO.P,J1,5,Pin_5*%
%TO.N,/Sensors/GPIO1*%
X157124000Y-88110000D03*
%TO.P,J1,6,Pin_6*%
%TO.N,/Sensors/GPIO3*%
X157124000Y-90650000D03*
%TO.P,J1,7,Pin_7*%
%TO.N,/Sensors/WKUP1*%
X157124000Y-93190000D03*
%TD*%
D10*
%TO.P,J16,1,Pin_1*%
%TO.N,GND*%
X131159000Y-114000000D03*
D11*
%TO.P,J16,2,Pin_2*%
%TO.N,PWM_CH2_3*%
X132955051Y-115796051D03*
%TO.P,J16,3,Pin_3*%
%TO.N,+ESC_5V*%
X134751102Y-117592102D03*
%TD*%
D14*
%TO.P,J6,1,Pin_1*%
%TO.N,GND*%
X178313150Y-111390327D03*
D15*
%TO.P,J6,2,Pin_2*%
%TO.N,PWM_4*%
X176517099Y-113186378D03*
%TO.P,J6,3,Pin_3*%
%TO.N,+ESC_5V*%
X174721048Y-114982429D03*
%TD*%
D12*
%TO.P,J9,1,Pin_1*%
%TO.N,SCL*%
X154584000Y-77950000D03*
D13*
%TO.P,J9,2,Pin_2*%
%TO.N,SPI_MOSI*%
X154584000Y-80490000D03*
%TO.P,J9,3,Pin_3*%
%TO.N,NSS*%
X154584000Y-83030000D03*
%TO.P,J9,4,Pin_4*%
%TO.N,GND*%
X154584000Y-85570000D03*
%TO.P,J9,5,Pin_5*%
%TO.N,/Sensors/GPIO2*%
X154584000Y-88110000D03*
%TO.P,J9,6,Pin_6*%
%TO.N,/Sensors/GPIO4*%
X154584000Y-90650000D03*
%TO.P,J9,7,Pin_7*%
%TO.N,+3V3*%
X154584000Y-93190000D03*
%TD*%
D12*
%TO.P,J13,1,Pin_1*%
%TO.N,+3V3*%
X126959000Y-99010000D03*
D13*
%TO.P,J13,2,Pin_2*%
%TO.N,DEBUG_UART6_TX*%
X126959000Y-101550000D03*
%TO.P,J13,3,Pin_3*%
%TO.N,DEBUG_UART6_RX*%
X126959000Y-104089999D03*
%TO.P,J13,4,Pin_4*%
%TO.N,GND*%
X126959000Y-106630000D03*
%TD*%
D16*
%TO.P,J2,1,BATT*%
%TO.N,unconnected-(J2-BATT-Pad1)*%
X156569000Y-118445000D03*
%TO.P,J2,2,NRST*%
%TO.N,RST*%
X156569000Y-119715000D03*
%TO.P,J2,3,SWCLK*%
%TO.N,SWCLK*%
X156569000Y-120985000D03*
%TO.P,J2,4,SWDIO*%
%TO.N,SWDIO*%
X156569000Y-122255000D03*
%TO.P,J2,5,GND*%
%TO.N,GND*%
X156569000Y-123525000D03*
%TO.P,J2,6,DETECT*%
X155299000Y-123525000D03*
%TO.P,J2,7,UART_MISO*%
%TO.N,DEBUG_TX*%
X155299000Y-122255000D03*
%TO.P,J2,8,UART_MOSI*%
%TO.N,DEBUG_RX*%
X155299000Y-120985000D03*
%TO.P,J2,9,RFU*%
%TO.N,unconnected-(J2-RFU-Pad9)*%
X155299000Y-119715000D03*
%TO.P,J2,10,VCC*%
%TO.N,+3V3*%
X155299000Y-118445000D03*
%TD*%
D17*
%TO.N,GND*%
X157774000Y-94975000D03*
X149509000Y-125650000D03*
X143459000Y-82125000D03*
X149784000Y-116525000D03*
X171684000Y-91975000D03*
X133484000Y-96525000D03*
X157384000Y-116275000D03*
X132404000Y-100535000D03*
X142934000Y-63650000D03*
X126474000Y-86715000D03*
X145564000Y-80395000D03*
X139609000Y-63000000D03*
X184034000Y-103300000D03*
X152034000Y-118325000D03*
X149384000Y-62300000D03*
X146109000Y-105850000D03*
X143734000Y-89125000D03*
X166059000Y-78325000D03*
X136709000Y-96500000D03*
X172084000Y-82950000D03*
X126024000Y-79845000D03*
X150609000Y-121300000D03*
X136624000Y-78915000D03*
X135084000Y-106700000D03*
X166709000Y-120925000D03*
X170834000Y-97425000D03*
X129859000Y-107375000D03*
X126524000Y-92065000D03*
X141909000Y-79625000D03*
X153234000Y-121775000D03*
X148659000Y-70450000D03*
X174434000Y-118850000D03*
X169734000Y-80425000D03*
X132609000Y-83975000D03*
X139384000Y-118900000D03*
X127684000Y-74000000D03*
X163734000Y-117500000D03*
X133434000Y-108500000D03*
X122054000Y-88065000D03*
X135854000Y-90555000D03*
X147609000Y-90650000D03*
X165884000Y-91200000D03*
X138584000Y-81850000D03*
X163884000Y-125925000D03*
X166859000Y-72775000D03*
X134634000Y-94350000D03*
X141234000Y-85000000D03*
X128009000Y-95625000D03*
X169934000Y-106350000D03*
X140084000Y-86925000D03*
X159359000Y-118025000D03*
X130554000Y-102385000D03*
X148684000Y-78185000D03*
X139164000Y-94345000D03*
X166334000Y-62875000D03*
X145934000Y-90100000D03*
X122509000Y-97625000D03*
X130654000Y-98285000D03*
X139644000Y-74425000D03*
X185409000Y-82000000D03*
X155809000Y-70750000D03*
X145559000Y-96925000D03*
X137684000Y-76755000D03*
X168534000Y-85900000D03*
X159484000Y-104925000D03*
X144609000Y-88025000D03*
X162659000Y-67275000D03*
X158309000Y-86825000D03*
X145084000Y-117075000D03*
X141659000Y-88375000D03*
X133184000Y-76025000D03*
X158764000Y-92955000D03*
X158654000Y-89475000D03*
X133434000Y-81295000D03*
X167259000Y-83225000D03*
X184609000Y-93250000D03*
X164309000Y-102525000D03*
X123759000Y-102650000D03*
X159984000Y-122225000D03*
%TO.N,+3V3*%
X165459000Y-87550000D03*
X131434000Y-83800000D03*
X156459000Y-95065000D03*
X166859000Y-85175000D03*
X152885250Y-73126250D03*
X154559000Y-116900000D03*
X146184000Y-98050000D03*
X151409000Y-94525000D03*
%TO.N,RST*%
X157534000Y-118750000D03*
%TO.N,SWDIO*%
X133371500Y-106712500D03*
X132734000Y-88950000D03*
X157834000Y-122625000D03*
%TO.N,SWCLK*%
X159058265Y-106400735D03*
X139284000Y-95475000D03*
X160284000Y-120750000D03*
%TO.N,DEBUG_RX*%
X138634000Y-96525000D03*
X155934000Y-106300000D03*
X154500694Y-120116762D03*
%TO.N,DEBUG_TX*%
X154421126Y-121152456D03*
X138485773Y-95528243D03*
X158084000Y-106275000D03*
%TO.N,PWM_1*%
X133734000Y-83700000D03*
%TO.N,PWM_2*%
X134634000Y-83800000D03*
%TO.N,PWM_3*%
X134259000Y-88800000D03*
%TO.N,PWM_4*%
X135234000Y-88825000D03*
%TO.N,PWR_SEL*%
X139995765Y-85488235D03*
X137459000Y-79625000D03*
%TO.N,LED_DEBUG_3*%
X139227380Y-83484562D03*
X152664001Y-65425000D03*
%TO.N,LED_DEBUG_2*%
X140034000Y-83525000D03*
X155559000Y-65375000D03*
%TO.N,SDA*%
X149809000Y-90850000D03*
X134059000Y-93050000D03*
X164309000Y-86425000D03*
X152534000Y-75425000D03*
X146209000Y-94125000D03*
%TO.N,SCL*%
X145709000Y-91900000D03*
X133159000Y-93100000D03*
%TO.N,LED_DEBUG_1*%
X140846500Y-83562500D03*
X158459000Y-65325000D03*
%TO.N,LSM6_INT2*%
X153894000Y-96505000D03*
X158709000Y-96025000D03*
%TO.N,DEBUG_NSS*%
X142708000Y-93418000D03*
%TO.N,SPI_MISO*%
X159209000Y-86600000D03*
X139259000Y-89150000D03*
%TO.N,DEBUG_UART6_TX*%
X136524000Y-84285000D03*
%TO.N,SPI_SCK*%
X144184000Y-93674997D03*
X159059000Y-85025000D03*
%TO.N,DEBUG_UART6_RX*%
X136254000Y-85265000D03*
%TO.N,SPI_MOSI*%
X161759000Y-88450000D03*
X138158265Y-89845000D03*
%TO.N,PWM_CH2_2*%
X161404000Y-64725000D03*
X136564655Y-76499934D03*
X127314000Y-85115000D03*
X134164000Y-78265000D03*
%TO.N,PWM_CH2_3*%
X138947567Y-91451433D03*
X139374000Y-106495000D03*
X139644000Y-103925000D03*
%TO.N,NSS*%
X143814000Y-94645000D03*
X152809000Y-86600000D03*
%TO.N,PWM_CH2_4*%
X143439896Y-93095000D03*
X153474000Y-110125000D03*
X150474000Y-102965000D03*
%TD*%
D18*
%TO.N,+ESC_5V*%
X178771932Y-67237932D02*
X178224370Y-66751563D01*
X174721048Y-114982429D02*
X174721048Y-114986217D01*
X174453477Y-115250000D02*
X174721048Y-114982429D01*
X137609000Y-115250000D02*
X174453477Y-115250000D01*
X131534000Y-70884204D02*
X134166898Y-73517102D01*
X137365657Y-115006657D02*
X137336547Y-115006657D01*
X135284000Y-65375000D02*
X131534000Y-69125000D01*
X171800289Y-66141289D02*
X167009000Y-61350000D01*
X167009000Y-61350000D02*
X143259000Y-61350000D01*
X180884000Y-69350000D02*
X178771932Y-67237932D01*
X143259000Y-61350000D02*
X139234000Y-65375000D01*
X137365657Y-115006657D02*
X137609000Y-115250000D01*
X177488701Y-66141289D02*
X171800289Y-66141289D01*
X180884000Y-71459204D02*
X180884000Y-69350000D01*
X178276102Y-74067102D02*
X180884000Y-71459204D01*
X178224370Y-66751563D02*
X177488701Y-66141289D01*
X131534000Y-69125000D02*
X131534000Y-70884204D01*
X137336547Y-115006657D02*
X134751102Y-117592102D01*
X174721048Y-114986217D02*
X177306654Y-117571823D01*
X139234000Y-65375000D02*
X135284000Y-65375000D01*
D19*
%TO.N,GND*%
X155839000Y-86825000D02*
X158309000Y-86825000D01*
X154584000Y-85570000D02*
X155839000Y-86825000D01*
D18*
%TO.N,+3V3*%
X164709000Y-76425000D02*
X164709000Y-74875000D01*
D19*
X156459000Y-95065000D02*
X154584000Y-93190000D01*
X159634000Y-91875000D02*
X163959000Y-87550000D01*
D18*
X154086500Y-71925000D02*
X152885250Y-73126250D01*
X161759000Y-71925000D02*
X154086500Y-71925000D01*
D19*
X165459000Y-86575000D02*
X166859000Y-85175000D01*
X151409000Y-94525000D02*
X151409000Y-98045000D01*
X146184000Y-98050000D02*
X146189000Y-98045000D01*
X154559000Y-116900000D02*
X154559000Y-117705000D01*
X151409000Y-100775000D02*
X151409000Y-98045000D01*
X146189000Y-98045000D02*
X151409000Y-98045000D01*
X130709000Y-83800000D02*
X128609000Y-85900000D01*
X155899000Y-91875000D02*
X159634000Y-91875000D01*
X165459000Y-87550000D02*
X165459000Y-86575000D01*
D18*
X164709000Y-74875000D02*
X161759000Y-71925000D01*
D19*
X154559000Y-117705000D02*
X155299000Y-118445000D01*
X128609000Y-85900000D02*
X128609000Y-88465000D01*
X131434000Y-83800000D02*
X130709000Y-83800000D01*
X152084000Y-101450000D02*
X151409000Y-100775000D01*
X128609000Y-88465000D02*
X123584000Y-93490000D01*
X163959000Y-87550000D02*
X165459000Y-87550000D01*
X154584000Y-93190000D02*
X155899000Y-91875000D01*
%TO.N,RST*%
X157534000Y-118750000D02*
X156569000Y-119715000D01*
%TO.N,SWDIO*%
X157834000Y-122625000D02*
X157409000Y-122200000D01*
X130884000Y-97666471D02*
X130884000Y-90800000D01*
X131254000Y-104595000D02*
X131254000Y-98036471D01*
X130884000Y-90800000D02*
X132734000Y-88950000D01*
X133371500Y-106712500D02*
X131254000Y-104595000D01*
X131254000Y-98036471D02*
X130884000Y-97666471D01*
X156624000Y-122200000D02*
X156569000Y-122255000D01*
X157409000Y-122200000D02*
X156624000Y-122200000D01*
%TO.N,SWCLK*%
X157557530Y-104900000D02*
X159058265Y-106400735D01*
X160049000Y-120985000D02*
X156569000Y-120985000D01*
X139284000Y-95475000D02*
X148709000Y-104900000D01*
X160284000Y-120750000D02*
X160049000Y-120985000D01*
X148709000Y-104900000D02*
X157557530Y-104900000D01*
%TO.N,DEBUG_RX*%
X138634000Y-96525000D02*
X148409000Y-106300000D01*
X154500694Y-120116762D02*
X154500694Y-120186694D01*
X148409000Y-106300000D02*
X155934000Y-106300000D01*
X154500694Y-120186694D02*
X155299000Y-120985000D01*
%TO.N,DEBUG_TX*%
X148459000Y-105500000D02*
X157309000Y-105500000D01*
X157309000Y-105500000D02*
X158084000Y-106275000D01*
X154421126Y-121152456D02*
X154421126Y-121377126D01*
X138487243Y-95528243D02*
X148459000Y-105500000D01*
X138485773Y-95528243D02*
X138487243Y-95528243D01*
X154421126Y-121377126D02*
X155299000Y-122255000D01*
%TO.N,PWM_1*%
X133734000Y-83700000D02*
X133734000Y-83475000D01*
X135384000Y-72300000D02*
X135962949Y-71721051D01*
X133734000Y-83475000D02*
X135384000Y-81825000D01*
X135384000Y-81825000D02*
X135384000Y-72300000D01*
%TO.N,PWM_2*%
X173355051Y-72271051D02*
X176480051Y-72271051D01*
X135884000Y-82550000D02*
X135884000Y-75729314D01*
X147678314Y-63935000D02*
X165019000Y-63935000D01*
X165019000Y-63935000D02*
X173355051Y-72271051D01*
X134634000Y-83800000D02*
X135884000Y-82550000D01*
X135884000Y-75729314D02*
X147678314Y-63935000D01*
%TO.N,PWM_3*%
X134259000Y-88800000D02*
X134259000Y-89240000D01*
X134259000Y-89240000D02*
X131284000Y-92215000D01*
X131284000Y-92215000D02*
X131284000Y-97500785D01*
X135959000Y-102175785D02*
X135959000Y-112821212D01*
X135959000Y-112821212D02*
X135569606Y-113210606D01*
X131284000Y-97500785D02*
X135959000Y-102175785D01*
%TO.N,PWM_4*%
X131684000Y-92380686D02*
X131684000Y-97335099D01*
X147535279Y-113186378D02*
X176517099Y-113186378D01*
X135234000Y-88830686D02*
X131684000Y-92380686D01*
X135234000Y-88825000D02*
X135234000Y-88830686D01*
X131684000Y-97335099D02*
X147535279Y-113186378D01*
%TO.N,PWR_SEL*%
X137459000Y-82951470D02*
X137459000Y-79625000D01*
X139995765Y-85488235D02*
X137459000Y-82951470D01*
%TO.N,LED_DEBUG_3*%
X139227380Y-83456620D02*
X152664001Y-70019999D01*
X139227380Y-83484562D02*
X139227380Y-83456620D01*
X152664001Y-70019999D02*
X152664001Y-65425000D01*
%TO.N,LED_DEBUG_2*%
X155559000Y-68000000D02*
X155559000Y-65375000D01*
X140034000Y-83525000D02*
X155559000Y-68000000D01*
%TO.N,SDA*%
X153009000Y-75900000D02*
X152534000Y-75425000D01*
X161059000Y-81885000D02*
X157124000Y-77950000D01*
X149809000Y-90850000D02*
X149159000Y-91500000D01*
X163534000Y-86425000D02*
X161059000Y-83950000D01*
X147434000Y-94125000D02*
X146209000Y-94125000D01*
X149159000Y-91500000D02*
X149159000Y-92400000D01*
X149159000Y-92400000D02*
X147434000Y-94125000D01*
X164309000Y-86425000D02*
X163534000Y-86425000D01*
X146209000Y-94125000D02*
X144579000Y-92495000D01*
X155074000Y-75900000D02*
X153009000Y-75900000D01*
X134614000Y-92495000D02*
X134059000Y-93050000D01*
X157124000Y-77950000D02*
X155074000Y-75900000D01*
X144579000Y-92495000D02*
X134614000Y-92495000D01*
X161059000Y-83950000D02*
X161059000Y-81885000D01*
%TO.N,SCL*%
X145709000Y-91900000D02*
X145514000Y-92095000D01*
X145514000Y-92095000D02*
X134164000Y-92095000D01*
X134164000Y-92095000D02*
X133159000Y-93100000D01*
%TO.N,LED_DEBUG_1*%
X158459000Y-65950000D02*
X158459000Y-65325000D01*
X140846500Y-83562500D02*
X158459000Y-65950000D01*
%TO.N,LSM6_INT2*%
X154399000Y-96000000D02*
X158684000Y-96000000D01*
X158684000Y-96000000D02*
X158709000Y-96025000D01*
X153894000Y-96505000D02*
X154399000Y-96000000D01*
%TO.N,DEBUG_NSS*%
X160719000Y-103565000D02*
X163759000Y-100525000D01*
X142664000Y-93462000D02*
X142664000Y-97080000D01*
X142708000Y-93418000D02*
X142664000Y-93462000D01*
X163759000Y-100525000D02*
X163759000Y-97525000D01*
X149149000Y-103565000D02*
X160719000Y-103565000D01*
X163759000Y-97525000D02*
X166159000Y-95125000D01*
X142664000Y-97080000D02*
X149149000Y-103565000D01*
%TO.N,SPI_MISO*%
X159884000Y-85925000D02*
X159884000Y-82676471D01*
X139259000Y-89150000D02*
X139674685Y-89150000D01*
X139674685Y-89150000D02*
X147049685Y-81775000D01*
X147049685Y-81775000D02*
X155839000Y-81775000D01*
X159884000Y-82676471D02*
X157697529Y-80490000D01*
X159209000Y-86600000D02*
X159884000Y-85925000D01*
X157697529Y-80490000D02*
X157124000Y-80490000D01*
X155839000Y-81775000D02*
X157124000Y-80490000D01*
%TO.N,DEBUG_UART6_TX*%
X133219000Y-84400000D02*
X129254000Y-88365000D01*
X129254000Y-88365000D02*
X129254000Y-99255000D01*
X129254000Y-99255000D02*
X126959000Y-101550000D01*
X136409000Y-84400000D02*
X133219000Y-84400000D01*
X136524000Y-84285000D02*
X136409000Y-84400000D01*
%TO.N,SPI_SCK*%
X144744000Y-94075000D02*
X145394000Y-94725000D01*
X157124000Y-83090000D02*
X157124000Y-83030000D01*
X144232526Y-93674997D02*
X144632529Y-94075000D01*
X145394000Y-94725000D02*
X147399686Y-94725000D01*
X147399686Y-94725000D02*
X152059000Y-90065686D01*
X144184000Y-93674997D02*
X144232526Y-93674997D01*
X152059000Y-85450000D02*
X153159000Y-84350000D01*
X159059000Y-85025000D02*
X157124000Y-83090000D01*
X153159000Y-84350000D02*
X155804000Y-84350000D01*
X144632529Y-94075000D02*
X144744000Y-94075000D01*
X152059000Y-90065686D02*
X152059000Y-85450000D01*
X155804000Y-84350000D02*
X157124000Y-83030000D01*
%TO.N,DEBUG_UART6_RX*%
X129654000Y-88530686D02*
X129654000Y-101394999D01*
X135789000Y-84800000D02*
X133384686Y-84800000D01*
X133384686Y-84800000D02*
X129654000Y-88530686D01*
X129654000Y-101394999D02*
X126959000Y-104089999D01*
X136254000Y-85265000D02*
X135789000Y-84800000D01*
%TO.N,SPI_MOSI*%
X160459000Y-82125000D02*
X157584000Y-79250000D01*
X157584000Y-79250000D02*
X155824000Y-79250000D01*
X138158265Y-89845000D02*
X138158265Y-88950735D01*
X138584000Y-88525000D02*
X139734000Y-88525000D01*
X160459000Y-87150000D02*
X160459000Y-82125000D01*
X154584000Y-80490000D02*
X152694000Y-80490000D01*
X139734000Y-88525000D02*
X147769000Y-80490000D01*
X161759000Y-88450000D02*
X160459000Y-87150000D01*
X138158265Y-88950735D02*
X138584000Y-88525000D01*
X155824000Y-79250000D02*
X154584000Y-80490000D01*
X147769000Y-80490000D02*
X154584000Y-80490000D01*
%TO.N,PWM_CH2_2*%
X136564655Y-76499934D02*
X136564655Y-75614345D01*
X134164000Y-78265000D02*
X127314000Y-85115000D01*
X136564655Y-75614345D02*
X147454000Y-64725000D01*
X147454000Y-64725000D02*
X161404000Y-64725000D01*
%TO.N,PWM_CH2_3*%
X139374000Y-106495000D02*
X139374000Y-111175000D01*
X132084000Y-92546372D02*
X132084000Y-96365000D01*
X133178939Y-91451433D02*
X132084000Y-92546372D01*
X139374000Y-111175000D02*
X134752949Y-115796051D01*
X138947567Y-91451433D02*
X133178939Y-91451433D01*
X134752949Y-115796051D02*
X132955051Y-115796051D01*
X132084000Y-96365000D02*
X139644000Y-103925000D01*
%TO.N,NSS*%
X147565372Y-95125000D02*
X152809000Y-89881372D01*
X144748314Y-94645000D02*
X145228314Y-95125000D01*
X152809000Y-89881372D02*
X152809000Y-86600000D01*
X145228314Y-95125000D02*
X147565372Y-95125000D01*
X143814000Y-94645000D02*
X144748314Y-94645000D01*
%TO.N,PWM_CH2_4*%
X153474000Y-110125000D02*
X175274000Y-110125000D01*
X150474000Y-102965000D02*
X149514000Y-102965000D01*
X179102705Y-113953705D02*
X179102705Y-115775772D01*
X143064000Y-94075000D02*
X143439896Y-93699104D01*
X175274000Y-110125000D02*
X179102705Y-113953705D01*
X143439896Y-93699104D02*
X143439896Y-93095000D01*
X149514000Y-102965000D02*
X143064000Y-96515000D01*
X143064000Y-96515000D02*
X143064000Y-94075000D01*
%TD*%
%TA.AperFunction,Conductor*%
%TO.N,GND*%
G36*
X164785942Y-64555185D02*
G01*
X164806584Y-64571819D01*
X172870190Y-72635425D01*
X172870200Y-72635436D01*
X172874530Y-72639766D01*
X172874531Y-72639767D01*
X172986335Y-72751571D01*
X172986337Y-72751572D01*
X172986341Y-72751575D01*
X173073967Y-72802165D01*
X173123267Y-72830628D01*
X173231306Y-72859577D01*
X173231305Y-72859577D01*
X173247661Y-72863959D01*
X173275993Y-72871551D01*
X173275994Y-72871551D01*
X175190960Y-72871551D01*
X175257999Y-72891236D01*
X175303343Y-72943148D01*
X175306016Y-72948881D01*
X175441556Y-73142452D01*
X175608650Y-73309546D01*
X175660072Y-73345552D01*
X175802216Y-73445083D01*
X175802218Y-73445084D01*
X175802221Y-73445086D01*
X176016388Y-73544954D01*
X176244643Y-73606114D01*
X176432969Y-73622590D01*
X176480050Y-73626710D01*
X176480051Y-73626710D01*
X176480052Y-73626710D01*
X176519285Y-73623277D01*
X176715459Y-73606114D01*
X176816150Y-73579134D01*
X176886000Y-73580797D01*
X176943862Y-73619960D01*
X176971366Y-73684188D01*
X176968018Y-73731001D01*
X176941041Y-73831685D01*
X176941038Y-73831698D01*
X176920443Y-74067101D01*
X176920443Y-74067102D01*
X176941038Y-74302505D01*
X176941040Y-74302515D01*
X177002196Y-74530757D01*
X177002198Y-74530761D01*
X177002199Y-74530765D01*
X177102067Y-74744932D01*
X177102069Y-74744936D01*
X177144830Y-74806004D01*
X177237607Y-74938503D01*
X177404701Y-75105597D01*
X177469682Y-75151097D01*
X177598267Y-75241134D01*
X177598269Y-75241135D01*
X177598272Y-75241137D01*
X177812439Y-75341005D01*
X178040694Y-75402165D01*
X178229020Y-75418641D01*
X178276101Y-75422761D01*
X178276102Y-75422761D01*
X178276103Y-75422761D01*
X178315336Y-75419328D01*
X178511510Y-75402165D01*
X178739765Y-75341005D01*
X178953932Y-75241137D01*
X179147503Y-75105597D01*
X179314597Y-74938503D01*
X179450137Y-74744932D01*
X179550005Y-74530765D01*
X179611165Y-74302510D01*
X179631761Y-74067102D01*
X179611165Y-73831694D01*
X179606660Y-73814881D01*
X179608321Y-73745034D01*
X179638751Y-73695108D01*
X180504108Y-72829751D01*
X180565429Y-72796268D01*
X180623880Y-72797659D01*
X180640694Y-72802165D01*
X180829020Y-72818641D01*
X180876101Y-72822761D01*
X180876102Y-72822761D01*
X180876103Y-72822761D01*
X180915336Y-72819328D01*
X181111510Y-72802165D01*
X181339765Y-72741005D01*
X181553932Y-72641137D01*
X181747503Y-72505597D01*
X181914597Y-72338503D01*
X182050137Y-72144932D01*
X182150005Y-71930765D01*
X182211165Y-71702510D01*
X182231761Y-71467102D01*
X182211165Y-71231694D01*
X182150005Y-71003439D01*
X182050137Y-70789273D01*
X182045050Y-70782007D01*
X181914596Y-70595699D01*
X181747506Y-70428610D01*
X181747503Y-70428607D01*
X181735472Y-70420183D01*
X181637375Y-70351493D01*
X181593751Y-70296916D01*
X181584500Y-70249919D01*
X181584500Y-70093096D01*
X181604185Y-70026057D01*
X181656989Y-69980302D01*
X181726147Y-69970358D01*
X181789703Y-69999383D01*
X181801195Y-70010734D01*
X182059414Y-70301442D01*
X182062090Y-70304559D01*
X182514270Y-70849650D01*
X182803490Y-71198297D01*
X182806109Y-71201566D01*
X183516847Y-72119764D01*
X183519355Y-72123119D01*
X184076246Y-72895083D01*
X184148293Y-72994956D01*
X184198701Y-73064831D01*
X184201092Y-73068266D01*
X184813595Y-73980766D01*
X184848241Y-74032380D01*
X184850508Y-74035885D01*
X185413115Y-74938504D01*
X185464741Y-75021329D01*
X185466887Y-75024906D01*
X186025054Y-75991679D01*
X186047468Y-76030501D01*
X186049499Y-76034160D01*
X186592233Y-77052128D01*
X186595795Y-77058808D01*
X186597695Y-77062522D01*
X186939855Y-77760061D01*
X187109073Y-78105035D01*
X187110854Y-78108826D01*
X187586734Y-79168027D01*
X187588385Y-79171876D01*
X188028204Y-80246503D01*
X188029725Y-80250406D01*
X188433006Y-81339301D01*
X188434394Y-81343253D01*
X188705420Y-82158597D01*
X188778461Y-82378334D01*
X188800664Y-82445127D01*
X188801918Y-82449124D01*
X189130764Y-83562742D01*
X189131883Y-83566778D01*
X189422939Y-84690902D01*
X189423920Y-84694974D01*
X189676837Y-85828262D01*
X189677680Y-85832365D01*
X189892178Y-86973547D01*
X189892882Y-86977676D01*
X190068716Y-88125457D01*
X190069280Y-88129607D01*
X190206246Y-89282655D01*
X190206670Y-89286823D01*
X190304615Y-90443854D01*
X190304898Y-90448032D01*
X190363712Y-91607731D01*
X190363853Y-91611918D01*
X190383464Y-92772906D01*
X190383464Y-92777094D01*
X190363853Y-93938081D01*
X190363712Y-93942268D01*
X190304898Y-95101967D01*
X190304615Y-95106145D01*
X190206670Y-96263176D01*
X190206246Y-96267344D01*
X190069280Y-97420392D01*
X190068716Y-97424542D01*
X189892882Y-98572323D01*
X189892178Y-98576452D01*
X189677680Y-99717634D01*
X189676837Y-99721737D01*
X189423920Y-100855025D01*
X189422939Y-100859097D01*
X189131883Y-101983221D01*
X189130764Y-101987257D01*
X188801918Y-103100875D01*
X188800664Y-103104872D01*
X188434394Y-104206746D01*
X188433006Y-104210698D01*
X188029725Y-105299593D01*
X188028204Y-105303496D01*
X187588385Y-106378123D01*
X187586734Y-106381972D01*
X187110854Y-107441173D01*
X187109073Y-107444964D01*
X186597703Y-108487462D01*
X186595795Y-108491191D01*
X186049501Y-109515836D01*
X186047468Y-109519498D01*
X185466896Y-110525078D01*
X185464741Y-110528670D01*
X184850516Y-111514103D01*
X184848241Y-111517619D01*
X184201094Y-112481730D01*
X184198701Y-112485168D01*
X183519355Y-113426880D01*
X183516847Y-113430235D01*
X182806109Y-114348433D01*
X182803490Y-114351702D01*
X182062102Y-115245426D01*
X182059373Y-115248604D01*
X181288258Y-116116737D01*
X181285424Y-116119821D01*
X180485433Y-116961412D01*
X180482497Y-116964399D01*
X179654493Y-117778534D01*
X179651457Y-117781419D01*
X178796474Y-118567083D01*
X178793342Y-118569865D01*
X177912288Y-119326225D01*
X177909064Y-119328899D01*
X177002990Y-120055053D01*
X176999678Y-120057617D01*
X176069584Y-120752763D01*
X176066187Y-120755214D01*
X175113136Y-121418557D01*
X175109659Y-121420891D01*
X174134756Y-122051662D01*
X174131201Y-122053878D01*
X173135544Y-122651366D01*
X173131917Y-122653460D01*
X172116654Y-123216978D01*
X172112957Y-123218949D01*
X171079233Y-123747858D01*
X171075473Y-123749702D01*
X170024499Y-124243386D01*
X170020678Y-124245103D01*
X168953597Y-124703023D01*
X168949721Y-124704609D01*
X167867815Y-125126217D01*
X167863887Y-125127672D01*
X166768329Y-125512508D01*
X166764354Y-125513829D01*
X165656441Y-125861439D01*
X165652424Y-125862625D01*
X164533408Y-126172617D01*
X164529353Y-126173667D01*
X163400514Y-126445685D01*
X163396426Y-126446598D01*
X162258989Y-126680347D01*
X162254873Y-126681120D01*
X161110266Y-126876307D01*
X161106125Y-126876942D01*
X159955522Y-127033367D01*
X159951363Y-127033861D01*
X158796144Y-127151336D01*
X158791970Y-127151689D01*
X157633456Y-127230078D01*
X157629273Y-127230290D01*
X156468780Y-127269508D01*
X156464592Y-127269579D01*
X155303408Y-127269579D01*
X155299220Y-127269508D01*
X154138726Y-127230290D01*
X154134543Y-127230078D01*
X152976029Y-127151689D01*
X152971855Y-127151336D01*
X151816636Y-127033861D01*
X151812477Y-127033367D01*
X150661874Y-126876942D01*
X150657733Y-126876307D01*
X149513126Y-126681120D01*
X149509010Y-126680347D01*
X148371573Y-126446598D01*
X148367485Y-126445685D01*
X147238646Y-126173667D01*
X147234591Y-126172617D01*
X146115575Y-125862625D01*
X146111558Y-125861439D01*
X145003645Y-125513829D01*
X144999670Y-125512508D01*
X143904112Y-125127672D01*
X143900184Y-125126217D01*
X142818278Y-124704609D01*
X142814402Y-124703023D01*
X142033987Y-124368121D01*
X141747303Y-124245095D01*
X141743518Y-124243394D01*
X141036985Y-123911508D01*
X140692526Y-123749702D01*
X140688766Y-123747858D01*
X139912714Y-123350788D01*
X139655030Y-123218942D01*
X139651358Y-123216985D01*
X138636075Y-122653455D01*
X138632455Y-122651366D01*
X137636798Y-122053878D01*
X137633243Y-122051662D01*
X137019737Y-121654718D01*
X136658319Y-121420877D01*
X136654885Y-121418571D01*
X135701812Y-120755214D01*
X135698415Y-120752763D01*
X135022700Y-120247738D01*
X134768317Y-120057613D01*
X134765009Y-120055053D01*
X134618338Y-119937507D01*
X133858933Y-119328897D01*
X133855711Y-119326225D01*
X133846521Y-119318336D01*
X133390859Y-118927163D01*
X132974657Y-118569865D01*
X132971525Y-118567083D01*
X132393017Y-118035478D01*
X132116537Y-117781414D01*
X132113506Y-117778534D01*
X131958312Y-117625939D01*
X131285479Y-116964376D01*
X131282589Y-116961435D01*
X130482575Y-116119821D01*
X130479741Y-116116737D01*
X130385985Y-116011185D01*
X129708610Y-115248585D01*
X129705913Y-115245444D01*
X128964509Y-114351702D01*
X128961890Y-114348433D01*
X128251152Y-113430235D01*
X128248644Y-113426880D01*
X127970698Y-113041590D01*
X127569287Y-112485153D01*
X127566905Y-112481730D01*
X127519125Y-112410548D01*
X126919741Y-111517593D01*
X126917500Y-111514129D01*
X126303238Y-110528637D01*
X126301123Y-110525111D01*
X125720518Y-109519475D01*
X125718511Y-109515860D01*
X125172184Y-108491153D01*
X125170315Y-108487500D01*
X124658911Y-107444933D01*
X124657160Y-107441205D01*
X124181264Y-106381969D01*
X124179614Y-106378123D01*
X124147640Y-106300000D01*
X123739783Y-105303466D01*
X123738286Y-105299624D01*
X123334990Y-104210689D01*
X123333605Y-104206746D01*
X123319895Y-104165500D01*
X122967321Y-103104828D01*
X122966089Y-103100903D01*
X122637230Y-101987242D01*
X122636124Y-101983252D01*
X122345056Y-100859081D01*
X122344079Y-100855025D01*
X122325742Y-100772861D01*
X122091161Y-99721734D01*
X122090319Y-99717634D01*
X121986728Y-99166505D01*
X121875818Y-98576437D01*
X121875117Y-98572323D01*
X121864182Y-98500945D01*
X121699281Y-97424530D01*
X121698719Y-97420392D01*
X121561747Y-96267290D01*
X121561333Y-96263225D01*
X121463383Y-95106139D01*
X121463101Y-95101967D01*
X121462166Y-95083533D01*
X121404286Y-93942248D01*
X121404146Y-93938081D01*
X121403597Y-93905565D01*
X121384535Y-92777072D01*
X121384535Y-92772906D01*
X121404146Y-91611895D01*
X121404287Y-91607731D01*
X121405742Y-91579057D01*
X121463102Y-90448016D01*
X121463384Y-90443854D01*
X121465862Y-90414586D01*
X121561334Y-89286768D01*
X121561746Y-89282715D01*
X121698721Y-88129587D01*
X121699283Y-88125457D01*
X121703304Y-88099211D01*
X121875121Y-86977651D01*
X121875821Y-86973547D01*
X121876942Y-86967587D01*
X122090321Y-85832351D01*
X122091162Y-85828262D01*
X122092595Y-85821843D01*
X122344085Y-84694945D01*
X122345052Y-84690931D01*
X122636128Y-83566732D01*
X122637226Y-83562773D01*
X122966094Y-82449079D01*
X122967315Y-82445188D01*
X123333614Y-81343225D01*
X123334983Y-81339328D01*
X123738293Y-80250355D01*
X123739775Y-80246553D01*
X124179623Y-79171852D01*
X124181265Y-79168027D01*
X124657170Y-78108771D01*
X124658900Y-78105089D01*
X125170327Y-77062475D01*
X125172172Y-77058870D01*
X125718524Y-76034114D01*
X125720503Y-76030550D01*
X126301138Y-75024861D01*
X126303222Y-75021388D01*
X126917517Y-74035843D01*
X126919723Y-74032433D01*
X127566934Y-73068226D01*
X127569268Y-73064874D01*
X128248660Y-72123097D01*
X128251135Y-72119785D01*
X128961912Y-71201537D01*
X128964486Y-71198324D01*
X129705937Y-70304525D01*
X129708584Y-70301443D01*
X130479767Y-69433232D01*
X130482548Y-69430206D01*
X130619626Y-69286000D01*
X130680081Y-69250973D01*
X130749877Y-69254191D01*
X130806853Y-69294632D01*
X130832920Y-69359457D01*
X130833500Y-69371433D01*
X130833500Y-69717425D01*
X130813815Y-69784464D01*
X130780625Y-69818999D01*
X130695493Y-69878610D01*
X130528403Y-70045699D01*
X130392863Y-70239271D01*
X130392862Y-70239273D01*
X130322146Y-70390925D01*
X130293065Y-70453290D01*
X130292996Y-70453437D01*
X130292992Y-70453446D01*
X130231836Y-70681688D01*
X130231834Y-70681698D01*
X130211239Y-70917101D01*
X130211239Y-70917102D01*
X130231834Y-71152505D01*
X130231836Y-71152515D01*
X130292992Y-71380757D01*
X130292994Y-71380761D01*
X130292995Y-71380765D01*
X130355336Y-71514455D01*
X130392863Y-71594932D01*
X130392865Y-71594936D01*
X130501179Y-71749623D01*
X130528403Y-71788503D01*
X130695497Y-71955597D01*
X130792282Y-72023367D01*
X130889063Y-72091134D01*
X130889065Y-72091135D01*
X130889068Y-72091137D01*
X131103235Y-72191005D01*
X131331490Y-72252165D01*
X131519816Y-72268641D01*
X131566897Y-72272761D01*
X131566898Y-72272761D01*
X131566899Y-72272761D01*
X131606132Y-72269328D01*
X131802306Y-72252165D01*
X131819114Y-72247661D01*
X131888962Y-72249320D01*
X131938892Y-72279753D01*
X132804246Y-73145107D01*
X132837731Y-73206430D01*
X132836340Y-73264880D01*
X132831837Y-73281686D01*
X132831834Y-73281699D01*
X132811239Y-73517101D01*
X132811239Y-73517102D01*
X132831834Y-73752505D01*
X132831836Y-73752515D01*
X132892992Y-73980757D01*
X132892994Y-73980761D01*
X132892995Y-73980765D01*
X132933255Y-74067102D01*
X132992863Y-74194932D01*
X132992865Y-74194936D01*
X133068186Y-74302505D01*
X133128403Y-74388503D01*
X133295497Y-74555597D01*
X133353767Y-74596398D01*
X133489063Y-74691134D01*
X133489065Y-74691135D01*
X133489068Y-74691137D01*
X133703235Y-74791005D01*
X133703241Y-74791006D01*
X133703242Y-74791007D01*
X133712595Y-74793513D01*
X133931490Y-74852165D01*
X134119816Y-74868641D01*
X134166897Y-74872761D01*
X134166898Y-74872761D01*
X134166899Y-74872761D01*
X134206132Y-74869328D01*
X134402306Y-74852165D01*
X134627407Y-74791850D01*
X134697257Y-74793513D01*
X134755119Y-74832676D01*
X134782623Y-74896904D01*
X134783500Y-74911625D01*
X134783500Y-77484488D01*
X134763815Y-77551527D01*
X134711011Y-77597282D01*
X134641853Y-77607226D01*
X134593528Y-77589482D01*
X134513523Y-77539211D01*
X134343254Y-77479631D01*
X134343249Y-77479630D01*
X134164004Y-77459435D01*
X134163996Y-77459435D01*
X133984750Y-77479630D01*
X133984745Y-77479631D01*
X133814476Y-77539211D01*
X133661737Y-77635184D01*
X133534184Y-77762737D01*
X133438210Y-77915478D01*
X133378630Y-78085750D01*
X133368837Y-78172668D01*
X133341770Y-78237082D01*
X133333298Y-78246465D01*
X127295465Y-84284298D01*
X127234142Y-84317783D01*
X127221668Y-84319837D01*
X127134750Y-84329630D01*
X126964478Y-84389210D01*
X126811737Y-84485184D01*
X126684184Y-84612737D01*
X126588211Y-84765476D01*
X126528631Y-84935745D01*
X126528630Y-84935750D01*
X126508435Y-85114996D01*
X126508435Y-85115003D01*
X126528630Y-85294249D01*
X126528631Y-85294254D01*
X126588211Y-85464523D01*
X126653288Y-85568091D01*
X126684184Y-85617262D01*
X126811738Y-85744816D01*
X126902080Y-85801582D01*
X126959652Y-85837757D01*
X126964478Y-85840789D01*
X127118878Y-85894816D01*
X127134745Y-85900368D01*
X127134750Y-85900369D01*
X127313996Y-85920565D01*
X127314000Y-85920565D01*
X127314004Y-85920565D01*
X127493249Y-85900369D01*
X127493252Y-85900368D01*
X127493255Y-85900368D01*
X127663522Y-85840789D01*
X127668348Y-85837757D01*
X127721205Y-85804543D01*
X127816262Y-85744816D01*
X127816263Y-85744814D01*
X127818526Y-85743393D01*
X127885763Y-85724392D01*
X127952598Y-85744759D01*
X127997813Y-85798027D01*
X128008499Y-85848386D01*
X128008499Y-85989046D01*
X128008500Y-85989059D01*
X128008500Y-88164902D01*
X127988815Y-88231941D01*
X127972181Y-88252583D01*
X125146180Y-91078584D01*
X125084857Y-91112069D01*
X125015165Y-91107085D01*
X124959232Y-91065213D01*
X124934815Y-90999749D01*
X124934499Y-90990903D01*
X124934499Y-90052129D01*
X124934498Y-90052123D01*
X124934497Y-90052116D01*
X124928091Y-89992517D01*
X124920502Y-89972171D01*
X124877797Y-89857671D01*
X124877793Y-89857664D01*
X124791547Y-89742455D01*
X124791544Y-89742452D01*
X124676335Y-89656206D01*
X124676328Y-89656202D01*
X124541482Y-89605908D01*
X124541483Y-89605908D01*
X124481883Y-89599501D01*
X124481881Y-89599500D01*
X124481873Y-89599500D01*
X124481864Y-89599500D01*
X122686129Y-89599500D01*
X122686123Y-89599501D01*
X122626516Y-89605908D01*
X122491671Y-89656202D01*
X122491664Y-89656206D01*
X122376455Y-89742452D01*
X122376452Y-89742455D01*
X122290206Y-89857664D01*
X122290202Y-89857671D01*
X122239908Y-89992517D01*
X122234327Y-90044435D01*
X122233501Y-90052123D01*
X122233500Y-90052135D01*
X122233500Y-91847870D01*
X122233501Y-91847876D01*
X122239908Y-91907483D01*
X122290202Y-92042328D01*
X122290206Y-92042335D01*
X122376452Y-92157544D01*
X122376455Y-92157547D01*
X122491664Y-92243793D01*
X122491671Y-92243797D01*
X122623081Y-92292810D01*
X122679015Y-92334681D01*
X122703432Y-92400145D01*
X122688580Y-92468418D01*
X122667430Y-92496673D01*
X122545503Y-92618600D01*
X122409965Y-92812169D01*
X122409964Y-92812171D01*
X122310098Y-93026335D01*
X122310094Y-93026344D01*
X122248938Y-93254586D01*
X122248936Y-93254596D01*
X122228341Y-93489999D01*
X122228341Y-93490000D01*
X122248936Y-93725403D01*
X122248938Y-93725413D01*
X122310094Y-93953655D01*
X122310096Y-93953659D01*
X122310097Y-93953663D01*
X122360336Y-94061401D01*
X122409965Y-94167830D01*
X122409967Y-94167834D01*
X122452443Y-94228495D01*
X122545505Y-94361401D01*
X122712599Y-94528495D01*
X122737112Y-94545659D01*
X122906165Y-94664032D01*
X122906167Y-94664033D01*
X122906170Y-94664035D01*
X123120337Y-94763903D01*
X123348592Y-94825063D01*
X123536918Y-94841539D01*
X123583999Y-94845659D01*
X123584000Y-94845659D01*
X123584001Y-94845659D01*
X123623234Y-94842226D01*
X123819408Y-94825063D01*
X124047663Y-94763903D01*
X124261830Y-94664035D01*
X124455401Y-94528495D01*
X124622495Y-94361401D01*
X124758035Y-94167830D01*
X124857903Y-93953663D01*
X124919063Y-93725408D01*
X124939659Y-93490000D01*
X124919063Y-93254592D01*
X124884671Y-93126239D01*
X124886334Y-93056393D01*
X124916763Y-93006470D01*
X128441821Y-89481413D01*
X128503142Y-89447930D01*
X128572834Y-89452914D01*
X128628767Y-89494786D01*
X128653184Y-89560250D01*
X128653500Y-89569096D01*
X128653500Y-98954902D01*
X128633815Y-99021941D01*
X128617181Y-99042583D01*
X128521180Y-99138584D01*
X128459857Y-99172069D01*
X128390165Y-99167085D01*
X128334232Y-99125213D01*
X128309815Y-99059749D01*
X128309499Y-99050903D01*
X128309499Y-98112129D01*
X128309498Y-98112123D01*
X128309497Y-98112116D01*
X128303091Y-98052517D01*
X128296627Y-98035187D01*
X128252797Y-97917671D01*
X128252793Y-97917664D01*
X128166547Y-97802455D01*
X128166544Y-97802452D01*
X128051335Y-97716206D01*
X128051328Y-97716202D01*
X127916482Y-97665908D01*
X127916483Y-97665908D01*
X127856883Y-97659501D01*
X127856881Y-97659500D01*
X127856873Y-97659500D01*
X127856864Y-97659500D01*
X126061129Y-97659500D01*
X126061123Y-97659501D01*
X126001516Y-97665908D01*
X125866671Y-97716202D01*
X125866664Y-97716206D01*
X125751455Y-97802452D01*
X125751452Y-97802455D01*
X125665206Y-97917664D01*
X125665202Y-97917671D01*
X125614908Y-98052517D01*
X125610679Y-98091856D01*
X125608501Y-98112123D01*
X125608500Y-98112135D01*
X125608500Y-99907870D01*
X125608501Y-99907876D01*
X125614908Y-99967483D01*
X125665202Y-100102328D01*
X125665206Y-100102335D01*
X125751452Y-100217544D01*
X125751455Y-100217547D01*
X125866664Y-100303793D01*
X125866671Y-100303797D01*
X125998081Y-100352810D01*
X126054015Y-100394681D01*
X126078432Y-100460145D01*
X126063580Y-100528418D01*
X126042430Y-100556673D01*
X125920503Y-100678600D01*
X125784965Y-100872169D01*
X125784964Y-100872171D01*
X125685098Y-101086335D01*
X125685094Y-101086344D01*
X125623938Y-101314586D01*
X125623936Y-101314596D01*
X125603341Y-101549999D01*
X125603341Y-101550000D01*
X125623936Y-101785403D01*
X125623938Y-101785413D01*
X125685094Y-102013655D01*
X125685096Y-102013659D01*
X125685097Y-102013663D01*
X125759461Y-102173137D01*
X125784965Y-102227830D01*
X125784967Y-102227834D01*
X125920501Y-102421395D01*
X125920506Y-102421402D01*
X126087597Y-102588493D01*
X126087603Y-102588498D01*
X126273157Y-102718424D01*
X126316782Y-102773001D01*
X126323976Y-102842499D01*
X126292453Y-102904854D01*
X126273158Y-102921574D01*
X126087594Y-103051507D01*
X125920505Y-103218596D01*
X125784965Y-103412168D01*
X125784964Y-103412170D01*
X125685098Y-103626334D01*
X125685094Y-103626343D01*
X125623938Y-103854585D01*
X125623936Y-103854595D01*
X125603341Y-104089998D01*
X125603341Y-104089999D01*
X125623936Y-104325402D01*
X125623938Y-104325412D01*
X125685094Y-104553654D01*
X125685096Y-104553658D01*
X125685097Y-104553662D01*
X125746583Y-104685519D01*
X125784965Y-104767829D01*
X125784967Y-104767833D01*
X125920501Y-104961394D01*
X125920506Y-104961401D01*
X126087597Y-105128492D01*
X126087603Y-105128497D01*
X126273595Y-105258730D01*
X126317220Y-105313307D01*
X126324414Y-105382805D01*
X126292891Y-105445160D01*
X126273595Y-105461880D01*
X126087927Y-105591886D01*
X126087920Y-105591891D01*
X125920891Y-105758920D01*
X125920886Y-105758926D01*
X125785400Y-105952420D01*
X125785399Y-105952422D01*
X125685570Y-106166507D01*
X125685567Y-106166513D01*
X125628364Y-106379999D01*
X125628364Y-106380000D01*
X126525988Y-106380000D01*
X126493075Y-106437007D01*
X126459000Y-106564174D01*
X126459000Y-106695826D01*
X126493075Y-106822993D01*
X126525988Y-106880000D01*
X125628364Y-106880000D01*
X125685567Y-107093486D01*
X125685570Y-107093492D01*
X125785399Y-107307578D01*
X125920894Y-107501082D01*
X126087917Y-107668105D01*
X126281421Y-107803600D01*
X126495507Y-107903429D01*
X126495516Y-107903433D01*
X126709000Y-107960634D01*
X126709000Y-107063012D01*
X126766007Y-107095925D01*
X126893174Y-107130000D01*
X127024826Y-107130000D01*
X127151993Y-107095925D01*
X127209000Y-107063012D01*
X127209000Y-107960633D01*
X127422483Y-107903433D01*
X127422492Y-107903429D01*
X127636578Y-107803600D01*
X127830082Y-107668105D01*
X127997105Y-107501082D01*
X128132600Y-107307578D01*
X128232429Y-107093492D01*
X128232432Y-107093486D01*
X128289636Y-106880000D01*
X127392012Y-106880000D01*
X127424925Y-106822993D01*
X127459000Y-106695826D01*
X127459000Y-106564174D01*
X127424925Y-106437007D01*
X127392012Y-106380000D01*
X128289636Y-106380000D01*
X128289635Y-106379999D01*
X128232432Y-106166513D01*
X128232429Y-106166507D01*
X128132600Y-105952422D01*
X128132599Y-105952420D01*
X127997113Y-105758926D01*
X127997108Y-105758920D01*
X127830078Y-105591890D01*
X127644404Y-105461878D01*
X127600779Y-105407301D01*
X127593587Y-105337803D01*
X127625110Y-105275448D01*
X127644399Y-105258733D01*
X127830401Y-105128494D01*
X127997495Y-104961400D01*
X128133035Y-104767829D01*
X128232903Y-104553662D01*
X128294063Y-104325407D01*
X128314659Y-104089999D01*
X128294063Y-103854591D01*
X128259671Y-103726238D01*
X128261334Y-103656392D01*
X128291763Y-103606469D01*
X130134520Y-101763715D01*
X130213577Y-101626783D01*
X130254501Y-101474056D01*
X130254501Y-101315941D01*
X130254501Y-101308346D01*
X130254500Y-101308328D01*
X130254500Y-98185569D01*
X130274185Y-98118530D01*
X130326989Y-98072775D01*
X130396147Y-98062831D01*
X130459703Y-98091856D01*
X130466181Y-98097888D01*
X130522349Y-98154056D01*
X130522355Y-98154061D01*
X130617181Y-98248887D01*
X130650666Y-98310210D01*
X130653500Y-98336568D01*
X130653500Y-104508330D01*
X130653499Y-104508348D01*
X130653499Y-104674054D01*
X130653498Y-104674054D01*
X130694424Y-104826789D01*
X130694425Y-104826790D01*
X130717720Y-104867137D01*
X130717721Y-104867139D01*
X130773475Y-104963709D01*
X130773481Y-104963717D01*
X130892349Y-105082585D01*
X130892355Y-105082590D01*
X132540798Y-106731033D01*
X132574283Y-106792356D01*
X132576337Y-106804830D01*
X132586130Y-106891749D01*
X132645710Y-107062021D01*
X132686240Y-107126524D01*
X132741684Y-107214762D01*
X132869238Y-107342316D01*
X133021978Y-107438289D01*
X133192245Y-107497868D01*
X133192250Y-107497869D01*
X133371496Y-107518065D01*
X133371500Y-107518065D01*
X133371504Y-107518065D01*
X133550749Y-107497869D01*
X133550752Y-107497868D01*
X133550755Y-107497868D01*
X133721022Y-107438289D01*
X133873762Y-107342316D01*
X134001316Y-107214762D01*
X134097289Y-107062022D01*
X134156868Y-106891755D01*
X134156869Y-106891749D01*
X134177065Y-106712503D01*
X134177065Y-106712496D01*
X134156869Y-106533250D01*
X134156868Y-106533245D01*
X134097289Y-106362978D01*
X134001316Y-106210238D01*
X133873762Y-106082684D01*
X133730614Y-105992738D01*
X133721021Y-105986710D01*
X133550749Y-105927130D01*
X133463830Y-105917337D01*
X133399416Y-105890270D01*
X133390033Y-105881798D01*
X131890819Y-104382584D01*
X131857334Y-104321261D01*
X131854500Y-104294903D01*
X131854500Y-99219882D01*
X131874185Y-99152843D01*
X131926989Y-99107088D01*
X131996147Y-99097144D01*
X132059703Y-99126169D01*
X132066181Y-99132201D01*
X135322181Y-102388201D01*
X135355666Y-102449524D01*
X135358500Y-102475882D01*
X135358500Y-110790950D01*
X135338815Y-110857989D01*
X135286011Y-110903744D01*
X135216853Y-110913688D01*
X135153297Y-110884663D01*
X135146819Y-110878631D01*
X134904925Y-110636737D01*
X134904924Y-110636737D01*
X134256517Y-111285144D01*
X134239480Y-111221562D01*
X134173654Y-111107548D01*
X134080562Y-111014456D01*
X133966548Y-110948630D01*
X133902965Y-110931592D01*
X134551372Y-110283184D01*
X134093287Y-109825099D01*
X134046652Y-109787519D01*
X133915873Y-109727793D01*
X133915868Y-109727792D01*
X133773555Y-109707332D01*
X133631241Y-109727792D01*
X133631236Y-109727793D01*
X133500457Y-109787519D01*
X133453817Y-109825103D01*
X132995737Y-110283183D01*
X132995737Y-110283184D01*
X133644145Y-110931592D01*
X133580562Y-110948630D01*
X133466548Y-111014456D01*
X133373456Y-111107548D01*
X133307630Y-111221562D01*
X133290592Y-111285145D01*
X132642184Y-110636737D01*
X132642183Y-110636737D01*
X132184103Y-111094817D01*
X132146519Y-111141457D01*
X132086793Y-111272236D01*
X132086792Y-111272241D01*
X132066332Y-111414555D01*
X132086792Y-111556868D01*
X132086793Y-111556873D01*
X132146519Y-111687652D01*
X132184099Y-111734287D01*
X132642184Y-112192372D01*
X133290592Y-111543964D01*
X133307630Y-111607548D01*
X133373456Y-111721562D01*
X133466548Y-111814654D01*
X133580562Y-111880480D01*
X133644145Y-111897517D01*
X132995737Y-112545924D01*
X132995737Y-112545925D01*
X133453822Y-113004010D01*
X133500457Y-113041590D01*
X133631236Y-113101316D01*
X133631241Y-113101317D01*
X133773555Y-113121777D01*
X133915868Y-113101317D01*
X133915869Y-113101316D01*
X134042722Y-113043384D01*
X134111881Y-113033440D01*
X134175437Y-113062464D01*
X134213212Y-113121242D01*
X134217763Y-113166985D01*
X134213947Y-113210603D01*
X134213947Y-113210606D01*
X134234542Y-113446009D01*
X134234544Y-113446019D01*
X134295700Y-113674261D01*
X134295702Y-113674265D01*
X134295703Y-113674269D01*
X134371776Y-113837407D01*
X134395571Y-113888436D01*
X134395573Y-113888440D01*
X134459490Y-113979722D01*
X134531111Y-114082007D01*
X134698205Y-114249101D01*
X134732475Y-114273097D01*
X134891771Y-114384638D01*
X134891773Y-114384639D01*
X134891776Y-114384641D01*
X135019994Y-114444430D01*
X135072433Y-114490602D01*
X135091585Y-114557796D01*
X135071369Y-114624677D01*
X135055270Y-114644493D01*
X134540533Y-115159232D01*
X134479210Y-115192717D01*
X134452852Y-115195551D01*
X134244142Y-115195551D01*
X134177103Y-115175866D01*
X134131762Y-115123960D01*
X134129088Y-115118226D01*
X134129085Y-115118221D01*
X134114886Y-115097943D01*
X134034003Y-114982429D01*
X133993545Y-114924648D01*
X133826453Y-114757557D01*
X133826446Y-114757552D01*
X133632885Y-114622018D01*
X133632881Y-114622016D01*
X133418714Y-114522148D01*
X133418710Y-114522147D01*
X133418706Y-114522145D01*
X133190464Y-114460989D01*
X133190454Y-114460987D01*
X132955052Y-114440392D01*
X132955049Y-114440392D01*
X132911430Y-114444208D01*
X132842930Y-114430441D01*
X132792747Y-114381826D01*
X132776814Y-114313797D01*
X132787829Y-114269167D01*
X132845761Y-114142314D01*
X132845762Y-114142313D01*
X132866222Y-114000000D01*
X132845762Y-113857686D01*
X132845761Y-113857681D01*
X132786035Y-113726902D01*
X132748455Y-113680267D01*
X132290370Y-113222182D01*
X132290369Y-113222182D01*
X131641962Y-113870589D01*
X131624925Y-113807007D01*
X131559099Y-113692993D01*
X131466007Y-113599901D01*
X131351993Y-113534075D01*
X131288410Y-113517037D01*
X131936817Y-112868629D01*
X131936817Y-112868628D01*
X131478736Y-112410548D01*
X131478732Y-112410544D01*
X131432097Y-112372964D01*
X131301318Y-112313238D01*
X131301313Y-112313237D01*
X131159000Y-112292777D01*
X131016686Y-112313237D01*
X131016681Y-112313238D01*
X130885902Y-112372964D01*
X130839262Y-112410548D01*
X130381182Y-112868628D01*
X130381182Y-112868629D01*
X131029590Y-113517037D01*
X130966007Y-113534075D01*
X130851993Y-113599901D01*
X130758901Y-113692993D01*
X130693075Y-113807007D01*
X130676037Y-113870590D01*
X130027629Y-113222182D01*
X130027628Y-113222182D01*
X129569548Y-113680262D01*
X129531964Y-113726902D01*
X129472238Y-113857681D01*
X129472237Y-113857686D01*
X129451777Y-114000000D01*
X129472237Y-114142313D01*
X129472238Y-114142318D01*
X129531964Y-114273097D01*
X129569544Y-114319732D01*
X130027629Y-114777817D01*
X130676037Y-114129409D01*
X130693075Y-114192993D01*
X130758901Y-114307007D01*
X130851993Y-114400099D01*
X130966007Y-114465925D01*
X131029590Y-114482962D01*
X130381182Y-115131369D01*
X130381182Y-115131370D01*
X130839267Y-115589455D01*
X130885902Y-115627035D01*
X131016681Y-115686761D01*
X131016686Y-115686762D01*
X131159000Y-115707222D01*
X131301313Y-115686762D01*
X131301314Y-115686761D01*
X131428167Y-115628829D01*
X131497326Y-115618885D01*
X131560882Y-115647909D01*
X131598657Y-115706687D01*
X131603208Y-115752430D01*
X131599392Y-115796048D01*
X131599392Y-115796051D01*
X131619987Y-116031454D01*
X131619989Y-116031464D01*
X131681145Y-116259706D01*
X131681147Y-116259710D01*
X131681148Y-116259714D01*
X131745510Y-116397738D01*
X131781016Y-116473881D01*
X131781018Y-116473885D01*
X131866282Y-116595654D01*
X131916556Y-116667452D01*
X132083650Y-116834546D01*
X132177122Y-116899996D01*
X132277216Y-116970083D01*
X132277218Y-116970084D01*
X132277221Y-116970086D01*
X132491388Y-117069954D01*
X132719643Y-117131114D01*
X132907969Y-117147590D01*
X132955050Y-117151710D01*
X132955051Y-117151710D01*
X132955052Y-117151710D01*
X132994285Y-117148277D01*
X133190459Y-117131114D01*
X133291150Y-117104134D01*
X133361000Y-117105797D01*
X133418862Y-117144960D01*
X133446366Y-117209188D01*
X133443018Y-117256001D01*
X133416041Y-117356685D01*
X133416038Y-117356698D01*
X133395443Y-117592101D01*
X133395443Y-117592102D01*
X133416038Y-117827505D01*
X133416040Y-117827515D01*
X133477196Y-118055757D01*
X133477198Y-118055761D01*
X133477199Y-118055765D01*
X133541002Y-118192590D01*
X133577067Y-118269932D01*
X133577069Y-118269936D01*
X133596134Y-118297163D01*
X133712607Y-118463503D01*
X133879701Y-118630597D01*
X133976486Y-118698367D01*
X134073267Y-118766134D01*
X134073269Y-118766135D01*
X134073272Y-118766137D01*
X134287439Y-118866005D01*
X134515694Y-118927165D01*
X134704020Y-118943641D01*
X134751101Y-118947761D01*
X134751102Y-118947761D01*
X134751103Y-118947761D01*
X134790336Y-118944328D01*
X134986510Y-118927165D01*
X135214765Y-118866005D01*
X135428932Y-118766137D01*
X135622503Y-118630597D01*
X135789597Y-118463503D01*
X135925137Y-118269932D01*
X136025005Y-118055765D01*
X136086165Y-117827510D01*
X136106761Y-117592102D01*
X136086165Y-117356694D01*
X136081660Y-117339881D01*
X136083321Y-117270034D01*
X136113751Y-117220108D01*
X136970704Y-116363154D01*
X137032025Y-116329671D01*
X137090476Y-116331062D01*
X137130249Y-116341720D01*
X137318575Y-116358196D01*
X137365656Y-116362316D01*
X137365657Y-116362316D01*
X137365658Y-116362316D01*
X137404891Y-116358883D01*
X137601065Y-116341720D01*
X137829320Y-116280560D01*
X138043487Y-116180692D01*
X138237058Y-116045152D01*
X138295391Y-115986819D01*
X138356714Y-115953334D01*
X138383072Y-115950500D01*
X154135098Y-115950500D01*
X154202137Y-115970185D01*
X154247892Y-116022989D01*
X154257836Y-116092147D01*
X154228811Y-116155703D01*
X154201070Y-116179494D01*
X154056737Y-116270184D01*
X153929184Y-116397737D01*
X153833211Y-116550476D01*
X153773631Y-116720745D01*
X153773630Y-116720750D01*
X153753435Y-116899996D01*
X153753435Y-116900003D01*
X153773630Y-117079249D01*
X153773631Y-117079254D01*
X153833211Y-117249523D01*
X153887812Y-117336419D01*
X153923073Y-117392537D01*
X153929185Y-117402263D01*
X153931445Y-117405097D01*
X153932334Y-117407275D01*
X153932889Y-117408158D01*
X153932734Y-117408255D01*
X153957855Y-117469783D01*
X153958500Y-117482412D01*
X153958500Y-117618330D01*
X153958499Y-117618348D01*
X153958499Y-117784054D01*
X153958498Y-117784054D01*
X153999423Y-117936787D01*
X154003839Y-117944435D01*
X154003841Y-117944437D01*
X154078477Y-118073712D01*
X154078481Y-118073717D01*
X154197349Y-118192585D01*
X154197355Y-118192590D01*
X154363555Y-118358790D01*
X154397040Y-118420113D01*
X154399022Y-118438554D01*
X154399195Y-118438536D01*
X154419522Y-118631941D01*
X154419523Y-118631943D01*
X154477605Y-118810700D01*
X154477610Y-118810712D01*
X154571586Y-118973485D01*
X154571593Y-118973494D01*
X154592784Y-118997030D01*
X154623012Y-119060022D01*
X154614386Y-119129357D01*
X154592784Y-119162970D01*
X154571593Y-119186505D01*
X154571592Y-119186507D01*
X154530825Y-119257117D01*
X154480257Y-119305332D01*
X154437322Y-119318336D01*
X154321444Y-119331392D01*
X154151172Y-119390972D01*
X153998431Y-119486946D01*
X153870878Y-119614499D01*
X153774905Y-119767238D01*
X153715325Y-119937507D01*
X153715324Y-119937512D01*
X153695129Y-120116758D01*
X153695129Y-120116765D01*
X153715324Y-120296011D01*
X153715325Y-120296016D01*
X153774906Y-120466287D01*
X153799957Y-120506156D01*
X153818957Y-120573392D01*
X153798589Y-120640227D01*
X153791922Y-120649425D01*
X153791315Y-120650186D01*
X153695337Y-120802932D01*
X153635757Y-120973201D01*
X153635756Y-120973206D01*
X153615561Y-121152452D01*
X153615561Y-121152459D01*
X153635756Y-121331705D01*
X153635757Y-121331710D01*
X153695337Y-121501979D01*
X153756614Y-121599500D01*
X153791310Y-121654718D01*
X153918864Y-121782272D01*
X154063561Y-121873191D01*
X154085266Y-121890501D01*
X154363555Y-122168790D01*
X154397040Y-122230113D01*
X154399022Y-122248554D01*
X154399195Y-122248536D01*
X154399874Y-122254998D01*
X154399874Y-122255000D01*
X154412414Y-122374317D01*
X154419522Y-122441941D01*
X154419523Y-122441943D01*
X154477605Y-122620700D01*
X154477610Y-122620712D01*
X154571586Y-122783485D01*
X154571593Y-122783494D01*
X154593120Y-122807403D01*
X154623349Y-122870395D01*
X154614723Y-122939730D01*
X154593120Y-122973345D01*
X154572000Y-122996801D01*
X154571996Y-122996806D01*
X154478067Y-123159496D01*
X154478064Y-123159502D01*
X154420015Y-123338162D01*
X154400377Y-123525000D01*
X154420015Y-123711837D01*
X154478064Y-123890497D01*
X154478067Y-123890503D01*
X154545604Y-124007480D01*
X154562077Y-124075380D01*
X154539224Y-124141407D01*
X154507108Y-124172582D01*
X154442580Y-124215698D01*
X154442576Y-124215701D01*
X154338701Y-124319576D01*
X154338698Y-124319580D01*
X154257083Y-124441724D01*
X154257078Y-124441733D01*
X154200861Y-124577455D01*
X154200858Y-124577465D01*
X154172200Y-124721540D01*
X154172200Y-124868459D01*
X154200858Y-125012534D01*
X154200861Y-125012544D01*
X154257078Y-125148266D01*
X154257083Y-125148275D01*
X154338698Y-125270419D01*
X154338701Y-125270423D01*
X154442576Y-125374298D01*
X154442580Y-125374301D01*
X154564724Y-125455916D01*
X154564730Y-125455919D01*
X154564731Y-125455920D01*
X154700458Y-125512140D01*
X154844540Y-125540799D01*
X154844544Y-125540800D01*
X154844545Y-125540800D01*
X154991456Y-125540800D01*
X154991457Y-125540799D01*
X155135542Y-125512140D01*
X155271269Y-125455920D01*
X155393420Y-125374301D01*
X155497301Y-125270420D01*
X155578920Y-125148269D01*
X155635140Y-125012542D01*
X155663800Y-124868455D01*
X155663800Y-124721545D01*
X155635140Y-124577458D01*
X155630497Y-124566249D01*
X155603085Y-124500069D01*
X155595616Y-124430600D01*
X155626891Y-124368121D01*
X155667211Y-124339337D01*
X155731264Y-124310818D01*
X155033127Y-123612681D01*
X154999642Y-123551358D01*
X155004626Y-123481666D01*
X155033128Y-123437318D01*
X155087320Y-123383127D01*
X155148643Y-123349643D01*
X155218335Y-123354628D01*
X155274268Y-123396499D01*
X155298684Y-123461964D01*
X155299000Y-123470809D01*
X155299000Y-123525000D01*
X155601191Y-123525000D01*
X155668230Y-123544685D01*
X155688872Y-123561319D01*
X155934000Y-123806446D01*
X156179128Y-123561319D01*
X156240451Y-123527834D01*
X156266809Y-123525000D01*
X156569000Y-123525000D01*
X156569000Y-123470809D01*
X156588685Y-123403770D01*
X156641489Y-123358015D01*
X156710647Y-123348071D01*
X156774203Y-123377096D01*
X156780681Y-123383128D01*
X156834871Y-123437318D01*
X156868356Y-123498641D01*
X156863372Y-123568333D01*
X156834871Y-123612680D01*
X156136733Y-124310818D01*
X156200788Y-124339337D01*
X156254025Y-124384587D01*
X156274347Y-124451436D01*
X156264915Y-124500068D01*
X156232861Y-124577455D01*
X156232858Y-124577465D01*
X156204200Y-124721540D01*
X156204200Y-124868459D01*
X156232858Y-125012534D01*
X156232861Y-125012544D01*
X156289078Y-125148266D01*
X156289083Y-125148275D01*
X156370698Y-125270419D01*
X156370701Y-125270423D01*
X156474576Y-125374298D01*
X156474580Y-125374301D01*
X156596724Y-125455916D01*
X156596730Y-125455919D01*
X156596731Y-125455920D01*
X156732458Y-125512140D01*
X156876540Y-125540799D01*
X156876544Y-125540800D01*
X156876545Y-125540800D01*
X157023456Y-125540800D01*
X157023457Y-125540799D01*
X157167542Y-125512140D01*
X157303269Y-125455920D01*
X157425420Y-125374301D01*
X157529301Y-125270420D01*
X157610920Y-125148269D01*
X157667140Y-125012542D01*
X157695800Y-124868455D01*
X157695800Y-124721545D01*
X157667140Y-124577458D01*
X157610920Y-124441731D01*
X157610919Y-124441730D01*
X157610916Y-124441724D01*
X157529301Y-124319580D01*
X157529298Y-124319576D01*
X157425423Y-124215701D01*
X157425415Y-124215695D01*
X157360892Y-124172582D01*
X157316086Y-124118970D01*
X157307379Y-124049645D01*
X157322395Y-124007479D01*
X157389934Y-123890498D01*
X157389935Y-123890497D01*
X157447984Y-123711837D01*
X157467623Y-123524997D01*
X157467623Y-123519653D01*
X157487308Y-123452614D01*
X157540112Y-123406859D01*
X157609270Y-123396915D01*
X157632579Y-123402612D01*
X157654740Y-123410367D01*
X157654750Y-123410369D01*
X157833996Y-123430565D01*
X157834000Y-123430565D01*
X157834004Y-123430565D01*
X158013249Y-123410369D01*
X158013252Y-123410368D01*
X158013255Y-123410368D01*
X158183522Y-123350789D01*
X158336262Y-123254816D01*
X158463816Y-123127262D01*
X158559789Y-122974522D01*
X158619368Y-122804255D01*
X158619369Y-122804249D01*
X158639565Y-122625003D01*
X158639565Y-122624996D01*
X158619369Y-122445750D01*
X158619368Y-122445745D01*
X158559788Y-122275476D01*
X158463815Y-122122737D01*
X158336262Y-121995184D01*
X158183521Y-121899210D01*
X158013249Y-121839630D01*
X157951914Y-121832720D01*
X157887500Y-121805654D01*
X157847945Y-121748059D01*
X157845807Y-121678222D01*
X157881765Y-121618316D01*
X157944403Y-121587360D01*
X157965797Y-121585500D01*
X159962331Y-121585500D01*
X159962347Y-121585501D01*
X159969943Y-121585501D01*
X160128056Y-121585501D01*
X160128057Y-121585501D01*
X160230204Y-121558130D01*
X160276184Y-121554684D01*
X160284000Y-121555565D01*
X160404351Y-121542004D01*
X160463249Y-121535369D01*
X160463252Y-121535368D01*
X160463255Y-121535368D01*
X160633522Y-121475789D01*
X160786262Y-121379816D01*
X160913816Y-121252262D01*
X161009789Y-121099522D01*
X161069368Y-120929255D01*
X161089565Y-120750000D01*
X161069666Y-120573392D01*
X161069369Y-120570750D01*
X161069368Y-120570745D01*
X161046767Y-120506156D01*
X161009789Y-120400478D01*
X160999749Y-120384500D01*
X160913815Y-120247737D01*
X160786262Y-120120184D01*
X160633523Y-120024211D01*
X160463254Y-119964631D01*
X160463249Y-119964630D01*
X160284004Y-119944435D01*
X160283996Y-119944435D01*
X160104750Y-119964630D01*
X160104745Y-119964631D01*
X159934476Y-120024211D01*
X159781737Y-120120184D01*
X159654184Y-120247737D01*
X159604712Y-120326472D01*
X159552377Y-120372763D01*
X159499718Y-120384500D01*
X157429772Y-120384500D01*
X157362733Y-120364815D01*
X157316978Y-120312011D01*
X157307034Y-120242853D01*
X157322384Y-120198501D01*
X157322626Y-120198081D01*
X157390392Y-120080707D01*
X157448478Y-119901939D01*
X157468126Y-119715000D01*
X157468125Y-119714998D01*
X157468805Y-119708536D01*
X157470406Y-119708704D01*
X157487811Y-119649431D01*
X157504444Y-119628790D01*
X157518735Y-119614499D01*
X157552534Y-119580699D01*
X157613855Y-119547215D01*
X157626311Y-119545163D01*
X157713255Y-119535368D01*
X157883522Y-119475789D01*
X158036262Y-119379816D01*
X158163816Y-119252262D01*
X158259789Y-119099522D01*
X158319368Y-118929255D01*
X158319568Y-118927482D01*
X158339565Y-118750003D01*
X158339565Y-118749996D01*
X158319369Y-118570750D01*
X158319368Y-118570745D01*
X158273106Y-118438536D01*
X158259789Y-118400478D01*
X158163816Y-118247738D01*
X158036262Y-118120184D01*
X157883523Y-118024211D01*
X157713254Y-117964631D01*
X157713249Y-117964630D01*
X157534004Y-117944435D01*
X157533996Y-117944435D01*
X157404487Y-117959026D01*
X157335665Y-117946971D01*
X157298454Y-117918778D01*
X157170633Y-117776819D01*
X157170631Y-117776817D01*
X157018567Y-117666336D01*
X157018564Y-117666334D01*
X157018563Y-117666334D01*
X156972820Y-117645968D01*
X156846850Y-117589881D01*
X156846842Y-117589879D01*
X156737686Y-117566678D01*
X156676204Y-117533486D01*
X156642427Y-117472323D01*
X156647079Y-117402609D01*
X156648883Y-117397988D01*
X156651140Y-117392542D01*
X156679800Y-117248455D01*
X156679800Y-117101545D01*
X156651140Y-116957458D01*
X156594920Y-116821731D01*
X156594919Y-116821730D01*
X156594916Y-116821724D01*
X156513301Y-116699580D01*
X156513298Y-116699576D01*
X156409423Y-116595701D01*
X156409419Y-116595698D01*
X156287275Y-116514083D01*
X156287266Y-116514078D01*
X156151544Y-116457861D01*
X156151545Y-116457861D01*
X156151542Y-116457860D01*
X156151538Y-116457859D01*
X156151534Y-116457858D01*
X156007459Y-116429200D01*
X156007455Y-116429200D01*
X155860545Y-116429200D01*
X155860540Y-116429200D01*
X155716465Y-116457858D01*
X155716455Y-116457861D01*
X155580733Y-116514078D01*
X155580726Y-116514082D01*
X155462225Y-116593262D01*
X155395548Y-116614139D01*
X155328168Y-116595654D01*
X155288341Y-116556131D01*
X155261920Y-116514082D01*
X155188816Y-116397738D01*
X155061262Y-116270184D01*
X155015238Y-116241265D01*
X154916930Y-116179494D01*
X154870639Y-116127159D01*
X154859991Y-116058105D01*
X154888366Y-115994257D01*
X154946756Y-115955885D01*
X154982902Y-115950500D01*
X173727861Y-115950500D01*
X173794900Y-115970185D01*
X173815542Y-115986819D01*
X173849647Y-116020924D01*
X173902747Y-116058105D01*
X174043213Y-116156461D01*
X174043215Y-116156462D01*
X174043218Y-116156464D01*
X174257385Y-116256332D01*
X174257391Y-116256333D01*
X174257392Y-116256334D01*
X174297524Y-116267087D01*
X174485640Y-116317492D01*
X174640754Y-116331063D01*
X174721047Y-116338088D01*
X174721048Y-116338088D01*
X174721049Y-116338088D01*
X174737362Y-116336660D01*
X174956456Y-116317492D01*
X174970278Y-116313788D01*
X175040126Y-116315449D01*
X175090055Y-116345881D01*
X175944002Y-117199828D01*
X175977487Y-117261151D01*
X175976096Y-117319601D01*
X175971593Y-117336407D01*
X175971590Y-117336420D01*
X175950995Y-117571822D01*
X175950995Y-117571823D01*
X175971590Y-117807226D01*
X175971592Y-117807236D01*
X176032748Y-118035478D01*
X176032750Y-118035482D01*
X176032751Y-118035486D01*
X176102713Y-118185520D01*
X176132619Y-118249653D01*
X176132621Y-118249657D01*
X176238228Y-118400478D01*
X176268159Y-118443224D01*
X176435253Y-118610318D01*
X176464219Y-118630600D01*
X176628819Y-118745855D01*
X176628821Y-118745856D01*
X176628824Y-118745858D01*
X176842991Y-118845726D01*
X177071246Y-118906886D01*
X177259572Y-118923362D01*
X177306653Y-118927482D01*
X177306654Y-118927482D01*
X177306655Y-118927482D01*
X177345888Y-118924049D01*
X177542062Y-118906886D01*
X177770317Y-118845726D01*
X177984484Y-118745858D01*
X178178055Y-118610318D01*
X178345149Y-118443224D01*
X178480689Y-118249653D01*
X178580557Y-118035486D01*
X178641717Y-117807231D01*
X178662313Y-117571823D01*
X178641717Y-117336415D01*
X178614737Y-117235723D01*
X178616400Y-117165873D01*
X178655563Y-117108011D01*
X178719791Y-117080507D01*
X178766605Y-117083855D01*
X178867297Y-117110835D01*
X179055623Y-117127311D01*
X179102704Y-117131431D01*
X179102705Y-117131431D01*
X179102706Y-117131431D01*
X179141939Y-117127998D01*
X179338113Y-117110835D01*
X179566368Y-117049675D01*
X179780535Y-116949807D01*
X179974106Y-116814267D01*
X180141200Y-116647173D01*
X180276740Y-116453602D01*
X180376608Y-116239435D01*
X180437768Y-116011180D01*
X180458364Y-115775772D01*
X180454547Y-115732150D01*
X180468313Y-115663653D01*
X180516927Y-115613469D01*
X180584955Y-115597535D01*
X180629587Y-115608550D01*
X180756438Y-115666482D01*
X180756442Y-115666483D01*
X180898756Y-115686943D01*
X181041069Y-115666483D01*
X181041074Y-115666482D01*
X181171853Y-115606756D01*
X181218488Y-115569176D01*
X181676573Y-115111091D01*
X181028165Y-114462683D01*
X181091749Y-114445646D01*
X181205763Y-114379820D01*
X181298855Y-114286728D01*
X181364681Y-114172714D01*
X181381718Y-114109131D01*
X182030125Y-114757538D01*
X182030126Y-114757538D01*
X182488211Y-114299453D01*
X182525791Y-114252818D01*
X182585517Y-114122039D01*
X182585518Y-114122034D01*
X182605978Y-113979721D01*
X182585518Y-113837407D01*
X182585517Y-113837402D01*
X182525791Y-113706623D01*
X182488211Y-113659988D01*
X182030126Y-113201903D01*
X182030125Y-113201903D01*
X181381718Y-113850310D01*
X181364681Y-113786728D01*
X181298855Y-113672714D01*
X181205763Y-113579622D01*
X181091749Y-113513796D01*
X181028166Y-113496758D01*
X181676573Y-112848350D01*
X181218488Y-112390265D01*
X181171853Y-112352685D01*
X181041074Y-112292959D01*
X181041069Y-112292958D01*
X180898756Y-112272498D01*
X180756442Y-112292958D01*
X180756437Y-112292959D01*
X180625658Y-112352685D01*
X180579018Y-112390269D01*
X180120938Y-112848349D01*
X180120938Y-112848350D01*
X180769346Y-113496758D01*
X180705763Y-113513796D01*
X180591749Y-113579622D01*
X180498657Y-113672714D01*
X180432831Y-113786728D01*
X180415793Y-113850311D01*
X179767385Y-113201903D01*
X179571443Y-113397845D01*
X179510120Y-113431330D01*
X179440428Y-113426346D01*
X179396081Y-113397845D01*
X178893131Y-112894895D01*
X178859646Y-112833572D01*
X178864630Y-112763880D01*
X178893131Y-112719533D01*
X179090967Y-112521697D01*
X178442559Y-111873289D01*
X178506143Y-111856252D01*
X178620157Y-111790426D01*
X178713249Y-111697334D01*
X178779075Y-111583320D01*
X178796112Y-111519737D01*
X179444519Y-112168144D01*
X179444520Y-112168144D01*
X179902605Y-111710059D01*
X179940185Y-111663424D01*
X179999911Y-111532645D01*
X179999912Y-111532640D01*
X180020372Y-111390327D01*
X179999912Y-111248013D01*
X179999911Y-111248008D01*
X179940185Y-111117229D01*
X179902605Y-111070594D01*
X179444520Y-110612509D01*
X179444519Y-110612509D01*
X178796112Y-111260916D01*
X178779075Y-111197334D01*
X178713249Y-111083320D01*
X178620157Y-110990228D01*
X178506143Y-110924402D01*
X178442560Y-110907364D01*
X179090967Y-110258956D01*
X178632882Y-109800871D01*
X178586247Y-109763291D01*
X178455468Y-109703565D01*
X178455463Y-109703564D01*
X178313150Y-109683104D01*
X178170836Y-109703564D01*
X178170831Y-109703565D01*
X178040052Y-109763291D01*
X177993412Y-109800875D01*
X177535332Y-110258955D01*
X177535332Y-110258956D01*
X178183740Y-110907364D01*
X178120157Y-110924402D01*
X178006143Y-110990228D01*
X177913051Y-111083320D01*
X177847225Y-111197334D01*
X177830187Y-111260917D01*
X177181779Y-110612509D01*
X176983942Y-110810345D01*
X176922619Y-110843830D01*
X176852927Y-110838846D01*
X176808580Y-110810345D01*
X175761590Y-109763355D01*
X175761588Y-109763352D01*
X175642717Y-109644481D01*
X175642709Y-109644475D01*
X175540936Y-109585717D01*
X175540934Y-109585716D01*
X175505790Y-109565425D01*
X175505789Y-109565424D01*
X175493263Y-109562067D01*
X175353057Y-109524499D01*
X175194943Y-109524499D01*
X175187347Y-109524499D01*
X175187331Y-109524500D01*
X154056412Y-109524500D01*
X153989373Y-109504815D01*
X153979097Y-109497445D01*
X153976263Y-109495185D01*
X153976262Y-109495184D01*
X153919496Y-109459515D01*
X153823523Y-109399211D01*
X153653254Y-109339631D01*
X153653249Y-109339630D01*
X153474004Y-109319435D01*
X153473996Y-109319435D01*
X153294750Y-109339630D01*
X153294745Y-109339631D01*
X153124476Y-109399211D01*
X152971737Y-109495184D01*
X152844184Y-109622737D01*
X152748211Y-109775476D01*
X152688631Y-109945745D01*
X152688630Y-109945750D01*
X152668435Y-110124996D01*
X152668435Y-110125003D01*
X152688630Y-110304249D01*
X152688631Y-110304254D01*
X152748211Y-110474523D01*
X152782234Y-110528670D01*
X152844184Y-110627262D01*
X152971738Y-110754816D01*
X153029245Y-110790950D01*
X153113402Y-110843830D01*
X153124478Y-110850789D01*
X153237471Y-110890327D01*
X153294745Y-110910368D01*
X153294750Y-110910369D01*
X153473996Y-110930565D01*
X153474000Y-110930565D01*
X153474004Y-110930565D01*
X153653249Y-110910369D01*
X153653252Y-110910368D01*
X153653255Y-110910368D01*
X153823522Y-110850789D01*
X153976262Y-110754816D01*
X153976267Y-110754810D01*
X153979097Y-110752555D01*
X153981275Y-110751665D01*
X153982158Y-110751111D01*
X153982255Y-110751265D01*
X154043783Y-110726145D01*
X154056412Y-110725500D01*
X174973903Y-110725500D01*
X175040942Y-110745185D01*
X175061584Y-110761819D01*
X176036515Y-111736751D01*
X176070000Y-111798074D01*
X176065016Y-111867766D01*
X176023144Y-111923699D01*
X176001239Y-111936814D01*
X175839270Y-112012342D01*
X175839268Y-112012343D01*
X175645696Y-112147883D01*
X175478605Y-112314974D01*
X175343064Y-112508548D01*
X175343061Y-112508553D01*
X175340388Y-112514287D01*
X175294214Y-112566724D01*
X175228008Y-112585878D01*
X147835377Y-112585878D01*
X147768338Y-112566193D01*
X147747696Y-112549559D01*
X140014670Y-104816534D01*
X139981185Y-104755211D01*
X139986169Y-104685519D01*
X140028041Y-104629586D01*
X140036371Y-104623864D01*
X140146262Y-104554816D01*
X140273816Y-104427262D01*
X140369789Y-104274522D01*
X140429368Y-104104255D01*
X140429773Y-104100659D01*
X140449565Y-103925003D01*
X140449565Y-103924996D01*
X140429369Y-103745750D01*
X140429368Y-103745745D01*
X140384109Y-103616402D01*
X140369789Y-103575478D01*
X140273816Y-103422738D01*
X140146262Y-103295184D01*
X140068626Y-103246402D01*
X139993521Y-103199210D01*
X139823249Y-103139630D01*
X139736331Y-103129837D01*
X139671917Y-103102770D01*
X139662534Y-103094298D01*
X132720819Y-96152583D01*
X132687334Y-96091260D01*
X132684500Y-96064902D01*
X132684500Y-93956819D01*
X132704185Y-93889780D01*
X132756989Y-93844025D01*
X132826147Y-93834081D01*
X132849455Y-93839778D01*
X132979737Y-93885366D01*
X132979743Y-93885367D01*
X132979745Y-93885368D01*
X132979746Y-93885368D01*
X132979750Y-93885369D01*
X133158996Y-93905565D01*
X133159000Y-93905565D01*
X133159004Y-93905565D01*
X133338249Y-93885369D01*
X133338252Y-93885368D01*
X133338255Y-93885368D01*
X133508522Y-93825789D01*
X133582814Y-93779107D01*
X133650049Y-93760107D01*
X133701962Y-93775348D01*
X133703205Y-93772769D01*
X133709470Y-93775786D01*
X133709477Y-93775788D01*
X133709478Y-93775789D01*
X133852367Y-93825788D01*
X133879745Y-93835368D01*
X133879750Y-93835369D01*
X134058996Y-93855565D01*
X134059000Y-93855565D01*
X134059004Y-93855565D01*
X134238249Y-93835369D01*
X134238252Y-93835368D01*
X134238255Y-93835368D01*
X134408522Y-93775789D01*
X134561262Y-93679816D01*
X134688816Y-93552262D01*
X134784789Y-93399522D01*
X134844368Y-93229255D01*
X134845147Y-93222334D01*
X134847032Y-93205617D01*
X134874098Y-93141203D01*
X134931693Y-93101647D01*
X134970252Y-93095500D01*
X141800015Y-93095500D01*
X141867054Y-93115185D01*
X141912809Y-93167989D01*
X141923235Y-93233383D01*
X141902435Y-93417996D01*
X141902435Y-93418003D01*
X141922630Y-93597249D01*
X141922631Y-93597254D01*
X141982211Y-93767524D01*
X142044493Y-93866643D01*
X142063500Y-93932616D01*
X142063500Y-96993330D01*
X142063499Y-96993348D01*
X142063499Y-97105902D01*
X142043814Y-97172941D01*
X141991010Y-97218696D01*
X141921852Y-97228640D01*
X141858296Y-97199615D01*
X141851818Y-97193583D01*
X140114700Y-95456465D01*
X140081215Y-95395142D01*
X140079163Y-95382686D01*
X140069368Y-95295745D01*
X140009789Y-95125478D01*
X139913816Y-94972738D01*
X139786262Y-94845184D01*
X139754240Y-94825063D01*
X139633523Y-94749211D01*
X139463254Y-94689631D01*
X139463249Y-94689630D01*
X139284004Y-94669435D01*
X139283996Y-94669435D01*
X139104750Y-94689630D01*
X139104737Y-94689633D01*
X138934478Y-94749210D01*
X138934476Y-94749211D01*
X138895133Y-94773931D01*
X138827896Y-94792930D01*
X138788209Y-94785978D01*
X138665027Y-94742874D01*
X138665022Y-94742873D01*
X138485777Y-94722678D01*
X138485769Y-94722678D01*
X138306523Y-94742873D01*
X138306518Y-94742874D01*
X138136249Y-94802454D01*
X137983510Y-94898427D01*
X137855957Y-95025980D01*
X137759984Y-95178719D01*
X137700404Y-95348988D01*
X137700403Y-95348993D01*
X137680208Y-95528239D01*
X137680208Y-95528246D01*
X137700403Y-95707492D01*
X137700404Y-95707497D01*
X137759984Y-95877766D01*
X137855957Y-96030505D01*
X137877150Y-96051698D01*
X137910635Y-96113021D01*
X137906511Y-96180333D01*
X137848632Y-96345742D01*
X137848630Y-96345750D01*
X137828435Y-96524996D01*
X137828435Y-96525003D01*
X137848630Y-96704249D01*
X137848631Y-96704254D01*
X137908211Y-96874523D01*
X137978992Y-96987169D01*
X138004184Y-97027262D01*
X138131738Y-97154816D01*
X138284478Y-97250789D01*
X138454745Y-97310368D01*
X138541669Y-97320161D01*
X138606080Y-97347226D01*
X138615464Y-97355699D01*
X148040284Y-106780520D01*
X148040286Y-106780521D01*
X148040290Y-106780524D01*
X148151129Y-106844516D01*
X148177216Y-106859577D01*
X148329943Y-106900501D01*
X148329945Y-106900501D01*
X148495654Y-106900501D01*
X148495670Y-106900500D01*
X155351588Y-106900500D01*
X155418627Y-106920185D01*
X155428903Y-106927555D01*
X155431736Y-106929814D01*
X155431738Y-106929816D01*
X155487749Y-106965010D01*
X155559943Y-107010373D01*
X155584478Y-107025789D01*
X155732008Y-107077412D01*
X155754745Y-107085368D01*
X155754750Y-107085369D01*
X155933996Y-107105565D01*
X155934000Y-107105565D01*
X155934004Y-107105565D01*
X156113249Y-107085369D01*
X156113252Y-107085368D01*
X156113255Y-107085368D01*
X156283522Y-107025789D01*
X156436262Y-106929816D01*
X156563816Y-106802262D01*
X156659789Y-106649522D01*
X156719368Y-106479255D01*
X156722185Y-106454255D01*
X156739565Y-106300003D01*
X156739565Y-106299996D01*
X156732623Y-106238383D01*
X156744678Y-106169561D01*
X156792027Y-106118182D01*
X156855843Y-106100500D01*
X157008903Y-106100500D01*
X157075942Y-106120185D01*
X157096584Y-106136819D01*
X157253298Y-106293533D01*
X157286783Y-106354856D01*
X157288837Y-106367330D01*
X157298630Y-106454249D01*
X157358210Y-106624521D01*
X157389460Y-106674255D01*
X157454184Y-106777262D01*
X157581738Y-106904816D01*
X157632970Y-106937007D01*
X157733376Y-107000097D01*
X157734478Y-107000789D01*
X157819530Y-107030550D01*
X157904745Y-107060368D01*
X157904750Y-107060369D01*
X158083996Y-107080565D01*
X158084000Y-107080565D01*
X158084004Y-107080565D01*
X158263249Y-107060369D01*
X158263252Y-107060368D01*
X158263255Y-107060368D01*
X158263256Y-107060367D01*
X158263259Y-107060367D01*
X158303633Y-107046238D01*
X158428667Y-107002487D01*
X158498442Y-106998925D01*
X158549529Y-107027501D01*
X158550560Y-107026210D01*
X158556002Y-107030550D01*
X158556003Y-107030551D01*
X158708743Y-107126524D01*
X158879010Y-107186103D01*
X158879015Y-107186104D01*
X159058261Y-107206300D01*
X159058265Y-107206300D01*
X159058269Y-107206300D01*
X159237514Y-107186104D01*
X159237517Y-107186103D01*
X159237520Y-107186103D01*
X159407787Y-107126524D01*
X159560527Y-107030551D01*
X159688081Y-106902997D01*
X159784054Y-106750257D01*
X159843633Y-106579990D01*
X159845415Y-106564174D01*
X159863830Y-106400738D01*
X159863830Y-106400731D01*
X159843634Y-106221485D01*
X159843633Y-106221480D01*
X159784053Y-106051211D01*
X159721978Y-105952420D01*
X159688081Y-105898473D01*
X159560527Y-105770919D01*
X159532428Y-105753263D01*
X159407786Y-105674945D01*
X159237514Y-105615365D01*
X159150595Y-105605572D01*
X159086181Y-105578505D01*
X159076798Y-105570033D01*
X158045120Y-104538355D01*
X158045118Y-104538352D01*
X157926247Y-104419481D01*
X157926242Y-104419477D01*
X157887114Y-104396887D01*
X157838899Y-104346321D01*
X157825675Y-104277714D01*
X157851643Y-104212849D01*
X157908557Y-104172320D01*
X157949114Y-104165500D01*
X160632331Y-104165500D01*
X160632347Y-104165501D01*
X160639943Y-104165501D01*
X160798054Y-104165501D01*
X160798057Y-104165501D01*
X160950785Y-104124577D01*
X161027885Y-104080063D01*
X161087716Y-104045520D01*
X161199520Y-103933716D01*
X161199520Y-103933714D01*
X161209724Y-103923511D01*
X161209728Y-103923506D01*
X164117506Y-101015728D01*
X164117511Y-101015724D01*
X164127714Y-101005520D01*
X164127716Y-101005520D01*
X164239520Y-100893716D01*
X164309295Y-100772861D01*
X164318577Y-100756785D01*
X164359500Y-100604058D01*
X164359500Y-100445943D01*
X164359500Y-97825096D01*
X164379185Y-97758057D01*
X164395815Y-97737419D01*
X164594569Y-97538665D01*
X164655891Y-97505181D01*
X164725583Y-97510165D01*
X164781516Y-97552037D01*
X164805933Y-97617501D01*
X164805777Y-97637154D01*
X164803341Y-97664997D01*
X164803341Y-97665000D01*
X164823936Y-97900403D01*
X164823938Y-97900413D01*
X164885094Y-98128655D01*
X164885096Y-98128659D01*
X164885097Y-98128663D01*
X164969754Y-98310210D01*
X164984965Y-98342830D01*
X164984967Y-98342834D01*
X165120501Y-98536395D01*
X165120506Y-98536402D01*
X165287597Y-98703493D01*
X165287603Y-98703498D01*
X165473158Y-98833425D01*
X165516783Y-98888002D01*
X165523977Y-98957500D01*
X165492454Y-99019855D01*
X165473158Y-99036575D01*
X165287597Y-99166505D01*
X165120505Y-99333597D01*
X164984965Y-99527169D01*
X164984964Y-99527171D01*
X164885098Y-99741335D01*
X164885094Y-99741344D01*
X164823938Y-99969586D01*
X164823936Y-99969596D01*
X164803341Y-100204999D01*
X164803341Y-100205000D01*
X164823936Y-100440403D01*
X164823938Y-100440413D01*
X164885094Y-100668655D01*
X164885096Y-100668659D01*
X164885097Y-100668663D01*
X164950174Y-100808221D01*
X164984965Y-100882830D01*
X164984967Y-100882834D01*
X165078018Y-101015724D01*
X165101949Y-101049901D01*
X165120501Y-101076395D01*
X165120506Y-101076402D01*
X165287597Y-101243493D01*
X165287603Y-101243498D01*
X165473158Y-101373425D01*
X165516783Y-101428002D01*
X165523977Y-101497500D01*
X165492454Y-101559855D01*
X165473158Y-101576575D01*
X165287597Y-101706505D01*
X165120505Y-101873597D01*
X164984965Y-102067169D01*
X164984964Y-102067171D01*
X164885098Y-102281335D01*
X164885094Y-102281344D01*
X164823938Y-102509586D01*
X164823936Y-102509596D01*
X164803341Y-102744999D01*
X164803341Y-102745000D01*
X164823936Y-102980403D01*
X164823938Y-102980413D01*
X164885094Y-103208655D01*
X164885096Y-103208659D01*
X164885097Y-103208663D01*
X164924031Y-103292157D01*
X164984965Y-103422830D01*
X164984967Y-103422834D01*
X165091849Y-103575476D01*
X165120505Y-103616401D01*
X165287599Y-103783495D01*
X165384384Y-103851265D01*
X165481165Y-103919032D01*
X165481167Y-103919033D01*
X165481170Y-103919035D01*
X165695337Y-104018903D01*
X165923592Y-104080063D01*
X166111918Y-104096539D01*
X166158999Y-104100659D01*
X166159000Y-104100659D01*
X166159001Y-104100659D01*
X166198234Y-104097226D01*
X166394408Y-104080063D01*
X166622663Y-104018903D01*
X166836830Y-103919035D01*
X167030401Y-103783495D01*
X167197495Y-103616401D01*
X167333035Y-103422830D01*
X167432903Y-103208663D01*
X167494063Y-102980408D01*
X167514659Y-102745000D01*
X167494063Y-102509592D01*
X167432903Y-102281337D01*
X167333035Y-102067171D01*
X167295570Y-102013664D01*
X167197494Y-101873597D01*
X167030402Y-101706506D01*
X167030396Y-101706501D01*
X166844842Y-101576575D01*
X166801217Y-101521998D01*
X166794023Y-101452500D01*
X166825546Y-101390145D01*
X166844842Y-101373425D01*
X166928867Y-101314590D01*
X167030401Y-101243495D01*
X167197495Y-101076401D01*
X167333035Y-100882830D01*
X167432903Y-100668663D01*
X167494063Y-100440408D01*
X167514659Y-100205000D01*
X167494063Y-99969592D01*
X167432903Y-99741337D01*
X167333035Y-99527171D01*
X167197495Y-99333599D01*
X167197494Y-99333597D01*
X167030402Y-99166506D01*
X167030396Y-99166501D01*
X166844842Y-99036575D01*
X166801217Y-98981998D01*
X166794023Y-98912500D01*
X166825546Y-98850145D01*
X166844842Y-98833425D01*
X166887271Y-98803716D01*
X167030401Y-98703495D01*
X167197495Y-98536401D01*
X167333035Y-98342830D01*
X167432903Y-98128663D01*
X167494063Y-97900408D01*
X167514659Y-97665000D01*
X167494063Y-97429592D01*
X167432903Y-97201337D01*
X167333035Y-96987171D01*
X167254158Y-96874523D01*
X167197496Y-96793600D01*
X167154684Y-96750788D01*
X167075567Y-96671671D01*
X167042084Y-96610351D01*
X167047068Y-96540659D01*
X167088939Y-96484725D01*
X167119915Y-96467810D01*
X167251331Y-96418796D01*
X167366546Y-96332546D01*
X167452796Y-96217331D01*
X167503091Y-96082483D01*
X167509500Y-96022873D01*
X167509499Y-94227128D01*
X167503091Y-94167517D01*
X167463512Y-94061401D01*
X167452797Y-94032671D01*
X167452793Y-94032664D01*
X167366547Y-93917455D01*
X167366544Y-93917452D01*
X167251335Y-93831206D01*
X167251328Y-93831202D01*
X167116482Y-93780908D01*
X167116483Y-93780908D01*
X167056883Y-93774501D01*
X167056881Y-93774500D01*
X167056873Y-93774500D01*
X167056864Y-93774500D01*
X165261129Y-93774500D01*
X165261123Y-93774501D01*
X165201516Y-93780908D01*
X165066671Y-93831202D01*
X165066664Y-93831206D01*
X164951455Y-93917452D01*
X164951452Y-93917455D01*
X164865206Y-94032664D01*
X164865202Y-94032671D01*
X164814908Y-94167517D01*
X164808501Y-94227116D01*
X164808501Y-94227123D01*
X164808500Y-94227135D01*
X164808500Y-95574901D01*
X164788815Y-95641940D01*
X164772181Y-95662582D01*
X163390286Y-97044478D01*
X163278481Y-97156282D01*
X163278479Y-97156284D01*
X163268863Y-97172941D01*
X163252469Y-97201337D01*
X163199423Y-97293215D01*
X163158499Y-97445943D01*
X163158499Y-97445945D01*
X163158499Y-97614046D01*
X163158500Y-97614059D01*
X163158500Y-100224903D01*
X163138815Y-100291942D01*
X163122181Y-100312584D01*
X160506584Y-102928181D01*
X160445261Y-102961666D01*
X160418903Y-102964500D01*
X160208399Y-102964500D01*
X160141360Y-102944815D01*
X160095605Y-102892011D01*
X160085661Y-102822853D01*
X160114686Y-102759297D01*
X160162796Y-102726174D01*
X160162584Y-102725719D01*
X160165291Y-102724456D01*
X160165982Y-102723981D01*
X160167482Y-102723434D01*
X160381578Y-102623600D01*
X160575082Y-102488105D01*
X160742105Y-102321082D01*
X160877600Y-102127578D01*
X160977429Y-101913492D01*
X160977432Y-101913486D01*
X161034636Y-101700000D01*
X160137012Y-101700000D01*
X160169925Y-101642993D01*
X160204000Y-101515826D01*
X160204000Y-101384174D01*
X160169925Y-101257007D01*
X160137012Y-101200000D01*
X161034636Y-101200000D01*
X161034635Y-101199999D01*
X160977432Y-100986513D01*
X160977429Y-100986507D01*
X160877600Y-100772422D01*
X160877599Y-100772420D01*
X160742113Y-100578926D01*
X160742108Y-100578920D01*
X160575082Y-100411894D01*
X160381578Y-100276399D01*
X160167492Y-100176570D01*
X160167486Y-100176567D01*
X159954000Y-100119364D01*
X159954000Y-101016988D01*
X159896993Y-100984075D01*
X159769826Y-100950000D01*
X159638174Y-100950000D01*
X159511007Y-100984075D01*
X159454000Y-101016988D01*
X159454000Y-100119364D01*
X159453999Y-100119364D01*
X159240513Y-100176567D01*
X159240507Y-100176570D01*
X159026422Y-100276399D01*
X159026420Y-100276400D01*
X158832926Y-100411886D01*
X158832920Y-100411891D01*
X158665891Y-100578920D01*
X158665890Y-100578922D01*
X158535879Y-100764596D01*
X158481302Y-100808221D01*
X158411803Y-100815413D01*
X158349449Y-100783891D01*
X158332729Y-100764595D01*
X158332422Y-100764157D01*
X158272515Y-100678600D01*
X158202493Y-100578597D01*
X158035401Y-100411506D01*
X158035394Y-100411501D01*
X157841833Y-100275967D01*
X157841829Y-100275965D01*
X157769971Y-100242457D01*
X157627662Y-100176097D01*
X157627658Y-100176096D01*
X157627654Y-100176094D01*
X157399412Y-100114938D01*
X157399402Y-100114936D01*
X157164000Y-100094341D01*
X157163998Y-100094341D01*
X156928595Y-100114936D01*
X156928585Y-100114938D01*
X156700343Y-100176094D01*
X156700334Y-100176098D01*
X156486170Y-100275964D01*
X156486168Y-100275965D01*
X156292596Y-100411505D01*
X156125507Y-100578594D01*
X155995574Y-100764158D01*
X155940997Y-100807782D01*
X155871498Y-100814975D01*
X155809144Y-100783453D01*
X155792424Y-100764157D01*
X155662494Y-100578597D01*
X155495402Y-100411506D01*
X155495395Y-100411501D01*
X155301834Y-100275967D01*
X155301830Y-100275965D01*
X155229972Y-100242457D01*
X155087663Y-100176097D01*
X155087659Y-100176096D01*
X155087655Y-100176094D01*
X154859413Y-100114938D01*
X154859403Y-100114936D01*
X154624001Y-100094341D01*
X154623999Y-100094341D01*
X154388596Y-100114936D01*
X154388586Y-100114938D01*
X154160344Y-100176094D01*
X154160335Y-100176098D01*
X153946171Y-100275964D01*
X153946169Y-100275965D01*
X153752600Y-100411503D01*
X153630673Y-100533430D01*
X153569350Y-100566914D01*
X153499658Y-100561930D01*
X153443725Y-100520058D01*
X153426810Y-100489081D01*
X153377797Y-100357671D01*
X153377793Y-100357664D01*
X153291547Y-100242455D01*
X153291544Y-100242452D01*
X153176335Y-100156206D01*
X153176328Y-100156202D01*
X153041482Y-100105908D01*
X153041483Y-100105908D01*
X152981883Y-100099501D01*
X152981881Y-100099500D01*
X152981873Y-100099500D01*
X152981865Y-100099500D01*
X152278500Y-100099500D01*
X152211461Y-100079815D01*
X152165706Y-100027011D01*
X152154500Y-99975500D01*
X152154500Y-98669059D01*
X152154501Y-98669046D01*
X152154501Y-98500945D01*
X152154501Y-98500943D01*
X152113577Y-98348215D01*
X152075223Y-98281785D01*
X152034520Y-98211284D01*
X152034519Y-98211283D01*
X152030456Y-98204245D01*
X152031799Y-98203469D01*
X152009930Y-98146904D01*
X152009500Y-98136585D01*
X152009500Y-95107412D01*
X152029185Y-95040373D01*
X152036555Y-95030097D01*
X152038810Y-95027267D01*
X152038816Y-95027262D01*
X152134789Y-94874522D01*
X152194368Y-94704255D01*
X152194369Y-94704249D01*
X152214565Y-94525003D01*
X152214565Y-94524996D01*
X152194369Y-94345750D01*
X152194368Y-94345745D01*
X152134789Y-94175478D01*
X152129983Y-94167830D01*
X152063110Y-94061402D01*
X152038816Y-94022738D01*
X151911262Y-93895184D01*
X151867735Y-93867834D01*
X151758523Y-93799211D01*
X151588254Y-93739631D01*
X151588249Y-93739630D01*
X151409004Y-93719435D01*
X151408996Y-93719435D01*
X151229750Y-93739630D01*
X151229745Y-93739631D01*
X151059476Y-93799211D01*
X150906737Y-93895184D01*
X150779184Y-94022737D01*
X150683211Y-94175476D01*
X150623631Y-94345745D01*
X150623630Y-94345750D01*
X150603435Y-94524996D01*
X150603435Y-94525003D01*
X150623630Y-94704249D01*
X150623631Y-94704254D01*
X150683211Y-94874523D01*
X150743515Y-94970496D01*
X150778378Y-95025980D01*
X150779185Y-95027263D01*
X150781445Y-95030097D01*
X150782334Y-95032275D01*
X150782889Y-95033158D01*
X150782734Y-95033255D01*
X150807855Y-95094783D01*
X150808500Y-95107412D01*
X150808500Y-97320500D01*
X150788815Y-97387539D01*
X150736011Y-97433294D01*
X150684500Y-97444500D01*
X146760143Y-97444500D01*
X146693104Y-97424815D01*
X146689370Y-97422137D01*
X146533523Y-97324211D01*
X146363254Y-97264631D01*
X146363249Y-97264630D01*
X146184004Y-97244435D01*
X146183996Y-97244435D01*
X146004750Y-97264630D01*
X146004745Y-97264631D01*
X145834476Y-97324211D01*
X145681737Y-97420184D01*
X145554184Y-97547737D01*
X145458209Y-97700480D01*
X145430202Y-97780519D01*
X145389480Y-97837295D01*
X145324528Y-97863042D01*
X145255966Y-97849586D01*
X145225480Y-97827245D01*
X143700819Y-96302584D01*
X143667334Y-96241261D01*
X143664500Y-96214903D01*
X143664500Y-95572476D01*
X143684185Y-95505437D01*
X143736989Y-95459682D01*
X143802385Y-95449256D01*
X143814000Y-95450565D01*
X143814001Y-95450564D01*
X143814002Y-95450565D01*
X143814004Y-95450565D01*
X143993249Y-95430369D01*
X143993252Y-95430368D01*
X143993255Y-95430368D01*
X144163522Y-95370789D01*
X144316262Y-95274816D01*
X144316267Y-95274810D01*
X144319097Y-95272555D01*
X144321275Y-95271665D01*
X144322158Y-95271111D01*
X144322255Y-95271265D01*
X144383783Y-95246145D01*
X144396412Y-95245500D01*
X144448217Y-95245500D01*
X144515256Y-95265185D01*
X144535897Y-95281818D01*
X144859598Y-95605520D01*
X144859600Y-95605521D01*
X144859604Y-95605524D01*
X144996523Y-95684573D01*
X144996526Y-95684575D01*
X144996530Y-95684577D01*
X145149257Y-95725501D01*
X145149259Y-95725501D01*
X145314968Y-95725501D01*
X145314984Y-95725500D01*
X147478703Y-95725500D01*
X147478719Y-95725501D01*
X147486315Y-95725501D01*
X147644426Y-95725501D01*
X147644429Y-95725501D01*
X147797157Y-95684577D01*
X147849676Y-95654255D01*
X147849677Y-95654255D01*
X147934081Y-95605524D01*
X147934080Y-95605524D01*
X147934088Y-95605520D01*
X148045892Y-95493716D01*
X148045892Y-95493714D01*
X148056096Y-95483511D01*
X148056100Y-95483506D01*
X153019918Y-90519687D01*
X153081239Y-90486204D01*
X153150931Y-90491188D01*
X153206864Y-90533060D01*
X153231281Y-90598524D01*
X153231125Y-90618177D01*
X153228341Y-90649998D01*
X153228341Y-90650000D01*
X153248936Y-90885403D01*
X153248938Y-90885413D01*
X153310094Y-91113655D01*
X153310096Y-91113659D01*
X153310097Y-91113663D01*
X153382165Y-91268213D01*
X153409965Y-91327830D01*
X153409967Y-91327834D01*
X153545501Y-91521395D01*
X153545506Y-91521402D01*
X153712597Y-91688493D01*
X153712603Y-91688498D01*
X153898158Y-91818425D01*
X153941783Y-91873002D01*
X153948977Y-91942500D01*
X153917454Y-92004855D01*
X153898158Y-92021575D01*
X153712597Y-92151505D01*
X153545505Y-92318597D01*
X153409965Y-92512169D01*
X153409964Y-92512171D01*
X153310098Y-92726335D01*
X153310094Y-92726344D01*
X153248938Y-92954586D01*
X153248936Y-92954596D01*
X153228341Y-93189999D01*
X153228341Y-93190000D01*
X153248936Y-93425403D01*
X153248938Y-93425413D01*
X153310094Y-93653655D01*
X153310096Y-93653659D01*
X153310097Y-93653663D01*
X153390361Y-93825789D01*
X153409965Y-93867830D01*
X153409967Y-93867834D01*
X153475493Y-93961414D01*
X153545505Y-94061401D01*
X153712599Y-94228495D01*
X153809384Y-94296265D01*
X153906165Y-94364032D01*
X153906167Y-94364033D01*
X153906170Y-94364035D01*
X154120337Y-94463903D01*
X154348592Y-94525063D01*
X154536918Y-94541539D01*
X154583999Y-94545659D01*
X154584000Y-94545659D01*
X154584001Y-94545659D01*
X154623364Y-94542215D01*
X154819408Y-94525063D01*
X154947757Y-94490672D01*
X155017606Y-94492335D01*
X155067531Y-94522766D01*
X155628298Y-95083533D01*
X155661783Y-95144856D01*
X155663837Y-95157330D01*
X155673630Y-95244245D01*
X155674464Y-95247897D01*
X155674315Y-95250326D01*
X155674411Y-95251175D01*
X155674262Y-95251191D01*
X155670196Y-95317637D01*
X155628902Y-95373998D01*
X155563692Y-95399087D01*
X155553575Y-95399500D01*
X154485669Y-95399500D01*
X154485653Y-95399499D01*
X154478057Y-95399499D01*
X154319943Y-95399499D01*
X154167215Y-95440423D01*
X154167214Y-95440423D01*
X154167212Y-95440424D01*
X154149650Y-95450564D01*
X154149648Y-95450565D01*
X154030290Y-95519475D01*
X154030282Y-95519481D01*
X153918478Y-95631286D01*
X153918477Y-95631287D01*
X153875464Y-95674299D01*
X153814141Y-95707784D01*
X153801668Y-95709837D01*
X153714750Y-95719630D01*
X153544478Y-95779210D01*
X153391737Y-95875184D01*
X153264184Y-96002737D01*
X153168211Y-96155476D01*
X153108631Y-96325745D01*
X153108630Y-96325750D01*
X153088435Y-96504996D01*
X153088435Y-96505003D01*
X153108630Y-96684249D01*
X153108631Y-96684254D01*
X153168211Y-96854523D01*
X153264184Y-97007262D01*
X153391738Y-97134816D01*
X153452414Y-97172941D01*
X153497616Y-97201344D01*
X153544478Y-97230789D01*
X153714745Y-97290368D01*
X153714750Y-97290369D01*
X153893996Y-97310565D01*
X153894000Y-97310565D01*
X153894004Y-97310565D01*
X154073249Y-97290369D01*
X154073252Y-97290368D01*
X154073255Y-97290368D01*
X154243522Y-97230789D01*
X154396262Y-97134816D01*
X154523816Y-97007262D01*
X154619789Y-96854522D01*
X154679368Y-96684255D01*
X154679369Y-96684249D01*
X154679615Y-96683546D01*
X154720336Y-96626770D01*
X154785289Y-96601022D01*
X154796657Y-96600500D01*
X158101060Y-96600500D01*
X158168099Y-96620185D01*
X158188741Y-96636819D01*
X158206738Y-96654816D01*
X158359478Y-96750789D01*
X158481822Y-96793599D01*
X158529745Y-96810368D01*
X158529750Y-96810369D01*
X158708996Y-96830565D01*
X158709000Y-96830565D01*
X158709004Y-96830565D01*
X158888249Y-96810369D01*
X158888252Y-96810368D01*
X158888255Y-96810368D01*
X159058522Y-96750789D01*
X159211262Y-96654816D01*
X159338816Y-96527262D01*
X159434789Y-96374522D01*
X159494368Y-96204255D01*
X159494369Y-96204249D01*
X159514565Y-96025003D01*
X159514565Y-96024996D01*
X159494369Y-95845750D01*
X159494368Y-95845745D01*
X159450238Y-95719630D01*
X159434789Y-95675478D01*
X159338816Y-95522738D01*
X159211262Y-95395184D01*
X159187883Y-95380494D01*
X159058523Y-95299211D01*
X158888254Y-95239631D01*
X158888249Y-95239630D01*
X158709004Y-95219435D01*
X158708996Y-95219435D01*
X158529750Y-95239630D01*
X158529745Y-95239631D01*
X158359476Y-95299211D01*
X158230117Y-95380494D01*
X158164145Y-95399500D01*
X157364425Y-95399500D01*
X157297386Y-95379815D01*
X157251631Y-95327011D01*
X157241687Y-95257853D01*
X157243536Y-95247900D01*
X157244369Y-95244250D01*
X157264565Y-95065003D01*
X157264565Y-95064996D01*
X157244369Y-94885750D01*
X157244368Y-94885745D01*
X157209458Y-94785978D01*
X157184789Y-94715478D01*
X157184788Y-94715477D01*
X157184786Y-94715470D01*
X157181769Y-94709205D01*
X157184714Y-94707786D01*
X157169431Y-94654582D01*
X157189508Y-94587659D01*
X157242580Y-94542215D01*
X157282620Y-94531781D01*
X157359408Y-94525063D01*
X157587663Y-94463903D01*
X157801830Y-94364035D01*
X157995401Y-94228495D01*
X158162495Y-94061401D01*
X158298035Y-93867830D01*
X158397903Y-93653663D01*
X158459063Y-93425408D01*
X158479659Y-93190000D01*
X158459063Y-92954592D01*
X158397903Y-92726337D01*
X158363193Y-92651903D01*
X158352702Y-92582828D01*
X158381221Y-92519044D01*
X158439698Y-92480804D01*
X158475576Y-92475500D01*
X159547331Y-92475500D01*
X159547347Y-92475501D01*
X159554943Y-92475501D01*
X159713054Y-92475501D01*
X159713057Y-92475501D01*
X159865785Y-92434577D01*
X159921756Y-92402262D01*
X160002716Y-92355520D01*
X160114520Y-92243716D01*
X160114520Y-92243714D01*
X160124724Y-92233511D01*
X160124727Y-92233506D01*
X164171417Y-88186819D01*
X164232740Y-88153334D01*
X164259098Y-88150500D01*
X164876588Y-88150500D01*
X164943627Y-88170185D01*
X164953903Y-88177555D01*
X164956736Y-88179814D01*
X164956738Y-88179816D01*
X165109478Y-88275789D01*
X165236352Y-88320184D01*
X165279745Y-88335368D01*
X165279750Y-88335369D01*
X165458996Y-88355565D01*
X165459000Y-88355565D01*
X165459004Y-88355565D01*
X165638249Y-88335369D01*
X165638252Y-88335368D01*
X165638255Y-88335368D01*
X165808522Y-88275789D01*
X165961262Y-88179816D01*
X166088816Y-88052262D01*
X166184789Y-87899522D01*
X166244368Y-87729255D01*
X166244369Y-87729249D01*
X166264565Y-87550003D01*
X166264565Y-87549996D01*
X166244369Y-87370750D01*
X166244368Y-87370745D01*
X166217705Y-87294546D01*
X166184789Y-87200478D01*
X166088816Y-87047738D01*
X166088814Y-87047736D01*
X166088813Y-87047734D01*
X166086550Y-87044896D01*
X166085659Y-87042715D01*
X166085111Y-87041842D01*
X166085264Y-87041745D01*
X166060144Y-86980209D01*
X166059500Y-86967587D01*
X166059500Y-86875096D01*
X166079185Y-86808057D01*
X166095815Y-86787419D01*
X166877535Y-86005698D01*
X166938856Y-85972215D01*
X166951311Y-85970163D01*
X167038255Y-85960368D01*
X167208522Y-85900789D01*
X167361262Y-85804816D01*
X167488816Y-85677262D01*
X167584789Y-85524522D01*
X167644368Y-85354255D01*
X167646010Y-85339685D01*
X167664565Y-85175003D01*
X167664565Y-85174996D01*
X167644369Y-84995750D01*
X167644368Y-84995745D01*
X167616050Y-84914816D01*
X167584789Y-84825478D01*
X167488816Y-84672738D01*
X167361262Y-84545184D01*
X167330395Y-84525789D01*
X167208523Y-84449211D01*
X167038254Y-84389631D01*
X167038249Y-84389630D01*
X166859004Y-84369435D01*
X166858996Y-84369435D01*
X166679750Y-84389630D01*
X166679745Y-84389631D01*
X166509476Y-84449211D01*
X166356737Y-84545184D01*
X166229184Y-84672737D01*
X166133210Y-84825478D01*
X166073630Y-84995750D01*
X166063837Y-85082668D01*
X166036770Y-85147082D01*
X166028298Y-85156465D01*
X165173484Y-86011279D01*
X165112161Y-86044764D01*
X165042469Y-86039780D01*
X164986536Y-85997908D01*
X164980809Y-85989570D01*
X164974205Y-85979060D01*
X164938816Y-85922738D01*
X164811262Y-85795184D01*
X164773359Y-85771368D01*
X164658523Y-85699211D01*
X164488254Y-85639631D01*
X164488249Y-85639630D01*
X164309004Y-85619435D01*
X164308996Y-85619435D01*
X164129750Y-85639630D01*
X164129745Y-85639631D01*
X163959476Y-85699211D01*
X163857723Y-85763148D01*
X163790487Y-85782148D01*
X163723651Y-85761780D01*
X163704070Y-85745835D01*
X161695819Y-83737583D01*
X161662334Y-83676260D01*
X161659500Y-83649902D01*
X161659500Y-81805945D01*
X161659500Y-81805943D01*
X161618577Y-81653216D01*
X161544496Y-81524902D01*
X161539524Y-81516290D01*
X161539521Y-81516286D01*
X161539520Y-81516284D01*
X161427716Y-81404480D01*
X161427715Y-81404479D01*
X161423385Y-81400149D01*
X161423374Y-81400139D01*
X158510818Y-78487583D01*
X158477333Y-78426260D01*
X158474499Y-78399902D01*
X158474499Y-77052129D01*
X158474498Y-77052123D01*
X158474497Y-77052116D01*
X158468091Y-76992517D01*
X158429292Y-76888492D01*
X158417797Y-76857671D01*
X158417793Y-76857664D01*
X158331547Y-76742455D01*
X158331544Y-76742452D01*
X158216335Y-76656206D01*
X158216328Y-76656202D01*
X158081482Y-76605908D01*
X158081483Y-76605908D01*
X158021883Y-76599501D01*
X158021881Y-76599500D01*
X158021873Y-76599500D01*
X158021865Y-76599500D01*
X156674098Y-76599500D01*
X156607059Y-76579815D01*
X156586417Y-76563181D01*
X155561590Y-75538355D01*
X155561588Y-75538352D01*
X155442717Y-75419481D01*
X155442716Y-75419480D01*
X155355904Y-75369360D01*
X155355904Y-75369359D01*
X155355900Y-75369358D01*
X155305785Y-75340423D01*
X155153057Y-75299499D01*
X154994943Y-75299499D01*
X154987347Y-75299499D01*
X154987331Y-75299500D01*
X153426160Y-75299500D01*
X153359121Y-75279815D01*
X153313366Y-75227011D01*
X153309122Y-75216466D01*
X153259789Y-75075478D01*
X153163816Y-74922738D01*
X153036262Y-74795184D01*
X152956293Y-74744936D01*
X152883523Y-74699211D01*
X152713254Y-74639631D01*
X152713249Y-74639630D01*
X152534004Y-74619435D01*
X152533996Y-74619435D01*
X152354750Y-74639630D01*
X152354745Y-74639631D01*
X152184476Y-74699211D01*
X152031737Y-74795184D01*
X151904184Y-74922737D01*
X151808211Y-75075476D01*
X151748631Y-75245745D01*
X151748630Y-75245750D01*
X151728435Y-75424996D01*
X151728435Y-75425003D01*
X151748630Y-75604249D01*
X151748631Y-75604254D01*
X151808211Y-75774523D01*
X151896129Y-75914442D01*
X151904184Y-75927262D01*
X152031738Y-76054816D01*
X152184478Y-76150789D01*
X152354745Y-76210368D01*
X152441669Y-76220161D01*
X152506080Y-76247226D01*
X152515465Y-76255700D01*
X152524139Y-76264374D01*
X152524149Y-76264385D01*
X152528479Y-76268715D01*
X152528480Y-76268716D01*
X152640284Y-76380520D01*
X152640286Y-76380521D01*
X152640290Y-76380524D01*
X152717326Y-76425000D01*
X152777216Y-76459577D01*
X152889019Y-76489534D01*
X152929942Y-76500500D01*
X152929943Y-76500500D01*
X153327106Y-76500500D01*
X153394145Y-76520185D01*
X153439900Y-76572989D01*
X153449844Y-76642147D01*
X153420819Y-76705703D01*
X153401418Y-76723766D01*
X153376452Y-76742455D01*
X153290206Y-76857664D01*
X153290202Y-76857671D01*
X153239908Y-76992517D01*
X153233501Y-77052116D01*
X153233501Y-77052123D01*
X153233500Y-77052135D01*
X153233500Y-78847870D01*
X153233501Y-78847876D01*
X153239908Y-78907483D01*
X153290202Y-79042328D01*
X153290206Y-79042335D01*
X153376452Y-79157544D01*
X153376455Y-79157547D01*
X153491664Y-79243793D01*
X153491671Y-79243797D01*
X153623081Y-79292810D01*
X153679015Y-79334681D01*
X153703432Y-79400145D01*
X153688580Y-79468418D01*
X153667430Y-79496673D01*
X153545503Y-79618600D01*
X153409965Y-79812170D01*
X153409962Y-79812175D01*
X153407289Y-79817909D01*
X153361115Y-79870346D01*
X153294909Y-79889500D01*
X147855669Y-79889500D01*
X147855653Y-79889499D01*
X147848057Y-79889499D01*
X147689943Y-79889499D01*
X147582587Y-79918265D01*
X147537210Y-79930424D01*
X147537209Y-79930425D01*
X147487096Y-79959359D01*
X147487095Y-79959360D01*
X147460832Y-79974523D01*
X147400285Y-80009479D01*
X147400282Y-80009481D01*
X147288478Y-80121286D01*
X139521584Y-87888181D01*
X139460261Y-87921666D01*
X139433903Y-87924500D01*
X138504942Y-87924500D01*
X138352215Y-87965423D01*
X138342369Y-87971108D01*
X138342367Y-87971109D01*
X138215287Y-88044477D01*
X138215282Y-88044481D01*
X137677746Y-88582017D01*
X137677740Y-88582025D01*
X137627999Y-88668181D01*
X137627999Y-88668182D01*
X137598688Y-88718950D01*
X137557764Y-88871678D01*
X137557764Y-88871680D01*
X137557764Y-89039781D01*
X137557765Y-89039794D01*
X137557765Y-89262587D01*
X137538080Y-89329626D01*
X137530715Y-89339896D01*
X137528451Y-89342734D01*
X137432476Y-89495476D01*
X137372896Y-89665745D01*
X137372895Y-89665750D01*
X137352700Y-89844996D01*
X137352700Y-89845003D01*
X137372895Y-90024249D01*
X137372896Y-90024254D01*
X137432476Y-90194523D01*
X137510991Y-90319478D01*
X137528449Y-90347262D01*
X137656003Y-90474816D01*
X137808743Y-90570789D01*
X137906381Y-90604954D01*
X137920490Y-90609891D01*
X137977266Y-90650613D01*
X138003013Y-90715566D01*
X137989557Y-90784128D01*
X137941169Y-90834530D01*
X137879535Y-90850933D01*
X134362350Y-90850933D01*
X134295311Y-90831248D01*
X134249556Y-90778444D01*
X134239612Y-90709286D01*
X134268637Y-90645730D01*
X134274669Y-90639252D01*
X134516837Y-90397084D01*
X135258943Y-89654976D01*
X135320264Y-89621493D01*
X135332719Y-89619441D01*
X135413255Y-89610368D01*
X135583522Y-89550789D01*
X135736262Y-89454816D01*
X135863816Y-89327262D01*
X135959789Y-89174522D01*
X136019368Y-89004255D01*
X136025226Y-88952262D01*
X136039565Y-88825003D01*
X136039565Y-88824996D01*
X136019369Y-88645750D01*
X136019368Y-88645745D01*
X135997069Y-88582019D01*
X135959789Y-88475478D01*
X135944080Y-88450478D01*
X135920582Y-88413080D01*
X135863816Y-88322738D01*
X135736262Y-88195184D01*
X135711804Y-88179816D01*
X135583523Y-88099211D01*
X135413254Y-88039631D01*
X135413249Y-88039630D01*
X135234004Y-88019435D01*
X135233996Y-88019435D01*
X135054750Y-88039630D01*
X135054737Y-88039633D01*
X134884482Y-88099208D01*
X134832364Y-88131956D01*
X134765127Y-88150955D01*
X134700421Y-88131955D01*
X134608523Y-88074211D01*
X134438254Y-88014631D01*
X134438249Y-88014630D01*
X134259004Y-87994435D01*
X134258996Y-87994435D01*
X134079750Y-88014630D01*
X134079745Y-88014631D01*
X133909476Y-88074211D01*
X133756737Y-88170184D01*
X133629182Y-88297739D01*
X133551627Y-88421167D01*
X133499292Y-88467457D01*
X133430239Y-88478105D01*
X133366391Y-88449730D01*
X133358953Y-88442875D01*
X133236262Y-88320184D01*
X133083523Y-88224211D01*
X132913254Y-88164631D01*
X132913249Y-88164630D01*
X132734004Y-88144435D01*
X132733996Y-88144435D01*
X132554750Y-88164630D01*
X132554745Y-88164631D01*
X132384476Y-88224211D01*
X132231737Y-88320184D01*
X132104184Y-88447737D01*
X132008210Y-88600478D01*
X131948630Y-88770750D01*
X131938837Y-88857668D01*
X131911770Y-88922082D01*
X131903298Y-88931465D01*
X130515286Y-90319478D01*
X130466181Y-90368583D01*
X130404858Y-90402068D01*
X130335166Y-90397084D01*
X130279233Y-90355212D01*
X130254816Y-90289748D01*
X130254500Y-90280902D01*
X130254500Y-88830783D01*
X130274185Y-88763744D01*
X130290819Y-88743102D01*
X133597103Y-85436819D01*
X133658426Y-85403334D01*
X133684784Y-85400500D01*
X135365339Y-85400500D01*
X135432378Y-85420185D01*
X135478133Y-85472989D01*
X135482377Y-85483536D01*
X135496719Y-85524522D01*
X135528210Y-85614521D01*
X135613833Y-85750789D01*
X135624184Y-85767262D01*
X135751738Y-85894816D01*
X135796174Y-85922737D01*
X135901724Y-85989059D01*
X135904478Y-85990789D01*
X136027005Y-86033663D01*
X136074745Y-86050368D01*
X136074750Y-86050369D01*
X136253996Y-86070565D01*
X136254000Y-86070565D01*
X136254004Y-86070565D01*
X136433249Y-86050369D01*
X136433252Y-86050368D01*
X136433255Y-86050368D01*
X136603522Y-85990789D01*
X136756262Y-85894816D01*
X136883816Y-85767262D01*
X136979789Y-85614522D01*
X137039368Y-85444255D01*
X137042080Y-85420185D01*
X137059565Y-85265003D01*
X137059565Y-85264996D01*
X137039369Y-85085753D01*
X137039367Y-85085742D01*
X137017397Y-85022956D01*
X137013835Y-84953177D01*
X137046754Y-84894323D01*
X137153816Y-84787262D01*
X137249789Y-84634522D01*
X137309368Y-84464255D01*
X137311063Y-84449211D01*
X137329565Y-84285003D01*
X137329565Y-84284996D01*
X137309369Y-84105750D01*
X137309368Y-84105745D01*
X137295027Y-84064762D01*
X137249789Y-83935478D01*
X137249787Y-83935475D01*
X137249787Y-83935474D01*
X137246911Y-83929501D01*
X137235557Y-83860559D01*
X137263279Y-83796424D01*
X137321273Y-83757458D01*
X137391128Y-83756031D01*
X137446311Y-83788016D01*
X139165063Y-85506768D01*
X139198548Y-85568091D01*
X139200602Y-85580565D01*
X139210395Y-85667484D01*
X139269975Y-85837756D01*
X139358761Y-85979057D01*
X139365949Y-85990497D01*
X139493503Y-86118051D01*
X139583845Y-86174817D01*
X139631225Y-86204588D01*
X139646243Y-86214024D01*
X139742855Y-86247830D01*
X139816510Y-86273603D01*
X139816515Y-86273604D01*
X139995761Y-86293800D01*
X139995765Y-86293800D01*
X139995769Y-86293800D01*
X140175014Y-86273604D01*
X140175017Y-86273603D01*
X140175020Y-86273603D01*
X140345287Y-86214024D01*
X140498027Y-86118051D01*
X140625581Y-85990497D01*
X140721554Y-85837757D01*
X140781133Y-85667490D01*
X140784701Y-85635826D01*
X140801330Y-85488238D01*
X140801330Y-85488231D01*
X140781134Y-85308985D01*
X140781133Y-85308980D01*
X140749372Y-85218212D01*
X140721554Y-85138713D01*
X140699789Y-85104075D01*
X140641568Y-85011416D01*
X140625581Y-84985973D01*
X140498027Y-84858419D01*
X140404632Y-84799735D01*
X140345286Y-84762445D01*
X140175014Y-84702865D01*
X140088095Y-84693072D01*
X140023681Y-84666005D01*
X140014298Y-84657533D01*
X139893888Y-84537123D01*
X139860403Y-84475800D01*
X139865387Y-84406108D01*
X139907259Y-84350175D01*
X139972723Y-84325758D01*
X139995453Y-84326222D01*
X140033997Y-84330565D01*
X140034000Y-84330565D01*
X140034004Y-84330565D01*
X140213249Y-84310369D01*
X140213251Y-84310368D01*
X140213255Y-84310368D01*
X140213258Y-84310366D01*
X140213262Y-84310366D01*
X140327268Y-84270473D01*
X140361696Y-84258425D01*
X140431474Y-84254863D01*
X140468622Y-84270473D01*
X140496974Y-84288287D01*
X140496975Y-84288287D01*
X140496978Y-84288289D01*
X140615124Y-84329630D01*
X140667245Y-84347868D01*
X140667250Y-84347869D01*
X140846496Y-84368065D01*
X140846500Y-84368065D01*
X140846504Y-84368065D01*
X141025749Y-84347869D01*
X141025752Y-84347868D01*
X141025755Y-84347868D01*
X141196022Y-84288289D01*
X141348762Y-84192316D01*
X141476316Y-84064762D01*
X141572289Y-83912022D01*
X141631868Y-83741755D01*
X141641661Y-83654829D01*
X141668726Y-83590418D01*
X141677190Y-83581043D01*
X151922195Y-73336038D01*
X151983516Y-73302555D01*
X152053208Y-73307539D01*
X152109141Y-73349411D01*
X152126915Y-73382766D01*
X152159458Y-73475769D01*
X152241359Y-73606112D01*
X152255434Y-73628512D01*
X152382988Y-73756066D01*
X152473330Y-73812832D01*
X152503355Y-73831698D01*
X152535728Y-73852039D01*
X152705995Y-73911618D01*
X152706000Y-73911619D01*
X152885246Y-73931815D01*
X152885250Y-73931815D01*
X152885254Y-73931815D01*
X153064499Y-73911619D01*
X153064502Y-73911618D01*
X153064505Y-73911618D01*
X153234772Y-73852039D01*
X153387512Y-73756066D01*
X153515066Y-73628512D01*
X153611039Y-73475772D01*
X153647257Y-73372263D01*
X153676615Y-73325540D01*
X154340338Y-72661819D01*
X154401661Y-72628334D01*
X154428019Y-72625500D01*
X161417481Y-72625500D01*
X161484520Y-72645185D01*
X161505162Y-72661819D01*
X163740892Y-74897549D01*
X163774377Y-74958872D01*
X163769393Y-75028564D01*
X163727521Y-75084497D01*
X163696544Y-75101412D01*
X163616671Y-75131202D01*
X163616664Y-75131206D01*
X163501455Y-75217452D01*
X163501452Y-75217455D01*
X163415206Y-75332664D01*
X163415202Y-75332671D01*
X163364908Y-75467517D01*
X163358501Y-75527116D01*
X163358500Y-75527135D01*
X163358500Y-77322870D01*
X163358501Y-77322876D01*
X163364908Y-77382483D01*
X163415202Y-77517328D01*
X163415206Y-77517335D01*
X163501452Y-77632544D01*
X163501455Y-77632547D01*
X163616664Y-77718793D01*
X163616671Y-77718797D01*
X163751517Y-77769091D01*
X163751516Y-77769091D01*
X163758444Y-77769835D01*
X163811127Y-77775500D01*
X165606872Y-77775499D01*
X165666483Y-77769091D01*
X165801331Y-77718796D01*
X165916546Y-77632546D01*
X166002796Y-77517331D01*
X166051810Y-77385916D01*
X166093681Y-77329984D01*
X166159145Y-77305566D01*
X166227418Y-77320417D01*
X166255673Y-77341569D01*
X166377599Y-77463495D01*
X166474384Y-77531265D01*
X166571165Y-77599032D01*
X166571167Y-77599033D01*
X166571170Y-77599035D01*
X166785337Y-77698903D01*
X167013592Y-77760063D01*
X167190034Y-77775500D01*
X167248999Y-77780659D01*
X167249000Y-77780659D01*
X167249001Y-77780659D01*
X167307966Y-77775500D01*
X167484408Y-77760063D01*
X167712663Y-77698903D01*
X167926830Y-77599035D01*
X168120401Y-77463495D01*
X168287495Y-77296401D01*
X168417424Y-77110842D01*
X168472001Y-77067218D01*
X168541499Y-77060024D01*
X168603854Y-77091547D01*
X168620574Y-77110842D01*
X168750504Y-77296401D01*
X168917598Y-77463495D01*
X169014383Y-77531265D01*
X169111164Y-77599032D01*
X169111166Y-77599033D01*
X169111169Y-77599035D01*
X169325336Y-77698903D01*
X169553591Y-77760063D01*
X169730033Y-77775500D01*
X169788998Y-77780659D01*
X169788999Y-77780659D01*
X169789000Y-77780659D01*
X169847965Y-77775500D01*
X170024407Y-77760063D01*
X170252662Y-77698903D01*
X170466829Y-77599035D01*
X170660400Y-77463495D01*
X170827494Y-77296401D01*
X170957731Y-77110403D01*
X171012306Y-77066780D01*
X171081804Y-77059586D01*
X171144159Y-77091109D01*
X171160878Y-77110404D01*
X171290890Y-77296078D01*
X171457917Y-77463105D01*
X171651421Y-77598600D01*
X171865507Y-77698429D01*
X171865516Y-77698433D01*
X172079000Y-77755634D01*
X172079000Y-76858012D01*
X172136007Y-76890925D01*
X172263174Y-76925000D01*
X172394826Y-76925000D01*
X172521993Y-76890925D01*
X172579000Y-76858012D01*
X172579000Y-77755633D01*
X172792483Y-77698433D01*
X172792492Y-77698429D01*
X173006578Y-77598600D01*
X173200082Y-77463105D01*
X173367105Y-77296082D01*
X173502600Y-77102578D01*
X173602429Y-76888492D01*
X173602432Y-76888486D01*
X173659636Y-76675000D01*
X172762012Y-76675000D01*
X172794925Y-76617993D01*
X172829000Y-76490826D01*
X172829000Y-76359174D01*
X172794925Y-76232007D01*
X172762012Y-76175000D01*
X173659636Y-76175000D01*
X173659635Y-76174999D01*
X173602432Y-75961513D01*
X173602429Y-75961507D01*
X173502600Y-75747422D01*
X173502599Y-75747420D01*
X173367113Y-75553926D01*
X173367108Y-75553920D01*
X173200082Y-75386894D01*
X173006578Y-75251399D01*
X172792492Y-75151570D01*
X172792486Y-75151567D01*
X172579000Y-75094364D01*
X172579000Y-75991988D01*
X172521993Y-75959075D01*
X172394826Y-75925000D01*
X172263174Y-75925000D01*
X172136007Y-75959075D01*
X172079000Y-75991988D01*
X172079000Y-75094364D01*
X172078999Y-75094364D01*
X171865513Y-75151567D01*
X171865507Y-75151570D01*
X171651422Y-75251399D01*
X171651420Y-75251400D01*
X171457926Y-75386886D01*
X171457920Y-75386891D01*
X171290891Y-75553920D01*
X171290890Y-75553922D01*
X171160879Y-75739596D01*
X171106302Y-75783221D01*
X171036803Y-75790413D01*
X170974449Y-75758891D01*
X170957729Y-75739595D01*
X170957422Y-75739157D01*
X170862963Y-75604254D01*
X170827493Y-75553597D01*
X170660401Y-75386506D01*
X170660394Y-75386501D01*
X170635911Y-75369358D01*
X170595422Y-75341007D01*
X170466833Y-75250967D01*
X170466829Y-75250965D01*
X170445746Y-75241134D01*
X170252662Y-75151097D01*
X170252658Y-75151096D01*
X170252654Y-75151094D01*
X170024412Y-75089938D01*
X170024402Y-75089936D01*
X169789000Y-75069341D01*
X169788998Y-75069341D01*
X169553595Y-75089936D01*
X169553585Y-75089938D01*
X169325343Y-75151094D01*
X169325334Y-75151098D01*
X169111170Y-75250964D01*
X169111168Y-75250965D01*
X168917596Y-75386505D01*
X168750507Y-75553594D01*
X168620574Y-75739158D01*
X168565997Y-75782782D01*
X168496498Y-75789975D01*
X168434144Y-75758453D01*
X168417424Y-75739157D01*
X168287494Y-75553597D01*
X168120402Y-75386506D01*
X168120395Y-75386501D01*
X168095912Y-75369358D01*
X168055423Y-75341007D01*
X167926834Y-75250967D01*
X167926830Y-75250965D01*
X167905747Y-75241134D01*
X167712663Y-75151097D01*
X167712659Y-75151096D01*
X167712655Y-75151094D01*
X167484413Y-75089938D01*
X167484403Y-75089936D01*
X167249001Y-75069341D01*
X167248999Y-75069341D01*
X167013596Y-75089936D01*
X167013586Y-75089938D01*
X166785344Y-75151094D01*
X166785335Y-75151098D01*
X166571171Y-75250964D01*
X166571169Y-75250965D01*
X166377600Y-75386503D01*
X166255673Y-75508430D01*
X166194350Y-75541914D01*
X166124658Y-75536930D01*
X166068725Y-75495058D01*
X166051810Y-75464081D01*
X166002797Y-75332671D01*
X166002793Y-75332664D01*
X165916547Y-75217455D01*
X165916544Y-75217452D01*
X165801335Y-75131206D01*
X165801328Y-75131202D01*
X165666482Y-75080908D01*
X165666483Y-75080908D01*
X165606883Y-75074501D01*
X165606881Y-75074500D01*
X165606873Y-75074500D01*
X165606865Y-75074500D01*
X165533500Y-75074500D01*
X165466461Y-75054815D01*
X165420706Y-75002011D01*
X165409500Y-74950500D01*
X165409500Y-74806004D01*
X165382581Y-74670677D01*
X165382580Y-74670676D01*
X165382580Y-74670672D01*
X165369723Y-74639632D01*
X165329777Y-74543193D01*
X165329774Y-74543188D01*
X165310034Y-74513644D01*
X165253112Y-74428454D01*
X162205545Y-71380887D01*
X162090807Y-71304222D01*
X161963332Y-71251421D01*
X161963322Y-71251418D01*
X161827996Y-71224500D01*
X161827994Y-71224500D01*
X161827993Y-71224500D01*
X154333097Y-71224500D01*
X154266058Y-71204815D01*
X154220303Y-71152011D01*
X154210359Y-71082853D01*
X154239384Y-71019297D01*
X154245416Y-71012819D01*
X155379628Y-69878607D01*
X158817506Y-66440727D01*
X158817511Y-66440724D01*
X158827714Y-66430520D01*
X158827716Y-66430520D01*
X158939520Y-66318716D01*
X159018577Y-66181784D01*
X159059500Y-66029057D01*
X159059500Y-65907412D01*
X159079185Y-65840373D01*
X159086555Y-65830097D01*
X159088810Y-65827267D01*
X159088816Y-65827262D01*
X159184789Y-65674522D01*
X159244368Y-65504255D01*
X159250393Y-65450789D01*
X159252102Y-65435617D01*
X159279168Y-65371203D01*
X159336763Y-65331648D01*
X159375322Y-65325500D01*
X160821588Y-65325500D01*
X160888627Y-65345185D01*
X160898903Y-65352555D01*
X160901736Y-65354814D01*
X160901738Y-65354816D01*
X161054478Y-65450789D01*
X161207258Y-65504249D01*
X161224745Y-65510368D01*
X161224750Y-65510369D01*
X161403996Y-65530565D01*
X161404000Y-65530565D01*
X161404004Y-65530565D01*
X161583249Y-65510369D01*
X161583252Y-65510368D01*
X161583255Y-65510368D01*
X161753522Y-65450789D01*
X161906262Y-65354816D01*
X162033816Y-65227262D01*
X162129789Y-65074522D01*
X162189368Y-64904255D01*
X162201568Y-64795976D01*
X162209565Y-64725003D01*
X162209565Y-64724995D01*
X162203750Y-64673383D01*
X162215805Y-64604561D01*
X162263154Y-64553182D01*
X162326970Y-64535500D01*
X164718903Y-64535500D01*
X164785942Y-64555185D01*
G37*
%TD.AperFunction*%
%TA.AperFunction,Conductor*%
G36*
X153271484Y-82395185D02*
G01*
X153317239Y-82447989D01*
X153327183Y-82517147D01*
X153316827Y-82551905D01*
X153310097Y-82566335D01*
X153310094Y-82566344D01*
X153248938Y-82794586D01*
X153248936Y-82794596D01*
X153228341Y-83029999D01*
X153228341Y-83030000D01*
X153248936Y-83265403D01*
X153248938Y-83265413D01*
X153310094Y-83493655D01*
X153310099Y-83493669D01*
X153347136Y-83573095D01*
X153357628Y-83642172D01*
X153329108Y-83705956D01*
X153270631Y-83744195D01*
X153234754Y-83749499D01*
X153079943Y-83749499D01*
X152972587Y-83778265D01*
X152927210Y-83790424D01*
X152927209Y-83790425D01*
X152877096Y-83819359D01*
X152877095Y-83819360D01*
X152833689Y-83844420D01*
X152790285Y-83869479D01*
X152790282Y-83869481D01*
X151578481Y-85081282D01*
X151578475Y-85081290D01*
X151545324Y-85138711D01*
X151545324Y-85138712D01*
X151499424Y-85218211D01*
X151499423Y-85218212D01*
X151486886Y-85265003D01*
X151458499Y-85370943D01*
X151458499Y-85370945D01*
X151458499Y-85539046D01*
X151458500Y-85539059D01*
X151458500Y-89765588D01*
X151438815Y-89832627D01*
X151422181Y-89853269D01*
X150736434Y-90539015D01*
X150675111Y-90572500D01*
X150605419Y-90567516D01*
X150549486Y-90525644D01*
X150537035Y-90505139D01*
X150534793Y-90500484D01*
X150447710Y-90361893D01*
X150438816Y-90347738D01*
X150311262Y-90220184D01*
X150257392Y-90186335D01*
X150158523Y-90124211D01*
X149988254Y-90064631D01*
X149988249Y-90064630D01*
X149809004Y-90044435D01*
X149808996Y-90044435D01*
X149629750Y-90064630D01*
X149629745Y-90064631D01*
X149459476Y-90124211D01*
X149306737Y-90220184D01*
X149179184Y-90347737D01*
X149083210Y-90500478D01*
X149023630Y-90670750D01*
X149013837Y-90757668D01*
X148986770Y-90822082D01*
X148978298Y-90831465D01*
X148790286Y-91019478D01*
X148678481Y-91131282D01*
X148678480Y-91131284D01*
X148639083Y-91199522D01*
X148616763Y-91238181D01*
X148607160Y-91254815D01*
X148599423Y-91268215D01*
X148558499Y-91420943D01*
X148558499Y-91420945D01*
X148558499Y-91589046D01*
X148558500Y-91589059D01*
X148558500Y-92099903D01*
X148538815Y-92166942D01*
X148522181Y-92187584D01*
X147221584Y-93488181D01*
X147160261Y-93521666D01*
X147133903Y-93524500D01*
X146791412Y-93524500D01*
X146724373Y-93504815D01*
X146714097Y-93497445D01*
X146711263Y-93495185D01*
X146711262Y-93495184D01*
X146600222Y-93425413D01*
X146558521Y-93399210D01*
X146388249Y-93339630D01*
X146301330Y-93329837D01*
X146236916Y-93302770D01*
X146227533Y-93294298D01*
X145827359Y-92894124D01*
X145793874Y-92832801D01*
X145798858Y-92763109D01*
X145840730Y-92707176D01*
X145881849Y-92688146D01*
X145881682Y-92687668D01*
X145886607Y-92685944D01*
X145887462Y-92685549D01*
X145888253Y-92685368D01*
X145888255Y-92685368D01*
X146058522Y-92625789D01*
X146211262Y-92529816D01*
X146338816Y-92402262D01*
X146434789Y-92249522D01*
X146494368Y-92079255D01*
X146498528Y-92042335D01*
X146514565Y-91900003D01*
X146514565Y-91899996D01*
X146494369Y-91720750D01*
X146494368Y-91720745D01*
X146483083Y-91688495D01*
X146434789Y-91550478D01*
X146338816Y-91397738D01*
X146211262Y-91270184D01*
X146208125Y-91268213D01*
X146058523Y-91174211D01*
X145888254Y-91114631D01*
X145888249Y-91114630D01*
X145709004Y-91094435D01*
X145708996Y-91094435D01*
X145529750Y-91114630D01*
X145529745Y-91114631D01*
X145359476Y-91174211D01*
X145206737Y-91270184D01*
X145079182Y-91397739D01*
X145079181Y-91397741D01*
X145054844Y-91436473D01*
X145002509Y-91482764D01*
X144949851Y-91494500D01*
X139868798Y-91494500D01*
X139801759Y-91474815D01*
X139756004Y-91422011D01*
X139745578Y-91384383D01*
X139732936Y-91272183D01*
X139732935Y-91272178D01*
X139721039Y-91238181D01*
X139673356Y-91101911D01*
X139577383Y-90949171D01*
X139449829Y-90821617D01*
X139381120Y-90778444D01*
X139297090Y-90725644D01*
X139126821Y-90666064D01*
X139126816Y-90666063D01*
X138947571Y-90645868D01*
X138947563Y-90645868D01*
X138783449Y-90664358D01*
X138714627Y-90652303D01*
X138663248Y-90604954D01*
X138645624Y-90537343D01*
X138667351Y-90470938D01*
X138681875Y-90453467D01*
X138788081Y-90347262D01*
X138884054Y-90194522D01*
X138943633Y-90024255D01*
X138943633Y-90024254D01*
X138945933Y-90017682D01*
X138948919Y-90018727D01*
X138976025Y-89969946D01*
X139037593Y-89936915D01*
X139076941Y-89935052D01*
X139079744Y-89935367D01*
X139079745Y-89935368D01*
X139079754Y-89935369D01*
X139258997Y-89955565D01*
X139259000Y-89955565D01*
X139259004Y-89955565D01*
X139438249Y-89935369D01*
X139438252Y-89935368D01*
X139438255Y-89935368D01*
X139608522Y-89875789D01*
X139761262Y-89779816D01*
X139780564Y-89760512D01*
X139836151Y-89728418D01*
X139906470Y-89709577D01*
X139964992Y-89675789D01*
X140043401Y-89630520D01*
X140155205Y-89518716D01*
X140155205Y-89518714D01*
X140165409Y-89508511D01*
X140165412Y-89508506D01*
X147262101Y-82411819D01*
X147323424Y-82378334D01*
X147349782Y-82375500D01*
X153204445Y-82375500D01*
X153271484Y-82395185D01*
G37*
%TD.AperFunction*%
%TA.AperFunction,Conductor*%
G36*
X158378046Y-86380513D02*
G01*
X158413461Y-86440743D01*
X158416412Y-86484816D01*
X158403435Y-86599995D01*
X158403435Y-86600003D01*
X158423630Y-86779249D01*
X158423631Y-86779254D01*
X158483211Y-86949523D01*
X158559858Y-87071505D01*
X158579184Y-87102262D01*
X158706738Y-87229816D01*
X158859478Y-87325789D01*
X158924620Y-87348583D01*
X159029745Y-87385368D01*
X159029750Y-87385369D01*
X159208996Y-87405565D01*
X159209000Y-87405565D01*
X159209004Y-87405565D01*
X159388249Y-87385369D01*
X159388252Y-87385368D01*
X159388255Y-87385368D01*
X159558522Y-87325789D01*
X159695195Y-87239911D01*
X159762430Y-87220911D01*
X159829265Y-87241278D01*
X159874480Y-87294546D01*
X159880940Y-87312810D01*
X159899421Y-87381782D01*
X159899422Y-87381783D01*
X159899423Y-87381785D01*
X159913153Y-87405565D01*
X159935028Y-87443454D01*
X159978479Y-87518715D01*
X160097349Y-87637585D01*
X160097355Y-87637590D01*
X160928298Y-88468533D01*
X160961783Y-88529856D01*
X160963837Y-88542330D01*
X160973630Y-88629249D01*
X161033210Y-88799521D01*
X161129184Y-88952262D01*
X161256739Y-89079817D01*
X161323570Y-89121810D01*
X161369860Y-89174144D01*
X161380508Y-89243198D01*
X161352133Y-89307046D01*
X161345278Y-89314484D01*
X159421584Y-91238181D01*
X159360261Y-91271666D01*
X159333903Y-91274500D01*
X158516407Y-91274500D01*
X158449368Y-91254815D01*
X158403613Y-91202011D01*
X158393669Y-91132853D01*
X158396632Y-91118407D01*
X158441978Y-90949170D01*
X158459063Y-90885408D01*
X158479659Y-90650000D01*
X158479297Y-90645868D01*
X158469949Y-90539015D01*
X158459063Y-90414592D01*
X158406972Y-90220184D01*
X158397905Y-90186344D01*
X158397904Y-90186343D01*
X158397903Y-90186337D01*
X158298035Y-89972171D01*
X158292425Y-89964158D01*
X158162494Y-89778597D01*
X157995402Y-89611506D01*
X157995396Y-89611501D01*
X157809842Y-89481575D01*
X157766217Y-89426998D01*
X157759023Y-89357500D01*
X157790546Y-89295145D01*
X157809842Y-89278425D01*
X157891772Y-89221057D01*
X157995401Y-89148495D01*
X158162495Y-88981401D01*
X158298035Y-88787830D01*
X158397903Y-88573663D01*
X158459063Y-88345408D01*
X158479659Y-88110000D01*
X158459063Y-87874592D01*
X158397903Y-87646337D01*
X158298035Y-87432171D01*
X158292425Y-87424158D01*
X158162494Y-87238597D01*
X157995402Y-87071506D01*
X157995396Y-87071501D01*
X157809842Y-86941575D01*
X157766217Y-86886998D01*
X157759023Y-86817500D01*
X157790546Y-86755145D01*
X157809842Y-86738425D01*
X157832026Y-86722891D01*
X157995401Y-86608495D01*
X158162495Y-86441401D01*
X158191617Y-86399809D01*
X158246193Y-86356185D01*
X158315691Y-86348991D01*
X158378046Y-86380513D01*
G37*
%TD.AperFunction*%
%TA.AperFunction,Conductor*%
G36*
X155938549Y-86236110D02*
G01*
X155955269Y-86255405D01*
X156085505Y-86441401D01*
X156085506Y-86441402D01*
X156252597Y-86608493D01*
X156252603Y-86608498D01*
X156438158Y-86738425D01*
X156481783Y-86793002D01*
X156488977Y-86862500D01*
X156457454Y-86924855D01*
X156438158Y-86941575D01*
X156252597Y-87071505D01*
X156085505Y-87238597D01*
X155955575Y-87424158D01*
X155900998Y-87467783D01*
X155831500Y-87474977D01*
X155769145Y-87443454D01*
X155752425Y-87424158D01*
X155622494Y-87238597D01*
X155455402Y-87071506D01*
X155455401Y-87071505D01*
X155269405Y-86941269D01*
X155225781Y-86886692D01*
X155218588Y-86817193D01*
X155250110Y-86754839D01*
X155269405Y-86738119D01*
X155455082Y-86608105D01*
X155622105Y-86441082D01*
X155752119Y-86255405D01*
X155806696Y-86211781D01*
X155876195Y-86204588D01*
X155938549Y-86236110D01*
G37*
%TD.AperFunction*%
%TA.AperFunction,Conductor*%
G36*
X134727599Y-78941884D02*
G01*
X134772813Y-78995152D01*
X134783500Y-79045511D01*
X134783500Y-81524902D01*
X134763815Y-81591941D01*
X134747181Y-81612583D01*
X133397250Y-82962513D01*
X133375541Y-82979826D01*
X133231737Y-83070184D01*
X133104184Y-83197737D01*
X133008211Y-83350476D01*
X132948631Y-83520745D01*
X132948630Y-83520750D01*
X132928435Y-83699996D01*
X132928435Y-83700002D01*
X132937790Y-83783033D01*
X132925735Y-83851855D01*
X132878386Y-83903234D01*
X132876572Y-83904302D01*
X132850287Y-83919478D01*
X132850281Y-83919482D01*
X129421181Y-87348583D01*
X129359858Y-87382068D01*
X129290166Y-87377084D01*
X129234233Y-87335212D01*
X129209816Y-87269748D01*
X129209500Y-87260902D01*
X129209500Y-86200096D01*
X129229185Y-86133057D01*
X129245814Y-86112420D01*
X130859777Y-84498456D01*
X130921098Y-84464973D01*
X130990790Y-84469957D01*
X131013429Y-84481146D01*
X131084475Y-84525788D01*
X131254745Y-84585368D01*
X131254750Y-84585369D01*
X131433996Y-84605565D01*
X131434000Y-84605565D01*
X131434004Y-84605565D01*
X131613249Y-84585369D01*
X131613252Y-84585368D01*
X131613255Y-84585368D01*
X131783522Y-84525789D01*
X131936262Y-84429816D01*
X132063816Y-84302262D01*
X132159789Y-84149522D01*
X132219368Y-83979255D01*
X132219369Y-83979249D01*
X132239565Y-83800003D01*
X132239565Y-83799996D01*
X132219369Y-83620750D01*
X132219368Y-83620745D01*
X132203029Y-83574052D01*
X132159789Y-83450478D01*
X132063816Y-83297738D01*
X131936262Y-83170184D01*
X131783523Y-83074211D01*
X131613254Y-83014631D01*
X131613249Y-83014630D01*
X131434004Y-82994435D01*
X131433996Y-82994435D01*
X131254750Y-83014630D01*
X131254745Y-83014631D01*
X131084476Y-83074211D01*
X130931736Y-83170185D01*
X130928903Y-83172445D01*
X130926724Y-83173334D01*
X130925842Y-83173889D01*
X130925744Y-83173734D01*
X130864217Y-83198855D01*
X130851588Y-83199500D01*
X130629940Y-83199500D01*
X130589019Y-83210464D01*
X130589019Y-83210465D01*
X130551751Y-83220451D01*
X130477214Y-83240423D01*
X130477209Y-83240426D01*
X130340290Y-83319475D01*
X130340282Y-83319481D01*
X130228478Y-83431286D01*
X128316151Y-85343612D01*
X128254828Y-85377097D01*
X128185136Y-85372113D01*
X128129203Y-85330241D01*
X128104786Y-85264777D01*
X128105248Y-85242057D01*
X128109161Y-85207329D01*
X128136226Y-85142918D01*
X128144690Y-85133543D01*
X134182535Y-79095698D01*
X134243856Y-79062215D01*
X134256311Y-79060163D01*
X134343255Y-79050368D01*
X134513522Y-78990789D01*
X134593528Y-78940517D01*
X134660764Y-78921517D01*
X134727599Y-78941884D01*
G37*
%TD.AperFunction*%
%TA.AperFunction,Conductor*%
G36*
X153190992Y-85269754D02*
G01*
X153246034Y-85310449D01*
X153253363Y-85320000D01*
X154150988Y-85320000D01*
X154118075Y-85377007D01*
X154084000Y-85504174D01*
X154084000Y-85635826D01*
X154118075Y-85762993D01*
X154150988Y-85820000D01*
X153251981Y-85820000D01*
X153198696Y-85858908D01*
X153128950Y-85863062D01*
X153115794Y-85859259D01*
X152988262Y-85814633D01*
X152988250Y-85814630D01*
X152844498Y-85798434D01*
X152780085Y-85771368D01*
X152740529Y-85713773D01*
X152738392Y-85643936D01*
X152770699Y-85587535D01*
X153059982Y-85298252D01*
X153121301Y-85264770D01*
X153190992Y-85269754D01*
G37*
%TD.AperFunction*%
%TA.AperFunction,Conductor*%
G36*
X151803451Y-65345185D02*
G01*
X151849206Y-65397989D01*
X151859632Y-65435617D01*
X151878631Y-65604249D01*
X151878632Y-65604254D01*
X151938212Y-65774523D01*
X151971351Y-65827263D01*
X152029065Y-65919114D01*
X152034186Y-65927263D01*
X152036446Y-65930097D01*
X152037335Y-65932275D01*
X152037890Y-65933158D01*
X152037735Y-65933255D01*
X152062856Y-65994783D01*
X152063501Y-66007412D01*
X152063501Y-69719901D01*
X152043816Y-69786940D01*
X152027182Y-69807582D01*
X139177355Y-82657408D01*
X139116032Y-82690893D01*
X139103559Y-82692947D01*
X139048130Y-82699192D01*
X138877858Y-82758772D01*
X138725117Y-82854746D01*
X138597562Y-82982301D01*
X138580540Y-83009393D01*
X138528206Y-83055683D01*
X138459152Y-83066331D01*
X138395304Y-83037956D01*
X138387866Y-83031101D01*
X138095819Y-82739054D01*
X138062334Y-82677731D01*
X138059500Y-82651373D01*
X138059500Y-80207412D01*
X138079185Y-80140373D01*
X138086555Y-80130097D01*
X138088810Y-80127267D01*
X138088816Y-80127262D01*
X138184789Y-79974522D01*
X138244368Y-79804255D01*
X138264565Y-79625000D01*
X138250106Y-79496673D01*
X138244369Y-79445750D01*
X138244368Y-79445745D01*
X138216625Y-79366460D01*
X138184789Y-79275478D01*
X138164882Y-79243797D01*
X138088815Y-79122737D01*
X137961262Y-78995184D01*
X137808523Y-78899211D01*
X137638254Y-78839631D01*
X137638249Y-78839630D01*
X137459004Y-78819435D01*
X137458996Y-78819435D01*
X137279750Y-78839630D01*
X137279745Y-78839631D01*
X137109476Y-78899211D01*
X136956737Y-78995184D01*
X136829184Y-79122737D01*
X136733209Y-79275479D01*
X136725541Y-79297395D01*
X136684819Y-79354170D01*
X136619866Y-79379917D01*
X136551305Y-79366460D01*
X136500902Y-79318073D01*
X136484500Y-79256439D01*
X136484500Y-77425343D01*
X136504185Y-77358304D01*
X136556989Y-77312549D01*
X136594616Y-77302123D01*
X136648234Y-77296082D01*
X136743904Y-77285303D01*
X136743907Y-77285302D01*
X136743910Y-77285302D01*
X136914177Y-77225723D01*
X137066917Y-77129750D01*
X137194471Y-77002196D01*
X137290444Y-76849456D01*
X137350023Y-76679189D01*
X137363094Y-76563181D01*
X137370220Y-76499937D01*
X137370220Y-76499930D01*
X137350024Y-76320684D01*
X137350023Y-76320679D01*
X137314850Y-76220160D01*
X137290444Y-76150412D01*
X137194471Y-75997672D01*
X137194469Y-75997670D01*
X137194468Y-75997668D01*
X137192205Y-75994830D01*
X137191314Y-75992649D01*
X137190766Y-75991776D01*
X137190919Y-75991679D01*
X137165799Y-75930143D01*
X137165155Y-75917521D01*
X137165155Y-75914442D01*
X137184840Y-75847403D01*
X137201474Y-75826761D01*
X141791916Y-71236319D01*
X141853239Y-71202834D01*
X141879597Y-71200000D01*
X142725988Y-71200000D01*
X142693075Y-71257007D01*
X142659000Y-71384174D01*
X142659000Y-71515826D01*
X142693075Y-71642993D01*
X142725988Y-71700000D01*
X141809000Y-71700000D01*
X141809000Y-72347844D01*
X141815401Y-72407372D01*
X141815403Y-72407379D01*
X141865645Y-72542086D01*
X141865649Y-72542093D01*
X141951809Y-72657187D01*
X141951812Y-72657190D01*
X142066906Y-72743350D01*
X142066913Y-72743354D01*
X142201620Y-72793596D01*
X142201627Y-72793598D01*
X142261155Y-72799999D01*
X142261172Y-72800000D01*
X142909000Y-72800000D01*
X142909000Y-71883012D01*
X142966007Y-71915925D01*
X143093174Y-71950000D01*
X143224826Y-71950000D01*
X143351993Y-71915925D01*
X143409000Y-71883012D01*
X143409000Y-72800000D01*
X144056828Y-72800000D01*
X144056844Y-72799999D01*
X144116372Y-72793598D01*
X144116379Y-72793596D01*
X144251086Y-72743354D01*
X144251093Y-72743350D01*
X144366187Y-72657190D01*
X144366190Y-72657187D01*
X144452350Y-72542093D01*
X144452354Y-72542086D01*
X144501422Y-72410529D01*
X144543293Y-72354595D01*
X144608757Y-72330178D01*
X144677030Y-72345030D01*
X144705285Y-72366181D01*
X144827599Y-72488495D01*
X144904135Y-72542086D01*
X145021165Y-72624032D01*
X145021167Y-72624033D01*
X145021170Y-72624035D01*
X145235337Y-72723903D01*
X145235343Y-72723904D01*
X145235344Y-72723905D01*
X145265701Y-72732039D01*
X145463592Y-72785063D01*
X145634319Y-72800000D01*
X145698999Y-72805659D01*
X145699000Y-72805659D01*
X145699001Y-72805659D01*
X145763681Y-72800000D01*
X145934408Y-72785063D01*
X146162663Y-72723903D01*
X146376830Y-72624035D01*
X146570401Y-72488495D01*
X146737495Y-72321401D01*
X146873035Y-72127830D01*
X146972903Y-71913663D01*
X147034063Y-71685408D01*
X147054659Y-71450000D01*
X147034063Y-71214592D01*
X146981912Y-71019960D01*
X146972905Y-70986344D01*
X146972904Y-70986343D01*
X146972903Y-70986337D01*
X146873035Y-70772171D01*
X146856179Y-70748097D01*
X146737494Y-70578597D01*
X146570402Y-70411506D01*
X146570395Y-70411501D01*
X146546766Y-70394956D01*
X146484695Y-70351493D01*
X146376834Y-70275967D01*
X146376830Y-70275965D01*
X146320974Y-70249919D01*
X146162663Y-70176097D01*
X146162659Y-70176096D01*
X146162655Y-70176094D01*
X145934413Y-70114938D01*
X145934403Y-70114936D01*
X145699001Y-70094341D01*
X145698999Y-70094341D01*
X145463596Y-70114936D01*
X145463586Y-70114938D01*
X145235344Y-70176094D01*
X145235335Y-70176098D01*
X145021171Y-70275964D01*
X145021169Y-70275965D01*
X144827600Y-70411503D01*
X144705284Y-70533819D01*
X144643961Y-70567303D01*
X144574269Y-70562319D01*
X144518336Y-70520447D01*
X144501421Y-70489470D01*
X144452354Y-70357913D01*
X144452350Y-70357906D01*
X144366190Y-70242812D01*
X144366187Y-70242809D01*
X144251093Y-70156649D01*
X144251086Y-70156645D01*
X144116379Y-70106403D01*
X144116372Y-70106401D01*
X144056844Y-70100000D01*
X143409000Y-70100000D01*
X143409000Y-71016988D01*
X143351993Y-70984075D01*
X143224826Y-70950000D01*
X143093174Y-70950000D01*
X142966007Y-70984075D01*
X142909000Y-71016988D01*
X142909000Y-70170597D01*
X142928685Y-70103558D01*
X142945319Y-70082916D01*
X147666416Y-65361819D01*
X147727739Y-65328334D01*
X147754097Y-65325500D01*
X151736412Y-65325500D01*
X151803451Y-65345185D01*
G37*
%TD.AperFunction*%
%TA.AperFunction,Conductor*%
G36*
X166734520Y-62070185D02*
G01*
X166755162Y-62086819D01*
X171353742Y-66685400D01*
X171353743Y-66685401D01*
X171468481Y-66762066D01*
X171595956Y-66814867D01*
X171595961Y-66814869D01*
X171595965Y-66814869D01*
X171595966Y-66814870D01*
X171731292Y-66841789D01*
X171731295Y-66841789D01*
X171731296Y-66841789D01*
X176108661Y-66841789D01*
X176175700Y-66861474D01*
X176221455Y-66914278D01*
X176231399Y-66983436D01*
X176202374Y-67046992D01*
X176196342Y-67053470D01*
X175694548Y-67555263D01*
X175694544Y-67555267D01*
X175656964Y-67601902D01*
X175597238Y-67732681D01*
X175597237Y-67732686D01*
X175576777Y-67875000D01*
X175597237Y-68017313D01*
X175597238Y-68017318D01*
X175656964Y-68148097D01*
X175694544Y-68194732D01*
X176152628Y-68652816D01*
X176801036Y-68004407D01*
X176818075Y-68067993D01*
X176883901Y-68182007D01*
X176976993Y-68275099D01*
X177091007Y-68340925D01*
X177154588Y-68357962D01*
X176506182Y-69006369D01*
X176506182Y-69006370D01*
X176964267Y-69464455D01*
X177010902Y-69502035D01*
X177141681Y-69561761D01*
X177141686Y-69561762D01*
X177284000Y-69582222D01*
X177426313Y-69561762D01*
X177426314Y-69561761D01*
X177553167Y-69503829D01*
X177622326Y-69493885D01*
X177685882Y-69522909D01*
X177723657Y-69581687D01*
X177728208Y-69627430D01*
X177724392Y-69671048D01*
X177724392Y-69671051D01*
X177744987Y-69906454D01*
X177744989Y-69906464D01*
X177806145Y-70134706D01*
X177806147Y-70134710D01*
X177806148Y-70134714D01*
X177880931Y-70295086D01*
X177906016Y-70348881D01*
X177906018Y-70348885D01*
X178014332Y-70503572D01*
X178041556Y-70542452D01*
X178208650Y-70709546D01*
X178295697Y-70770497D01*
X178402216Y-70845083D01*
X178402218Y-70845084D01*
X178402221Y-70845086D01*
X178616388Y-70944954D01*
X178844643Y-71006114D01*
X179032969Y-71022590D01*
X179080050Y-71026710D01*
X179080051Y-71026710D01*
X179080052Y-71026710D01*
X179119285Y-71023277D01*
X179315459Y-71006114D01*
X179416150Y-70979134D01*
X179486000Y-70980797D01*
X179543862Y-71019960D01*
X179571366Y-71084188D01*
X179568018Y-71131001D01*
X179541041Y-71231685D01*
X179541038Y-71231698D01*
X179520443Y-71467101D01*
X179520443Y-71467102D01*
X179541039Y-71702511D01*
X179541039Y-71702512D01*
X179545544Y-71719327D01*
X179543878Y-71789177D01*
X179513449Y-71839096D01*
X178648096Y-72704449D01*
X178586773Y-72737934D01*
X178528327Y-72736544D01*
X178511512Y-72732039D01*
X178276103Y-72711443D01*
X178276101Y-72711443D01*
X178040698Y-72732038D01*
X178040685Y-72732041D01*
X177940001Y-72759018D01*
X177870151Y-72757355D01*
X177812289Y-72718191D01*
X177784786Y-72653963D01*
X177788134Y-72607150D01*
X177792072Y-72592453D01*
X177815114Y-72506459D01*
X177835710Y-72271051D01*
X177834057Y-72252163D01*
X177828707Y-72191005D01*
X177815114Y-72035643D01*
X177753954Y-71807388D01*
X177654086Y-71593222D01*
X177629948Y-71558748D01*
X177518545Y-71399648D01*
X177351453Y-71232557D01*
X177351446Y-71232552D01*
X177350226Y-71231698D01*
X177261136Y-71169316D01*
X177157885Y-71097018D01*
X177157881Y-71097016D01*
X177127508Y-71082853D01*
X176943714Y-70997148D01*
X176943710Y-70997147D01*
X176943706Y-70997145D01*
X176715464Y-70935989D01*
X176715454Y-70935987D01*
X176480052Y-70915392D01*
X176480049Y-70915392D01*
X176436430Y-70919208D01*
X176367930Y-70905441D01*
X176317747Y-70856826D01*
X176301814Y-70788797D01*
X176312829Y-70744167D01*
X176370761Y-70617314D01*
X176370762Y-70617313D01*
X176391222Y-70475000D01*
X176370762Y-70332686D01*
X176370761Y-70332681D01*
X176311035Y-70201902D01*
X176273455Y-70155267D01*
X175815370Y-69697182D01*
X175815369Y-69697182D01*
X175166962Y-70345589D01*
X175149925Y-70282007D01*
X175084099Y-70167993D01*
X174991007Y-70074901D01*
X174876993Y-70009075D01*
X174813410Y-69992037D01*
X175461817Y-69343629D01*
X175461817Y-69343628D01*
X175003736Y-68885548D01*
X175003732Y-68885544D01*
X174957097Y-68847964D01*
X174826318Y-68788238D01*
X174826313Y-68788237D01*
X174684000Y-68767777D01*
X174541686Y-68788237D01*
X174541681Y-68788238D01*
X174410902Y-68847964D01*
X174364262Y-68885548D01*
X173906182Y-69343628D01*
X173906182Y-69343629D01*
X174554590Y-69992037D01*
X174491007Y-70009075D01*
X174376993Y-70074901D01*
X174283901Y-70167993D01*
X174218075Y-70282007D01*
X174201037Y-70345590D01*
X173552629Y-69697182D01*
X173552628Y-69697182D01*
X173094548Y-70155262D01*
X173056964Y-70201902D01*
X172997238Y-70332681D01*
X172997237Y-70332686D01*
X172976777Y-70475000D01*
X172997237Y-70617313D01*
X172997238Y-70617318D01*
X173056964Y-70748097D01*
X173094544Y-70794732D01*
X173552629Y-71252817D01*
X174201037Y-70604409D01*
X174218075Y-70667993D01*
X174283901Y-70782007D01*
X174376993Y-70875099D01*
X174491007Y-70940925D01*
X174554590Y-70957962D01*
X173878319Y-71634232D01*
X173816996Y-71667717D01*
X173790638Y-71670551D01*
X173655148Y-71670551D01*
X173588109Y-71650866D01*
X173567467Y-71634232D01*
X165506590Y-63573355D01*
X165506588Y-63573352D01*
X165387717Y-63454481D01*
X165387716Y-63454480D01*
X165300904Y-63404360D01*
X165300904Y-63404359D01*
X165300900Y-63404358D01*
X165250785Y-63375423D01*
X165098057Y-63334499D01*
X164939943Y-63334499D01*
X164932347Y-63334499D01*
X164932331Y-63334500D01*
X147764983Y-63334500D01*
X147764967Y-63334499D01*
X147757371Y-63334499D01*
X147599257Y-63334499D01*
X147491901Y-63363265D01*
X147446524Y-63375424D01*
X147446523Y-63375425D01*
X147396410Y-63404359D01*
X147396409Y-63404360D01*
X147353003Y-63429420D01*
X147309599Y-63454479D01*
X147309596Y-63454481D01*
X136196181Y-74567897D01*
X136134858Y-74601382D01*
X136065166Y-74596398D01*
X136009233Y-74554526D01*
X135984816Y-74489062D01*
X135984500Y-74480216D01*
X135984500Y-73188448D01*
X136004185Y-73121409D01*
X136056989Y-73075654D01*
X136097689Y-73064921D01*
X136198357Y-73056114D01*
X136426612Y-72994954D01*
X136640779Y-72895086D01*
X136834350Y-72759546D01*
X137001444Y-72592452D01*
X137136984Y-72398881D01*
X137236852Y-72184714D01*
X137298012Y-71956459D01*
X137318608Y-71721051D01*
X137314791Y-71677429D01*
X137328557Y-71608932D01*
X137377171Y-71558748D01*
X137445199Y-71542814D01*
X137489831Y-71553829D01*
X137616682Y-71611761D01*
X137616686Y-71611762D01*
X137759000Y-71632222D01*
X137901313Y-71611762D01*
X137901318Y-71611761D01*
X138032097Y-71552035D01*
X138078732Y-71514455D01*
X138536817Y-71056370D01*
X137888409Y-70407962D01*
X137951993Y-70390925D01*
X138066007Y-70325099D01*
X138159099Y-70232007D01*
X138224925Y-70117993D01*
X138241962Y-70054409D01*
X138890369Y-70702817D01*
X138890370Y-70702817D01*
X139348455Y-70244732D01*
X139386035Y-70198097D01*
X139445761Y-70067318D01*
X139445762Y-70067313D01*
X139466222Y-69925000D01*
X139445762Y-69782686D01*
X139445761Y-69782681D01*
X139386035Y-69651902D01*
X139348455Y-69605267D01*
X138890370Y-69147182D01*
X138890369Y-69147182D01*
X138241962Y-69795589D01*
X138224925Y-69732007D01*
X138159099Y-69617993D01*
X138066007Y-69524901D01*
X137951993Y-69459075D01*
X137888410Y-69442037D01*
X138536817Y-68793629D01*
X138536817Y-68793628D01*
X138078736Y-68335548D01*
X138078732Y-68335544D01*
X138032097Y-68297964D01*
X137901318Y-68238238D01*
X137901313Y-68238237D01*
X137759000Y-68217777D01*
X137616686Y-68238237D01*
X137616681Y-68238238D01*
X137485902Y-68297964D01*
X137439262Y-68335548D01*
X136981182Y-68793628D01*
X136981182Y-68793629D01*
X137629590Y-69442037D01*
X137566007Y-69459075D01*
X137451993Y-69524901D01*
X137358901Y-69617993D01*
X137293075Y-69732007D01*
X137276037Y-69795590D01*
X136627629Y-69147182D01*
X136627628Y-69147182D01*
X136169548Y-69605262D01*
X136131964Y-69651902D01*
X136072238Y-69782681D01*
X136072237Y-69782686D01*
X136051777Y-69925000D01*
X136072237Y-70067313D01*
X136072238Y-70067317D01*
X136130170Y-70194168D01*
X136140114Y-70263327D01*
X136111089Y-70326882D01*
X136052311Y-70364657D01*
X136006569Y-70369208D01*
X135962951Y-70365392D01*
X135962948Y-70365392D01*
X135727545Y-70385987D01*
X135727535Y-70385989D01*
X135499293Y-70447145D01*
X135499284Y-70447149D01*
X135285120Y-70547015D01*
X135285118Y-70547016D01*
X135091546Y-70682556D01*
X134924454Y-70849648D01*
X134788914Y-71043220D01*
X134788913Y-71043222D01*
X134700627Y-71232552D01*
X134691829Y-71251421D01*
X134689047Y-71257386D01*
X134689043Y-71257395D01*
X134627887Y-71485637D01*
X134627885Y-71485647D01*
X134607290Y-71721050D01*
X134607290Y-71721051D01*
X134627885Y-71956454D01*
X134627888Y-71956467D01*
X134654865Y-72057151D01*
X134653202Y-72127001D01*
X134614039Y-72184863D01*
X134549810Y-72212366D01*
X134502998Y-72209018D01*
X134402314Y-72182041D01*
X134402310Y-72182040D01*
X134402306Y-72182039D01*
X134402304Y-72182038D01*
X134402301Y-72182038D01*
X134166899Y-72161443D01*
X134166897Y-72161443D01*
X133931495Y-72182038D01*
X133931491Y-72182038D01*
X133931490Y-72182039D01*
X133931485Y-72182040D01*
X133931482Y-72182041D01*
X133914676Y-72186544D01*
X133844826Y-72184880D01*
X133794903Y-72154450D01*
X132929549Y-71289096D01*
X132896064Y-71227773D01*
X132897456Y-71169319D01*
X132901961Y-71152510D01*
X132922557Y-70917102D01*
X132901961Y-70681694D01*
X132874981Y-70581002D01*
X132876644Y-70511152D01*
X132915807Y-70453290D01*
X132980035Y-70425786D01*
X133026849Y-70429134D01*
X133127541Y-70456114D01*
X133315867Y-70472590D01*
X133362948Y-70476710D01*
X133362949Y-70476710D01*
X133362950Y-70476710D01*
X133402183Y-70473277D01*
X133598357Y-70456114D01*
X133826612Y-70394954D01*
X134040779Y-70295086D01*
X134234350Y-70159546D01*
X134401444Y-69992452D01*
X134536984Y-69798881D01*
X134636852Y-69584714D01*
X134698012Y-69356459D01*
X134718608Y-69121051D01*
X134714791Y-69077429D01*
X134728557Y-69008932D01*
X134777171Y-68958748D01*
X134845199Y-68942814D01*
X134889831Y-68953829D01*
X135016682Y-69011761D01*
X135016686Y-69011762D01*
X135159000Y-69032222D01*
X135301313Y-69011762D01*
X135301318Y-69011761D01*
X135432097Y-68952035D01*
X135478732Y-68914455D01*
X135936817Y-68456370D01*
X135936817Y-68456369D01*
X135288410Y-67807962D01*
X135351993Y-67790925D01*
X135466007Y-67725099D01*
X135559099Y-67632007D01*
X135624925Y-67517993D01*
X135641962Y-67454410D01*
X136290369Y-68102817D01*
X136290370Y-68102817D01*
X136748455Y-67644732D01*
X136786035Y-67598097D01*
X136845761Y-67467318D01*
X136845762Y-67467313D01*
X136866222Y-67325000D01*
X136845762Y-67182686D01*
X136845761Y-67182681D01*
X136786035Y-67051902D01*
X136748455Y-67005267D01*
X136290370Y-66547182D01*
X136290369Y-66547182D01*
X135641962Y-67195589D01*
X135624925Y-67132007D01*
X135559099Y-67017993D01*
X135466007Y-66924901D01*
X135351993Y-66859075D01*
X135288409Y-66842037D01*
X135939257Y-66191188D01*
X135956502Y-66132461D01*
X136009306Y-66086706D01*
X136060817Y-66075500D01*
X139302996Y-66075500D01*
X139394040Y-66057389D01*
X139438328Y-66048580D01*
X139537717Y-66007412D01*
X139565807Y-65995777D01*
X139565808Y-65995776D01*
X139565811Y-65995775D01*
X139680543Y-65919114D01*
X143512838Y-62086819D01*
X143574161Y-62053334D01*
X143600519Y-62050500D01*
X166667481Y-62050500D01*
X166734520Y-62070185D01*
G37*
%TD.AperFunction*%
%TA.AperFunction,Conductor*%
G36*
X142278797Y-61155703D02*
G01*
X142315208Y-61215336D01*
X142313599Y-61285187D01*
X142283139Y-61335202D01*
X138980162Y-64638181D01*
X138918839Y-64671666D01*
X138892481Y-64674500D01*
X136269849Y-64674500D01*
X136202810Y-64654815D01*
X136157055Y-64602011D01*
X136147111Y-64532853D01*
X136176136Y-64469297D01*
X136199012Y-64448725D01*
X136654925Y-64131400D01*
X136658278Y-64129149D01*
X137633271Y-63498319D01*
X137636770Y-63496137D01*
X138632506Y-62898603D01*
X138636030Y-62896568D01*
X139651403Y-62332989D01*
X139654983Y-62331081D01*
X140688795Y-61802126D01*
X140692496Y-61800311D01*
X141743567Y-61306582D01*
X141747254Y-61304925D01*
X142146560Y-61133569D01*
X142215927Y-61125222D01*
X142278797Y-61155703D01*
G37*
%TD.AperFunction*%
%TD*%
M02*
