%TF.GenerationSoftware,KiCad,Pcbnew,8.0.5*%
%TF.CreationDate,2025-05-15T20:07:03-04:00*%
%TF.ProjectId,RTLS_VIC,52544c53-5f56-4494-932e-6b696361645f,rev?*%
%TF.SameCoordinates,Original*%
%TF.FileFunction,Legend,Top*%
%TF.FilePolarity,Positive*%
%FSLAX46Y46*%
G04 Gerber Fmt 4.6, Leading zero omitted, Abs format (unit mm)*
G04 Created by KiCad (PCBNEW 8.0.5) date 2025-05-15 20:07:03*
%MOMM*%
%LPD*%
G01*
G04 APERTURE LIST*
G04 Aperture macros list*
%AMRoundRect*
0 Rectangle with rounded corners*
0 $1 Rounding radius*
0 $2 $3 $4 $5 $6 $7 $8 $9 X,Y pos of 4 corners*
0 Add a 4 corners polygon primitive as box body*
4,1,4,$2,$3,$4,$5,$6,$7,$8,$9,$2,$3,0*
0 Add four circle primitives for the rounded corners*
1,1,$1+$1,$2,$3*
1,1,$1+$1,$4,$5*
1,1,$1+$1,$6,$7*
1,1,$1+$1,$8,$9*
0 Add four rect primitives between the rounded corners*
20,1,$1+$1,$2,$3,$4,$5,0*
20,1,$1+$1,$4,$5,$6,$7,0*
20,1,$1+$1,$6,$7,$8,$9,0*
20,1,$1+$1,$8,$9,$2,$3,0*%
%AMHorizOval*
0 Thick line with rounded ends*
0 $1 width*
0 $2 $3 position (X,Y) of the first rounded end (center of the circle)*
0 $4 $5 position (X,Y) of the second rounded end (center of the circle)*
0 Add line between two ends*
20,1,$1,$2,$3,$4,$5,0*
0 Add two circle primitives to create the rounded ends*
1,1,$1,$2,$3*
1,1,$1,$4,$5*%
%AMRotRect*
0 Rectangle, with rotation*
0 The origin of the aperture is its center*
0 $1 length*
0 $2 width*
0 $3 Rotation angle, in degrees counterclockwise*
0 Add horizontal line*
21,1,$1,$2,0,0,$3*%
G04 Aperture macros list end*
%ADD10C,0.100000*%
%ADD11C,0.400000*%
%ADD12C,0.200000*%
%ADD13C,0.800000*%
%ADD14C,0.150000*%
%ADD15C,0.120000*%
%ADD16C,0.250000*%
%ADD17C,0.000000*%
%ADD18C,0.300000*%
%ADD19C,0.600000*%
%ADD20RoundRect,0.140000X0.140000X0.170000X-0.140000X0.170000X-0.140000X-0.170000X0.140000X-0.170000X0*%
%ADD21RoundRect,0.218750X-0.218750X-0.256250X0.218750X-0.256250X0.218750X0.256250X-0.218750X0.256250X0*%
%ADD22R,1.800000X1.200000*%
%ADD23RotRect,1.700000X1.700000X45.000000*%
%ADD24HorizOval,1.700000X0.000000X0.000000X0.000000X0.000000X0*%
%ADD25R,1.700000X1.700000*%
%ADD26O,1.700000X1.700000*%
%ADD27RoundRect,0.200000X-0.275000X0.200000X-0.275000X-0.200000X0.275000X-0.200000X0.275000X0.200000X0*%
%ADD28RoundRect,0.140000X-0.140000X-0.170000X0.140000X-0.170000X0.140000X0.170000X-0.140000X0.170000X0*%
%ADD29R,1.400000X1.200000*%
%ADD30RoundRect,0.140000X-0.219203X-0.021213X-0.021213X-0.219203X0.219203X0.021213X0.021213X0.219203X0*%
%ADD31O,0.300000X2.000000*%
%ADD32O,2.000000X0.300000*%
%ADD33RoundRect,0.200000X-0.200000X-0.275000X0.200000X-0.275000X0.200000X0.275000X-0.200000X0.275000X0*%
%ADD34RotRect,1.700000X1.700000X315.000000*%
%ADD35HorizOval,1.700000X0.000000X0.000000X0.000000X0.000000X0*%
%ADD36RoundRect,0.200000X0.275000X-0.200000X0.275000X0.200000X-0.275000X0.200000X-0.275000X-0.200000X0*%
%ADD37RoundRect,0.218750X-0.256250X0.218750X-0.256250X-0.218750X0.256250X-0.218750X0.256250X0.218750X0*%
%ADD38RoundRect,0.140000X0.170000X-0.140000X0.170000X0.140000X-0.170000X0.140000X-0.170000X-0.140000X0*%
%ADD39RoundRect,0.140000X-0.170000X0.140000X-0.170000X-0.140000X0.170000X-0.140000X0.170000X0.140000X0*%
%ADD40RoundRect,0.200000X0.200000X0.275000X-0.200000X0.275000X-0.200000X-0.275000X0.200000X-0.275000X0*%
%ADD41R,0.680000X0.280000*%
%ADD42R,0.280000X0.680000*%
%ADD43R,1.000000X0.750000*%
%ADD44R,0.750000X1.000000*%
%ADD45C,0.990600*%
%ADD46C,0.787400*%
%ADD47R,0.300000X0.300000*%
%ADD48R,1.300000X0.550000*%
%ADD49R,0.660000X0.280000*%
%ADD50R,1.200000X2.000000*%
%ADD51R,1.000000X0.600000*%
G04 APERTURE END LIST*
D10*
X163494000Y-63685000D02*
X171494000Y-63685000D01*
X171494000Y-71685000D01*
X163494000Y-71685000D01*
X163494000Y-63685000D01*
G36*
X163494000Y-63685000D02*
G01*
X171494000Y-63685000D01*
X171494000Y-71685000D01*
X163494000Y-71685000D01*
X163494000Y-63685000D01*
G37*
D11*
X141141204Y-116809438D02*
X140474537Y-115857057D01*
X139998347Y-116809438D02*
X139998347Y-114809438D01*
X139998347Y-114809438D02*
X140760252Y-114809438D01*
X140760252Y-114809438D02*
X140950728Y-114904676D01*
X140950728Y-114904676D02*
X141045966Y-114999914D01*
X141045966Y-114999914D02*
X141141204Y-115190390D01*
X141141204Y-115190390D02*
X141141204Y-115476104D01*
X141141204Y-115476104D02*
X141045966Y-115666580D01*
X141045966Y-115666580D02*
X140950728Y-115761819D01*
X140950728Y-115761819D02*
X140760252Y-115857057D01*
X140760252Y-115857057D02*
X139998347Y-115857057D01*
X141998347Y-115761819D02*
X142665014Y-115761819D01*
X142950728Y-116809438D02*
X141998347Y-116809438D01*
X141998347Y-116809438D02*
X141998347Y-114809438D01*
X141998347Y-114809438D02*
X142950728Y-114809438D01*
X143712633Y-116714200D02*
X143998347Y-116809438D01*
X143998347Y-116809438D02*
X144474538Y-116809438D01*
X144474538Y-116809438D02*
X144665014Y-116714200D01*
X144665014Y-116714200D02*
X144760252Y-116618961D01*
X144760252Y-116618961D02*
X144855490Y-116428485D01*
X144855490Y-116428485D02*
X144855490Y-116238009D01*
X144855490Y-116238009D02*
X144760252Y-116047533D01*
X144760252Y-116047533D02*
X144665014Y-115952295D01*
X144665014Y-115952295D02*
X144474538Y-115857057D01*
X144474538Y-115857057D02*
X144093585Y-115761819D01*
X144093585Y-115761819D02*
X143903109Y-115666580D01*
X143903109Y-115666580D02*
X143807871Y-115571342D01*
X143807871Y-115571342D02*
X143712633Y-115380866D01*
X143712633Y-115380866D02*
X143712633Y-115190390D01*
X143712633Y-115190390D02*
X143807871Y-114999914D01*
X143807871Y-114999914D02*
X143903109Y-114904676D01*
X143903109Y-114904676D02*
X144093585Y-114809438D01*
X144093585Y-114809438D02*
X144569776Y-114809438D01*
X144569776Y-114809438D02*
X144855490Y-114904676D01*
X145712633Y-115761819D02*
X146379300Y-115761819D01*
X146665014Y-116809438D02*
X145712633Y-116809438D01*
X145712633Y-116809438D02*
X145712633Y-114809438D01*
X145712633Y-114809438D02*
X146665014Y-114809438D01*
X147236443Y-114809438D02*
X148379300Y-114809438D01*
X147807871Y-116809438D02*
X147807871Y-114809438D01*
D12*
X175001508Y-114644711D02*
X174294401Y-113937604D01*
X174294401Y-113937604D02*
X174563775Y-113668230D01*
X174563775Y-113668230D02*
X174664790Y-113634558D01*
X174664790Y-113634558D02*
X174732134Y-113634558D01*
X174732134Y-113634558D02*
X174833149Y-113668230D01*
X174833149Y-113668230D02*
X174934164Y-113769245D01*
X174934164Y-113769245D02*
X174967836Y-113870260D01*
X174967836Y-113870260D02*
X174967836Y-113937604D01*
X174967836Y-113937604D02*
X174934164Y-114038619D01*
X174934164Y-114038619D02*
X174664790Y-114307993D01*
X174934164Y-113297841D02*
X175809630Y-113836589D01*
X175809630Y-113836589D02*
X175439240Y-113196825D01*
X175439240Y-113196825D02*
X176079004Y-113567215D01*
X176079004Y-113567215D02*
X175540256Y-112691749D01*
X176516736Y-113129482D02*
X175809630Y-112422375D01*
X175809630Y-112422375D02*
X176550408Y-112691749D01*
X176550408Y-112691749D02*
X176281034Y-111950971D01*
X176281034Y-111950971D02*
X176988141Y-112658077D01*
X177223843Y-112557062D02*
X177762591Y-112018314D01*
X177695248Y-111008162D02*
X178166652Y-111479566D01*
X177257515Y-110907146D02*
X177594232Y-111580581D01*
X177594232Y-111580581D02*
X178031965Y-111142849D01*
X134664288Y-111417508D02*
X135371395Y-110710401D01*
X135371395Y-110710401D02*
X135640769Y-110979775D01*
X135640769Y-110979775D02*
X135674441Y-111080790D01*
X135674441Y-111080790D02*
X135674441Y-111148134D01*
X135674441Y-111148134D02*
X135640769Y-111249149D01*
X135640769Y-111249149D02*
X135539754Y-111350164D01*
X135539754Y-111350164D02*
X135438739Y-111383836D01*
X135438739Y-111383836D02*
X135371395Y-111383836D01*
X135371395Y-111383836D02*
X135270380Y-111350164D01*
X135270380Y-111350164D02*
X135001006Y-111080790D01*
X136011158Y-111350164D02*
X135472410Y-112225630D01*
X135472410Y-112225630D02*
X136112174Y-111855240D01*
X136112174Y-111855240D02*
X135741784Y-112495004D01*
X135741784Y-112495004D02*
X136617250Y-111956256D01*
X136179517Y-112932736D02*
X136886624Y-112225630D01*
X136886624Y-112225630D02*
X136617250Y-112966408D01*
X136617250Y-112966408D02*
X137358028Y-112697034D01*
X137358028Y-112697034D02*
X136650922Y-113404141D01*
X136751937Y-113639843D02*
X137290685Y-114178591D01*
X138166150Y-113505156D02*
X138603883Y-113942889D01*
X138603883Y-113942889D02*
X138098807Y-113976561D01*
X138098807Y-113976561D02*
X138199822Y-114077576D01*
X138199822Y-114077576D02*
X138233494Y-114178591D01*
X138233494Y-114178591D02*
X138233494Y-114245935D01*
X138233494Y-114245935D02*
X138199822Y-114346950D01*
X138199822Y-114346950D02*
X138031463Y-114515309D01*
X138031463Y-114515309D02*
X137930448Y-114548980D01*
X137930448Y-114548980D02*
X137863105Y-114548980D01*
X137863105Y-114548980D02*
X137762089Y-114515309D01*
X137762089Y-114515309D02*
X137560059Y-114313278D01*
X137560059Y-114313278D02*
X137526387Y-114212263D01*
X137526387Y-114212263D02*
X137526387Y-114144919D01*
D10*
X134407260Y-96068503D02*
X135013352Y-96674595D01*
X135013352Y-96674595D02*
X135047024Y-96775610D01*
X135047024Y-96775610D02*
X135013352Y-96876625D01*
X135013352Y-96876625D02*
X134979680Y-96910297D01*
X134171558Y-95832801D02*
X134171558Y-95900144D01*
X134171558Y-95900144D02*
X134238901Y-95900144D01*
X134238901Y-95900144D02*
X134238901Y-95832801D01*
X134238901Y-95832801D02*
X134171558Y-95832801D01*
X134171558Y-95832801D02*
X134238901Y-95900144D01*
X135316397Y-96102175D02*
X135215382Y-96135847D01*
X135215382Y-96135847D02*
X135114367Y-96102175D01*
X135114367Y-96102175D02*
X134508275Y-95496084D01*
X135855146Y-95496083D02*
X135821474Y-95597098D01*
X135821474Y-95597098D02*
X135686787Y-95731786D01*
X135686787Y-95731786D02*
X135585772Y-95765457D01*
X135585772Y-95765457D02*
X135518428Y-95765457D01*
X135518428Y-95765457D02*
X135417413Y-95731786D01*
X135417413Y-95731786D02*
X135215382Y-95529755D01*
X135215382Y-95529755D02*
X135181711Y-95428740D01*
X135181711Y-95428740D02*
X135181711Y-95361396D01*
X135181711Y-95361396D02*
X135215382Y-95260381D01*
X135215382Y-95260381D02*
X135350069Y-95125694D01*
X135350069Y-95125694D02*
X135451085Y-95092022D01*
X135720459Y-94755305D02*
X136326550Y-95361396D01*
X136326550Y-95361396D02*
X136360222Y-95462411D01*
X136360222Y-95462411D02*
X136326550Y-95563427D01*
X136326550Y-95563427D02*
X136292878Y-95597098D01*
X135484756Y-94519602D02*
X135484756Y-94586946D01*
X135484756Y-94586946D02*
X135552100Y-94586946D01*
X135552100Y-94586946D02*
X135552100Y-94519602D01*
X135552100Y-94519602D02*
X135484756Y-94519602D01*
X135484756Y-94519602D02*
X135552100Y-94586946D01*
X136629596Y-94788977D02*
X136528580Y-94822648D01*
X136528580Y-94822648D02*
X136427565Y-94788977D01*
X136427565Y-94788977D02*
X135821474Y-94182885D01*
X137168344Y-94182885D02*
X137134672Y-94283900D01*
X137134672Y-94283900D02*
X136999985Y-94418587D01*
X136999985Y-94418587D02*
X136898970Y-94452259D01*
X136898970Y-94452259D02*
X136831626Y-94452259D01*
X136831626Y-94452259D02*
X136730611Y-94418587D01*
X136730611Y-94418587D02*
X136528581Y-94216557D01*
X136528581Y-94216557D02*
X136494909Y-94115541D01*
X136494909Y-94115541D02*
X136494909Y-94048198D01*
X136494909Y-94048198D02*
X136528581Y-93947183D01*
X136528581Y-93947183D02*
X136663268Y-93812496D01*
X136663268Y-93812496D02*
X136764283Y-93778824D01*
X137033657Y-93442106D02*
X137639749Y-94048198D01*
X137639749Y-94048198D02*
X137673420Y-94149213D01*
X137673420Y-94149213D02*
X137639749Y-94250228D01*
X137639749Y-94250228D02*
X137606077Y-94283900D01*
X136797955Y-93206404D02*
X136797955Y-93273747D01*
X136797955Y-93273747D02*
X136865298Y-93273747D01*
X136865298Y-93273747D02*
X136865298Y-93206404D01*
X136865298Y-93206404D02*
X136797955Y-93206404D01*
X136797955Y-93206404D02*
X136865298Y-93273747D01*
X137942794Y-93475778D02*
X137841779Y-93509450D01*
X137841779Y-93509450D02*
X137740763Y-93475778D01*
X137740763Y-93475778D02*
X137134672Y-92869687D01*
X138481542Y-92869686D02*
X138447871Y-92970702D01*
X138447871Y-92970702D02*
X138313184Y-93105389D01*
X138313184Y-93105389D02*
X138212168Y-93139060D01*
X138212168Y-93139060D02*
X138144825Y-93139060D01*
X138144825Y-93139060D02*
X138043810Y-93105389D01*
X138043810Y-93105389D02*
X137841779Y-92903358D01*
X137841779Y-92903358D02*
X137808107Y-92802343D01*
X137808107Y-92802343D02*
X137808107Y-92734999D01*
X137808107Y-92734999D02*
X137841779Y-92633984D01*
X137841779Y-92633984D02*
X137976466Y-92499297D01*
X137976466Y-92499297D02*
X138077481Y-92465625D01*
X138346855Y-92128908D02*
X138952947Y-92734999D01*
X138952947Y-92734999D02*
X138986619Y-92836015D01*
X138986619Y-92836015D02*
X138952947Y-92937030D01*
X138952947Y-92937030D02*
X138919275Y-92970702D01*
X138111153Y-91893206D02*
X138111153Y-91960549D01*
X138111153Y-91960549D02*
X138178497Y-91960549D01*
X138178497Y-91960549D02*
X138178497Y-91893206D01*
X138178497Y-91893206D02*
X138111153Y-91893206D01*
X138111153Y-91893206D02*
X138178497Y-91960549D01*
X139255992Y-92162580D02*
X139154977Y-92196252D01*
X139154977Y-92196252D02*
X139053962Y-92162580D01*
X139053962Y-92162580D02*
X138447870Y-91556488D01*
X139794741Y-91556488D02*
X139761069Y-91657503D01*
X139761069Y-91657503D02*
X139626382Y-91792190D01*
X139626382Y-91792190D02*
X139525367Y-91825862D01*
X139525367Y-91825862D02*
X139458023Y-91825862D01*
X139458023Y-91825862D02*
X139357008Y-91792190D01*
X139357008Y-91792190D02*
X139154977Y-91590160D01*
X139154977Y-91590160D02*
X139121306Y-91489145D01*
X139121306Y-91489145D02*
X139121306Y-91421801D01*
X139121306Y-91421801D02*
X139154977Y-91320786D01*
X139154977Y-91320786D02*
X139289664Y-91186099D01*
X139289664Y-91186099D02*
X139390680Y-91152427D01*
D12*
X174839288Y-71592508D02*
X175546395Y-70885401D01*
X175546395Y-70885401D02*
X175815769Y-71154775D01*
X175815769Y-71154775D02*
X175849441Y-71255790D01*
X175849441Y-71255790D02*
X175849441Y-71323134D01*
X175849441Y-71323134D02*
X175815769Y-71424149D01*
X175815769Y-71424149D02*
X175714754Y-71525164D01*
X175714754Y-71525164D02*
X175613739Y-71558836D01*
X175613739Y-71558836D02*
X175546395Y-71558836D01*
X175546395Y-71558836D02*
X175445380Y-71525164D01*
X175445380Y-71525164D02*
X175176006Y-71255790D01*
X176186158Y-71525164D02*
X175647410Y-72400630D01*
X175647410Y-72400630D02*
X176287174Y-72030240D01*
X176287174Y-72030240D02*
X175916784Y-72670004D01*
X175916784Y-72670004D02*
X176792250Y-72131256D01*
X176354517Y-73107736D02*
X177061624Y-72400630D01*
X177061624Y-72400630D02*
X176792250Y-73141408D01*
X176792250Y-73141408D02*
X177533028Y-72872034D01*
X177533028Y-72872034D02*
X176825922Y-73579141D01*
X176926937Y-73814843D02*
X177465685Y-74353591D01*
X178307479Y-73781171D02*
X178374822Y-73781171D01*
X178374822Y-73781171D02*
X178475837Y-73814843D01*
X178475837Y-73814843D02*
X178644196Y-73983202D01*
X178644196Y-73983202D02*
X178677868Y-74084217D01*
X178677868Y-74084217D02*
X178677868Y-74151561D01*
X178677868Y-74151561D02*
X178644196Y-74252576D01*
X178644196Y-74252576D02*
X178576853Y-74319919D01*
X178576853Y-74319919D02*
X178442166Y-74387263D01*
X178442166Y-74387263D02*
X177634044Y-74387263D01*
X177634044Y-74387263D02*
X178071776Y-74824996D01*
X136001508Y-73419711D02*
X135294401Y-72712604D01*
X135294401Y-72712604D02*
X135563775Y-72443230D01*
X135563775Y-72443230D02*
X135664790Y-72409558D01*
X135664790Y-72409558D02*
X135732134Y-72409558D01*
X135732134Y-72409558D02*
X135833149Y-72443230D01*
X135833149Y-72443230D02*
X135934164Y-72544245D01*
X135934164Y-72544245D02*
X135967836Y-72645260D01*
X135967836Y-72645260D02*
X135967836Y-72712604D01*
X135967836Y-72712604D02*
X135934164Y-72813619D01*
X135934164Y-72813619D02*
X135664790Y-73082993D01*
X135934164Y-72072841D02*
X136809630Y-72611589D01*
X136809630Y-72611589D02*
X136439240Y-71971825D01*
X136439240Y-71971825D02*
X137079004Y-72342215D01*
X137079004Y-72342215D02*
X136540256Y-71466749D01*
X137516736Y-71904482D02*
X136809630Y-71197375D01*
X136809630Y-71197375D02*
X137550408Y-71466749D01*
X137550408Y-71466749D02*
X137281034Y-70725971D01*
X137281034Y-70725971D02*
X137988141Y-71433077D01*
X138223843Y-71332062D02*
X138762591Y-70793314D01*
X139233996Y-70187223D02*
X138829935Y-70591284D01*
X139031965Y-70389253D02*
X138324858Y-69682146D01*
X138324858Y-69682146D02*
X138358530Y-69850505D01*
X138358530Y-69850505D02*
X138358530Y-69985192D01*
X138358530Y-69985192D02*
X138324858Y-70086207D01*
D11*
X130918109Y-78894312D02*
X131203823Y-78989550D01*
X131203823Y-78989550D02*
X131680014Y-78989550D01*
X131680014Y-78989550D02*
X131870490Y-78894312D01*
X131870490Y-78894312D02*
X131965728Y-78799073D01*
X131965728Y-78799073D02*
X132060966Y-78608597D01*
X132060966Y-78608597D02*
X132060966Y-78418121D01*
X132060966Y-78418121D02*
X131965728Y-78227645D01*
X131965728Y-78227645D02*
X131870490Y-78132407D01*
X131870490Y-78132407D02*
X131680014Y-78037169D01*
X131680014Y-78037169D02*
X131299061Y-77941931D01*
X131299061Y-77941931D02*
X131108585Y-77846692D01*
X131108585Y-77846692D02*
X131013347Y-77751454D01*
X131013347Y-77751454D02*
X130918109Y-77560978D01*
X130918109Y-77560978D02*
X130918109Y-77370502D01*
X130918109Y-77370502D02*
X131013347Y-77180026D01*
X131013347Y-77180026D02*
X131108585Y-77084788D01*
X131108585Y-77084788D02*
X131299061Y-76989550D01*
X131299061Y-76989550D02*
X131775252Y-76989550D01*
X131775252Y-76989550D02*
X132060966Y-77084788D01*
X132918109Y-77941931D02*
X133584776Y-77941931D01*
X133870490Y-78989550D02*
X132918109Y-78989550D01*
X132918109Y-78989550D02*
X132918109Y-76989550D01*
X132918109Y-76989550D02*
X133870490Y-76989550D01*
X134441919Y-76989550D02*
X135584776Y-76989550D01*
X135013347Y-78989550D02*
X135013347Y-76989550D01*
X131013347Y-82209438D02*
X131013347Y-80209438D01*
X131013347Y-80209438D02*
X131775252Y-80209438D01*
X131775252Y-80209438D02*
X131965728Y-80304676D01*
X131965728Y-80304676D02*
X132060966Y-80399914D01*
X132060966Y-80399914D02*
X132156204Y-80590390D01*
X132156204Y-80590390D02*
X132156204Y-80876104D01*
X132156204Y-80876104D02*
X132060966Y-81066580D01*
X132060966Y-81066580D02*
X131965728Y-81161819D01*
X131965728Y-81161819D02*
X131775252Y-81257057D01*
X131775252Y-81257057D02*
X131013347Y-81257057D01*
X133394299Y-80209438D02*
X133775252Y-80209438D01*
X133775252Y-80209438D02*
X133965728Y-80304676D01*
X133965728Y-80304676D02*
X134156204Y-80495152D01*
X134156204Y-80495152D02*
X134251442Y-80876104D01*
X134251442Y-80876104D02*
X134251442Y-81542771D01*
X134251442Y-81542771D02*
X134156204Y-81923723D01*
X134156204Y-81923723D02*
X133965728Y-82114200D01*
X133965728Y-82114200D02*
X133775252Y-82209438D01*
X133775252Y-82209438D02*
X133394299Y-82209438D01*
X133394299Y-82209438D02*
X133203823Y-82114200D01*
X133203823Y-82114200D02*
X133013347Y-81923723D01*
X133013347Y-81923723D02*
X132918109Y-81542771D01*
X132918109Y-81542771D02*
X132918109Y-80876104D01*
X132918109Y-80876104D02*
X133013347Y-80495152D01*
X133013347Y-80495152D02*
X133203823Y-80304676D01*
X133203823Y-80304676D02*
X133394299Y-80209438D01*
X135013347Y-82114200D02*
X135299061Y-82209438D01*
X135299061Y-82209438D02*
X135775252Y-82209438D01*
X135775252Y-82209438D02*
X135965728Y-82114200D01*
X135965728Y-82114200D02*
X136060966Y-82018961D01*
X136060966Y-82018961D02*
X136156204Y-81828485D01*
X136156204Y-81828485D02*
X136156204Y-81638009D01*
X136156204Y-81638009D02*
X136060966Y-81447533D01*
X136060966Y-81447533D02*
X135965728Y-81352295D01*
X135965728Y-81352295D02*
X135775252Y-81257057D01*
X135775252Y-81257057D02*
X135394299Y-81161819D01*
X135394299Y-81161819D02*
X135203823Y-81066580D01*
X135203823Y-81066580D02*
X135108585Y-80971342D01*
X135108585Y-80971342D02*
X135013347Y-80780866D01*
X135013347Y-80780866D02*
X135013347Y-80590390D01*
X135013347Y-80590390D02*
X135108585Y-80399914D01*
X135108585Y-80399914D02*
X135203823Y-80304676D01*
X135203823Y-80304676D02*
X135394299Y-80209438D01*
X135394299Y-80209438D02*
X135870490Y-80209438D01*
X135870490Y-80209438D02*
X136156204Y-80304676D01*
G36*
X175244000Y-102539654D02*
G01*
X174681264Y-103057449D01*
X174681264Y-103831699D01*
X174337370Y-103831699D01*
X174337370Y-102963171D01*
X174329178Y-102865313D01*
X174296917Y-102765754D01*
X174233811Y-102682292D01*
X174151243Y-102628616D01*
X174056446Y-102599154D01*
X173955059Y-102588382D01*
X173930461Y-102588014D01*
X173826820Y-102595781D01*
X173730879Y-102622628D01*
X173642448Y-102680159D01*
X173636393Y-102686200D01*
X173578050Y-102770944D01*
X173548223Y-102868782D01*
X173540650Y-102963171D01*
X173540650Y-104061775D01*
X175244000Y-104061775D01*
X175244000Y-104447679D01*
X173149373Y-104447679D01*
X173149373Y-102963171D01*
X173154668Y-102855924D01*
X173170553Y-102755832D01*
X173200259Y-102653996D01*
X173203595Y-102645167D01*
X173246414Y-102553469D01*
X173300315Y-102471814D01*
X173358933Y-102406297D01*
X173440678Y-102339253D01*
X173525991Y-102289381D01*
X173603176Y-102256821D01*
X173705338Y-102227341D01*
X173805325Y-102211160D01*
X173912086Y-102205092D01*
X173923134Y-102205041D01*
X174034923Y-102210488D01*
X174138623Y-102226827D01*
X174234236Y-102254058D01*
X174333605Y-102298518D01*
X174368145Y-102318859D01*
X174451401Y-102380041D01*
X174520919Y-102449773D01*
X174582704Y-102538439D01*
X174618738Y-102614881D01*
X175244000Y-101988642D01*
X175244000Y-102539654D01*
G37*
G36*
X175244000Y-101259822D02*
G01*
X173540650Y-101259822D01*
X173540650Y-102036514D01*
X173149373Y-102036514D01*
X173149373Y-100094783D01*
X173540650Y-100094783D01*
X173540650Y-100871475D01*
X175244000Y-100871475D01*
X175244000Y-101259822D01*
G37*
G36*
X175244000Y-99900854D02*
G01*
X173149373Y-99900854D01*
X173149373Y-99512508D01*
X174852722Y-99512508D01*
X174852722Y-98136444D01*
X175244000Y-98136444D01*
X175244000Y-99900854D01*
G37*
G36*
X175244000Y-97921510D02*
G01*
X174852722Y-97921510D01*
X174852722Y-96372522D01*
X174841033Y-96271637D01*
X174798493Y-96181677D01*
X174781892Y-96162473D01*
X174699460Y-96107885D01*
X174601107Y-96089760D01*
X174593825Y-96089689D01*
X174493180Y-96103620D01*
X174409069Y-96153660D01*
X174400873Y-96162473D01*
X174353246Y-96251133D01*
X174337618Y-96355559D01*
X174337370Y-96372522D01*
X174337370Y-97312369D01*
X174332117Y-97409944D01*
X174314406Y-97509149D01*
X174292918Y-97578593D01*
X174250680Y-97669389D01*
X174192390Y-97753645D01*
X174168354Y-97780338D01*
X174092887Y-97845373D01*
X174005826Y-97896010D01*
X173978822Y-97907833D01*
X173878817Y-97938220D01*
X173779091Y-97951200D01*
X173738975Y-97952285D01*
X173639162Y-97945352D01*
X173538343Y-97922378D01*
X173504013Y-97910275D01*
X173414922Y-97865756D01*
X173337425Y-97805716D01*
X173317412Y-97785711D01*
X173255141Y-97706184D01*
X173209040Y-97619276D01*
X173194314Y-97582501D01*
X173166928Y-97486903D01*
X173152182Y-97381825D01*
X173149373Y-97306507D01*
X173149373Y-95822487D01*
X173540650Y-95822487D01*
X173540650Y-97306507D01*
X173553852Y-97404853D01*
X173600734Y-97487247D01*
X173688552Y-97539453D01*
X173768284Y-97549773D01*
X173869063Y-97531713D01*
X173934858Y-97485781D01*
X173982256Y-97398489D01*
X173993476Y-97309438D01*
X173993476Y-96372522D01*
X173998903Y-96258428D01*
X174015183Y-96155016D01*
X174047895Y-96047870D01*
X174095379Y-95955262D01*
X174147838Y-95887456D01*
X174222921Y-95822551D01*
X174313104Y-95773587D01*
X174418388Y-95740565D01*
X174520649Y-95724949D01*
X174614341Y-95720882D01*
X174713008Y-95726584D01*
X174813540Y-95745629D01*
X174864935Y-95761427D01*
X174959916Y-95804423D01*
X175043117Y-95863314D01*
X175064725Y-95883060D01*
X175131564Y-95961959D01*
X175180903Y-96049456D01*
X175196616Y-96086758D01*
X175225490Y-96184417D01*
X175240251Y-96283955D01*
X175244000Y-96372522D01*
X175244000Y-97921510D01*
G37*
G36*
X174702818Y-92415681D02*
G01*
X174801187Y-92435877D01*
X174862492Y-92456821D01*
X174953852Y-92502092D01*
X175034248Y-92560906D01*
X175067656Y-92592620D01*
X175130502Y-92670504D01*
X175180126Y-92760481D01*
X175198570Y-92806088D01*
X175226254Y-92903656D01*
X175241160Y-93008779D01*
X175244000Y-93083060D01*
X175244000Y-94637909D01*
X173149373Y-94637909D01*
X173149373Y-93260380D01*
X173540650Y-93260380D01*
X173540650Y-94249075D01*
X174852722Y-94249075D01*
X174852722Y-93229605D01*
X174848240Y-93128180D01*
X174838556Y-93055704D01*
X174812600Y-92961297D01*
X174793127Y-92919905D01*
X174728547Y-92843540D01*
X174713993Y-92833443D01*
X174618961Y-92804222D01*
X174592360Y-92803157D01*
X174489863Y-92819472D01*
X174407981Y-92872839D01*
X174403804Y-92877407D01*
X174353979Y-92969242D01*
X174337954Y-93070475D01*
X174337370Y-93097226D01*
X174337370Y-94021441D01*
X173993476Y-94021441D01*
X173993476Y-93122627D01*
X173986332Y-93023777D01*
X173954580Y-92926385D01*
X173942674Y-92908182D01*
X173856686Y-92851080D01*
X173768284Y-92839794D01*
X173670289Y-92857384D01*
X173649582Y-92868614D01*
X173584324Y-92944492D01*
X173581194Y-92951168D01*
X173553900Y-93046240D01*
X173548954Y-93084036D01*
X173542020Y-93184145D01*
X173540650Y-93260380D01*
X173149373Y-93260380D01*
X173149373Y-93125558D01*
X173153471Y-93024624D01*
X173167290Y-92921756D01*
X173184055Y-92849563D01*
X173217401Y-92753763D01*
X173265753Y-92663576D01*
X173286149Y-92634630D01*
X173357182Y-92559275D01*
X173443886Y-92501737D01*
X173456630Y-92495411D01*
X173552093Y-92461351D01*
X173650951Y-92446802D01*
X173691592Y-92445586D01*
X173791340Y-92452203D01*
X173867447Y-92469033D01*
X173960956Y-92509375D01*
X173996896Y-92533513D01*
X174067879Y-92602481D01*
X174087265Y-92628768D01*
X174126833Y-92692759D01*
X174176993Y-92602242D01*
X174246488Y-92531373D01*
X174283148Y-92502250D01*
X174376405Y-92449131D01*
X174474407Y-92419974D01*
X174573377Y-92409314D01*
X174596756Y-92408949D01*
X174702818Y-92415681D01*
G37*
G36*
X175244000Y-92141748D02*
G01*
X173149373Y-92141748D01*
X173149373Y-91753401D01*
X174852722Y-91753401D01*
X174852722Y-90377337D01*
X175244000Y-90377337D01*
X175244000Y-92141748D01*
G37*
G36*
X175244000Y-88022836D02*
G01*
X174712527Y-88329605D01*
X174712527Y-89315858D01*
X174399896Y-89128768D01*
X174399896Y-88519626D01*
X173674006Y-88948028D01*
X175244000Y-89867847D01*
X175244000Y-90311880D01*
X173242674Y-89122418D01*
X173165279Y-89060700D01*
X173151815Y-89044260D01*
X173118636Y-88950173D01*
X173118110Y-88934351D01*
X173143916Y-88837218D01*
X173151815Y-88825907D01*
X173225386Y-88759240D01*
X173242674Y-88748726D01*
X175244000Y-87556332D01*
X175244000Y-88022836D01*
G37*
G36*
X175244000Y-86715648D02*
G01*
X175238870Y-86822291D01*
X175223483Y-86924842D01*
X175197838Y-87023303D01*
X175161934Y-87117672D01*
X175117115Y-87206729D01*
X175064725Y-87289741D01*
X174996736Y-87375904D01*
X174937230Y-87437630D01*
X174862370Y-87501775D01*
X174780915Y-87558408D01*
X174692866Y-87607532D01*
X174598221Y-87649145D01*
X174498326Y-87682056D01*
X174394523Y-87705565D01*
X174286812Y-87719670D01*
X174175193Y-87724371D01*
X174076641Y-87720748D01*
X173968648Y-87707735D01*
X173865600Y-87685257D01*
X173767499Y-87653314D01*
X173755584Y-87648656D01*
X173663840Y-87607043D01*
X173579118Y-87557920D01*
X173492200Y-87493679D01*
X173430741Y-87437142D01*
X173360008Y-87356930D01*
X173298935Y-87269067D01*
X173247523Y-87173553D01*
X173223134Y-87117184D01*
X173190864Y-87022845D01*
X173167813Y-86924476D01*
X173153983Y-86822077D01*
X173149373Y-86715648D01*
X173149373Y-85591154D01*
X173540650Y-85591154D01*
X173540650Y-86715648D01*
X173547451Y-86813514D01*
X173570167Y-86913022D01*
X173589010Y-86963799D01*
X173634510Y-87051116D01*
X173697395Y-87133609D01*
X173723344Y-87160170D01*
X173804928Y-87225580D01*
X173892071Y-87274094D01*
X173928508Y-87289619D01*
X174029542Y-87319665D01*
X174130246Y-87333805D01*
X174192290Y-87336025D01*
X174296085Y-87329431D01*
X174394248Y-87309647D01*
X174456561Y-87289131D01*
X174550060Y-87245224D01*
X174632112Y-87189709D01*
X174666121Y-87160170D01*
X174735097Y-87081952D01*
X174786420Y-86998604D01*
X174802897Y-86963799D01*
X174835157Y-86867937D01*
X174850971Y-86765302D01*
X174852722Y-86715648D01*
X174852722Y-85591154D01*
X175244000Y-85591154D01*
X175244000Y-86715648D01*
G37*
G36*
X175244000Y-83648447D02*
G01*
X174332485Y-84797854D01*
X174256740Y-84862389D01*
X174254327Y-84863311D01*
X174169819Y-84876988D01*
X174077984Y-84858914D01*
X174004040Y-84795014D01*
X173992988Y-84780757D01*
X173149373Y-83693387D01*
X173149373Y-83093039D01*
X174189359Y-84452983D01*
X175244000Y-83050052D01*
X175244000Y-83648447D01*
G37*
G36*
X175244000Y-85343981D02*
G01*
X173149373Y-85343981D01*
X173149373Y-84955635D01*
X175244000Y-84955635D01*
X175244000Y-85343981D01*
G37*
D13*
G36*
X185252220Y-96273688D02*
G01*
X187633099Y-97119745D01*
X188082506Y-96962452D01*
X185550196Y-96063639D01*
X185550196Y-95760778D01*
X188896323Y-96962452D01*
X185252220Y-98256939D01*
X185252220Y-99191901D01*
X189504000Y-97661964D01*
X189504000Y-97346402D01*
X185550196Y-98768872D01*
X185550196Y-98466988D01*
X189504000Y-97064057D01*
X189504000Y-96864755D01*
X185252220Y-95339703D01*
X185252220Y-96273688D01*
G37*
G36*
X186105116Y-93762871D02*
G01*
X185252220Y-93762871D01*
X185252220Y-94648984D01*
X185550196Y-94648984D01*
X185550196Y-94060847D01*
X185807140Y-94060847D01*
X185807140Y-94648984D01*
X189504000Y-94648984D01*
X189504000Y-93762871D01*
X186361083Y-93762871D01*
X186361083Y-94060847D01*
X189207000Y-94060847D01*
X189207000Y-94351008D01*
X186105116Y-94351008D01*
X186105116Y-93762871D01*
G37*
G36*
X188353127Y-89993715D02*
G01*
X188462672Y-90167241D01*
X188557662Y-90340393D01*
X188644418Y-90546108D01*
X188698829Y-90760544D01*
X188714607Y-90955055D01*
X188693153Y-91169119D01*
X188631824Y-91354881D01*
X188506009Y-91549098D01*
X188333868Y-91703280D01*
X188124275Y-91819752D01*
X187935603Y-91887341D01*
X187733189Y-91933476D01*
X187680971Y-91941796D01*
X187680971Y-92242704D01*
X187878851Y-92207660D01*
X188069056Y-92155658D01*
X188306274Y-92059485D01*
X188519170Y-91932061D01*
X188701640Y-91772758D01*
X188847582Y-91580946D01*
X188950894Y-91355995D01*
X188996732Y-91165155D01*
X189012583Y-90955055D01*
X188997169Y-90739760D01*
X188955467Y-90540049D01*
X188884355Y-90333254D01*
X188797970Y-90151966D01*
X188775179Y-90110952D01*
X189019422Y-89982969D01*
X189116222Y-90184468D01*
X189189715Y-90394435D01*
X189239594Y-90613484D01*
X189263320Y-90808932D01*
X189269526Y-90977526D01*
X189246962Y-91260056D01*
X189181852Y-91514222D01*
X189078070Y-91740148D01*
X188939489Y-91937961D01*
X188769984Y-92107785D01*
X188573427Y-92249747D01*
X188353693Y-92363972D01*
X188114655Y-92450585D01*
X187860186Y-92509712D01*
X187594161Y-92541479D01*
X187412304Y-92547519D01*
X187412304Y-92561196D01*
X187425981Y-91960359D01*
X187333169Y-91960359D01*
X187092586Y-91944519D01*
X186859491Y-91897573D01*
X186641462Y-91820379D01*
X186446079Y-91713796D01*
X186280921Y-91578682D01*
X186153568Y-91415896D01*
X186071598Y-91226297D01*
X186042590Y-91010743D01*
X186054903Y-90811414D01*
X186100112Y-90615570D01*
X186191850Y-90413931D01*
X186306632Y-90232869D01*
X186386484Y-90118768D01*
X185630308Y-89695739D01*
X185503591Y-89881114D01*
X185398241Y-90070260D01*
X185314305Y-90266373D01*
X185251827Y-90472651D01*
X185210851Y-90692292D01*
X185191422Y-90928494D01*
X185189694Y-91028328D01*
X185209523Y-91296526D01*
X185266929Y-91544747D01*
X185358785Y-91772644D01*
X185481967Y-91979868D01*
X185633349Y-92166072D01*
X185809808Y-92330908D01*
X186008217Y-92474028D01*
X186225451Y-92595085D01*
X186458387Y-92693731D01*
X186703898Y-92769617D01*
X186873016Y-92807393D01*
X186873016Y-92503555D01*
X186662750Y-92450187D01*
X186462195Y-92379134D01*
X186273748Y-92290436D01*
X186099804Y-92184131D01*
X185942758Y-92060258D01*
X185805006Y-91918855D01*
X185688945Y-91759961D01*
X185596969Y-91583614D01*
X185531474Y-91389854D01*
X185494856Y-91178719D01*
X185487670Y-91028328D01*
X185495830Y-90822997D01*
X185526080Y-90603058D01*
X185578832Y-90401378D01*
X185654269Y-90214949D01*
X185722143Y-90089459D01*
X185958570Y-90222327D01*
X185861957Y-90402188D01*
X185790615Y-90607117D01*
X185753475Y-90822338D01*
X185744614Y-91010743D01*
X185762609Y-91211789D01*
X185838203Y-91454281D01*
X185964900Y-91666637D01*
X186134113Y-91847860D01*
X186337254Y-91996955D01*
X186565737Y-92112926D01*
X186810976Y-92194776D01*
X187064383Y-92241509D01*
X187128005Y-92247588D01*
X187128005Y-92837679D01*
X187327581Y-92845486D01*
X187333169Y-92845495D01*
X187412304Y-92845495D01*
X187630985Y-92837493D01*
X187843709Y-92813677D01*
X188049353Y-92774327D01*
X188246790Y-92719725D01*
X188434897Y-92650154D01*
X188612547Y-92565896D01*
X188856959Y-92412586D01*
X189071517Y-92227816D01*
X189252427Y-92012535D01*
X189395892Y-91767697D01*
X189498114Y-91494252D01*
X189541476Y-91296533D01*
X189563695Y-91086805D01*
X189566526Y-90977526D01*
X189558418Y-90773858D01*
X189526627Y-90533849D01*
X189472758Y-90308365D01*
X189398933Y-90095619D01*
X189307277Y-89893820D01*
X189199915Y-89701181D01*
X189128842Y-89589249D01*
X188353127Y-89993715D01*
G37*
D14*
X145342333Y-82059580D02*
X145294714Y-82107200D01*
X145294714Y-82107200D02*
X145151857Y-82154819D01*
X145151857Y-82154819D02*
X145056619Y-82154819D01*
X145056619Y-82154819D02*
X144913762Y-82107200D01*
X144913762Y-82107200D02*
X144818524Y-82011961D01*
X144818524Y-82011961D02*
X144770905Y-81916723D01*
X144770905Y-81916723D02*
X144723286Y-81726247D01*
X144723286Y-81726247D02*
X144723286Y-81583390D01*
X144723286Y-81583390D02*
X144770905Y-81392914D01*
X144770905Y-81392914D02*
X144818524Y-81297676D01*
X144818524Y-81297676D02*
X144913762Y-81202438D01*
X144913762Y-81202438D02*
X145056619Y-81154819D01*
X145056619Y-81154819D02*
X145151857Y-81154819D01*
X145151857Y-81154819D02*
X145294714Y-81202438D01*
X145294714Y-81202438D02*
X145342333Y-81250057D01*
X145675667Y-81154819D02*
X146294714Y-81154819D01*
X146294714Y-81154819D02*
X145961381Y-81535771D01*
X145961381Y-81535771D02*
X146104238Y-81535771D01*
X146104238Y-81535771D02*
X146199476Y-81583390D01*
X146199476Y-81583390D02*
X146247095Y-81631009D01*
X146247095Y-81631009D02*
X146294714Y-81726247D01*
X146294714Y-81726247D02*
X146294714Y-81964342D01*
X146294714Y-81964342D02*
X146247095Y-82059580D01*
X146247095Y-82059580D02*
X146199476Y-82107200D01*
X146199476Y-82107200D02*
X146104238Y-82154819D01*
X146104238Y-82154819D02*
X145818524Y-82154819D01*
X145818524Y-82154819D02*
X145723286Y-82107200D01*
X145723286Y-82107200D02*
X145675667Y-82059580D01*
X141817333Y-102454819D02*
X141341143Y-102454819D01*
X141341143Y-102454819D02*
X141341143Y-101454819D01*
X142055429Y-101454819D02*
X142722095Y-101454819D01*
X142722095Y-101454819D02*
X142293524Y-102454819D01*
X130504792Y-110917197D02*
X131009868Y-111422273D01*
X131009868Y-111422273D02*
X131077212Y-111556960D01*
X131077212Y-111556960D02*
X131077212Y-111691647D01*
X131077212Y-111691647D02*
X131009868Y-111826334D01*
X131009868Y-111826334D02*
X130942525Y-111893678D01*
X131178227Y-110243762D02*
X130841510Y-110580479D01*
X130841510Y-110580479D02*
X131144555Y-110950868D01*
X131144555Y-110950868D02*
X131144555Y-110883525D01*
X131144555Y-110883525D02*
X131178227Y-110782510D01*
X131178227Y-110782510D02*
X131346586Y-110614151D01*
X131346586Y-110614151D02*
X131447601Y-110580479D01*
X131447601Y-110580479D02*
X131514945Y-110580479D01*
X131514945Y-110580479D02*
X131615960Y-110614151D01*
X131615960Y-110614151D02*
X131784319Y-110782510D01*
X131784319Y-110782510D02*
X131817990Y-110883525D01*
X131817990Y-110883525D02*
X131817990Y-110950868D01*
X131817990Y-110950868D02*
X131784319Y-111051884D01*
X131784319Y-111051884D02*
X131615960Y-111220242D01*
X131615960Y-111220242D02*
X131514945Y-111253914D01*
X131514945Y-111253914D02*
X131447601Y-111253914D01*
X148768819Y-101783333D02*
X149483104Y-101783333D01*
X149483104Y-101783333D02*
X149625961Y-101830952D01*
X149625961Y-101830952D02*
X149721200Y-101926190D01*
X149721200Y-101926190D02*
X149768819Y-102069047D01*
X149768819Y-102069047D02*
X149768819Y-102164285D01*
X148768819Y-101402380D02*
X148768819Y-100735714D01*
X148768819Y-100735714D02*
X149768819Y-101164285D01*
X154568819Y-63216666D02*
X154092628Y-63549999D01*
X154568819Y-63788094D02*
X153568819Y-63788094D01*
X153568819Y-63788094D02*
X153568819Y-63407142D01*
X153568819Y-63407142D02*
X153616438Y-63311904D01*
X153616438Y-63311904D02*
X153664057Y-63264285D01*
X153664057Y-63264285D02*
X153759295Y-63216666D01*
X153759295Y-63216666D02*
X153902152Y-63216666D01*
X153902152Y-63216666D02*
X153997390Y-63264285D01*
X153997390Y-63264285D02*
X154045009Y-63311904D01*
X154045009Y-63311904D02*
X154092628Y-63407142D01*
X154092628Y-63407142D02*
X154092628Y-63788094D01*
X153902152Y-62359523D02*
X154568819Y-62359523D01*
X153521200Y-62597618D02*
X154235485Y-62835713D01*
X154235485Y-62835713D02*
X154235485Y-62216666D01*
X129811142Y-104299580D02*
X129763523Y-104347200D01*
X129763523Y-104347200D02*
X129620666Y-104394819D01*
X129620666Y-104394819D02*
X129525428Y-104394819D01*
X129525428Y-104394819D02*
X129382571Y-104347200D01*
X129382571Y-104347200D02*
X129287333Y-104251961D01*
X129287333Y-104251961D02*
X129239714Y-104156723D01*
X129239714Y-104156723D02*
X129192095Y-103966247D01*
X129192095Y-103966247D02*
X129192095Y-103823390D01*
X129192095Y-103823390D02*
X129239714Y-103632914D01*
X129239714Y-103632914D02*
X129287333Y-103537676D01*
X129287333Y-103537676D02*
X129382571Y-103442438D01*
X129382571Y-103442438D02*
X129525428Y-103394819D01*
X129525428Y-103394819D02*
X129620666Y-103394819D01*
X129620666Y-103394819D02*
X129763523Y-103442438D01*
X129763523Y-103442438D02*
X129811142Y-103490057D01*
X130763523Y-104394819D02*
X130192095Y-104394819D01*
X130477809Y-104394819D02*
X130477809Y-103394819D01*
X130477809Y-103394819D02*
X130382571Y-103537676D01*
X130382571Y-103537676D02*
X130287333Y-103632914D01*
X130287333Y-103632914D02*
X130192095Y-103680533D01*
X131715904Y-104394819D02*
X131144476Y-104394819D01*
X131430190Y-104394819D02*
X131430190Y-103394819D01*
X131430190Y-103394819D02*
X131334952Y-103537676D01*
X131334952Y-103537676D02*
X131239714Y-103632914D01*
X131239714Y-103632914D02*
X131144476Y-103680533D01*
X142466142Y-87224580D02*
X142418523Y-87272200D01*
X142418523Y-87272200D02*
X142275666Y-87319819D01*
X142275666Y-87319819D02*
X142180428Y-87319819D01*
X142180428Y-87319819D02*
X142037571Y-87272200D01*
X142037571Y-87272200D02*
X141942333Y-87176961D01*
X141942333Y-87176961D02*
X141894714Y-87081723D01*
X141894714Y-87081723D02*
X141847095Y-86891247D01*
X141847095Y-86891247D02*
X141847095Y-86748390D01*
X141847095Y-86748390D02*
X141894714Y-86557914D01*
X141894714Y-86557914D02*
X141942333Y-86462676D01*
X141942333Y-86462676D02*
X142037571Y-86367438D01*
X142037571Y-86367438D02*
X142180428Y-86319819D01*
X142180428Y-86319819D02*
X142275666Y-86319819D01*
X142275666Y-86319819D02*
X142418523Y-86367438D01*
X142418523Y-86367438D02*
X142466142Y-86415057D01*
X143418523Y-87319819D02*
X142847095Y-87319819D01*
X143132809Y-87319819D02*
X143132809Y-86319819D01*
X143132809Y-86319819D02*
X143037571Y-86462676D01*
X143037571Y-86462676D02*
X142942333Y-86557914D01*
X142942333Y-86557914D02*
X142847095Y-86605533D01*
X144275666Y-86653152D02*
X144275666Y-87319819D01*
X144037571Y-86272200D02*
X143799476Y-86986485D01*
X143799476Y-86986485D02*
X144418523Y-86986485D01*
X144570413Y-94904449D02*
X144503069Y-94904449D01*
X144503069Y-94904449D02*
X144368382Y-94837105D01*
X144368382Y-94837105D02*
X144301039Y-94769762D01*
X144301039Y-94769762D02*
X144233695Y-94635075D01*
X144233695Y-94635075D02*
X144233695Y-94500388D01*
X144233695Y-94500388D02*
X144267367Y-94399373D01*
X144267367Y-94399373D02*
X144368382Y-94231014D01*
X144368382Y-94231014D02*
X144469397Y-94129999D01*
X144469397Y-94129999D02*
X144637756Y-94028983D01*
X144637756Y-94028983D02*
X144738771Y-93995312D01*
X144738771Y-93995312D02*
X144873458Y-93995312D01*
X144873458Y-93995312D02*
X145008145Y-94062655D01*
X145008145Y-94062655D02*
X145075489Y-94129999D01*
X145075489Y-94129999D02*
X145142832Y-94264686D01*
X145142832Y-94264686D02*
X145142832Y-94332029D01*
X145176504Y-95645227D02*
X144772443Y-95241166D01*
X144974474Y-95443197D02*
X145681580Y-94736090D01*
X145681580Y-94736090D02*
X145513222Y-94769762D01*
X145513222Y-94769762D02*
X145378535Y-94769762D01*
X145378535Y-94769762D02*
X145277519Y-94736090D01*
X146119313Y-95173823D02*
X146557046Y-95611556D01*
X146557046Y-95611556D02*
X146051970Y-95645228D01*
X146051970Y-95645228D02*
X146152985Y-95746243D01*
X146152985Y-95746243D02*
X146186657Y-95847258D01*
X146186657Y-95847258D02*
X146186657Y-95914602D01*
X146186657Y-95914602D02*
X146152985Y-96015617D01*
X146152985Y-96015617D02*
X145984626Y-96183976D01*
X145984626Y-96183976D02*
X145883611Y-96217647D01*
X145883611Y-96217647D02*
X145816268Y-96217647D01*
X145816268Y-96217647D02*
X145715252Y-96183976D01*
X145715252Y-96183976D02*
X145513222Y-95981945D01*
X145513222Y-95981945D02*
X145479550Y-95880930D01*
X145479550Y-95880930D02*
X145479550Y-95813586D01*
X174079792Y-67242197D02*
X174584868Y-67747273D01*
X174584868Y-67747273D02*
X174652212Y-67881960D01*
X174652212Y-67881960D02*
X174652212Y-68016647D01*
X174652212Y-68016647D02*
X174584868Y-68151334D01*
X174584868Y-68151334D02*
X174517525Y-68218678D01*
X174955258Y-66838136D02*
X175426662Y-67309540D01*
X174517525Y-66737120D02*
X174854242Y-67410555D01*
X174854242Y-67410555D02*
X175291975Y-66972823D01*
X140283819Y-72259523D02*
X140998104Y-72259523D01*
X140998104Y-72259523D02*
X141140961Y-72307142D01*
X141140961Y-72307142D02*
X141236200Y-72402380D01*
X141236200Y-72402380D02*
X141283819Y-72545237D01*
X141283819Y-72545237D02*
X141283819Y-72640475D01*
X141283819Y-71259523D02*
X141283819Y-71830951D01*
X141283819Y-71545237D02*
X140283819Y-71545237D01*
X140283819Y-71545237D02*
X140426676Y-71640475D01*
X140426676Y-71640475D02*
X140521914Y-71735713D01*
X140521914Y-71735713D02*
X140569533Y-71830951D01*
X140379057Y-70878570D02*
X140331438Y-70830951D01*
X140331438Y-70830951D02*
X140283819Y-70735713D01*
X140283819Y-70735713D02*
X140283819Y-70497618D01*
X140283819Y-70497618D02*
X140331438Y-70402380D01*
X140331438Y-70402380D02*
X140379057Y-70354761D01*
X140379057Y-70354761D02*
X140474295Y-70307142D01*
X140474295Y-70307142D02*
X140569533Y-70307142D01*
X140569533Y-70307142D02*
X140712390Y-70354761D01*
X140712390Y-70354761D02*
X141283819Y-70926189D01*
X141283819Y-70926189D02*
X141283819Y-70307142D01*
X124217333Y-85724819D02*
X123884000Y-85248628D01*
X123645905Y-85724819D02*
X123645905Y-84724819D01*
X123645905Y-84724819D02*
X124026857Y-84724819D01*
X124026857Y-84724819D02*
X124122095Y-84772438D01*
X124122095Y-84772438D02*
X124169714Y-84820057D01*
X124169714Y-84820057D02*
X124217333Y-84915295D01*
X124217333Y-84915295D02*
X124217333Y-85058152D01*
X124217333Y-85058152D02*
X124169714Y-85153390D01*
X124169714Y-85153390D02*
X124122095Y-85201009D01*
X124122095Y-85201009D02*
X124026857Y-85248628D01*
X124026857Y-85248628D02*
X123645905Y-85248628D01*
X124598286Y-84820057D02*
X124645905Y-84772438D01*
X124645905Y-84772438D02*
X124741143Y-84724819D01*
X124741143Y-84724819D02*
X124979238Y-84724819D01*
X124979238Y-84724819D02*
X125074476Y-84772438D01*
X125074476Y-84772438D02*
X125122095Y-84820057D01*
X125122095Y-84820057D02*
X125169714Y-84915295D01*
X125169714Y-84915295D02*
X125169714Y-85010533D01*
X125169714Y-85010533D02*
X125122095Y-85153390D01*
X125122095Y-85153390D02*
X124550667Y-85724819D01*
X124550667Y-85724819D02*
X125169714Y-85724819D01*
X138131357Y-66806237D02*
X137626281Y-67311313D01*
X137626281Y-67311313D02*
X137491594Y-67378657D01*
X137491594Y-67378657D02*
X137356907Y-67378657D01*
X137356907Y-67378657D02*
X137222220Y-67311313D01*
X137222220Y-67311313D02*
X137154876Y-67243970D01*
X138400731Y-67075611D02*
X138838464Y-67513344D01*
X138838464Y-67513344D02*
X138333388Y-67547016D01*
X138333388Y-67547016D02*
X138434403Y-67648031D01*
X138434403Y-67648031D02*
X138468075Y-67749046D01*
X138468075Y-67749046D02*
X138468075Y-67816390D01*
X138468075Y-67816390D02*
X138434403Y-67917405D01*
X138434403Y-67917405D02*
X138266044Y-68085764D01*
X138266044Y-68085764D02*
X138165029Y-68119435D01*
X138165029Y-68119435D02*
X138097686Y-68119435D01*
X138097686Y-68119435D02*
X137996670Y-68085764D01*
X137996670Y-68085764D02*
X137794640Y-67883733D01*
X137794640Y-67883733D02*
X137760968Y-67782718D01*
X137760968Y-67782718D02*
X137760968Y-67715374D01*
X139443820Y-81141667D02*
X138967629Y-81475000D01*
X139443820Y-81713095D02*
X138443820Y-81713095D01*
X138443820Y-81713095D02*
X138443820Y-81332143D01*
X138443820Y-81332143D02*
X138491439Y-81236905D01*
X138491439Y-81236905D02*
X138539058Y-81189286D01*
X138539058Y-81189286D02*
X138634296Y-81141667D01*
X138634296Y-81141667D02*
X138777153Y-81141667D01*
X138777153Y-81141667D02*
X138872391Y-81189286D01*
X138872391Y-81189286D02*
X138920010Y-81236905D01*
X138920010Y-81236905D02*
X138967629Y-81332143D01*
X138967629Y-81332143D02*
X138967629Y-81713095D01*
X138443820Y-80808333D02*
X138443820Y-80189286D01*
X138443820Y-80189286D02*
X138824772Y-80522619D01*
X138824772Y-80522619D02*
X138824772Y-80379762D01*
X138824772Y-80379762D02*
X138872391Y-80284524D01*
X138872391Y-80284524D02*
X138920010Y-80236905D01*
X138920010Y-80236905D02*
X139015248Y-80189286D01*
X139015248Y-80189286D02*
X139253343Y-80189286D01*
X139253343Y-80189286D02*
X139348581Y-80236905D01*
X139348581Y-80236905D02*
X139396201Y-80284524D01*
X139396201Y-80284524D02*
X139443820Y-80379762D01*
X139443820Y-80379762D02*
X139443820Y-80665476D01*
X139443820Y-80665476D02*
X139396201Y-80760714D01*
X139396201Y-80760714D02*
X139348581Y-80808333D01*
X157448819Y-60638094D02*
X156448819Y-60638094D01*
X156448819Y-60638094D02*
X156448819Y-60399999D01*
X156448819Y-60399999D02*
X156496438Y-60257142D01*
X156496438Y-60257142D02*
X156591676Y-60161904D01*
X156591676Y-60161904D02*
X156686914Y-60114285D01*
X156686914Y-60114285D02*
X156877390Y-60066666D01*
X156877390Y-60066666D02*
X157020247Y-60066666D01*
X157020247Y-60066666D02*
X157210723Y-60114285D01*
X157210723Y-60114285D02*
X157305961Y-60161904D01*
X157305961Y-60161904D02*
X157401200Y-60257142D01*
X157401200Y-60257142D02*
X157448819Y-60399999D01*
X157448819Y-60399999D02*
X157448819Y-60638094D01*
X156448819Y-59733332D02*
X156448819Y-59114285D01*
X156448819Y-59114285D02*
X156829771Y-59447618D01*
X156829771Y-59447618D02*
X156829771Y-59304761D01*
X156829771Y-59304761D02*
X156877390Y-59209523D01*
X156877390Y-59209523D02*
X156925009Y-59161904D01*
X156925009Y-59161904D02*
X157020247Y-59114285D01*
X157020247Y-59114285D02*
X157258342Y-59114285D01*
X157258342Y-59114285D02*
X157353580Y-59161904D01*
X157353580Y-59161904D02*
X157401200Y-59209523D01*
X157401200Y-59209523D02*
X157448819Y-59304761D01*
X157448819Y-59304761D02*
X157448819Y-59590475D01*
X157448819Y-59590475D02*
X157401200Y-59685713D01*
X157401200Y-59685713D02*
X157353580Y-59733332D01*
X126358580Y-96742857D02*
X126406200Y-96790476D01*
X126406200Y-96790476D02*
X126453819Y-96933333D01*
X126453819Y-96933333D02*
X126453819Y-97028571D01*
X126453819Y-97028571D02*
X126406200Y-97171428D01*
X126406200Y-97171428D02*
X126310961Y-97266666D01*
X126310961Y-97266666D02*
X126215723Y-97314285D01*
X126215723Y-97314285D02*
X126025247Y-97361904D01*
X126025247Y-97361904D02*
X125882390Y-97361904D01*
X125882390Y-97361904D02*
X125691914Y-97314285D01*
X125691914Y-97314285D02*
X125596676Y-97266666D01*
X125596676Y-97266666D02*
X125501438Y-97171428D01*
X125501438Y-97171428D02*
X125453819Y-97028571D01*
X125453819Y-97028571D02*
X125453819Y-96933333D01*
X125453819Y-96933333D02*
X125501438Y-96790476D01*
X125501438Y-96790476D02*
X125549057Y-96742857D01*
X126453819Y-95790476D02*
X126453819Y-96361904D01*
X126453819Y-96076190D02*
X125453819Y-96076190D01*
X125453819Y-96076190D02*
X125596676Y-96171428D01*
X125596676Y-96171428D02*
X125691914Y-96266666D01*
X125691914Y-96266666D02*
X125739533Y-96361904D01*
X125453819Y-94933333D02*
X125453819Y-95123809D01*
X125453819Y-95123809D02*
X125501438Y-95219047D01*
X125501438Y-95219047D02*
X125549057Y-95266666D01*
X125549057Y-95266666D02*
X125691914Y-95361904D01*
X125691914Y-95361904D02*
X125882390Y-95409523D01*
X125882390Y-95409523D02*
X126263342Y-95409523D01*
X126263342Y-95409523D02*
X126358580Y-95361904D01*
X126358580Y-95361904D02*
X126406200Y-95314285D01*
X126406200Y-95314285D02*
X126453819Y-95219047D01*
X126453819Y-95219047D02*
X126453819Y-95028571D01*
X126453819Y-95028571D02*
X126406200Y-94933333D01*
X126406200Y-94933333D02*
X126358580Y-94885714D01*
X126358580Y-94885714D02*
X126263342Y-94838095D01*
X126263342Y-94838095D02*
X126025247Y-94838095D01*
X126025247Y-94838095D02*
X125930009Y-94885714D01*
X125930009Y-94885714D02*
X125882390Y-94933333D01*
X125882390Y-94933333D02*
X125834771Y-95028571D01*
X125834771Y-95028571D02*
X125834771Y-95219047D01*
X125834771Y-95219047D02*
X125882390Y-95314285D01*
X125882390Y-95314285D02*
X125930009Y-95361904D01*
X125930009Y-95361904D02*
X126025247Y-95409523D01*
X161393819Y-77234523D02*
X162108104Y-77234523D01*
X162108104Y-77234523D02*
X162250961Y-77282142D01*
X162250961Y-77282142D02*
X162346200Y-77377380D01*
X162346200Y-77377380D02*
X162393819Y-77520237D01*
X162393819Y-77520237D02*
X162393819Y-77615475D01*
X162393819Y-76234523D02*
X162393819Y-76805951D01*
X162393819Y-76520237D02*
X161393819Y-76520237D01*
X161393819Y-76520237D02*
X161536676Y-76615475D01*
X161536676Y-76615475D02*
X161631914Y-76710713D01*
X161631914Y-76710713D02*
X161679533Y-76805951D01*
X161393819Y-75615475D02*
X161393819Y-75520237D01*
X161393819Y-75520237D02*
X161441438Y-75424999D01*
X161441438Y-75424999D02*
X161489057Y-75377380D01*
X161489057Y-75377380D02*
X161584295Y-75329761D01*
X161584295Y-75329761D02*
X161774771Y-75282142D01*
X161774771Y-75282142D02*
X162012866Y-75282142D01*
X162012866Y-75282142D02*
X162203342Y-75329761D01*
X162203342Y-75329761D02*
X162298580Y-75377380D01*
X162298580Y-75377380D02*
X162346200Y-75424999D01*
X162346200Y-75424999D02*
X162393819Y-75520237D01*
X162393819Y-75520237D02*
X162393819Y-75615475D01*
X162393819Y-75615475D02*
X162346200Y-75710713D01*
X162346200Y-75710713D02*
X162298580Y-75758332D01*
X162298580Y-75758332D02*
X162203342Y-75805951D01*
X162203342Y-75805951D02*
X162012866Y-75853570D01*
X162012866Y-75853570D02*
X161774771Y-75853570D01*
X161774771Y-75853570D02*
X161584295Y-75805951D01*
X161584295Y-75805951D02*
X161489057Y-75758332D01*
X161489057Y-75758332D02*
X161441438Y-75710713D01*
X161441438Y-75710713D02*
X161393819Y-75615475D01*
X137918820Y-78141666D02*
X137442629Y-78474999D01*
X137918820Y-78713094D02*
X136918820Y-78713094D01*
X136918820Y-78713094D02*
X136918820Y-78332142D01*
X136918820Y-78332142D02*
X136966439Y-78236904D01*
X136966439Y-78236904D02*
X137014058Y-78189285D01*
X137014058Y-78189285D02*
X137109296Y-78141666D01*
X137109296Y-78141666D02*
X137252153Y-78141666D01*
X137252153Y-78141666D02*
X137347391Y-78189285D01*
X137347391Y-78189285D02*
X137395010Y-78236904D01*
X137395010Y-78236904D02*
X137442629Y-78332142D01*
X137442629Y-78332142D02*
X137442629Y-78713094D01*
X137918820Y-77189285D02*
X137918820Y-77760713D01*
X137918820Y-77474999D02*
X136918820Y-77474999D01*
X136918820Y-77474999D02*
X137061677Y-77570237D01*
X137061677Y-77570237D02*
X137156915Y-77665475D01*
X137156915Y-77665475D02*
X137204534Y-77760713D01*
X160348819Y-63705355D02*
X159872628Y-64038688D01*
X160348819Y-64276783D02*
X159348819Y-64276783D01*
X159348819Y-64276783D02*
X159348819Y-63895831D01*
X159348819Y-63895831D02*
X159396438Y-63800593D01*
X159396438Y-63800593D02*
X159444057Y-63752974D01*
X159444057Y-63752974D02*
X159539295Y-63705355D01*
X159539295Y-63705355D02*
X159682152Y-63705355D01*
X159682152Y-63705355D02*
X159777390Y-63752974D01*
X159777390Y-63752974D02*
X159825009Y-63800593D01*
X159825009Y-63800593D02*
X159872628Y-63895831D01*
X159872628Y-63895831D02*
X159872628Y-64276783D01*
X160348819Y-62752974D02*
X160348819Y-63324402D01*
X160348819Y-63038688D02*
X159348819Y-63038688D01*
X159348819Y-63038688D02*
X159491676Y-63133926D01*
X159491676Y-63133926D02*
X159586914Y-63229164D01*
X159586914Y-63229164D02*
X159634533Y-63324402D01*
X160348819Y-61800593D02*
X160348819Y-62372021D01*
X160348819Y-62086307D02*
X159348819Y-62086307D01*
X159348819Y-62086307D02*
X159491676Y-62181545D01*
X159491676Y-62181545D02*
X159586914Y-62276783D01*
X159586914Y-62276783D02*
X159634533Y-62372021D01*
X129818580Y-101317857D02*
X129866200Y-101365476D01*
X129866200Y-101365476D02*
X129913819Y-101508333D01*
X129913819Y-101508333D02*
X129913819Y-101603571D01*
X129913819Y-101603571D02*
X129866200Y-101746428D01*
X129866200Y-101746428D02*
X129770961Y-101841666D01*
X129770961Y-101841666D02*
X129675723Y-101889285D01*
X129675723Y-101889285D02*
X129485247Y-101936904D01*
X129485247Y-101936904D02*
X129342390Y-101936904D01*
X129342390Y-101936904D02*
X129151914Y-101889285D01*
X129151914Y-101889285D02*
X129056676Y-101841666D01*
X129056676Y-101841666D02*
X128961438Y-101746428D01*
X128961438Y-101746428D02*
X128913819Y-101603571D01*
X128913819Y-101603571D02*
X128913819Y-101508333D01*
X128913819Y-101508333D02*
X128961438Y-101365476D01*
X128961438Y-101365476D02*
X129009057Y-101317857D01*
X129913819Y-100365476D02*
X129913819Y-100936904D01*
X129913819Y-100651190D02*
X128913819Y-100651190D01*
X128913819Y-100651190D02*
X129056676Y-100746428D01*
X129056676Y-100746428D02*
X129151914Y-100841666D01*
X129151914Y-100841666D02*
X129199533Y-100936904D01*
X129009057Y-99984523D02*
X128961438Y-99936904D01*
X128961438Y-99936904D02*
X128913819Y-99841666D01*
X128913819Y-99841666D02*
X128913819Y-99603571D01*
X128913819Y-99603571D02*
X128961438Y-99508333D01*
X128961438Y-99508333D02*
X129009057Y-99460714D01*
X129009057Y-99460714D02*
X129104295Y-99413095D01*
X129104295Y-99413095D02*
X129199533Y-99413095D01*
X129199533Y-99413095D02*
X129342390Y-99460714D01*
X129342390Y-99460714D02*
X129913819Y-100032142D01*
X129913819Y-100032142D02*
X129913819Y-99413095D01*
X145553580Y-107491666D02*
X145601200Y-107539285D01*
X145601200Y-107539285D02*
X145648819Y-107682142D01*
X145648819Y-107682142D02*
X145648819Y-107777380D01*
X145648819Y-107777380D02*
X145601200Y-107920237D01*
X145601200Y-107920237D02*
X145505961Y-108015475D01*
X145505961Y-108015475D02*
X145410723Y-108063094D01*
X145410723Y-108063094D02*
X145220247Y-108110713D01*
X145220247Y-108110713D02*
X145077390Y-108110713D01*
X145077390Y-108110713D02*
X144886914Y-108063094D01*
X144886914Y-108063094D02*
X144791676Y-108015475D01*
X144791676Y-108015475D02*
X144696438Y-107920237D01*
X144696438Y-107920237D02*
X144648819Y-107777380D01*
X144648819Y-107777380D02*
X144648819Y-107682142D01*
X144648819Y-107682142D02*
X144696438Y-107539285D01*
X144696438Y-107539285D02*
X144744057Y-107491666D01*
X145648819Y-107015475D02*
X145648819Y-106824999D01*
X145648819Y-106824999D02*
X145601200Y-106729761D01*
X145601200Y-106729761D02*
X145553580Y-106682142D01*
X145553580Y-106682142D02*
X145410723Y-106586904D01*
X145410723Y-106586904D02*
X145220247Y-106539285D01*
X145220247Y-106539285D02*
X144839295Y-106539285D01*
X144839295Y-106539285D02*
X144744057Y-106586904D01*
X144744057Y-106586904D02*
X144696438Y-106634523D01*
X144696438Y-106634523D02*
X144648819Y-106729761D01*
X144648819Y-106729761D02*
X144648819Y-106920237D01*
X144648819Y-106920237D02*
X144696438Y-107015475D01*
X144696438Y-107015475D02*
X144744057Y-107063094D01*
X144744057Y-107063094D02*
X144839295Y-107110713D01*
X144839295Y-107110713D02*
X145077390Y-107110713D01*
X145077390Y-107110713D02*
X145172628Y-107063094D01*
X145172628Y-107063094D02*
X145220247Y-107015475D01*
X145220247Y-107015475D02*
X145267866Y-106920237D01*
X145267866Y-106920237D02*
X145267866Y-106729761D01*
X145267866Y-106729761D02*
X145220247Y-106634523D01*
X145220247Y-106634523D02*
X145172628Y-106586904D01*
X145172628Y-106586904D02*
X145077390Y-106539285D01*
X147817333Y-96009819D02*
X147484000Y-95533628D01*
X147245905Y-96009819D02*
X147245905Y-95009819D01*
X147245905Y-95009819D02*
X147626857Y-95009819D01*
X147626857Y-95009819D02*
X147722095Y-95057438D01*
X147722095Y-95057438D02*
X147769714Y-95105057D01*
X147769714Y-95105057D02*
X147817333Y-95200295D01*
X147817333Y-95200295D02*
X147817333Y-95343152D01*
X147817333Y-95343152D02*
X147769714Y-95438390D01*
X147769714Y-95438390D02*
X147722095Y-95486009D01*
X147722095Y-95486009D02*
X147626857Y-95533628D01*
X147626857Y-95533628D02*
X147245905Y-95533628D01*
X148293524Y-96009819D02*
X148484000Y-96009819D01*
X148484000Y-96009819D02*
X148579238Y-95962200D01*
X148579238Y-95962200D02*
X148626857Y-95914580D01*
X148626857Y-95914580D02*
X148722095Y-95771723D01*
X148722095Y-95771723D02*
X148769714Y-95581247D01*
X148769714Y-95581247D02*
X148769714Y-95200295D01*
X148769714Y-95200295D02*
X148722095Y-95105057D01*
X148722095Y-95105057D02*
X148674476Y-95057438D01*
X148674476Y-95057438D02*
X148579238Y-95009819D01*
X148579238Y-95009819D02*
X148388762Y-95009819D01*
X148388762Y-95009819D02*
X148293524Y-95057438D01*
X148293524Y-95057438D02*
X148245905Y-95105057D01*
X148245905Y-95105057D02*
X148198286Y-95200295D01*
X148198286Y-95200295D02*
X148198286Y-95438390D01*
X148198286Y-95438390D02*
X148245905Y-95533628D01*
X148245905Y-95533628D02*
X148293524Y-95581247D01*
X148293524Y-95581247D02*
X148388762Y-95628866D01*
X148388762Y-95628866D02*
X148579238Y-95628866D01*
X148579238Y-95628866D02*
X148674476Y-95581247D01*
X148674476Y-95581247D02*
X148722095Y-95533628D01*
X148722095Y-95533628D02*
X148769714Y-95438390D01*
X158272095Y-96754819D02*
X158272095Y-97564342D01*
X158272095Y-97564342D02*
X158319714Y-97659580D01*
X158319714Y-97659580D02*
X158367333Y-97707200D01*
X158367333Y-97707200D02*
X158462571Y-97754819D01*
X158462571Y-97754819D02*
X158653047Y-97754819D01*
X158653047Y-97754819D02*
X158748285Y-97707200D01*
X158748285Y-97707200D02*
X158795904Y-97659580D01*
X158795904Y-97659580D02*
X158843523Y-97564342D01*
X158843523Y-97564342D02*
X158843523Y-96754819D01*
X159462571Y-97183390D02*
X159367333Y-97135771D01*
X159367333Y-97135771D02*
X159319714Y-97088152D01*
X159319714Y-97088152D02*
X159272095Y-96992914D01*
X159272095Y-96992914D02*
X159272095Y-96945295D01*
X159272095Y-96945295D02*
X159319714Y-96850057D01*
X159319714Y-96850057D02*
X159367333Y-96802438D01*
X159367333Y-96802438D02*
X159462571Y-96754819D01*
X159462571Y-96754819D02*
X159653047Y-96754819D01*
X159653047Y-96754819D02*
X159748285Y-96802438D01*
X159748285Y-96802438D02*
X159795904Y-96850057D01*
X159795904Y-96850057D02*
X159843523Y-96945295D01*
X159843523Y-96945295D02*
X159843523Y-96992914D01*
X159843523Y-96992914D02*
X159795904Y-97088152D01*
X159795904Y-97088152D02*
X159748285Y-97135771D01*
X159748285Y-97135771D02*
X159653047Y-97183390D01*
X159653047Y-97183390D02*
X159462571Y-97183390D01*
X159462571Y-97183390D02*
X159367333Y-97231009D01*
X159367333Y-97231009D02*
X159319714Y-97278628D01*
X159319714Y-97278628D02*
X159272095Y-97373866D01*
X159272095Y-97373866D02*
X159272095Y-97564342D01*
X159272095Y-97564342D02*
X159319714Y-97659580D01*
X159319714Y-97659580D02*
X159367333Y-97707200D01*
X159367333Y-97707200D02*
X159462571Y-97754819D01*
X159462571Y-97754819D02*
X159653047Y-97754819D01*
X159653047Y-97754819D02*
X159748285Y-97707200D01*
X159748285Y-97707200D02*
X159795904Y-97659580D01*
X159795904Y-97659580D02*
X159843523Y-97564342D01*
X159843523Y-97564342D02*
X159843523Y-97373866D01*
X159843523Y-97373866D02*
X159795904Y-97278628D01*
X159795904Y-97278628D02*
X159748285Y-97231009D01*
X159748285Y-97231009D02*
X159653047Y-97183390D01*
X123250666Y-88074819D02*
X123250666Y-88789104D01*
X123250666Y-88789104D02*
X123203047Y-88931961D01*
X123203047Y-88931961D02*
X123107809Y-89027200D01*
X123107809Y-89027200D02*
X122964952Y-89074819D01*
X122964952Y-89074819D02*
X122869714Y-89074819D01*
X123869714Y-88503390D02*
X123774476Y-88455771D01*
X123774476Y-88455771D02*
X123726857Y-88408152D01*
X123726857Y-88408152D02*
X123679238Y-88312914D01*
X123679238Y-88312914D02*
X123679238Y-88265295D01*
X123679238Y-88265295D02*
X123726857Y-88170057D01*
X123726857Y-88170057D02*
X123774476Y-88122438D01*
X123774476Y-88122438D02*
X123869714Y-88074819D01*
X123869714Y-88074819D02*
X124060190Y-88074819D01*
X124060190Y-88074819D02*
X124155428Y-88122438D01*
X124155428Y-88122438D02*
X124203047Y-88170057D01*
X124203047Y-88170057D02*
X124250666Y-88265295D01*
X124250666Y-88265295D02*
X124250666Y-88312914D01*
X124250666Y-88312914D02*
X124203047Y-88408152D01*
X124203047Y-88408152D02*
X124155428Y-88455771D01*
X124155428Y-88455771D02*
X124060190Y-88503390D01*
X124060190Y-88503390D02*
X123869714Y-88503390D01*
X123869714Y-88503390D02*
X123774476Y-88551009D01*
X123774476Y-88551009D02*
X123726857Y-88598628D01*
X123726857Y-88598628D02*
X123679238Y-88693866D01*
X123679238Y-88693866D02*
X123679238Y-88884342D01*
X123679238Y-88884342D02*
X123726857Y-88979580D01*
X123726857Y-88979580D02*
X123774476Y-89027200D01*
X123774476Y-89027200D02*
X123869714Y-89074819D01*
X123869714Y-89074819D02*
X124060190Y-89074819D01*
X124060190Y-89074819D02*
X124155428Y-89027200D01*
X124155428Y-89027200D02*
X124203047Y-88979580D01*
X124203047Y-88979580D02*
X124250666Y-88884342D01*
X124250666Y-88884342D02*
X124250666Y-88693866D01*
X124250666Y-88693866D02*
X124203047Y-88598628D01*
X124203047Y-88598628D02*
X124155428Y-88551009D01*
X124155428Y-88551009D02*
X124060190Y-88503390D01*
X139116142Y-101009580D02*
X139068523Y-101057200D01*
X139068523Y-101057200D02*
X138925666Y-101104819D01*
X138925666Y-101104819D02*
X138830428Y-101104819D01*
X138830428Y-101104819D02*
X138687571Y-101057200D01*
X138687571Y-101057200D02*
X138592333Y-100961961D01*
X138592333Y-100961961D02*
X138544714Y-100866723D01*
X138544714Y-100866723D02*
X138497095Y-100676247D01*
X138497095Y-100676247D02*
X138497095Y-100533390D01*
X138497095Y-100533390D02*
X138544714Y-100342914D01*
X138544714Y-100342914D02*
X138592333Y-100247676D01*
X138592333Y-100247676D02*
X138687571Y-100152438D01*
X138687571Y-100152438D02*
X138830428Y-100104819D01*
X138830428Y-100104819D02*
X138925666Y-100104819D01*
X138925666Y-100104819D02*
X139068523Y-100152438D01*
X139068523Y-100152438D02*
X139116142Y-100200057D01*
X139497095Y-100200057D02*
X139544714Y-100152438D01*
X139544714Y-100152438D02*
X139639952Y-100104819D01*
X139639952Y-100104819D02*
X139878047Y-100104819D01*
X139878047Y-100104819D02*
X139973285Y-100152438D01*
X139973285Y-100152438D02*
X140020904Y-100200057D01*
X140020904Y-100200057D02*
X140068523Y-100295295D01*
X140068523Y-100295295D02*
X140068523Y-100390533D01*
X140068523Y-100390533D02*
X140020904Y-100533390D01*
X140020904Y-100533390D02*
X139449476Y-101104819D01*
X139449476Y-101104819D02*
X140068523Y-101104819D01*
X140925666Y-100438152D02*
X140925666Y-101104819D01*
X140687571Y-100057200D02*
X140449476Y-100771485D01*
X140449476Y-100771485D02*
X141068523Y-100771485D01*
X144578581Y-75241665D02*
X144626201Y-75289284D01*
X144626201Y-75289284D02*
X144673820Y-75432141D01*
X144673820Y-75432141D02*
X144673820Y-75527379D01*
X144673820Y-75527379D02*
X144626201Y-75670236D01*
X144626201Y-75670236D02*
X144530962Y-75765474D01*
X144530962Y-75765474D02*
X144435724Y-75813093D01*
X144435724Y-75813093D02*
X144245248Y-75860712D01*
X144245248Y-75860712D02*
X144102391Y-75860712D01*
X144102391Y-75860712D02*
X143911915Y-75813093D01*
X143911915Y-75813093D02*
X143816677Y-75765474D01*
X143816677Y-75765474D02*
X143721439Y-75670236D01*
X143721439Y-75670236D02*
X143673820Y-75527379D01*
X143673820Y-75527379D02*
X143673820Y-75432141D01*
X143673820Y-75432141D02*
X143721439Y-75289284D01*
X143721439Y-75289284D02*
X143769058Y-75241665D01*
X144673820Y-74289284D02*
X144673820Y-74860712D01*
X144673820Y-74574998D02*
X143673820Y-74574998D01*
X143673820Y-74574998D02*
X143816677Y-74670236D01*
X143816677Y-74670236D02*
X143911915Y-74765474D01*
X143911915Y-74765474D02*
X143959534Y-74860712D01*
X160333819Y-60550592D02*
X159333819Y-60550592D01*
X159333819Y-60550592D02*
X159333819Y-60312497D01*
X159333819Y-60312497D02*
X159381438Y-60169640D01*
X159381438Y-60169640D02*
X159476676Y-60074402D01*
X159476676Y-60074402D02*
X159571914Y-60026783D01*
X159571914Y-60026783D02*
X159762390Y-59979164D01*
X159762390Y-59979164D02*
X159905247Y-59979164D01*
X159905247Y-59979164D02*
X160095723Y-60026783D01*
X160095723Y-60026783D02*
X160190961Y-60074402D01*
X160190961Y-60074402D02*
X160286200Y-60169640D01*
X160286200Y-60169640D02*
X160333819Y-60312497D01*
X160333819Y-60312497D02*
X160333819Y-60550592D01*
X160333819Y-59026783D02*
X160333819Y-59598211D01*
X160333819Y-59312497D02*
X159333819Y-59312497D01*
X159333819Y-59312497D02*
X159476676Y-59407735D01*
X159476676Y-59407735D02*
X159571914Y-59502973D01*
X159571914Y-59502973D02*
X159619533Y-59598211D01*
X165349476Y-91809819D02*
X165349476Y-92524104D01*
X165349476Y-92524104D02*
X165301857Y-92666961D01*
X165301857Y-92666961D02*
X165206619Y-92762200D01*
X165206619Y-92762200D02*
X165063762Y-92809819D01*
X165063762Y-92809819D02*
X164968524Y-92809819D01*
X166349476Y-92809819D02*
X165778048Y-92809819D01*
X166063762Y-92809819D02*
X166063762Y-91809819D01*
X166063762Y-91809819D02*
X165968524Y-91952676D01*
X165968524Y-91952676D02*
X165873286Y-92047914D01*
X165873286Y-92047914D02*
X165778048Y-92095533D01*
X167301857Y-92809819D02*
X166730429Y-92809819D01*
X167016143Y-92809819D02*
X167016143Y-91809819D01*
X167016143Y-91809819D02*
X166920905Y-91952676D01*
X166920905Y-91952676D02*
X166825667Y-92047914D01*
X166825667Y-92047914D02*
X166730429Y-92095533D01*
X156790666Y-75074819D02*
X156790666Y-75789104D01*
X156790666Y-75789104D02*
X156743047Y-75931961D01*
X156743047Y-75931961D02*
X156647809Y-76027200D01*
X156647809Y-76027200D02*
X156504952Y-76074819D01*
X156504952Y-76074819D02*
X156409714Y-76074819D01*
X157790666Y-76074819D02*
X157219238Y-76074819D01*
X157504952Y-76074819D02*
X157504952Y-75074819D01*
X157504952Y-75074819D02*
X157409714Y-75217676D01*
X157409714Y-75217676D02*
X157314476Y-75312914D01*
X157314476Y-75312914D02*
X157219238Y-75360533D01*
X142316142Y-85869580D02*
X142268523Y-85917200D01*
X142268523Y-85917200D02*
X142125666Y-85964819D01*
X142125666Y-85964819D02*
X142030428Y-85964819D01*
X142030428Y-85964819D02*
X141887571Y-85917200D01*
X141887571Y-85917200D02*
X141792333Y-85821961D01*
X141792333Y-85821961D02*
X141744714Y-85726723D01*
X141744714Y-85726723D02*
X141697095Y-85536247D01*
X141697095Y-85536247D02*
X141697095Y-85393390D01*
X141697095Y-85393390D02*
X141744714Y-85202914D01*
X141744714Y-85202914D02*
X141792333Y-85107676D01*
X141792333Y-85107676D02*
X141887571Y-85012438D01*
X141887571Y-85012438D02*
X142030428Y-84964819D01*
X142030428Y-84964819D02*
X142125666Y-84964819D01*
X142125666Y-84964819D02*
X142268523Y-85012438D01*
X142268523Y-85012438D02*
X142316142Y-85060057D01*
X143268523Y-85964819D02*
X142697095Y-85964819D01*
X142982809Y-85964819D02*
X142982809Y-84964819D01*
X142982809Y-84964819D02*
X142887571Y-85107676D01*
X142887571Y-85107676D02*
X142792333Y-85202914D01*
X142792333Y-85202914D02*
X142697095Y-85250533D01*
X143601857Y-84964819D02*
X144268523Y-84964819D01*
X144268523Y-84964819D02*
X143839952Y-85964819D01*
X157468819Y-63216666D02*
X156992628Y-63549999D01*
X157468819Y-63788094D02*
X156468819Y-63788094D01*
X156468819Y-63788094D02*
X156468819Y-63407142D01*
X156468819Y-63407142D02*
X156516438Y-63311904D01*
X156516438Y-63311904D02*
X156564057Y-63264285D01*
X156564057Y-63264285D02*
X156659295Y-63216666D01*
X156659295Y-63216666D02*
X156802152Y-63216666D01*
X156802152Y-63216666D02*
X156897390Y-63264285D01*
X156897390Y-63264285D02*
X156945009Y-63311904D01*
X156945009Y-63311904D02*
X156992628Y-63407142D01*
X156992628Y-63407142D02*
X156992628Y-63788094D01*
X156468819Y-62311904D02*
X156468819Y-62788094D01*
X156468819Y-62788094D02*
X156945009Y-62835713D01*
X156945009Y-62835713D02*
X156897390Y-62788094D01*
X156897390Y-62788094D02*
X156849771Y-62692856D01*
X156849771Y-62692856D02*
X156849771Y-62454761D01*
X156849771Y-62454761D02*
X156897390Y-62359523D01*
X156897390Y-62359523D02*
X156945009Y-62311904D01*
X156945009Y-62311904D02*
X157040247Y-62264285D01*
X157040247Y-62264285D02*
X157278342Y-62264285D01*
X157278342Y-62264285D02*
X157373580Y-62311904D01*
X157373580Y-62311904D02*
X157421200Y-62359523D01*
X157421200Y-62359523D02*
X157468819Y-62454761D01*
X157468819Y-62454761D02*
X157468819Y-62692856D01*
X157468819Y-62692856D02*
X157421200Y-62788094D01*
X157421200Y-62788094D02*
X157373580Y-62835713D01*
X135141142Y-102209580D02*
X135093523Y-102257200D01*
X135093523Y-102257200D02*
X134950666Y-102304819D01*
X134950666Y-102304819D02*
X134855428Y-102304819D01*
X134855428Y-102304819D02*
X134712571Y-102257200D01*
X134712571Y-102257200D02*
X134617333Y-102161961D01*
X134617333Y-102161961D02*
X134569714Y-102066723D01*
X134569714Y-102066723D02*
X134522095Y-101876247D01*
X134522095Y-101876247D02*
X134522095Y-101733390D01*
X134522095Y-101733390D02*
X134569714Y-101542914D01*
X134569714Y-101542914D02*
X134617333Y-101447676D01*
X134617333Y-101447676D02*
X134712571Y-101352438D01*
X134712571Y-101352438D02*
X134855428Y-101304819D01*
X134855428Y-101304819D02*
X134950666Y-101304819D01*
X134950666Y-101304819D02*
X135093523Y-101352438D01*
X135093523Y-101352438D02*
X135141142Y-101400057D01*
X136093523Y-102304819D02*
X135522095Y-102304819D01*
X135807809Y-102304819D02*
X135807809Y-101304819D01*
X135807809Y-101304819D02*
X135712571Y-101447676D01*
X135712571Y-101447676D02*
X135617333Y-101542914D01*
X135617333Y-101542914D02*
X135522095Y-101590533D01*
X136712571Y-101304819D02*
X136807809Y-101304819D01*
X136807809Y-101304819D02*
X136903047Y-101352438D01*
X136903047Y-101352438D02*
X136950666Y-101400057D01*
X136950666Y-101400057D02*
X136998285Y-101495295D01*
X136998285Y-101495295D02*
X137045904Y-101685771D01*
X137045904Y-101685771D02*
X137045904Y-101923866D01*
X137045904Y-101923866D02*
X136998285Y-102114342D01*
X136998285Y-102114342D02*
X136950666Y-102209580D01*
X136950666Y-102209580D02*
X136903047Y-102257200D01*
X136903047Y-102257200D02*
X136807809Y-102304819D01*
X136807809Y-102304819D02*
X136712571Y-102304819D01*
X136712571Y-102304819D02*
X136617333Y-102257200D01*
X136617333Y-102257200D02*
X136569714Y-102209580D01*
X136569714Y-102209580D02*
X136522095Y-102114342D01*
X136522095Y-102114342D02*
X136474476Y-101923866D01*
X136474476Y-101923866D02*
X136474476Y-101685771D01*
X136474476Y-101685771D02*
X136522095Y-101495295D01*
X136522095Y-101495295D02*
X136569714Y-101400057D01*
X136569714Y-101400057D02*
X136617333Y-101352438D01*
X136617333Y-101352438D02*
X136712571Y-101304819D01*
X168166142Y-83984580D02*
X168118523Y-84032200D01*
X168118523Y-84032200D02*
X167975666Y-84079819D01*
X167975666Y-84079819D02*
X167880428Y-84079819D01*
X167880428Y-84079819D02*
X167737571Y-84032200D01*
X167737571Y-84032200D02*
X167642333Y-83936961D01*
X167642333Y-83936961D02*
X167594714Y-83841723D01*
X167594714Y-83841723D02*
X167547095Y-83651247D01*
X167547095Y-83651247D02*
X167547095Y-83508390D01*
X167547095Y-83508390D02*
X167594714Y-83317914D01*
X167594714Y-83317914D02*
X167642333Y-83222676D01*
X167642333Y-83222676D02*
X167737571Y-83127438D01*
X167737571Y-83127438D02*
X167880428Y-83079819D01*
X167880428Y-83079819D02*
X167975666Y-83079819D01*
X167975666Y-83079819D02*
X168118523Y-83127438D01*
X168118523Y-83127438D02*
X168166142Y-83175057D01*
X168547095Y-83175057D02*
X168594714Y-83127438D01*
X168594714Y-83127438D02*
X168689952Y-83079819D01*
X168689952Y-83079819D02*
X168928047Y-83079819D01*
X168928047Y-83079819D02*
X169023285Y-83127438D01*
X169023285Y-83127438D02*
X169070904Y-83175057D01*
X169070904Y-83175057D02*
X169118523Y-83270295D01*
X169118523Y-83270295D02*
X169118523Y-83365533D01*
X169118523Y-83365533D02*
X169070904Y-83508390D01*
X169070904Y-83508390D02*
X168499476Y-84079819D01*
X168499476Y-84079819D02*
X169118523Y-84079819D01*
X169689952Y-83508390D02*
X169594714Y-83460771D01*
X169594714Y-83460771D02*
X169547095Y-83413152D01*
X169547095Y-83413152D02*
X169499476Y-83317914D01*
X169499476Y-83317914D02*
X169499476Y-83270295D01*
X169499476Y-83270295D02*
X169547095Y-83175057D01*
X169547095Y-83175057D02*
X169594714Y-83127438D01*
X169594714Y-83127438D02*
X169689952Y-83079819D01*
X169689952Y-83079819D02*
X169880428Y-83079819D01*
X169880428Y-83079819D02*
X169975666Y-83127438D01*
X169975666Y-83127438D02*
X170023285Y-83175057D01*
X170023285Y-83175057D02*
X170070904Y-83270295D01*
X170070904Y-83270295D02*
X170070904Y-83317914D01*
X170070904Y-83317914D02*
X170023285Y-83413152D01*
X170023285Y-83413152D02*
X169975666Y-83460771D01*
X169975666Y-83460771D02*
X169880428Y-83508390D01*
X169880428Y-83508390D02*
X169689952Y-83508390D01*
X169689952Y-83508390D02*
X169594714Y-83556009D01*
X169594714Y-83556009D02*
X169547095Y-83603628D01*
X169547095Y-83603628D02*
X169499476Y-83698866D01*
X169499476Y-83698866D02*
X169499476Y-83889342D01*
X169499476Y-83889342D02*
X169547095Y-83984580D01*
X169547095Y-83984580D02*
X169594714Y-84032200D01*
X169594714Y-84032200D02*
X169689952Y-84079819D01*
X169689952Y-84079819D02*
X169880428Y-84079819D01*
X169880428Y-84079819D02*
X169975666Y-84032200D01*
X169975666Y-84032200D02*
X170023285Y-83984580D01*
X170023285Y-83984580D02*
X170070904Y-83889342D01*
X170070904Y-83889342D02*
X170070904Y-83698866D01*
X170070904Y-83698866D02*
X170023285Y-83603628D01*
X170023285Y-83603628D02*
X169975666Y-83556009D01*
X169975666Y-83556009D02*
X169880428Y-83508390D01*
X168091142Y-82009580D02*
X168043523Y-82057200D01*
X168043523Y-82057200D02*
X167900666Y-82104819D01*
X167900666Y-82104819D02*
X167805428Y-82104819D01*
X167805428Y-82104819D02*
X167662571Y-82057200D01*
X167662571Y-82057200D02*
X167567333Y-81961961D01*
X167567333Y-81961961D02*
X167519714Y-81866723D01*
X167519714Y-81866723D02*
X167472095Y-81676247D01*
X167472095Y-81676247D02*
X167472095Y-81533390D01*
X167472095Y-81533390D02*
X167519714Y-81342914D01*
X167519714Y-81342914D02*
X167567333Y-81247676D01*
X167567333Y-81247676D02*
X167662571Y-81152438D01*
X167662571Y-81152438D02*
X167805428Y-81104819D01*
X167805428Y-81104819D02*
X167900666Y-81104819D01*
X167900666Y-81104819D02*
X168043523Y-81152438D01*
X168043523Y-81152438D02*
X168091142Y-81200057D01*
X168472095Y-81200057D02*
X168519714Y-81152438D01*
X168519714Y-81152438D02*
X168614952Y-81104819D01*
X168614952Y-81104819D02*
X168853047Y-81104819D01*
X168853047Y-81104819D02*
X168948285Y-81152438D01*
X168948285Y-81152438D02*
X168995904Y-81200057D01*
X168995904Y-81200057D02*
X169043523Y-81295295D01*
X169043523Y-81295295D02*
X169043523Y-81390533D01*
X169043523Y-81390533D02*
X168995904Y-81533390D01*
X168995904Y-81533390D02*
X168424476Y-82104819D01*
X168424476Y-82104819D02*
X169043523Y-82104819D01*
X169376857Y-81104819D02*
X170043523Y-81104819D01*
X170043523Y-81104819D02*
X169614952Y-82104819D01*
X131266142Y-84149580D02*
X131218523Y-84197200D01*
X131218523Y-84197200D02*
X131075666Y-84244819D01*
X131075666Y-84244819D02*
X130980428Y-84244819D01*
X130980428Y-84244819D02*
X130837571Y-84197200D01*
X130837571Y-84197200D02*
X130742333Y-84101961D01*
X130742333Y-84101961D02*
X130694714Y-84006723D01*
X130694714Y-84006723D02*
X130647095Y-83816247D01*
X130647095Y-83816247D02*
X130647095Y-83673390D01*
X130647095Y-83673390D02*
X130694714Y-83482914D01*
X130694714Y-83482914D02*
X130742333Y-83387676D01*
X130742333Y-83387676D02*
X130837571Y-83292438D01*
X130837571Y-83292438D02*
X130980428Y-83244819D01*
X130980428Y-83244819D02*
X131075666Y-83244819D01*
X131075666Y-83244819D02*
X131218523Y-83292438D01*
X131218523Y-83292438D02*
X131266142Y-83340057D01*
X132218523Y-84244819D02*
X131647095Y-84244819D01*
X131932809Y-84244819D02*
X131932809Y-83244819D01*
X131932809Y-83244819D02*
X131837571Y-83387676D01*
X131837571Y-83387676D02*
X131742333Y-83482914D01*
X131742333Y-83482914D02*
X131647095Y-83530533D01*
X133123285Y-83244819D02*
X132647095Y-83244819D01*
X132647095Y-83244819D02*
X132599476Y-83721009D01*
X132599476Y-83721009D02*
X132647095Y-83673390D01*
X132647095Y-83673390D02*
X132742333Y-83625771D01*
X132742333Y-83625771D02*
X132980428Y-83625771D01*
X132980428Y-83625771D02*
X133075666Y-83673390D01*
X133075666Y-83673390D02*
X133123285Y-83721009D01*
X133123285Y-83721009D02*
X133170904Y-83816247D01*
X133170904Y-83816247D02*
X133170904Y-84054342D01*
X133170904Y-84054342D02*
X133123285Y-84149580D01*
X133123285Y-84149580D02*
X133075666Y-84197200D01*
X133075666Y-84197200D02*
X132980428Y-84244819D01*
X132980428Y-84244819D02*
X132742333Y-84244819D01*
X132742333Y-84244819D02*
X132647095Y-84197200D01*
X132647095Y-84197200D02*
X132599476Y-84149580D01*
X145342333Y-80809580D02*
X145294714Y-80857200D01*
X145294714Y-80857200D02*
X145151857Y-80904819D01*
X145151857Y-80904819D02*
X145056619Y-80904819D01*
X145056619Y-80904819D02*
X144913762Y-80857200D01*
X144913762Y-80857200D02*
X144818524Y-80761961D01*
X144818524Y-80761961D02*
X144770905Y-80666723D01*
X144770905Y-80666723D02*
X144723286Y-80476247D01*
X144723286Y-80476247D02*
X144723286Y-80333390D01*
X144723286Y-80333390D02*
X144770905Y-80142914D01*
X144770905Y-80142914D02*
X144818524Y-80047676D01*
X144818524Y-80047676D02*
X144913762Y-79952438D01*
X144913762Y-79952438D02*
X145056619Y-79904819D01*
X145056619Y-79904819D02*
X145151857Y-79904819D01*
X145151857Y-79904819D02*
X145294714Y-79952438D01*
X145294714Y-79952438D02*
X145342333Y-80000057D01*
X145723286Y-80000057D02*
X145770905Y-79952438D01*
X145770905Y-79952438D02*
X145866143Y-79904819D01*
X145866143Y-79904819D02*
X146104238Y-79904819D01*
X146104238Y-79904819D02*
X146199476Y-79952438D01*
X146199476Y-79952438D02*
X146247095Y-80000057D01*
X146247095Y-80000057D02*
X146294714Y-80095295D01*
X146294714Y-80095295D02*
X146294714Y-80190533D01*
X146294714Y-80190533D02*
X146247095Y-80333390D01*
X146247095Y-80333390D02*
X145675667Y-80904819D01*
X145675667Y-80904819D02*
X146294714Y-80904819D01*
X152488819Y-121318333D02*
X153203104Y-121318333D01*
X153203104Y-121318333D02*
X153345961Y-121365952D01*
X153345961Y-121365952D02*
X153441200Y-121461190D01*
X153441200Y-121461190D02*
X153488819Y-121604047D01*
X153488819Y-121604047D02*
X153488819Y-121699285D01*
X152584057Y-120889761D02*
X152536438Y-120842142D01*
X152536438Y-120842142D02*
X152488819Y-120746904D01*
X152488819Y-120746904D02*
X152488819Y-120508809D01*
X152488819Y-120508809D02*
X152536438Y-120413571D01*
X152536438Y-120413571D02*
X152584057Y-120365952D01*
X152584057Y-120365952D02*
X152679295Y-120318333D01*
X152679295Y-120318333D02*
X152774533Y-120318333D01*
X152774533Y-120318333D02*
X152917390Y-120365952D01*
X152917390Y-120365952D02*
X153488819Y-120937380D01*
X153488819Y-120937380D02*
X153488819Y-120318333D01*
X144917333Y-89359580D02*
X144869714Y-89407200D01*
X144869714Y-89407200D02*
X144726857Y-89454819D01*
X144726857Y-89454819D02*
X144631619Y-89454819D01*
X144631619Y-89454819D02*
X144488762Y-89407200D01*
X144488762Y-89407200D02*
X144393524Y-89311961D01*
X144393524Y-89311961D02*
X144345905Y-89216723D01*
X144345905Y-89216723D02*
X144298286Y-89026247D01*
X144298286Y-89026247D02*
X144298286Y-88883390D01*
X144298286Y-88883390D02*
X144345905Y-88692914D01*
X144345905Y-88692914D02*
X144393524Y-88597676D01*
X144393524Y-88597676D02*
X144488762Y-88502438D01*
X144488762Y-88502438D02*
X144631619Y-88454819D01*
X144631619Y-88454819D02*
X144726857Y-88454819D01*
X144726857Y-88454819D02*
X144869714Y-88502438D01*
X144869714Y-88502438D02*
X144917333Y-88550057D01*
X145774476Y-88788152D02*
X145774476Y-89454819D01*
X145536381Y-88407200D02*
X145298286Y-89121485D01*
X145298286Y-89121485D02*
X145917333Y-89121485D01*
X181766802Y-110470792D02*
X181261726Y-110975868D01*
X181261726Y-110975868D02*
X181127039Y-111043212D01*
X181127039Y-111043212D02*
X180992352Y-111043212D01*
X180992352Y-111043212D02*
X180857665Y-110975868D01*
X180857665Y-110975868D02*
X180790321Y-110908525D01*
X182406566Y-111110555D02*
X182271879Y-110975868D01*
X182271879Y-110975868D02*
X182170863Y-110942197D01*
X182170863Y-110942197D02*
X182103520Y-110942197D01*
X182103520Y-110942197D02*
X181935161Y-110975868D01*
X181935161Y-110975868D02*
X181766802Y-111076884D01*
X181766802Y-111076884D02*
X181497428Y-111346258D01*
X181497428Y-111346258D02*
X181463757Y-111447273D01*
X181463757Y-111447273D02*
X181463757Y-111514616D01*
X181463757Y-111514616D02*
X181497428Y-111615632D01*
X181497428Y-111615632D02*
X181632115Y-111750319D01*
X181632115Y-111750319D02*
X181733131Y-111783990D01*
X181733131Y-111783990D02*
X181800474Y-111783990D01*
X181800474Y-111783990D02*
X181901489Y-111750319D01*
X181901489Y-111750319D02*
X182069848Y-111581960D01*
X182069848Y-111581960D02*
X182103520Y-111480945D01*
X182103520Y-111480945D02*
X182103520Y-111413601D01*
X182103520Y-111413601D02*
X182069848Y-111312586D01*
X182069848Y-111312586D02*
X181935161Y-111177899D01*
X181935161Y-111177899D02*
X181834146Y-111144227D01*
X181834146Y-111144227D02*
X181766802Y-111144227D01*
X181766802Y-111144227D02*
X181665787Y-111177899D01*
X160822095Y-80504819D02*
X160822095Y-81314342D01*
X160822095Y-81314342D02*
X160869714Y-81409580D01*
X160869714Y-81409580D02*
X160917333Y-81457200D01*
X160917333Y-81457200D02*
X161012571Y-81504819D01*
X161012571Y-81504819D02*
X161203047Y-81504819D01*
X161203047Y-81504819D02*
X161298285Y-81457200D01*
X161298285Y-81457200D02*
X161345904Y-81409580D01*
X161345904Y-81409580D02*
X161393523Y-81314342D01*
X161393523Y-81314342D02*
X161393523Y-80504819D01*
X162298285Y-80504819D02*
X162107809Y-80504819D01*
X162107809Y-80504819D02*
X162012571Y-80552438D01*
X162012571Y-80552438D02*
X161964952Y-80600057D01*
X161964952Y-80600057D02*
X161869714Y-80742914D01*
X161869714Y-80742914D02*
X161822095Y-80933390D01*
X161822095Y-80933390D02*
X161822095Y-81314342D01*
X161822095Y-81314342D02*
X161869714Y-81409580D01*
X161869714Y-81409580D02*
X161917333Y-81457200D01*
X161917333Y-81457200D02*
X162012571Y-81504819D01*
X162012571Y-81504819D02*
X162203047Y-81504819D01*
X162203047Y-81504819D02*
X162298285Y-81457200D01*
X162298285Y-81457200D02*
X162345904Y-81409580D01*
X162345904Y-81409580D02*
X162393523Y-81314342D01*
X162393523Y-81314342D02*
X162393523Y-81076247D01*
X162393523Y-81076247D02*
X162345904Y-80981009D01*
X162345904Y-80981009D02*
X162298285Y-80933390D01*
X162298285Y-80933390D02*
X162203047Y-80885771D01*
X162203047Y-80885771D02*
X162012571Y-80885771D01*
X162012571Y-80885771D02*
X161917333Y-80933390D01*
X161917333Y-80933390D02*
X161869714Y-80981009D01*
X161869714Y-80981009D02*
X161822095Y-81076247D01*
X154543819Y-60638094D02*
X153543819Y-60638094D01*
X153543819Y-60638094D02*
X153543819Y-60399999D01*
X153543819Y-60399999D02*
X153591438Y-60257142D01*
X153591438Y-60257142D02*
X153686676Y-60161904D01*
X153686676Y-60161904D02*
X153781914Y-60114285D01*
X153781914Y-60114285D02*
X153972390Y-60066666D01*
X153972390Y-60066666D02*
X154115247Y-60066666D01*
X154115247Y-60066666D02*
X154305723Y-60114285D01*
X154305723Y-60114285D02*
X154400961Y-60161904D01*
X154400961Y-60161904D02*
X154496200Y-60257142D01*
X154496200Y-60257142D02*
X154543819Y-60399999D01*
X154543819Y-60399999D02*
X154543819Y-60638094D01*
X153639057Y-59685713D02*
X153591438Y-59638094D01*
X153591438Y-59638094D02*
X153543819Y-59542856D01*
X153543819Y-59542856D02*
X153543819Y-59304761D01*
X153543819Y-59304761D02*
X153591438Y-59209523D01*
X153591438Y-59209523D02*
X153639057Y-59161904D01*
X153639057Y-59161904D02*
X153734295Y-59114285D01*
X153734295Y-59114285D02*
X153829533Y-59114285D01*
X153829533Y-59114285D02*
X153972390Y-59161904D01*
X153972390Y-59161904D02*
X154543819Y-59733332D01*
X154543819Y-59733332D02*
X154543819Y-59114285D01*
X158372095Y-71454819D02*
X158372095Y-72264342D01*
X158372095Y-72264342D02*
X158419714Y-72359580D01*
X158419714Y-72359580D02*
X158467333Y-72407200D01*
X158467333Y-72407200D02*
X158562571Y-72454819D01*
X158562571Y-72454819D02*
X158753047Y-72454819D01*
X158753047Y-72454819D02*
X158848285Y-72407200D01*
X158848285Y-72407200D02*
X158895904Y-72359580D01*
X158895904Y-72359580D02*
X158943523Y-72264342D01*
X158943523Y-72264342D02*
X158943523Y-71454819D01*
X159324476Y-71454819D02*
X159991142Y-71454819D01*
X159991142Y-71454819D02*
X159562571Y-72454819D01*
X154250666Y-75074819D02*
X154250666Y-75789104D01*
X154250666Y-75789104D02*
X154203047Y-75931961D01*
X154203047Y-75931961D02*
X154107809Y-76027200D01*
X154107809Y-76027200D02*
X153964952Y-76074819D01*
X153964952Y-76074819D02*
X153869714Y-76074819D01*
X154774476Y-76074819D02*
X154964952Y-76074819D01*
X154964952Y-76074819D02*
X155060190Y-76027200D01*
X155060190Y-76027200D02*
X155107809Y-75979580D01*
X155107809Y-75979580D02*
X155203047Y-75836723D01*
X155203047Y-75836723D02*
X155250666Y-75646247D01*
X155250666Y-75646247D02*
X155250666Y-75265295D01*
X155250666Y-75265295D02*
X155203047Y-75170057D01*
X155203047Y-75170057D02*
X155155428Y-75122438D01*
X155155428Y-75122438D02*
X155060190Y-75074819D01*
X155060190Y-75074819D02*
X154869714Y-75074819D01*
X154869714Y-75074819D02*
X154774476Y-75122438D01*
X154774476Y-75122438D02*
X154726857Y-75170057D01*
X154726857Y-75170057D02*
X154679238Y-75265295D01*
X154679238Y-75265295D02*
X154679238Y-75503390D01*
X154679238Y-75503390D02*
X154726857Y-75598628D01*
X154726857Y-75598628D02*
X154774476Y-75646247D01*
X154774476Y-75646247D02*
X154869714Y-75693866D01*
X154869714Y-75693866D02*
X155060190Y-75693866D01*
X155060190Y-75693866D02*
X155155428Y-75646247D01*
X155155428Y-75646247D02*
X155203047Y-75598628D01*
X155203047Y-75598628D02*
X155250666Y-75503390D01*
X140932095Y-75029819D02*
X140932095Y-75839342D01*
X140932095Y-75839342D02*
X140979714Y-75934580D01*
X140979714Y-75934580D02*
X141027333Y-75982200D01*
X141027333Y-75982200D02*
X141122571Y-76029819D01*
X141122571Y-76029819D02*
X141313047Y-76029819D01*
X141313047Y-76029819D02*
X141408285Y-75982200D01*
X141408285Y-75982200D02*
X141455904Y-75934580D01*
X141455904Y-75934580D02*
X141503523Y-75839342D01*
X141503523Y-75839342D02*
X141503523Y-75029819D01*
X141932095Y-75125057D02*
X141979714Y-75077438D01*
X141979714Y-75077438D02*
X142074952Y-75029819D01*
X142074952Y-75029819D02*
X142313047Y-75029819D01*
X142313047Y-75029819D02*
X142408285Y-75077438D01*
X142408285Y-75077438D02*
X142455904Y-75125057D01*
X142455904Y-75125057D02*
X142503523Y-75220295D01*
X142503523Y-75220295D02*
X142503523Y-75315533D01*
X142503523Y-75315533D02*
X142455904Y-75458390D01*
X142455904Y-75458390D02*
X141884476Y-76029819D01*
X141884476Y-76029819D02*
X142503523Y-76029819D01*
X147341142Y-90924819D02*
X147007809Y-90448628D01*
X146769714Y-90924819D02*
X146769714Y-89924819D01*
X146769714Y-89924819D02*
X147150666Y-89924819D01*
X147150666Y-89924819D02*
X147245904Y-89972438D01*
X147245904Y-89972438D02*
X147293523Y-90020057D01*
X147293523Y-90020057D02*
X147341142Y-90115295D01*
X147341142Y-90115295D02*
X147341142Y-90258152D01*
X147341142Y-90258152D02*
X147293523Y-90353390D01*
X147293523Y-90353390D02*
X147245904Y-90401009D01*
X147245904Y-90401009D02*
X147150666Y-90448628D01*
X147150666Y-90448628D02*
X146769714Y-90448628D01*
X148293523Y-90924819D02*
X147722095Y-90924819D01*
X148007809Y-90924819D02*
X148007809Y-89924819D01*
X148007809Y-89924819D02*
X147912571Y-90067676D01*
X147912571Y-90067676D02*
X147817333Y-90162914D01*
X147817333Y-90162914D02*
X147722095Y-90210533D01*
X148912571Y-89924819D02*
X149007809Y-89924819D01*
X149007809Y-89924819D02*
X149103047Y-89972438D01*
X149103047Y-89972438D02*
X149150666Y-90020057D01*
X149150666Y-90020057D02*
X149198285Y-90115295D01*
X149198285Y-90115295D02*
X149245904Y-90305771D01*
X149245904Y-90305771D02*
X149245904Y-90543866D01*
X149245904Y-90543866D02*
X149198285Y-90734342D01*
X149198285Y-90734342D02*
X149150666Y-90829580D01*
X149150666Y-90829580D02*
X149103047Y-90877200D01*
X149103047Y-90877200D02*
X149007809Y-90924819D01*
X149007809Y-90924819D02*
X148912571Y-90924819D01*
X148912571Y-90924819D02*
X148817333Y-90877200D01*
X148817333Y-90877200D02*
X148769714Y-90829580D01*
X148769714Y-90829580D02*
X148722095Y-90734342D01*
X148722095Y-90734342D02*
X148674476Y-90543866D01*
X148674476Y-90543866D02*
X148674476Y-90305771D01*
X148674476Y-90305771D02*
X148722095Y-90115295D01*
X148722095Y-90115295D02*
X148769714Y-90020057D01*
X148769714Y-90020057D02*
X148817333Y-89972438D01*
X148817333Y-89972438D02*
X148912571Y-89924819D01*
X123034476Y-97689819D02*
X123034476Y-98404104D01*
X123034476Y-98404104D02*
X122986857Y-98546961D01*
X122986857Y-98546961D02*
X122891619Y-98642200D01*
X122891619Y-98642200D02*
X122748762Y-98689819D01*
X122748762Y-98689819D02*
X122653524Y-98689819D01*
X124034476Y-98689819D02*
X123463048Y-98689819D01*
X123748762Y-98689819D02*
X123748762Y-97689819D01*
X123748762Y-97689819D02*
X123653524Y-97832676D01*
X123653524Y-97832676D02*
X123558286Y-97927914D01*
X123558286Y-97927914D02*
X123463048Y-97975533D01*
X124367810Y-97689819D02*
X124986857Y-97689819D01*
X124986857Y-97689819D02*
X124653524Y-98070771D01*
X124653524Y-98070771D02*
X124796381Y-98070771D01*
X124796381Y-98070771D02*
X124891619Y-98118390D01*
X124891619Y-98118390D02*
X124939238Y-98166009D01*
X124939238Y-98166009D02*
X124986857Y-98261247D01*
X124986857Y-98261247D02*
X124986857Y-98499342D01*
X124986857Y-98499342D02*
X124939238Y-98594580D01*
X124939238Y-98594580D02*
X124891619Y-98642200D01*
X124891619Y-98642200D02*
X124796381Y-98689819D01*
X124796381Y-98689819D02*
X124510667Y-98689819D01*
X124510667Y-98689819D02*
X124415429Y-98642200D01*
X124415429Y-98642200D02*
X124367810Y-98594580D01*
X170497095Y-87854819D02*
X170497095Y-88664342D01*
X170497095Y-88664342D02*
X170544714Y-88759580D01*
X170544714Y-88759580D02*
X170592333Y-88807200D01*
X170592333Y-88807200D02*
X170687571Y-88854819D01*
X170687571Y-88854819D02*
X170878047Y-88854819D01*
X170878047Y-88854819D02*
X170973285Y-88807200D01*
X170973285Y-88807200D02*
X171020904Y-88759580D01*
X171020904Y-88759580D02*
X171068523Y-88664342D01*
X171068523Y-88664342D02*
X171068523Y-87854819D01*
X172068523Y-88854819D02*
X171497095Y-88854819D01*
X171782809Y-88854819D02*
X171782809Y-87854819D01*
X171782809Y-87854819D02*
X171687571Y-87997676D01*
X171687571Y-87997676D02*
X171592333Y-88092914D01*
X171592333Y-88092914D02*
X171497095Y-88140533D01*
D15*
%TO.C,C3*%
X143776837Y-80665000D02*
X143561165Y-80665000D01*
X143776837Y-81385000D02*
X143561165Y-81385000D01*
%TO.C,L7*%
X139396221Y-101515000D02*
X139721779Y-101515000D01*
X139396221Y-102535000D02*
X139721779Y-102535000D01*
D16*
%TO.C,L1*%
X145294000Y-75875000D02*
X145494001Y-75675000D01*
X145294000Y-76025000D02*
X145294000Y-75875000D01*
X145294000Y-77075000D02*
X145294000Y-76025000D01*
X145294000Y-78075000D02*
X145294000Y-79125000D01*
X145294000Y-79125000D02*
X145294000Y-79275000D01*
X145294000Y-79275000D02*
X145494001Y-79475000D01*
X147494001Y-75675000D02*
X145494001Y-75675000D01*
X147494001Y-79475000D02*
X145494001Y-79475000D01*
X147694002Y-75875000D02*
X147494001Y-75675000D01*
X147694002Y-76025000D02*
X147694002Y-75875000D01*
X147694002Y-77075000D02*
X147694002Y-76025000D01*
X147694002Y-78075000D02*
X147694002Y-79125000D01*
X147694002Y-79125000D02*
X147694002Y-79275000D01*
X147694002Y-79275000D02*
X147494001Y-79475000D01*
D15*
%TO.C,J5*%
X130892651Y-112714555D02*
X131833103Y-111774103D01*
X131833103Y-113655007D02*
X130892651Y-112714555D01*
X132731129Y-114553033D02*
X134612033Y-112672129D01*
X132731129Y-114553033D02*
X136365657Y-118187561D01*
X134612033Y-112672129D02*
X138246561Y-116306657D01*
X136365657Y-118187561D02*
X138246561Y-116306657D01*
%TO.C,J7*%
X150754000Y-100120000D02*
X152084000Y-100120000D01*
X150754000Y-101450000D02*
X150754000Y-100120000D01*
X153354001Y-100120000D02*
X161034000Y-100120000D01*
X153354001Y-102780000D02*
X153354001Y-100120000D01*
X153354001Y-102780000D02*
X161034000Y-102780000D01*
X161034000Y-102780000D02*
X161034000Y-100120000D01*
%TO.C,R4*%
X152161500Y-62812742D02*
X152161500Y-63287258D01*
X153206500Y-62812742D02*
X153206500Y-63287258D01*
%TO.C,C11*%
X130726164Y-104740000D02*
X130941836Y-104740000D01*
X130726164Y-105460000D02*
X130941836Y-105460000D01*
D17*
%TO.C,G\u002A\u002A\u002A*%
G36*
X181047686Y-89814408D02*
G01*
X181061384Y-89859846D01*
X181049920Y-89903120D01*
X181029420Y-89922184D01*
X180984174Y-89922325D01*
X180947220Y-89896033D01*
X180934384Y-89859846D01*
X180949523Y-89820591D01*
X180965921Y-89805136D01*
X181012132Y-89793449D01*
X181047686Y-89814408D01*
G37*
G36*
X178576449Y-89703193D02*
G01*
X178607914Y-89733886D01*
X178614933Y-89776755D01*
X178604124Y-89802655D01*
X178563890Y-89833497D01*
X178517141Y-89829325D01*
X178489849Y-89808539D01*
X178469386Y-89763581D01*
X178482931Y-89722634D01*
X178526240Y-89697690D01*
X178529302Y-89697040D01*
X178576449Y-89703193D01*
G37*
G36*
X179207837Y-89807710D02*
G01*
X179229177Y-89846180D01*
X179223765Y-89891459D01*
X179222141Y-89894542D01*
X179188729Y-89922765D01*
X179145197Y-89926701D01*
X179108359Y-89907204D01*
X179097472Y-89888216D01*
X179098983Y-89838790D01*
X179129444Y-89802238D01*
X179167859Y-89791462D01*
X179207837Y-89807710D01*
G37*
G36*
X179826554Y-89853985D02*
G01*
X179848668Y-89896631D01*
X179831920Y-89941927D01*
X179819335Y-89956105D01*
X179780006Y-89975187D01*
X179741928Y-89964743D01*
X179714805Y-89933399D01*
X179708338Y-89889783D01*
X179716559Y-89864731D01*
X179750063Y-89835427D01*
X179795213Y-89834847D01*
X179826554Y-89853985D01*
G37*
G36*
X180423959Y-89842530D02*
G01*
X180452107Y-89878380D01*
X180455094Y-89898923D01*
X180445499Y-89931774D01*
X180438529Y-89944594D01*
X180408282Y-89962448D01*
X180375329Y-89964133D01*
X180341210Y-89950930D01*
X180329283Y-89916609D01*
X180328692Y-89898923D01*
X180335358Y-89855097D01*
X180361324Y-89836437D01*
X180375329Y-89833714D01*
X180423959Y-89842530D01*
G37*
G36*
X182372932Y-84845892D02*
G01*
X182428825Y-84877310D01*
X182460715Y-84929808D01*
X182466987Y-84995560D01*
X182447620Y-85058296D01*
X182429077Y-85082692D01*
X182372201Y-85116307D01*
X182309680Y-85119022D01*
X182252153Y-85095174D01*
X182210257Y-85049095D01*
X182194615Y-84987166D01*
X182210626Y-84918766D01*
X182252172Y-84869379D01*
X182309518Y-84843565D01*
X182372932Y-84845892D01*
G37*
G36*
X176771399Y-98893736D02*
G01*
X176821138Y-98935741D01*
X176854132Y-98989863D01*
X176860615Y-99023384D01*
X176847069Y-99072102D01*
X176814308Y-99120285D01*
X176812658Y-99121965D01*
X176750478Y-99162250D01*
X176684228Y-99163804D01*
X176619019Y-99129428D01*
X176578526Y-99076997D01*
X176568814Y-99016105D01*
X176586082Y-98956488D01*
X176626532Y-98907882D01*
X176686363Y-98880023D01*
X176717600Y-98876846D01*
X176771399Y-98893736D01*
G37*
G36*
X177920324Y-101048279D02*
G01*
X177922793Y-101050500D01*
X177970611Y-101111560D01*
X177985287Y-101174106D01*
X177979789Y-101201923D01*
X177939445Y-101264211D01*
X177877589Y-101296319D01*
X177846444Y-101299616D01*
X177773405Y-101284381D01*
X177721924Y-101244600D01*
X177695556Y-101189156D01*
X177697856Y-101126929D01*
X177732381Y-101066806D01*
X177747449Y-101052293D01*
X177808081Y-101014134D01*
X177863257Y-101012821D01*
X177920324Y-101048279D01*
G37*
G36*
X181442646Y-102625372D02*
G01*
X181489925Y-102666633D01*
X181522653Y-102719307D01*
X181530309Y-102755231D01*
X181516762Y-102803948D01*
X181484000Y-102852131D01*
X181482349Y-102853811D01*
X181419301Y-102895518D01*
X181356086Y-102899769D01*
X181299261Y-102867604D01*
X181264276Y-102819240D01*
X181247315Y-102750078D01*
X181263290Y-102685815D01*
X181306339Y-102636028D01*
X181370604Y-102610292D01*
X181393142Y-102608692D01*
X181442646Y-102625372D01*
G37*
G36*
X182604392Y-101351144D02*
G01*
X182651550Y-101392037D01*
X182660189Y-101407528D01*
X182680338Y-101467321D01*
X182673510Y-101513609D01*
X182639115Y-101561290D01*
X182582027Y-101603131D01*
X182522041Y-101613570D01*
X182465909Y-101598269D01*
X182420381Y-101562888D01*
X182392210Y-101513086D01*
X182388141Y-101454524D01*
X182414931Y-101392857D01*
X182424192Y-101381110D01*
X182477634Y-101344216D01*
X182542060Y-101334716D01*
X182604392Y-101351144D01*
G37*
G36*
X175640655Y-93754624D02*
G01*
X175683668Y-93796810D01*
X175705824Y-93854300D01*
X175703949Y-93916602D01*
X175674871Y-93973229D01*
X175656365Y-93990813D01*
X175609578Y-94019166D01*
X175568246Y-94031301D01*
X175567554Y-94031308D01*
X175520876Y-94014770D01*
X175475269Y-93973994D01*
X175442793Y-93922247D01*
X175434308Y-93884769D01*
X175451188Y-93828670D01*
X175493274Y-93777529D01*
X175547736Y-93744256D01*
X175579958Y-93738231D01*
X175640655Y-93754624D01*
G37*
G36*
X177778109Y-97833317D02*
G01*
X177823779Y-97861207D01*
X177825134Y-97862264D01*
X177866035Y-97916734D01*
X177877377Y-97983568D01*
X177858344Y-98048652D01*
X177837538Y-98075769D01*
X177779730Y-98110727D01*
X177717745Y-98113489D01*
X177661219Y-98088413D01*
X177619791Y-98039859D01*
X177603095Y-97972185D01*
X177603077Y-97969726D01*
X177619248Y-97907800D01*
X177660313Y-97855580D01*
X177715104Y-97825147D01*
X177739846Y-97821769D01*
X177778109Y-97833317D01*
G37*
G36*
X176837727Y-84998588D02*
G01*
X176840369Y-85003215D01*
X176874507Y-85040068D01*
X176899671Y-85053378D01*
X176927754Y-85075183D01*
X176938243Y-85107230D01*
X176929333Y-85134004D01*
X176909912Y-85141308D01*
X176879315Y-85156316D01*
X176849050Y-85190154D01*
X176819438Y-85227049D01*
X176791348Y-85234814D01*
X176755154Y-85212819D01*
X176722343Y-85181888D01*
X176677776Y-85126311D01*
X176668023Y-85084333D01*
X176693310Y-85057388D01*
X176702198Y-85054054D01*
X176737725Y-85026744D01*
X176749215Y-85003892D01*
X176771718Y-84971539D01*
X176805594Y-84969739D01*
X176837727Y-84998588D01*
G37*
G36*
X176942868Y-91546425D02*
G01*
X176959026Y-91581122D01*
X176986611Y-91622531D01*
X177017158Y-91642016D01*
X177050754Y-91661995D01*
X177049448Y-91690089D01*
X177014174Y-91718826D01*
X177007154Y-91722214D01*
X176971039Y-91748434D01*
X176958308Y-91774197D01*
X176946536Y-91799873D01*
X176920937Y-91800693D01*
X176896085Y-91778638D01*
X176889937Y-91764892D01*
X176862684Y-91730178D01*
X176830005Y-91713928D01*
X176794040Y-91698615D01*
X176782461Y-91683923D01*
X176795158Y-91661575D01*
X176826326Y-91624194D01*
X176865582Y-91582670D01*
X176902543Y-91547895D01*
X176926825Y-91530761D01*
X176928832Y-91530385D01*
X176942868Y-91546425D01*
G37*
G36*
X182459686Y-86049845D02*
G01*
X182495483Y-86106290D01*
X182541977Y-86172151D01*
X182607828Y-86211831D01*
X182664395Y-86243645D01*
X182682120Y-86278717D01*
X182661005Y-86316038D01*
X182607612Y-86351322D01*
X182540167Y-86401388D01*
X182500511Y-86456488D01*
X182464398Y-86521759D01*
X182432925Y-86551012D01*
X182401864Y-86546288D01*
X182373263Y-86517894D01*
X182341682Y-86471851D01*
X182322325Y-86433082D01*
X182299428Y-86405345D01*
X182253217Y-86372652D01*
X182223827Y-86356793D01*
X182173125Y-86326970D01*
X182141397Y-86298322D01*
X182136000Y-86286026D01*
X182151830Y-86260855D01*
X182192059Y-86228583D01*
X182219038Y-86212191D01*
X182291701Y-86157267D01*
X182341154Y-86092964D01*
X182380332Y-86039583D01*
X182420007Y-86025224D01*
X182459686Y-86049845D01*
G37*
G36*
X182770180Y-97672912D02*
G01*
X182807748Y-97734780D01*
X182809044Y-97737548D01*
X182845747Y-97798136D01*
X182895418Y-97835910D01*
X182931160Y-97851510D01*
X182993941Y-97885073D01*
X183017943Y-97921950D01*
X183003155Y-97960560D01*
X182949566Y-97999323D01*
X182932192Y-98007890D01*
X182865487Y-98049928D01*
X182821190Y-98109708D01*
X182811617Y-98129500D01*
X182775488Y-98190439D01*
X182739831Y-98212304D01*
X182704602Y-98195095D01*
X182669760Y-98138812D01*
X182665377Y-98128906D01*
X182620907Y-98056500D01*
X182573264Y-98020029D01*
X182492968Y-97979594D01*
X182450115Y-97945084D01*
X182444182Y-97913169D01*
X182474648Y-97880521D01*
X182540986Y-97843812D01*
X182545269Y-97841794D01*
X182609248Y-97805748D01*
X182648286Y-97764743D01*
X182670344Y-97720072D01*
X182700989Y-97665495D01*
X182734430Y-97649796D01*
X182770180Y-97672912D01*
G37*
G36*
X179723620Y-93240781D02*
G01*
X179740883Y-93262271D01*
X179745449Y-93291081D01*
X179750979Y-93352859D01*
X179757073Y-93441519D01*
X179763332Y-93550974D01*
X179769358Y-93675140D01*
X179772007Y-93737135D01*
X179777906Y-93878385D01*
X179784013Y-94019253D01*
X179789915Y-94150648D01*
X179795204Y-94263483D01*
X179799469Y-94348667D01*
X179800340Y-94364796D01*
X179803887Y-94465318D01*
X179801141Y-94533320D01*
X179791687Y-94574915D01*
X179785271Y-94586459D01*
X179743740Y-94613081D01*
X179712136Y-94614433D01*
X179692920Y-94610472D01*
X179679336Y-94600754D01*
X179669971Y-94578989D01*
X179663410Y-94538888D01*
X179658240Y-94474163D01*
X179653047Y-94378526D01*
X179651327Y-94343923D01*
X179646877Y-94239218D01*
X179642367Y-94106943D01*
X179638130Y-93958603D01*
X179634492Y-93805702D01*
X179631786Y-93660077D01*
X179625308Y-93240000D01*
X179676542Y-93234059D01*
X179723620Y-93240781D01*
G37*
G36*
X180467758Y-93226879D02*
G01*
X180495806Y-93258379D01*
X180497730Y-93265070D01*
X180499104Y-93292996D01*
X180499292Y-93354454D01*
X180498369Y-93443917D01*
X180496413Y-93555861D01*
X180493503Y-93684760D01*
X180489969Y-93816385D01*
X180485323Y-93963282D01*
X180480094Y-94104888D01*
X180474599Y-94234173D01*
X180469154Y-94344105D01*
X180464076Y-94427654D01*
X180460474Y-94470923D01*
X180451239Y-94543807D01*
X180440677Y-94586223D01*
X180425465Y-94606732D01*
X180405136Y-94613520D01*
X180381065Y-94615689D01*
X180361751Y-94612178D01*
X180346848Y-94599345D01*
X180336008Y-94573551D01*
X180328885Y-94531156D01*
X180325133Y-94468518D01*
X180324404Y-94381997D01*
X180326353Y-94267952D01*
X180330630Y-94122744D01*
X180336892Y-93942730D01*
X180338090Y-93909483D01*
X180345459Y-93717338D01*
X180352443Y-93561531D01*
X180359239Y-93439327D01*
X180366046Y-93347990D01*
X180373060Y-93284786D01*
X180380479Y-93246979D01*
X180386908Y-93233107D01*
X180425306Y-93216682D01*
X180467758Y-93226879D01*
G37*
G36*
X177019183Y-87510593D02*
G01*
X177044008Y-87531356D01*
X177070001Y-87575808D01*
X177090483Y-87620239D01*
X177120795Y-87683321D01*
X177150901Y-87725145D01*
X177192518Y-87757528D01*
X177257356Y-87792279D01*
X177264683Y-87795903D01*
X177343010Y-87839871D01*
X177383604Y-87877844D01*
X177386751Y-87912858D01*
X177352737Y-87947944D01*
X177282633Y-87985779D01*
X177212909Y-88020113D01*
X177166637Y-88052719D01*
X177131396Y-88095540D01*
X177094764Y-88160529D01*
X177088668Y-88172372D01*
X177044853Y-88244193D01*
X177004134Y-88278922D01*
X176963871Y-88276262D01*
X176921429Y-88235916D01*
X176874172Y-88157589D01*
X176869093Y-88147683D01*
X176838025Y-88094345D01*
X176802030Y-88055728D01*
X176749461Y-88021597D01*
X176693635Y-87993492D01*
X176620588Y-87955129D01*
X176581071Y-87925010D01*
X176571188Y-87900150D01*
X176571287Y-87899575D01*
X176590807Y-87875361D01*
X176636538Y-87842269D01*
X176698916Y-87807137D01*
X176704308Y-87804459D01*
X176772530Y-87768874D01*
X176816369Y-87737299D01*
X176847292Y-87698206D01*
X176876773Y-87640066D01*
X176884136Y-87623728D01*
X176915289Y-87558868D01*
X176940210Y-87522863D01*
X176965876Y-87507794D01*
X176988360Y-87505462D01*
X177019183Y-87510593D01*
G37*
G36*
X183804986Y-86780097D02*
G01*
X183812400Y-86786446D01*
X183815215Y-86797708D01*
X183817815Y-86826464D01*
X183820207Y-86873942D01*
X183822399Y-86941374D01*
X183824396Y-87029988D01*
X183826205Y-87141014D01*
X183827834Y-87275683D01*
X183829290Y-87435223D01*
X183830579Y-87620865D01*
X183831709Y-87833838D01*
X183832686Y-88075373D01*
X183833517Y-88346698D01*
X183834209Y-88649044D01*
X183834770Y-88983640D01*
X183835205Y-89351716D01*
X183835523Y-89754502D01*
X183835729Y-90193228D01*
X183835832Y-90669122D01*
X183835847Y-90947766D01*
X183835846Y-95085640D01*
X183786746Y-95097964D01*
X183774514Y-95102051D01*
X183763245Y-95106910D01*
X183752899Y-95111016D01*
X183743438Y-95112848D01*
X183734823Y-95110882D01*
X183727013Y-95103595D01*
X183719969Y-95089464D01*
X183713654Y-95066965D01*
X183708024Y-95034577D01*
X183703044Y-94990776D01*
X183698673Y-94934038D01*
X183694873Y-94862841D01*
X183691603Y-94775662D01*
X183688826Y-94670978D01*
X183686498Y-94547266D01*
X183684584Y-94403002D01*
X183683044Y-94236663D01*
X183681838Y-94046729D01*
X183680927Y-93831672D01*
X183680272Y-93589973D01*
X183679832Y-93320106D01*
X183679570Y-93020551D01*
X183679445Y-92689784D01*
X183679419Y-92326281D01*
X183679452Y-91928518D01*
X183679504Y-91494975D01*
X183679537Y-91024126D01*
X183679538Y-90943437D01*
X183679594Y-90544761D01*
X183679757Y-90156308D01*
X183680022Y-89779901D01*
X183680384Y-89417357D01*
X183680839Y-89070497D01*
X183681380Y-88741140D01*
X183682002Y-88431106D01*
X183682701Y-88142214D01*
X183683471Y-87876286D01*
X183684306Y-87635139D01*
X183685202Y-87420595D01*
X183686156Y-87234473D01*
X183687158Y-87078592D01*
X183688205Y-86954772D01*
X183689293Y-86864832D01*
X183690415Y-86810595D01*
X183691398Y-86793906D01*
X183718661Y-86769384D01*
X183762486Y-86764414D01*
X183804986Y-86780097D01*
G37*
G36*
X183048370Y-84336854D02*
G01*
X183060045Y-84340724D01*
X183072909Y-84345295D01*
X183080162Y-84347388D01*
X183126062Y-84358908D01*
X183139010Y-85370454D01*
X183140851Y-85535869D01*
X183142609Y-85735931D01*
X183144264Y-85966211D01*
X183145800Y-86222278D01*
X183147199Y-86499704D01*
X183148441Y-86794058D01*
X183149510Y-87100910D01*
X183150386Y-87415832D01*
X183151054Y-87734393D01*
X183151492Y-88052163D01*
X183151686Y-88364713D01*
X183151691Y-88482384D01*
X183151557Y-88829451D01*
X183151233Y-89139306D01*
X183150697Y-89413814D01*
X183149928Y-89654842D01*
X183148904Y-89864253D01*
X183147605Y-90043912D01*
X183146007Y-90195686D01*
X183144090Y-90321439D01*
X183141831Y-90423036D01*
X183139210Y-90502342D01*
X183136205Y-90561223D01*
X183132794Y-90601543D01*
X183128955Y-90625167D01*
X183126798Y-90631443D01*
X183090117Y-90676062D01*
X183046802Y-90684180D01*
X183007833Y-90660504D01*
X183003665Y-90654007D01*
X182999878Y-90642055D01*
X182996452Y-90622871D01*
X182993369Y-90594676D01*
X182990611Y-90555691D01*
X182988161Y-90504140D01*
X182986000Y-90438243D01*
X182984112Y-90356223D01*
X182982477Y-90256301D01*
X182981079Y-90136700D01*
X182979898Y-89995641D01*
X182978919Y-89831346D01*
X182978122Y-89642038D01*
X182977489Y-89425937D01*
X182977004Y-89181265D01*
X182976647Y-88906246D01*
X182976402Y-88599100D01*
X182976250Y-88258050D01*
X182976173Y-87881317D01*
X182976154Y-87506459D01*
X182976126Y-87092682D01*
X182976081Y-86716238D01*
X182976077Y-86375382D01*
X182976170Y-86068370D01*
X182976419Y-85793455D01*
X182976880Y-85548897D01*
X182977611Y-85332949D01*
X182978670Y-85143866D01*
X182980114Y-84979904D01*
X182982000Y-84839320D01*
X182984386Y-84720368D01*
X182987329Y-84621304D01*
X182990886Y-84540383D01*
X182995117Y-84475862D01*
X183000076Y-84425994D01*
X183005823Y-84389038D01*
X183012414Y-84363247D01*
X183019907Y-84346877D01*
X183028360Y-84338185D01*
X183037828Y-84335425D01*
X183048370Y-84336854D01*
G37*
G36*
X183453450Y-85562780D02*
G01*
X183457167Y-85569141D01*
X183460573Y-85581549D01*
X183463682Y-85601620D01*
X183466507Y-85630970D01*
X183469060Y-85671215D01*
X183471356Y-85723970D01*
X183473406Y-85790852D01*
X183475223Y-85873475D01*
X183476821Y-85973457D01*
X183478212Y-86092413D01*
X183479410Y-86231958D01*
X183480427Y-86393709D01*
X183481276Y-86579281D01*
X183481971Y-86790291D01*
X183482524Y-87028354D01*
X183482948Y-87295086D01*
X183483256Y-87592102D01*
X183483461Y-87921019D01*
X183483576Y-88283453D01*
X183483614Y-88681019D01*
X183483588Y-89115333D01*
X183483560Y-89319050D01*
X183483374Y-89839290D01*
X183482988Y-90320526D01*
X183482403Y-90762830D01*
X183481617Y-91166272D01*
X183480631Y-91530925D01*
X183479443Y-91856860D01*
X183478054Y-92144150D01*
X183476462Y-92392866D01*
X183474669Y-92603080D01*
X183472673Y-92774863D01*
X183470472Y-92908288D01*
X183468071Y-93003427D01*
X183465464Y-93060349D01*
X183463050Y-93078808D01*
X183427625Y-93108685D01*
X183383064Y-93106438D01*
X183341165Y-93072943D01*
X183338723Y-93069576D01*
X183335029Y-93061483D01*
X183331643Y-93047122D01*
X183328552Y-93024872D01*
X183325742Y-92993111D01*
X183323200Y-92950220D01*
X183320914Y-92894575D01*
X183318869Y-92824556D01*
X183317054Y-92738542D01*
X183315455Y-92634912D01*
X183314058Y-92512044D01*
X183312850Y-92368317D01*
X183311819Y-92202109D01*
X183310951Y-92011800D01*
X183310234Y-91795768D01*
X183309653Y-91552392D01*
X183309196Y-91280051D01*
X183308850Y-90977124D01*
X183308601Y-90641988D01*
X183308437Y-90273024D01*
X183308344Y-89868609D01*
X183308310Y-89427123D01*
X183308307Y-89316907D01*
X183308404Y-88805000D01*
X183308694Y-88331874D01*
X183309180Y-87897235D01*
X183309864Y-87500788D01*
X183310746Y-87142237D01*
X183311828Y-86821287D01*
X183313111Y-86537645D01*
X183314600Y-86291014D01*
X183316293Y-86081100D01*
X183318192Y-85907608D01*
X183320300Y-85770242D01*
X183322619Y-85668709D01*
X183325149Y-85602712D01*
X183327889Y-85571957D01*
X183328533Y-85569870D01*
X183364065Y-85537783D01*
X183411486Y-85536847D01*
X183453450Y-85562780D01*
G37*
G36*
X176397696Y-85802435D02*
G01*
X176405396Y-85811115D01*
X176412312Y-85827048D01*
X176418485Y-85851803D01*
X176423955Y-85886951D01*
X176428768Y-85934061D01*
X176432962Y-85994706D01*
X176436582Y-86070455D01*
X176439668Y-86162878D01*
X176442262Y-86273545D01*
X176444407Y-86404028D01*
X176446144Y-86555895D01*
X176447516Y-86730718D01*
X176448563Y-86930067D01*
X176449328Y-87155512D01*
X176449853Y-87408623D01*
X176450181Y-87690971D01*
X176450351Y-88004126D01*
X176450408Y-88349659D01*
X176450392Y-88729139D01*
X176450345Y-89144137D01*
X176450310Y-89596223D01*
X176450309Y-89723077D01*
X176450282Y-90185131D01*
X176450198Y-90609666D01*
X176450044Y-90998241D01*
X176449808Y-91352414D01*
X176449478Y-91673744D01*
X176449045Y-91963789D01*
X176448494Y-92224108D01*
X176447815Y-92456259D01*
X176446996Y-92661799D01*
X176446026Y-92842289D01*
X176444893Y-92999286D01*
X176443585Y-93134348D01*
X176442090Y-93249034D01*
X176440398Y-93344902D01*
X176438496Y-93423511D01*
X176436373Y-93486419D01*
X176434018Y-93535185D01*
X176431417Y-93571366D01*
X176428561Y-93596522D01*
X176425437Y-93612211D01*
X176422034Y-93619990D01*
X176421254Y-93620790D01*
X176381862Y-93635685D01*
X176337545Y-93630603D01*
X176303976Y-93609814D01*
X176295285Y-93586436D01*
X176295351Y-93563582D01*
X176295277Y-93503664D01*
X176295069Y-93408696D01*
X176294734Y-93280689D01*
X176294278Y-93121657D01*
X176293709Y-92933612D01*
X176293032Y-92718569D01*
X176292253Y-92478538D01*
X176291381Y-92215534D01*
X176290420Y-91931569D01*
X176289378Y-91628655D01*
X176288262Y-91308807D01*
X176287076Y-90974036D01*
X176285830Y-90626356D01*
X176284528Y-90267779D01*
X176284149Y-90164230D01*
X176282888Y-89795050D01*
X176281826Y-89431546D01*
X176280960Y-89076095D01*
X176280291Y-88731069D01*
X176279818Y-88398847D01*
X176279539Y-88081803D01*
X176279454Y-87782313D01*
X176279562Y-87502752D01*
X176279860Y-87245495D01*
X176280351Y-87012918D01*
X176281030Y-86807397D01*
X176281899Y-86631307D01*
X176282955Y-86487023D01*
X176284199Y-86376921D01*
X176285628Y-86303377D01*
X176285719Y-86300155D01*
X176299710Y-85824465D01*
X176345954Y-85812859D01*
X176358208Y-85808832D01*
X176369467Y-85804206D01*
X176379773Y-85800551D01*
X176389169Y-85799437D01*
X176397696Y-85802435D01*
G37*
G36*
X175997295Y-84367010D02*
G01*
X176028835Y-84390473D01*
X176032546Y-84396831D01*
X176035950Y-84409242D01*
X176039058Y-84429319D01*
X176041884Y-84458674D01*
X176044442Y-84498921D01*
X176046743Y-84551674D01*
X176048803Y-84618544D01*
X176050633Y-84701147D01*
X176052247Y-84801095D01*
X176053657Y-84919999D01*
X176054878Y-85059475D01*
X176055923Y-85221136D01*
X176056803Y-85406594D01*
X176057533Y-85617462D01*
X176058125Y-85855355D01*
X176058594Y-86121884D01*
X176058951Y-86418664D01*
X176059211Y-86747307D01*
X176059386Y-87109426D01*
X176059489Y-87506637D01*
X176059534Y-87940549D01*
X176059538Y-88158368D01*
X176059528Y-88607584D01*
X176059487Y-89019365D01*
X176059399Y-89395354D01*
X176059250Y-89737193D01*
X176059023Y-90046524D01*
X176058702Y-90324989D01*
X176058273Y-90574231D01*
X176057720Y-90795892D01*
X176057026Y-90991613D01*
X176056178Y-91163038D01*
X176055159Y-91311809D01*
X176053953Y-91439568D01*
X176052545Y-91547956D01*
X176050919Y-91638616D01*
X176049060Y-91713191D01*
X176046952Y-91773325D01*
X176044580Y-91820656D01*
X176041928Y-91856828D01*
X176038980Y-91883485D01*
X176035721Y-91902267D01*
X176032136Y-91914817D01*
X176028208Y-91922777D01*
X176023922Y-91927790D01*
X176023807Y-91927895D01*
X175978991Y-91956731D01*
X175939922Y-91950410D01*
X175914394Y-91929528D01*
X175910679Y-91923163D01*
X175907271Y-91910743D01*
X175904159Y-91890652D01*
X175901330Y-91861275D01*
X175898771Y-91820996D01*
X175896467Y-91768199D01*
X175894407Y-91701269D01*
X175892577Y-91618590D01*
X175890963Y-91518547D01*
X175889553Y-91399522D01*
X175888334Y-91259904D01*
X175887291Y-91098074D01*
X175886412Y-90912416D01*
X175885684Y-90701316D01*
X175885093Y-90463158D01*
X175884627Y-90196326D01*
X175884271Y-89899204D01*
X175884014Y-89570178D01*
X175883841Y-89207631D01*
X175883739Y-88809948D01*
X175883696Y-88375513D01*
X175883692Y-88172721D01*
X175883715Y-87721152D01*
X175883793Y-87307043D01*
X175883938Y-86928775D01*
X175884165Y-86584732D01*
X175884485Y-86273296D01*
X175884912Y-85992849D01*
X175885459Y-85741774D01*
X175886139Y-85518453D01*
X175886965Y-85321269D01*
X175887950Y-85148604D01*
X175889107Y-84998842D01*
X175890450Y-84870363D01*
X175891990Y-84761551D01*
X175893743Y-84670789D01*
X175895719Y-84596458D01*
X175897933Y-84536941D01*
X175900397Y-84490622D01*
X175903125Y-84455882D01*
X175906130Y-84431103D01*
X175909424Y-84414669D01*
X175913021Y-84404961D01*
X175914108Y-84403194D01*
X175954608Y-84365657D01*
X175997295Y-84367010D01*
G37*
G36*
X180074692Y-90319101D02*
G01*
X180198107Y-90327246D01*
X180289473Y-90336945D01*
X180355812Y-90349993D01*
X180404151Y-90368182D01*
X180441516Y-90393304D01*
X180468141Y-90419504D01*
X180529759Y-90508501D01*
X180587498Y-90634262D01*
X180640884Y-90794623D01*
X180689438Y-90987420D01*
X180732688Y-91210489D01*
X180770155Y-91461668D01*
X180801364Y-91738789D01*
X180825838Y-92039690D01*
X180826403Y-92048154D01*
X180832907Y-92177286D01*
X180837734Y-92339415D01*
X180840886Y-92528498D01*
X180842367Y-92738492D01*
X180842176Y-92963352D01*
X180840318Y-93197037D01*
X180836794Y-93433502D01*
X180831605Y-93666704D01*
X180825782Y-93860964D01*
X180820965Y-93988832D01*
X180815675Y-94105858D01*
X180810275Y-94205561D01*
X180805127Y-94281462D01*
X180800597Y-94327082D01*
X180799206Y-94334771D01*
X180773837Y-94371543D01*
X180732719Y-94384019D01*
X180691965Y-94370386D01*
X180674332Y-94348808D01*
X180669326Y-94317556D01*
X180667160Y-94253435D01*
X180667821Y-94162548D01*
X180671302Y-94050997D01*
X180674947Y-93972692D01*
X180679141Y-93865477D01*
X180682263Y-93729452D01*
X180684365Y-93569734D01*
X180685496Y-93391439D01*
X180685705Y-93199683D01*
X180685043Y-92999584D01*
X180683560Y-92796257D01*
X180681305Y-92594820D01*
X180678328Y-92400389D01*
X180674679Y-92218081D01*
X180670410Y-92053011D01*
X180665568Y-91910296D01*
X180660205Y-91795054D01*
X180654370Y-91712401D01*
X180652735Y-91696462D01*
X180622243Y-91457115D01*
X180587464Y-91236660D01*
X180549261Y-91039133D01*
X180508501Y-90868571D01*
X180466050Y-90729013D01*
X180422774Y-90624491D01*
X180422762Y-90624468D01*
X180399266Y-90580347D01*
X180381132Y-90555664D01*
X180366679Y-90553643D01*
X180354226Y-90577509D01*
X180342092Y-90630485D01*
X180328595Y-90715798D01*
X180312055Y-90836672D01*
X180312029Y-90836865D01*
X180285167Y-91051685D01*
X180266365Y-91235685D01*
X180255266Y-91396206D01*
X180251517Y-91540587D01*
X180254762Y-91676171D01*
X180264647Y-91810296D01*
X180264857Y-91812470D01*
X180270202Y-91889781D01*
X180274889Y-92001881D01*
X180278919Y-92144486D01*
X180282293Y-92313311D01*
X180285014Y-92504075D01*
X180287082Y-92712493D01*
X180288498Y-92934281D01*
X180289263Y-93165158D01*
X180289379Y-93400839D01*
X180288848Y-93637040D01*
X180287669Y-93869480D01*
X180285845Y-94093873D01*
X180283376Y-94305936D01*
X180280265Y-94501388D01*
X180276511Y-94675943D01*
X180272117Y-94825319D01*
X180267083Y-94945232D01*
X180263948Y-94998462D01*
X180251919Y-95165036D01*
X180238442Y-95334220D01*
X180224002Y-95501295D01*
X180209091Y-95661544D01*
X180194194Y-95810252D01*
X180179800Y-95942703D01*
X180166397Y-96054180D01*
X180154471Y-96139966D01*
X180144510Y-96195347D01*
X180138176Y-96214731D01*
X180107646Y-96230240D01*
X180057727Y-96237968D01*
X180005092Y-96237355D01*
X179966418Y-96227835D01*
X179958201Y-96220812D01*
X179952911Y-96195023D01*
X179945817Y-96134279D01*
X179937187Y-96042644D01*
X179927290Y-95924184D01*
X179916392Y-95782966D01*
X179904763Y-95623055D01*
X179892671Y-95448517D01*
X179880382Y-95263418D01*
X179868165Y-95071824D01*
X179856290Y-94877800D01*
X179845022Y-94685412D01*
X179834632Y-94498726D01*
X179825386Y-94321809D01*
X179817552Y-94158725D01*
X179811399Y-94013541D01*
X179809732Y-93968823D01*
X179803660Y-93765890D01*
X179799255Y-93548062D01*
X179796468Y-93320478D01*
X179795252Y-93088278D01*
X179795556Y-92856603D01*
X179797331Y-92630590D01*
X179800529Y-92415381D01*
X179805101Y-92216114D01*
X179810997Y-92037930D01*
X179818169Y-91885967D01*
X179826567Y-91765366D01*
X179831190Y-91718612D01*
X179839749Y-91595588D01*
X179841772Y-91444561D01*
X179837705Y-91275975D01*
X179827994Y-91100277D01*
X179813085Y-90927912D01*
X179793424Y-90769324D01*
X179789608Y-90744272D01*
X179772513Y-90645000D01*
X179757039Y-90582951D01*
X179741051Y-90556449D01*
X179722412Y-90563820D01*
X179698987Y-90603394D01*
X179676112Y-90655314D01*
X179621568Y-90812959D01*
X179573364Y-91006920D01*
X179531682Y-91234928D01*
X179496708Y-91494710D01*
X179468625Y-91783995D01*
X179447616Y-92100512D01*
X179433864Y-92441990D01*
X179427555Y-92806156D01*
X179428871Y-93190740D01*
X179437996Y-93593470D01*
X179438143Y-93598081D01*
X179444330Y-93794806D01*
X179448870Y-93955951D01*
X179451475Y-94084991D01*
X179451855Y-94185397D01*
X179449720Y-94260644D01*
X179444781Y-94314206D01*
X179436749Y-94349556D01*
X179425333Y-94370168D01*
X179410243Y-94379515D01*
X179391192Y-94381070D01*
X179373036Y-94379058D01*
X179348870Y-94369251D01*
X179332790Y-94342302D01*
X179320586Y-94289210D01*
X179315467Y-94256000D01*
X179310735Y-94201936D01*
X179306652Y-94113379D01*
X179303214Y-93994902D01*
X179300413Y-93851082D01*
X179298248Y-93686496D01*
X179296712Y-93505719D01*
X179295802Y-93313329D01*
X179295512Y-93113900D01*
X179295837Y-92912010D01*
X179296773Y-92712236D01*
X179298315Y-92519152D01*
X179300458Y-92337335D01*
X179303198Y-92171363D01*
X179306530Y-92025810D01*
X179310449Y-91905253D01*
X179314949Y-91814269D01*
X179318040Y-91774616D01*
X179352000Y-91469132D01*
X179390403Y-91200141D01*
X179433154Y-90968059D01*
X179480155Y-90773303D01*
X179531309Y-90616291D01*
X179586519Y-90497441D01*
X179629283Y-90435069D01*
X179677305Y-90384297D01*
X179727015Y-90348818D01*
X179786013Y-90326653D01*
X179861901Y-90315825D01*
X179962278Y-90314353D01*
X180074692Y-90319101D01*
G37*
G36*
X180125991Y-84185859D02*
G01*
X180163073Y-84195589D01*
X180199550Y-84218992D01*
X180245941Y-84261946D01*
X180280828Y-84297408D01*
X180362642Y-84394014D01*
X180453815Y-84523846D01*
X180552282Y-84682756D01*
X180655981Y-84866602D01*
X180762849Y-85071236D01*
X180870821Y-85292514D01*
X180977835Y-85526290D01*
X181081828Y-85768419D01*
X181180735Y-86014755D01*
X181272495Y-86261153D01*
X181306481Y-86358065D01*
X181452060Y-86800105D01*
X181583500Y-87240817D01*
X181703761Y-87691099D01*
X181815804Y-88161839D01*
X181890619Y-88507876D01*
X181940329Y-88751223D01*
X181984005Y-88976395D01*
X182022024Y-89187824D01*
X182054764Y-89389941D01*
X182082603Y-89587174D01*
X182105917Y-89783959D01*
X182125086Y-89984723D01*
X182140486Y-90193898D01*
X182152496Y-90415915D01*
X182161493Y-90655204D01*
X182167854Y-90916198D01*
X182171958Y-91203326D01*
X182174181Y-91521020D01*
X182174891Y-91843000D01*
X182175371Y-92771077D01*
X182266048Y-92859000D01*
X182318154Y-92914987D01*
X182386621Y-92996511D01*
X182466166Y-93096571D01*
X182551510Y-93208167D01*
X182637371Y-93324299D01*
X182718467Y-93437966D01*
X182789518Y-93542168D01*
X182835340Y-93613624D01*
X183047197Y-93991726D01*
X183221968Y-94377630D01*
X183359181Y-94769972D01*
X183458365Y-95167384D01*
X183519049Y-95568504D01*
X183522551Y-95604154D01*
X183526364Y-95664550D01*
X183529942Y-95759567D01*
X183533217Y-95884750D01*
X183536120Y-96035639D01*
X183538584Y-96207783D01*
X183540539Y-96396722D01*
X183541917Y-96598005D01*
X183542650Y-96807173D01*
X183542753Y-96918534D01*
X183542769Y-98017992D01*
X183494723Y-98039883D01*
X183447192Y-98051735D01*
X183406659Y-98037694D01*
X183385309Y-98012355D01*
X183370222Y-97994448D01*
X183334978Y-97918679D01*
X183301740Y-97819486D01*
X183199352Y-97544975D01*
X183064255Y-97287866D01*
X182899012Y-97052353D01*
X182706187Y-96842631D01*
X182703057Y-96839664D01*
X182571268Y-96722742D01*
X182447583Y-96631234D01*
X182319873Y-96557121D01*
X182180817Y-96494321D01*
X182048077Y-96440605D01*
X182038242Y-96198225D01*
X182033634Y-96109378D01*
X182028071Y-96039853D01*
X182022209Y-95995922D01*
X182016703Y-95983854D01*
X182015959Y-95985154D01*
X182007797Y-96015859D01*
X181995572Y-96075674D01*
X181981134Y-96155082D01*
X181970319Y-96219616D01*
X181948806Y-96349472D01*
X181925349Y-96485774D01*
X181901268Y-96621344D01*
X181877884Y-96749005D01*
X181856517Y-96861578D01*
X181838489Y-96951886D01*
X181825118Y-97012752D01*
X181822477Y-97023214D01*
X181806318Y-97066579D01*
X181778942Y-97097427D01*
X181729764Y-97125643D01*
X181696942Y-97140445D01*
X181590272Y-97186769D01*
X181584713Y-97567769D01*
X181579154Y-97948769D01*
X181422846Y-97998933D01*
X181266539Y-98049098D01*
X181260808Y-98177610D01*
X181262290Y-98272693D01*
X181278311Y-98362963D01*
X181304468Y-98447488D01*
X181356556Y-98638386D01*
X181391333Y-98861677D01*
X181408748Y-99114693D01*
X181408751Y-99394769D01*
X181391288Y-99699239D01*
X181356310Y-100025435D01*
X181337435Y-100161178D01*
X181319189Y-100281675D01*
X181302054Y-100389326D01*
X181287073Y-100478013D01*
X181275287Y-100541615D01*
X181267739Y-100574016D01*
X181266738Y-100576370D01*
X181237889Y-100592212D01*
X181192350Y-100594794D01*
X181150481Y-100583277D01*
X181147219Y-100581278D01*
X181137313Y-100556407D01*
X181127538Y-100498990D01*
X181118771Y-100415552D01*
X181112420Y-100322692D01*
X181104279Y-100197871D01*
X181093482Y-100070527D01*
X181080778Y-99946236D01*
X181066916Y-99830571D01*
X181052643Y-99729105D01*
X181038710Y-99647415D01*
X181025864Y-99591073D01*
X181014853Y-99565655D01*
X181010756Y-99565731D01*
X181001594Y-99588230D01*
X180990660Y-99640120D01*
X180977738Y-99723038D01*
X180962611Y-99838615D01*
X180945064Y-99988492D01*
X180924880Y-100174301D01*
X180905482Y-100361769D01*
X180879080Y-100618785D01*
X180855856Y-100838853D01*
X180835566Y-101023951D01*
X180817963Y-101176059D01*
X180802801Y-101297152D01*
X180789836Y-101389213D01*
X180778820Y-101454218D01*
X180769508Y-101494147D01*
X180762904Y-101509654D01*
X180725880Y-101530424D01*
X180676986Y-101531092D01*
X180637860Y-101511657D01*
X180636135Y-101509654D01*
X180629593Y-101483157D01*
X180623026Y-101423360D01*
X180616826Y-101336035D01*
X180611392Y-101226957D01*
X180607116Y-101101900D01*
X180606421Y-101074923D01*
X180601187Y-100915436D01*
X180593708Y-100765733D01*
X180584428Y-100630422D01*
X180573791Y-100514105D01*
X180562241Y-100421392D01*
X180550220Y-100356883D01*
X180538176Y-100325185D01*
X180533922Y-100322692D01*
X180524438Y-100341733D01*
X180511608Y-100397209D01*
X180495744Y-100486647D01*
X180477155Y-100607577D01*
X180456150Y-100757527D01*
X180433039Y-100934026D01*
X180408133Y-101134603D01*
X180381741Y-101356786D01*
X180354173Y-101598104D01*
X180325737Y-101856086D01*
X180296748Y-102128261D01*
X180267510Y-102412155D01*
X180249774Y-102589154D01*
X180230895Y-102776031D01*
X180212514Y-102951338D01*
X180195086Y-103111173D01*
X180179070Y-103251633D01*
X180164923Y-103368811D01*
X180153100Y-103458809D01*
X180144060Y-103517720D01*
X180138260Y-103541643D01*
X180138250Y-103541654D01*
X180098441Y-103564871D01*
X180075849Y-103563177D01*
X180050762Y-103561297D01*
X180013038Y-103533580D01*
X180006796Y-103522117D01*
X179999676Y-103490144D01*
X179989117Y-103421276D01*
X179975344Y-103317517D01*
X179958584Y-103180874D01*
X179939061Y-103013355D01*
X179917004Y-102816968D01*
X179892636Y-102593719D01*
X179866184Y-102345613D01*
X179837874Y-102074660D01*
X179807932Y-101782866D01*
X179780823Y-101514539D01*
X179754015Y-101251806D01*
X179729722Y-101022964D01*
X179708038Y-100828784D01*
X179689059Y-100670038D01*
X179672878Y-100547498D01*
X179659590Y-100461934D01*
X179649289Y-100414119D01*
X179644870Y-100404126D01*
X179636101Y-100410278D01*
X179634880Y-100422013D01*
X179633039Y-100449059D01*
X179628007Y-100508806D01*
X179620337Y-100595058D01*
X179610585Y-100701617D01*
X179599303Y-100822287D01*
X179595803Y-100859263D01*
X179583597Y-100995422D01*
X179572719Y-101131127D01*
X179563830Y-101256946D01*
X179557595Y-101363443D01*
X179554676Y-101441183D01*
X179554611Y-101445417D01*
X179551810Y-101559766D01*
X179545859Y-101640804D01*
X179535217Y-101694264D01*
X179518342Y-101725878D01*
X179493693Y-101741379D01*
X179473957Y-101745397D01*
X179429136Y-101741163D01*
X179403887Y-101709565D01*
X179402561Y-101706321D01*
X179395524Y-101675281D01*
X179384892Y-101611048D01*
X179371462Y-101519258D01*
X179356026Y-101405547D01*
X179339378Y-101275553D01*
X179323303Y-101143308D01*
X179288603Y-100851678D01*
X179257918Y-100596835D01*
X179230958Y-100376728D01*
X179207427Y-100189306D01*
X179187035Y-100032518D01*
X179169487Y-99904311D01*
X179154492Y-99802634D01*
X179141756Y-99725439D01*
X179130986Y-99670671D01*
X179121890Y-99636279D01*
X179114175Y-99620214D01*
X179107547Y-99620422D01*
X179106194Y-99622471D01*
X179097568Y-99653561D01*
X179086542Y-99716540D01*
X179073958Y-99804347D01*
X179060663Y-99909927D01*
X179047501Y-100026224D01*
X179035316Y-100146182D01*
X179024953Y-100262745D01*
X179017700Y-100361769D01*
X179009398Y-100467649D01*
X178998987Y-100540216D01*
X178984510Y-100585238D01*
X178964020Y-100608479D01*
X178935562Y-100615705D01*
X178931693Y-100615769D01*
X178902986Y-100610169D01*
X178880110Y-100589765D01*
X178860859Y-100549153D01*
X178843028Y-100482925D01*
X178824415Y-100385679D01*
X178815131Y-100329959D01*
X178781372Y-100106876D01*
X178756942Y-99907545D01*
X178740680Y-99718073D01*
X178731424Y-99524569D01*
X178728015Y-99313142D01*
X178727945Y-99287154D01*
X178727945Y-99287103D01*
X178875627Y-99287103D01*
X178876875Y-99399328D01*
X178879831Y-99512310D01*
X178884225Y-99619338D01*
X178889783Y-99713701D01*
X178896234Y-99788687D01*
X178903305Y-99837587D01*
X178910241Y-99853769D01*
X178918992Y-99835870D01*
X178930606Y-99788110D01*
X178943061Y-99719400D01*
X178947646Y-99689293D01*
X178974067Y-99546903D01*
X179007294Y-99441347D01*
X179048265Y-99370823D01*
X179097925Y-99333530D01*
X179137791Y-99326230D01*
X179165843Y-99329945D01*
X179190408Y-99343187D01*
X179212258Y-99369106D01*
X179232163Y-99410850D01*
X179250895Y-99471569D01*
X179269226Y-99554412D01*
X179287925Y-99662528D01*
X179307765Y-99799066D01*
X179329516Y-99967175D01*
X179353951Y-100170004D01*
X179362668Y-100244539D01*
X179379495Y-100385446D01*
X179395635Y-100513677D01*
X179410374Y-100624092D01*
X179422999Y-100711557D01*
X179432798Y-100770929D01*
X179439057Y-100797074D01*
X179439429Y-100797629D01*
X179447129Y-100786888D01*
X179455817Y-100744887D01*
X179464098Y-100679373D01*
X179467562Y-100641322D01*
X179480580Y-100514008D01*
X179498165Y-100390480D01*
X179518678Y-100279652D01*
X179540477Y-100190441D01*
X179560949Y-100133703D01*
X179600061Y-100084454D01*
X179649527Y-100062593D01*
X179698308Y-100072589D01*
X179703438Y-100076028D01*
X179726691Y-100107733D01*
X179751015Y-100163294D01*
X179764522Y-100206578D01*
X179779089Y-100274637D01*
X179796346Y-100376578D01*
X179815651Y-100507346D01*
X179836364Y-100661884D01*
X179857844Y-100835140D01*
X179879450Y-101022062D01*
X179900542Y-101217593D01*
X179920478Y-101416680D01*
X179927877Y-101495000D01*
X179944190Y-101667730D01*
X179961192Y-101842159D01*
X179978357Y-102013363D01*
X179995164Y-102176425D01*
X180011083Y-102326421D01*
X180025594Y-102458431D01*
X180038172Y-102567535D01*
X180048292Y-102648811D01*
X180055430Y-102697337D01*
X180056692Y-102703806D01*
X180067408Y-102735514D01*
X180075849Y-102741049D01*
X180080195Y-102720023D01*
X180087962Y-102665165D01*
X180098537Y-102581512D01*
X180111307Y-102474098D01*
X180125659Y-102347960D01*
X180140982Y-102208134D01*
X180142942Y-102189870D01*
X180168297Y-101956078D01*
X180194153Y-101723113D01*
X180220032Y-101494950D01*
X180245453Y-101275556D01*
X180269936Y-101068909D01*
X180293003Y-100878978D01*
X180314173Y-100709737D01*
X180332966Y-100565157D01*
X180348902Y-100449211D01*
X180361503Y-100365871D01*
X180367052Y-100334264D01*
X180389380Y-100229390D01*
X180410992Y-100155777D01*
X180435085Y-100105806D01*
X180464859Y-100071862D01*
X180482818Y-100058556D01*
X180533768Y-100039311D01*
X180578448Y-100053568D01*
X180617599Y-100102511D01*
X180651964Y-100187324D01*
X180682287Y-100309192D01*
X180699388Y-100403916D01*
X180712776Y-100482653D01*
X180724678Y-100545402D01*
X180733324Y-100583156D01*
X180735922Y-100589897D01*
X180740577Y-100575313D01*
X180746749Y-100529813D01*
X180753457Y-100461477D01*
X180757084Y-100416183D01*
X180767059Y-100296493D01*
X180780225Y-100159755D01*
X180795432Y-100016197D01*
X180811530Y-99876050D01*
X180827367Y-99749544D01*
X180841792Y-99646910D01*
X180847807Y-99609538D01*
X180872232Y-99488049D01*
X180898973Y-99401330D01*
X180930374Y-99345076D01*
X180968784Y-99314980D01*
X181012826Y-99306692D01*
X181059444Y-99323037D01*
X181101657Y-99373047D01*
X181140183Y-99458178D01*
X181175738Y-99579893D01*
X181198598Y-99684357D01*
X181212200Y-99742454D01*
X181224960Y-99779100D01*
X181232890Y-99786469D01*
X181240609Y-99760292D01*
X181247777Y-99702484D01*
X181254046Y-99620490D01*
X181259066Y-99521753D01*
X181262495Y-99413719D01*
X181263982Y-99303834D01*
X181263180Y-99199540D01*
X181262111Y-99160154D01*
X181255657Y-99043840D01*
X181244608Y-98915013D01*
X181230901Y-98794796D01*
X181224491Y-98749846D01*
X181204363Y-98633088D01*
X181185578Y-98552888D01*
X181167332Y-98506786D01*
X181148820Y-98492321D01*
X181141173Y-98494835D01*
X181109065Y-98506926D01*
X181047038Y-98524225D01*
X180963592Y-98544816D01*
X180867231Y-98566783D01*
X180766456Y-98588208D01*
X180669769Y-98607175D01*
X180585673Y-98621767D01*
X180563154Y-98625151D01*
X180455110Y-98636365D01*
X180320341Y-98643985D01*
X180189943Y-98647463D01*
X180169297Y-98648015D01*
X180012432Y-98648457D01*
X179860198Y-98645318D01*
X179723050Y-98638599D01*
X179611441Y-98628305D01*
X179586231Y-98624789D01*
X179486134Y-98606809D01*
X179362254Y-98580724D01*
X179228238Y-98549656D01*
X179097733Y-98516726D01*
X179017691Y-98494784D01*
X178990630Y-98492845D01*
X178972428Y-98511949D01*
X178955804Y-98560403D01*
X178953831Y-98567611D01*
X178923126Y-98697651D01*
X178901119Y-98832593D01*
X178885956Y-98985496D01*
X178879347Y-99091769D01*
X178876360Y-99182346D01*
X178875627Y-99287103D01*
X178727945Y-99287103D01*
X178729413Y-99106616D01*
X178735123Y-98956226D01*
X178746134Y-98827185D01*
X178763506Y-98710695D01*
X178788299Y-98597956D01*
X178821572Y-98480169D01*
X178827358Y-98461528D01*
X178857370Y-98347074D01*
X178869405Y-98245464D01*
X178869082Y-98178672D01*
X178865827Y-98104641D01*
X179013923Y-98104641D01*
X179017298Y-98153476D01*
X179023889Y-98220379D01*
X179024257Y-98223722D01*
X179039154Y-98358163D01*
X179185692Y-98392893D01*
X179523546Y-98457840D01*
X179861309Y-98493466D01*
X180189943Y-98499051D01*
X180377538Y-98487816D01*
X180531123Y-98470981D01*
X180681031Y-98449320D01*
X180818963Y-98424376D01*
X180936622Y-98397692D01*
X181025712Y-98370812D01*
X181043269Y-98363941D01*
X181113078Y-98334656D01*
X181104427Y-98210097D01*
X181099615Y-98145733D01*
X181095542Y-98099940D01*
X181093234Y-98083288D01*
X181074225Y-98085284D01*
X181025393Y-98092509D01*
X180955437Y-98103646D01*
X180914846Y-98110337D01*
X180830975Y-98120292D01*
X180714627Y-98128348D01*
X180572354Y-98134509D01*
X180410708Y-98138777D01*
X180387308Y-98139096D01*
X180236244Y-98141154D01*
X180055513Y-98141643D01*
X180025846Y-98141413D01*
X179875069Y-98140247D01*
X179701464Y-98136969D01*
X179596853Y-98133602D01*
X179541250Y-98131811D01*
X179400983Y-98124777D01*
X179287213Y-98115868D01*
X179234538Y-98109644D01*
X179147956Y-98097865D01*
X179077089Y-98089146D01*
X179029951Y-98084411D01*
X179014488Y-98084239D01*
X179013923Y-98104641D01*
X178865827Y-98104641D01*
X178863308Y-98047366D01*
X178726538Y-98011655D01*
X178656753Y-97991729D01*
X178601781Y-97972890D01*
X178572816Y-97959003D01*
X178572033Y-97958298D01*
X178566490Y-97934128D01*
X178561471Y-97877141D01*
X178557277Y-97793594D01*
X178554214Y-97689746D01*
X178552586Y-97571855D01*
X178552495Y-97555681D01*
X178552462Y-97548697D01*
X178697231Y-97548697D01*
X178697691Y-97662563D01*
X178699523Y-97743449D01*
X178703397Y-97797446D01*
X178709989Y-97830645D01*
X178719974Y-97849136D01*
X178731423Y-97857732D01*
X178771212Y-97871970D01*
X178837406Y-97888504D01*
X178923997Y-97906456D01*
X179024982Y-97924950D01*
X179134355Y-97943108D01*
X179246111Y-97960052D01*
X179354243Y-97974906D01*
X179452748Y-97986792D01*
X179535620Y-97994833D01*
X179596853Y-97998151D01*
X179630443Y-97995871D01*
X179633449Y-97989498D01*
X179612292Y-97982310D01*
X179593986Y-97977495D01*
X180387308Y-97977495D01*
X180651076Y-97968538D01*
X180795498Y-97960558D01*
X180939843Y-97947025D01*
X181077528Y-97929053D01*
X181201967Y-97907757D01*
X181306575Y-97884253D01*
X181384767Y-97859656D01*
X181427731Y-97837005D01*
X181436395Y-97811347D01*
X181443345Y-97755553D01*
X181448487Y-97678045D01*
X181451730Y-97587254D01*
X181452982Y-97491603D01*
X181452151Y-97399520D01*
X181449145Y-97319429D01*
X181443873Y-97259756D01*
X181436243Y-97228929D01*
X181434378Y-97226936D01*
X181402508Y-97223527D01*
X181385532Y-97227873D01*
X181371952Y-97238964D01*
X181362895Y-97264194D01*
X181357522Y-97310070D01*
X181354996Y-97383093D01*
X181354461Y-97469140D01*
X181353625Y-97570570D01*
X181350476Y-97640235D01*
X181344058Y-97685420D01*
X181333411Y-97713413D01*
X181320269Y-97729179D01*
X181259142Y-97767736D01*
X181161484Y-97807448D01*
X181029792Y-97847569D01*
X180866563Y-97887351D01*
X180674296Y-97926049D01*
X180641308Y-97932036D01*
X180387308Y-97977495D01*
X179593986Y-97977495D01*
X179560707Y-97968742D01*
X179486445Y-97950739D01*
X179397316Y-97930257D01*
X179268388Y-97899338D01*
X179145755Y-97866231D01*
X179036274Y-97833094D01*
X178946799Y-97802091D01*
X178884185Y-97775383D01*
X178860800Y-97761073D01*
X178848590Y-97739725D01*
X178840419Y-97696086D01*
X178835747Y-97624888D01*
X178834036Y-97520863D01*
X178834000Y-97499111D01*
X178834000Y-97259391D01*
X178784254Y-97246905D01*
X178740068Y-97241468D01*
X178715869Y-97245940D01*
X178709154Y-97268777D01*
X178703567Y-97323999D01*
X178699523Y-97404923D01*
X178697429Y-97504863D01*
X178697231Y-97548697D01*
X178552462Y-97548697D01*
X178550692Y-97170712D01*
X178458724Y-97139664D01*
X178400304Y-97117070D01*
X178356354Y-97094949D01*
X178344493Y-97086216D01*
X178335662Y-97073256D01*
X178326254Y-97049682D01*
X178315548Y-97011936D01*
X178302823Y-96956460D01*
X178287355Y-96879695D01*
X178268423Y-96778083D01*
X178245304Y-96648067D01*
X178217276Y-96486088D01*
X178188770Y-96318945D01*
X178166783Y-96189982D01*
X178146866Y-96074133D01*
X178129974Y-95976870D01*
X178117059Y-95903660D01*
X178109077Y-95859980D01*
X178106989Y-95850021D01*
X178104912Y-95864315D01*
X178101891Y-95911256D01*
X178098260Y-95984437D01*
X178094352Y-96077449D01*
X178092335Y-96131149D01*
X178081769Y-96423683D01*
X177884941Y-96521918D01*
X177755985Y-96589213D01*
X177651380Y-96651964D01*
X177558743Y-96718964D01*
X177465693Y-96799006D01*
X177381553Y-96879407D01*
X177216286Y-97067030D01*
X177069447Y-97284646D01*
X176944654Y-97526082D01*
X176845531Y-97785168D01*
X176840138Y-97802231D01*
X176807596Y-97904313D01*
X176782451Y-97974702D01*
X176761189Y-98019227D01*
X176740302Y-98043718D01*
X176735231Y-98045888D01*
X176716272Y-98054006D01*
X176687261Y-98055932D01*
X176664450Y-98056310D01*
X176645025Y-98055800D01*
X176628716Y-98051504D01*
X176615254Y-98040522D01*
X176604372Y-98019956D01*
X176595799Y-97986910D01*
X176589267Y-97938483D01*
X176584508Y-97871777D01*
X176581251Y-97783896D01*
X176579230Y-97671939D01*
X176578173Y-97533009D01*
X176577814Y-97364209D01*
X176577882Y-97162636D01*
X176578109Y-96925397D01*
X176578145Y-96879723D01*
X176578468Y-96630486D01*
X176579103Y-96416699D01*
X176580142Y-96234741D01*
X176580554Y-96193520D01*
X176726321Y-96193520D01*
X176726422Y-96268462D01*
X176727472Y-96371304D01*
X176729130Y-96456305D01*
X176731217Y-96517719D01*
X176733554Y-96549799D01*
X176735231Y-96551769D01*
X176739186Y-96523394D01*
X176745862Y-96463083D01*
X176754542Y-96377826D01*
X176764510Y-96274616D01*
X176772916Y-96183982D01*
X176809495Y-95856048D01*
X176857574Y-95558677D01*
X176919135Y-95284530D01*
X176996153Y-95026271D01*
X177090606Y-94776564D01*
X177204474Y-94528070D01*
X177236424Y-94464854D01*
X177391899Y-94186930D01*
X177556525Y-93941305D01*
X177734752Y-93721481D01*
X177778672Y-93673313D01*
X177954769Y-93484358D01*
X177954769Y-93249833D01*
X177953653Y-93144224D01*
X177949992Y-93073165D01*
X177943319Y-93032183D01*
X177933166Y-93016806D01*
X177930346Y-93016418D01*
X177904787Y-93032779D01*
X177861634Y-93077302D01*
X177804414Y-93145273D01*
X177736652Y-93231974D01*
X177661876Y-93332691D01*
X177583611Y-93442707D01*
X177505385Y-93557309D01*
X177430722Y-93671779D01*
X177383262Y-93748000D01*
X177202539Y-94069869D01*
X177052923Y-94392656D01*
X176933125Y-94721308D01*
X176841855Y-95060773D01*
X176777824Y-95415999D01*
X176739743Y-95791931D01*
X176726321Y-96193520D01*
X176580554Y-96193520D01*
X176581677Y-96080989D01*
X176583797Y-95951816D01*
X176586596Y-95843600D01*
X176590164Y-95752717D01*
X176594593Y-95675543D01*
X176599974Y-95608455D01*
X176606399Y-95547827D01*
X176613023Y-95496692D01*
X176678222Y-95121853D01*
X176767705Y-94765326D01*
X176883432Y-94422999D01*
X177027365Y-94090760D01*
X177201464Y-93764500D01*
X177407692Y-93440106D01*
X177648010Y-93113466D01*
X177889799Y-92820260D01*
X177898547Y-92809603D01*
X177906032Y-92797440D01*
X177912380Y-92780764D01*
X177917719Y-92756566D01*
X177922178Y-92721838D01*
X177925884Y-92673573D01*
X177928965Y-92608758D01*
X177931550Y-92524394D01*
X177933766Y-92417464D01*
X177935199Y-92321300D01*
X178095724Y-92321300D01*
X178096184Y-92583327D01*
X178097229Y-92841987D01*
X178098867Y-93094249D01*
X178101104Y-93337082D01*
X178103948Y-93567455D01*
X178107406Y-93782336D01*
X178111486Y-93978694D01*
X178116194Y-94153497D01*
X178121538Y-94303713D01*
X178127526Y-94426312D01*
X178129064Y-94451385D01*
X178171047Y-95002612D01*
X178224433Y-95525682D01*
X178290349Y-96030136D01*
X178369924Y-96525518D01*
X178382268Y-96594969D01*
X178453000Y-96988296D01*
X178589769Y-97032322D01*
X178774585Y-97088333D01*
X178949096Y-97133094D01*
X179121056Y-97167642D01*
X179298217Y-97193017D01*
X179488332Y-97210254D01*
X179699153Y-97220397D01*
X179938435Y-97224480D01*
X180025846Y-97224674D01*
X180255139Y-97222720D01*
X180453915Y-97216746D01*
X180630594Y-97205994D01*
X180793599Y-97189704D01*
X180951354Y-97167116D01*
X181112279Y-97137470D01*
X181201879Y-97118607D01*
X181307948Y-97093929D01*
X181413834Y-97066636D01*
X181511149Y-97039156D01*
X181591504Y-97013920D01*
X181646507Y-96993357D01*
X181662467Y-96985214D01*
X181680910Y-96955157D01*
X181701700Y-96889357D01*
X181724421Y-96791049D01*
X181748657Y-96663469D01*
X181773990Y-96509850D01*
X181800005Y-96333431D01*
X181826283Y-96137445D01*
X181852408Y-95925128D01*
X181877965Y-95699716D01*
X181902534Y-95464444D01*
X181925701Y-95222548D01*
X181947048Y-94977262D01*
X181966158Y-94731823D01*
X181981321Y-94510000D01*
X181988535Y-94372571D01*
X181995106Y-94200422D01*
X182001013Y-93997913D01*
X182006238Y-93769396D01*
X182010761Y-93519228D01*
X182014563Y-93251762D01*
X182014590Y-93249331D01*
X182175077Y-93249331D01*
X182175077Y-93506150D01*
X182304274Y-93636625D01*
X182458536Y-93808250D01*
X182613481Y-94011042D01*
X182763555Y-94237592D01*
X182800737Y-94298878D01*
X182960053Y-94596018D01*
X183095798Y-94913979D01*
X183209196Y-95256325D01*
X183301470Y-95626623D01*
X183356676Y-95919566D01*
X183385309Y-96092616D01*
X183376166Y-95821924D01*
X183370065Y-95698487D01*
X183360332Y-95565863D01*
X183348340Y-95440471D01*
X183336238Y-95343898D01*
X183262851Y-94975699D01*
X183152902Y-94607438D01*
X183008511Y-94244584D01*
X182831799Y-93892599D01*
X182667595Y-93620999D01*
X182611251Y-93537427D01*
X182545961Y-93444672D01*
X182475925Y-93348252D01*
X182405344Y-93253681D01*
X182338418Y-93166478D01*
X182279347Y-93092156D01*
X182232333Y-93036234D01*
X182201575Y-93004227D01*
X182193964Y-92999026D01*
X182186059Y-93014841D01*
X182180070Y-93065591D01*
X182176307Y-93147160D01*
X182175077Y-93249331D01*
X182014590Y-93249331D01*
X182017625Y-92971355D01*
X182019927Y-92682360D01*
X182021452Y-92389134D01*
X182022176Y-92096030D01*
X182022084Y-91807404D01*
X182021156Y-91527611D01*
X182019371Y-91261006D01*
X182016713Y-91011943D01*
X182013158Y-90784779D01*
X182008690Y-90583867D01*
X182003291Y-90413563D01*
X181999797Y-90332041D01*
X181993920Y-90219529D01*
X181987931Y-90121145D01*
X181982288Y-90043287D01*
X181977452Y-89992349D01*
X181974181Y-89974823D01*
X181952799Y-89975149D01*
X181900735Y-89982374D01*
X181825534Y-89995291D01*
X181734741Y-90012691D01*
X181723422Y-90014969D01*
X181490666Y-90058910D01*
X181267341Y-90094031D01*
X181045238Y-90121054D01*
X180816149Y-90140700D01*
X180571869Y-90153692D01*
X180304185Y-90160750D01*
X180043638Y-90162626D01*
X179928545Y-90160477D01*
X179582821Y-90154021D01*
X179154442Y-90127924D01*
X178755874Y-90084085D01*
X178384489Y-90022255D01*
X178233077Y-89990205D01*
X178180371Y-89982205D01*
X178145546Y-89984185D01*
X178139708Y-89987940D01*
X178133219Y-90017866D01*
X178127220Y-90083835D01*
X178121720Y-90182814D01*
X178116724Y-90311773D01*
X178112244Y-90467680D01*
X178108283Y-90647504D01*
X178104849Y-90848214D01*
X178101949Y-91066777D01*
X178099592Y-91300162D01*
X178097782Y-91545339D01*
X178096531Y-91799275D01*
X178095842Y-92058939D01*
X178095724Y-92321300D01*
X177935199Y-92321300D01*
X177935740Y-92284964D01*
X177937601Y-92123885D01*
X177939477Y-91931219D01*
X177941496Y-91703958D01*
X177942575Y-91579231D01*
X177944791Y-91358301D01*
X177947548Y-91142258D01*
X177950752Y-90935450D01*
X177954309Y-90742226D01*
X177958125Y-90566936D01*
X177962109Y-90413929D01*
X177966164Y-90287553D01*
X177970199Y-90192159D01*
X177973586Y-90138150D01*
X177995432Y-89928850D01*
X178017292Y-89769248D01*
X178181648Y-89769248D01*
X178187841Y-89804343D01*
X178205157Y-89822151D01*
X178238077Y-89833461D01*
X178305764Y-89849055D01*
X178404680Y-89867698D01*
X178527200Y-89888256D01*
X178665699Y-89909591D01*
X178812553Y-89930572D01*
X178960139Y-89950061D01*
X179100831Y-89966925D01*
X179215000Y-89978894D01*
X179355827Y-89989222D01*
X179526664Y-89996676D01*
X179720055Y-90001336D01*
X179928545Y-90003280D01*
X180144679Y-90002588D01*
X180361001Y-89999340D01*
X180570057Y-89993615D01*
X180764391Y-89985491D01*
X180936547Y-89975049D01*
X181079071Y-89962368D01*
X181110231Y-89958729D01*
X181255494Y-89939952D01*
X181381246Y-89922244D01*
X181483344Y-89906280D01*
X181557645Y-89892738D01*
X181600009Y-89882293D01*
X181608461Y-89877380D01*
X181596211Y-89859568D01*
X181568163Y-89829318D01*
X181538080Y-89786048D01*
X181545378Y-89749986D01*
X181575432Y-89724572D01*
X181618381Y-89714775D01*
X181655126Y-89732987D01*
X181678237Y-89768164D01*
X181680282Y-89809259D01*
X181655698Y-89843901D01*
X181634759Y-89863484D01*
X181647527Y-89868949D01*
X181648689Y-89868929D01*
X181689510Y-89863937D01*
X181751063Y-89852250D01*
X181820120Y-89836897D01*
X181883453Y-89820908D01*
X181927831Y-89807314D01*
X181938453Y-89802567D01*
X181949350Y-89776224D01*
X181951876Y-89724511D01*
X181946567Y-89660104D01*
X181933953Y-89595684D01*
X181929041Y-89578923D01*
X181925086Y-89568927D01*
X181917356Y-89562443D01*
X181900929Y-89560129D01*
X181870880Y-89562645D01*
X181822288Y-89570646D01*
X181750229Y-89584792D01*
X181649781Y-89605741D01*
X181516352Y-89634079D01*
X181361106Y-89666138D01*
X181221391Y-89692387D01*
X181090674Y-89713388D01*
X180962416Y-89729706D01*
X180830083Y-89741902D01*
X180687137Y-89750542D01*
X180527044Y-89756187D01*
X180343264Y-89759403D01*
X180129267Y-89760752D01*
X180045384Y-89760888D01*
X179942135Y-89760529D01*
X179803546Y-89760046D01*
X179593373Y-89756717D01*
X179407500Y-89750264D01*
X179238561Y-89740052D01*
X179079187Y-89725444D01*
X178922013Y-89705806D01*
X178759671Y-89680500D01*
X178584796Y-89648892D01*
X178456160Y-89623713D01*
X178362077Y-89605790D01*
X178282405Y-89592350D01*
X178262499Y-89589655D01*
X178224612Y-89584524D01*
X178196168Y-89583444D01*
X178194702Y-89584093D01*
X178188543Y-89607952D01*
X178183717Y-89658488D01*
X178181772Y-89705985D01*
X178181648Y-89769248D01*
X178017292Y-89769248D01*
X178028598Y-89686703D01*
X178071221Y-89422638D01*
X178452073Y-89422638D01*
X178454508Y-89457719D01*
X178456251Y-89460605D01*
X178483291Y-89471211D01*
X178543056Y-89485133D01*
X178629420Y-89501445D01*
X178736260Y-89519219D01*
X178857453Y-89537529D01*
X178986877Y-89555448D01*
X179118405Y-89572050D01*
X179245918Y-89586407D01*
X179358854Y-89597216D01*
X179468061Y-89603961D01*
X179606320Y-89608519D01*
X179766667Y-89611003D01*
X179942135Y-89611517D01*
X180125761Y-89610175D01*
X180310579Y-89607084D01*
X180489625Y-89602354D01*
X180655933Y-89596094D01*
X180802539Y-89588414D01*
X180922479Y-89579422D01*
X180993000Y-89571574D01*
X181168846Y-89547231D01*
X181162781Y-89322539D01*
X181138426Y-88929681D01*
X181086642Y-88516356D01*
X181008531Y-88088798D01*
X180905198Y-87653236D01*
X180805359Y-87304010D01*
X180780982Y-87219048D01*
X180762804Y-87144467D01*
X180753119Y-87090369D01*
X180752450Y-87071079D01*
X180767422Y-87031132D01*
X180794237Y-87027531D01*
X180831532Y-87059842D01*
X180865417Y-87107151D01*
X180896409Y-87163921D01*
X180936704Y-87249195D01*
X180982830Y-87354550D01*
X181031316Y-87471560D01*
X181078690Y-87591800D01*
X181121480Y-87706845D01*
X181156215Y-87808273D01*
X181162407Y-87827846D01*
X181225608Y-88048916D01*
X181283675Y-88285846D01*
X181334656Y-88528446D01*
X181376595Y-88766525D01*
X181407540Y-88989893D01*
X181425536Y-89188358D01*
X181426489Y-89205308D01*
X181432213Y-89297660D01*
X181438727Y-89377488D01*
X181445181Y-89435582D01*
X181450138Y-89461421D01*
X181459060Y-89475929D01*
X181477182Y-89482199D01*
X181512444Y-89480083D01*
X181572785Y-89469434D01*
X181628000Y-89458121D01*
X181711422Y-89439567D01*
X181786402Y-89420930D01*
X181839877Y-89405515D01*
X181849498Y-89402118D01*
X181865789Y-89396582D01*
X181878786Y-89391134D01*
X181888087Y-89382012D01*
X181893294Y-89365452D01*
X181894007Y-89337687D01*
X181889825Y-89294951D01*
X181880348Y-89233481D01*
X181865177Y-89149510D01*
X181843913Y-89039275D01*
X181816154Y-88899009D01*
X181781501Y-88724948D01*
X181773072Y-88682547D01*
X181726983Y-88459785D01*
X181674853Y-88223870D01*
X181618190Y-87980614D01*
X181558500Y-87735834D01*
X181497290Y-87495338D01*
X181436067Y-87264941D01*
X181376339Y-87050454D01*
X181319612Y-86857693D01*
X181267393Y-86692468D01*
X181226963Y-86576081D01*
X181197657Y-86496624D01*
X180955669Y-86576081D01*
X180713680Y-86655539D01*
X180701686Y-86728808D01*
X180681385Y-86783724D01*
X180648254Y-86803425D01*
X180608564Y-86786523D01*
X180582219Y-86755251D01*
X180551537Y-86708425D01*
X180195884Y-86718221D01*
X179990835Y-86720427D01*
X179814283Y-86714028D01*
X179656368Y-86697885D01*
X179507230Y-86670863D01*
X179357009Y-86631825D01*
X179302931Y-86615296D01*
X179230194Y-86593195D01*
X179173316Y-86577569D01*
X179141177Y-86570788D01*
X179137246Y-86571072D01*
X179128929Y-86592028D01*
X179111372Y-86643874D01*
X179086612Y-86720092D01*
X179056683Y-86814156D01*
X179023622Y-86919542D01*
X178989466Y-87029730D01*
X178956249Y-87138196D01*
X178926008Y-87238420D01*
X178900779Y-87323876D01*
X178885229Y-87378462D01*
X178842291Y-87538349D01*
X178797991Y-87712190D01*
X178753136Y-87896060D01*
X178708537Y-88086031D01*
X178665001Y-88278179D01*
X178623339Y-88468578D01*
X178584357Y-88653302D01*
X178548866Y-88828426D01*
X178517674Y-88990024D01*
X178491590Y-89134169D01*
X178471423Y-89256937D01*
X178457981Y-89354402D01*
X178452073Y-89422638D01*
X178071221Y-89422638D01*
X178072290Y-89416012D01*
X178074251Y-89405185D01*
X178228308Y-89405185D01*
X178244478Y-89417927D01*
X178262500Y-89420169D01*
X178274730Y-89415394D01*
X178286405Y-89398114D01*
X178298693Y-89363821D01*
X178312763Y-89308011D01*
X178329784Y-89226178D01*
X178350923Y-89113816D01*
X178371221Y-89000972D01*
X178419390Y-88742455D01*
X178473511Y-88473548D01*
X178531298Y-88204676D01*
X178590455Y-87946265D01*
X178648693Y-87708740D01*
X178688545Y-87557329D01*
X178738654Y-87376045D01*
X178789155Y-87197944D01*
X178838773Y-87027189D01*
X178886223Y-86867935D01*
X178930226Y-86724340D01*
X178969502Y-86600562D01*
X179002772Y-86500757D01*
X179028755Y-86429084D01*
X179046171Y-86389701D01*
X179049577Y-86384757D01*
X179073160Y-86384032D01*
X179124994Y-86395161D01*
X179196815Y-86416076D01*
X179260683Y-86437598D01*
X179556503Y-86522537D01*
X179856616Y-86568729D01*
X180159783Y-86576114D01*
X180464772Y-86544634D01*
X180651076Y-86506344D01*
X180755780Y-86478249D01*
X180858788Y-86446189D01*
X180953313Y-86412781D01*
X181032569Y-86380642D01*
X181089769Y-86352389D01*
X181118125Y-86330640D01*
X181120000Y-86325512D01*
X181114726Y-86294122D01*
X181101187Y-86239697D01*
X181089455Y-86198315D01*
X181066624Y-86136354D01*
X181045356Y-86106876D01*
X181035725Y-86105742D01*
X180863110Y-86176929D01*
X180704043Y-86229600D01*
X180547192Y-86266062D01*
X180381225Y-86288625D01*
X180194811Y-86299598D01*
X180074692Y-86301554D01*
X179892625Y-86299433D01*
X179738571Y-86290230D01*
X179601865Y-86272452D01*
X179471844Y-86244607D01*
X179337846Y-86205201D01*
X179302923Y-86193521D01*
X179225679Y-86167676D01*
X179163257Y-86147687D01*
X179160843Y-86146914D01*
X179118529Y-86134436D01*
X179109879Y-86132431D01*
X179091368Y-86147845D01*
X179063956Y-86199184D01*
X179027327Y-86287117D01*
X178988487Y-86391769D01*
X178912894Y-86609754D01*
X178840184Y-86834086D01*
X178768802Y-87070249D01*
X178697194Y-87323728D01*
X178623801Y-87600005D01*
X178547072Y-87904565D01*
X178475851Y-88199077D01*
X178453746Y-88294637D01*
X178428053Y-88410075D01*
X178399939Y-88539688D01*
X178370576Y-88677769D01*
X178341136Y-88818614D01*
X178312790Y-88956518D01*
X178286707Y-89085776D01*
X178264059Y-89200682D01*
X178246017Y-89295531D01*
X178233753Y-89364619D01*
X178228436Y-89402240D01*
X178228308Y-89405185D01*
X178074251Y-89405185D01*
X178125717Y-89121078D01*
X178188084Y-88806209D01*
X178258595Y-88475706D01*
X178336461Y-88133874D01*
X178366176Y-88008718D01*
X178468683Y-87595805D01*
X178570548Y-87215785D01*
X178673866Y-86862573D01*
X178780736Y-86530080D01*
X178893254Y-86212221D01*
X178985924Y-85973867D01*
X179146615Y-85973867D01*
X179163257Y-85979358D01*
X179197913Y-85977875D01*
X179216565Y-85973465D01*
X179233227Y-85961861D01*
X179250303Y-85938105D01*
X179270204Y-85897240D01*
X179295338Y-85834308D01*
X179328112Y-85744353D01*
X179370936Y-85622415D01*
X179371777Y-85620000D01*
X179417800Y-85487476D01*
X179451949Y-85387794D01*
X179475457Y-85316987D01*
X179489562Y-85271083D01*
X179495498Y-85246114D01*
X179494501Y-85238111D01*
X179489644Y-85241150D01*
X179474681Y-85265289D01*
X179447103Y-85318016D01*
X179410049Y-85392631D01*
X179366655Y-85482437D01*
X179320056Y-85580734D01*
X179273388Y-85680825D01*
X179229787Y-85776010D01*
X179192389Y-85859590D01*
X179164331Y-85924868D01*
X179148749Y-85965144D01*
X179146615Y-85973867D01*
X178985924Y-85973867D01*
X179013513Y-85902907D01*
X179143614Y-85596053D01*
X179285653Y-85285570D01*
X179351327Y-85148597D01*
X179469377Y-84912903D01*
X179577295Y-84713096D01*
X179676055Y-84547595D01*
X179766627Y-84414822D01*
X179849982Y-84313196D01*
X179888942Y-84273863D01*
X179944578Y-84224619D01*
X179986953Y-84197489D01*
X180029517Y-84186068D01*
X180077781Y-84183923D01*
X180125991Y-84185859D01*
G37*
D12*
%TO.C,X1*%
X132009000Y-102550000D02*
X132009000Y-105950000D01*
X132009000Y-105950000D02*
X136209000Y-105950000D01*
X136209000Y-102550000D02*
X132009000Y-102550000D01*
X136209000Y-105950000D02*
X136209000Y-102550000D01*
D18*
X132209001Y-106300000D02*
X132209001Y-106300000D01*
X132209001Y-106300000D01*
X132209001Y-106300000D01*
X132209001Y-106300000D01*
X132209001Y-106300000D01*
X132209001Y-106300001D01*
X132209001Y-106300001D01*
X132209001Y-106300001D01*
X132209001Y-106300001D01*
X132209001Y-106300001D01*
X132209001Y-106300001D01*
X132209001Y-106300001D01*
X132209000Y-106300001D01*
X132209000Y-106300001D01*
X132209000Y-106300001D01*
X132209000Y-106300001D01*
X132209000Y-106300001D01*
X132209000Y-106300001D01*
X132209000Y-106300001D01*
X132209000Y-106300001D01*
X132209000Y-106300001D01*
X132209000Y-106300001D01*
X132209000Y-106300001D01*
X132209000Y-106300001D01*
X132208999Y-106300001D01*
X132208999Y-106300001D01*
X132208999Y-106300001D01*
X132208999Y-106300001D01*
X132208999Y-106300001D01*
X132208999Y-106300001D01*
X132208999Y-106300000D01*
X132208999Y-106300000D01*
X132208999Y-106300000D01*
X132208999Y-106300000D01*
X132208999Y-106300000D01*
X132208999Y-106300000D01*
X132208999Y-106300000D02*
X132208999Y-106300000D01*
X132208999Y-106300000D01*
X132208999Y-106300000D01*
X132208999Y-106300000D01*
X132208999Y-106300000D01*
X132208999Y-106300000D01*
X132208999Y-106299999D01*
X132208999Y-106299999D01*
X132208999Y-106299999D01*
X132208999Y-106299999D01*
X132208999Y-106299999D01*
X132209000Y-106299999D01*
X132209000Y-106299999D01*
X132209000Y-106299999D01*
X132209000Y-106299999D01*
X132209000Y-106299999D01*
X132209000Y-106299999D01*
X132209000Y-106299999D01*
X132209000Y-106299999D01*
X132209000Y-106299999D01*
X132209000Y-106299999D01*
X132209000Y-106299999D01*
X132209000Y-106299999D01*
X132209001Y-106299999D01*
X132209001Y-106299999D01*
X132209001Y-106299999D01*
X132209001Y-106299999D01*
X132209001Y-106299999D01*
X132209001Y-106299999D01*
X132209001Y-106300000D01*
X132209001Y-106300000D01*
X132209001Y-106300000D01*
X132209001Y-106300000D01*
X132209001Y-106300000D01*
X132209001Y-106300000D01*
X132209001Y-106300000D01*
D15*
%TO.C,C14*%
X143001164Y-87665000D02*
X143216836Y-87665000D01*
X143001164Y-88385000D02*
X143216836Y-88385000D01*
%TO.C,C13*%
X144128190Y-96103307D02*
X144280693Y-96255810D01*
X144637307Y-95594190D02*
X144789810Y-95746693D01*
%TO.C,J4*%
X174467651Y-69039555D02*
X175408103Y-68099103D01*
X175408103Y-69980007D02*
X174467651Y-69039555D01*
X176306129Y-70878033D02*
X178187033Y-68997129D01*
X176306129Y-70878033D02*
X179940657Y-74512561D01*
X178187033Y-68997129D02*
X181821561Y-72631657D01*
X179940657Y-74512561D02*
X181821561Y-72631657D01*
%TO.C,J12*%
X141829000Y-72780000D02*
X141829000Y-71450000D01*
X143159000Y-72780000D02*
X141829000Y-72780000D01*
X144429001Y-70120000D02*
X147029000Y-70120000D01*
X144429001Y-72780000D02*
X144429001Y-70120000D01*
X144429001Y-72780000D02*
X147029000Y-72780000D01*
X147029000Y-72780000D02*
X147029000Y-70120000D01*
D16*
%TO.C,U9*%
X130484000Y-87850000D02*
X131354000Y-87850000D01*
X130484000Y-88720000D02*
X130484000Y-87850000D01*
X130484000Y-96980000D02*
X130484000Y-96980000D01*
X130484000Y-96980000D02*
X131354000Y-97850000D01*
X130484000Y-97850000D02*
X130484000Y-96980000D01*
D12*
X131234000Y-88600000D02*
X131234000Y-97100000D01*
X131234000Y-97100000D02*
X139734000Y-97100000D01*
D16*
X131354000Y-97850000D02*
X130484000Y-97850000D01*
D12*
X139734000Y-88600000D02*
X131234000Y-88600000D01*
X139734000Y-97100000D02*
X139734000Y-88600000D01*
D16*
X140484000Y-87850000D02*
X139614000Y-87850000D01*
X140484000Y-87850000D02*
X140484000Y-88720000D01*
X140484000Y-96980000D02*
X140484000Y-97850000D01*
X140484000Y-97850000D02*
X139614000Y-97850000D01*
D18*
X131124001Y-98340000D02*
X131124001Y-98340000D01*
X131124001Y-98340000D01*
X131124001Y-98340000D01*
X131124001Y-98340000D01*
X131124001Y-98340000D01*
X131124001Y-98340001D01*
X131124001Y-98340001D01*
X131124001Y-98340001D01*
X131124001Y-98340001D01*
X131124001Y-98340001D01*
X131124001Y-98340001D01*
X131124001Y-98340001D01*
X131124000Y-98340001D01*
X131124000Y-98340001D01*
X131124000Y-98340001D01*
X131124000Y-98340001D01*
X131124000Y-98340001D01*
X131124000Y-98340001D01*
X131124000Y-98340001D01*
X131124000Y-98340001D01*
X131124000Y-98340001D01*
X131124000Y-98340001D01*
X131124000Y-98340001D01*
X131124000Y-98340001D01*
X131123999Y-98340001D01*
X131123999Y-98340001D01*
X131123999Y-98340001D01*
X131123999Y-98340001D01*
X131123999Y-98340001D01*
X131123999Y-98340001D01*
X131123999Y-98340000D01*
X131123999Y-98340000D01*
X131123999Y-98340000D01*
X131123999Y-98340000D01*
X131123999Y-98340000D01*
X131123999Y-98340000D01*
X131123999Y-98340000D02*
X131123999Y-98340000D01*
X131123999Y-98340000D01*
X131123999Y-98340000D01*
X131123999Y-98340000D01*
X131123999Y-98340000D01*
X131123999Y-98340000D01*
X131123999Y-98339999D01*
X131123999Y-98339999D01*
X131123999Y-98339999D01*
X131123999Y-98339999D01*
X131123999Y-98339999D01*
X131124000Y-98339999D01*
X131124000Y-98339999D01*
X131124000Y-98339999D01*
X131124000Y-98339999D01*
X131124000Y-98339999D01*
X131124000Y-98339999D01*
X131124000Y-98339999D01*
X131124000Y-98339999D01*
X131124000Y-98339999D01*
X131124000Y-98339999D01*
X131124000Y-98339999D01*
X131124000Y-98339999D01*
X131124001Y-98339999D01*
X131124001Y-98339999D01*
X131124001Y-98339999D01*
X131124001Y-98339999D01*
X131124001Y-98339999D01*
X131124001Y-98339999D01*
X131124001Y-98340000D01*
X131124001Y-98340000D01*
X131124001Y-98340000D01*
X131124001Y-98340000D01*
X131124001Y-98340000D01*
X131124001Y-98340000D01*
X131124001Y-98340000D01*
D19*
X132184001Y-95880000D02*
X132184001Y-95880000D01*
X132184001Y-95880000D01*
X132184001Y-95880000D01*
X132184001Y-95880000D01*
X132184001Y-95880000D01*
X132184001Y-95880001D01*
X132184001Y-95880001D01*
X132184001Y-95880001D01*
X132184001Y-95880001D01*
X132184001Y-95880001D01*
X132184001Y-95880001D01*
X132184001Y-95880001D01*
X132184000Y-95880001D01*
X132184000Y-95880001D01*
X132184000Y-95880001D01*
X132184000Y-95880001D01*
X132184000Y-95880001D01*
X132184000Y-95880001D01*
X132184000Y-95880001D01*
X132184000Y-95880001D01*
X132184000Y-95880001D01*
X132184000Y-95880001D01*
X132184000Y-95880001D01*
X132184000Y-95880001D01*
X132183999Y-95880001D01*
X132183999Y-95880001D01*
X132183999Y-95880001D01*
X132183999Y-95880001D01*
X132183999Y-95880001D01*
X132183999Y-95880001D01*
X132183999Y-95880000D01*
X132183999Y-95880000D01*
X132183999Y-95880000D01*
X132183999Y-95880000D01*
X132183999Y-95880000D01*
X132183999Y-95880000D01*
X132183999Y-95880000D02*
X132183999Y-95880000D01*
X132183999Y-95880000D01*
X132183999Y-95880000D01*
X132183999Y-95880000D01*
X132183999Y-95880000D01*
X132183999Y-95880000D01*
X132183999Y-95879999D01*
X132183999Y-95879999D01*
X132183999Y-95879999D01*
X132183999Y-95879999D01*
X132183999Y-95879999D01*
X132184000Y-95879999D01*
X132184000Y-95879999D01*
X132184000Y-95879999D01*
X132184000Y-95879999D01*
X132184000Y-95879999D01*
X132184000Y-95879999D01*
X132184000Y-95879999D01*
X132184000Y-95879999D01*
X132184000Y-95879999D01*
X132184000Y-95879999D01*
X132184000Y-95879999D01*
X132184000Y-95879999D01*
X132184001Y-95879999D01*
X132184001Y-95879999D01*
X132184001Y-95879999D01*
X132184001Y-95879999D01*
X132184001Y-95879999D01*
X132184001Y-95879999D01*
X132184001Y-95880000D01*
X132184001Y-95880000D01*
X132184001Y-95880000D01*
X132184001Y-95880000D01*
X132184001Y-95880000D01*
X132184001Y-95880000D01*
X132184001Y-95880000D01*
D15*
%TO.C,R2*%
X124146742Y-86177500D02*
X124621258Y-86177500D01*
X124146742Y-87222500D02*
X124621258Y-87222500D01*
%TO.C,J3*%
X130860994Y-72667102D02*
X132741898Y-74548006D01*
X134495522Y-69032574D02*
X130860994Y-72667102D01*
X134495522Y-69032574D02*
X136376426Y-70913478D01*
X135393548Y-68134548D02*
X136334000Y-67194096D01*
X136334000Y-67194096D02*
X137274452Y-68134548D01*
X136376426Y-70913478D02*
X132741898Y-74548006D01*
%TO.C,R3*%
X139896501Y-81212259D02*
X139896501Y-80737743D01*
X140941501Y-81212259D02*
X140941501Y-80737743D01*
%TO.C,D3*%
X154829000Y-58415000D02*
X154829000Y-60700000D01*
X156299000Y-58415000D02*
X154829000Y-58415000D01*
X156299000Y-60700000D02*
X156299000Y-58415000D01*
%TO.C,C16*%
X126799000Y-96207836D02*
X126799000Y-95992164D01*
X127519000Y-96207836D02*
X127519000Y-95992164D01*
%TO.C,J10*%
X163379000Y-75095000D02*
X164709000Y-75095000D01*
X163379000Y-76425000D02*
X163379000Y-75095000D01*
X165979001Y-75095000D02*
X173659000Y-75095000D01*
X165979001Y-77755000D02*
X165979001Y-75095000D01*
X165979001Y-77755000D02*
X173659000Y-77755000D01*
X173659000Y-77755000D02*
X173659000Y-75095000D01*
%TO.C,R1*%
X138371501Y-78212258D02*
X138371501Y-77737742D01*
X139416501Y-78212258D02*
X139416501Y-77737742D01*
%TO.C,R11*%
X157941500Y-62825240D02*
X157941500Y-63299756D01*
X158986500Y-62825240D02*
X158986500Y-63299756D01*
%TO.C,C12*%
X130349000Y-100567164D02*
X130349000Y-100782836D01*
X131069000Y-100567164D02*
X131069000Y-100782836D01*
%TO.C,C9*%
X143674000Y-107217164D02*
X143674000Y-107432836D01*
X144394000Y-107217164D02*
X144394000Y-107432836D01*
%TO.C,R9*%
X148221258Y-93602500D02*
X147746742Y-93602500D01*
X148221258Y-94647500D02*
X147746742Y-94647500D01*
D14*
%TO.C,U8*%
X154329000Y-95845000D02*
X154329000Y-96095000D01*
X154329000Y-98505000D02*
X154329000Y-98255000D01*
X155079000Y-95845000D02*
X154329000Y-95845000D01*
X155079000Y-98505000D02*
X154329000Y-98505000D01*
X156739000Y-95845000D02*
X157489000Y-95845000D01*
X156739000Y-98505000D02*
X157489000Y-98505000D01*
X157489000Y-95845000D02*
X157489000Y-96095000D01*
X157489000Y-98505000D02*
X157489000Y-98255000D01*
X154069000Y-96415000D02*
G75*
G02*
X153929000Y-96415000I-70000J0D01*
G01*
X153929000Y-96415000D02*
G75*
G02*
X154069000Y-96415000I70000J0D01*
G01*
D15*
%TO.C,J8*%
X122254000Y-89620000D02*
X123584000Y-89620000D01*
X122254000Y-90950000D02*
X122254000Y-89620000D01*
X122254000Y-92220001D02*
X122254000Y-94820000D01*
X122254000Y-92220001D02*
X124914000Y-92220001D01*
X122254000Y-94820000D02*
X124914000Y-94820000D01*
X124914000Y-92220001D02*
X124914000Y-94820000D01*
%TO.C,C24*%
X137391836Y-100290000D02*
X137176164Y-100290000D01*
X137391836Y-101010000D02*
X137176164Y-101010000D01*
%TO.C,C1*%
X142759001Y-75232835D02*
X142759001Y-75017163D01*
X143479001Y-75232835D02*
X143479001Y-75017163D01*
%TO.C,D1*%
X157714000Y-58327498D02*
X157714000Y-60612498D01*
X159184000Y-58327498D02*
X157714000Y-58327498D01*
X159184000Y-60612498D02*
X159184000Y-58327498D01*
%TO.C,J11*%
X164829000Y-96395000D02*
X164829000Y-104075000D01*
X164829000Y-96395000D02*
X167489000Y-96395000D01*
X164829000Y-104075000D02*
X167489000Y-104075000D01*
X166159000Y-93795000D02*
X167489000Y-93795000D01*
X167489000Y-93795000D02*
X167489000Y-95125000D01*
X167489000Y-96395000D02*
X167489000Y-104075000D01*
%TO.C,J1*%
X155794000Y-76620000D02*
X157124000Y-76620000D01*
X155794000Y-77950000D02*
X155794000Y-76620000D01*
X155794000Y-79220000D02*
X155794000Y-94520000D01*
X155794000Y-79220000D02*
X158454000Y-79220000D01*
X155794000Y-94520000D02*
X158454000Y-94520000D01*
X158454000Y-79220000D02*
X158454000Y-94520000D01*
%TO.C,C17*%
X143066836Y-83990000D02*
X142851164Y-83990000D01*
X143066836Y-84710000D02*
X142851164Y-84710000D01*
%TO.C,R5*%
X155061500Y-62812742D02*
X155061500Y-63287258D01*
X156106500Y-62812742D02*
X156106500Y-63287258D01*
%TO.C,C10*%
X136549000Y-103792164D02*
X136549000Y-104007836D01*
X137269000Y-103792164D02*
X137269000Y-104007836D01*
%TO.C,C28*%
X166131164Y-83330000D02*
X166346836Y-83330000D01*
X166131164Y-84050000D02*
X166346836Y-84050000D01*
D16*
%TO.C,SW1*%
X141509000Y-112420000D02*
X141509000Y-110080000D01*
X141889000Y-109590000D02*
X142779000Y-108700000D01*
X142259000Y-110350000D02*
X143259000Y-109350001D01*
X142259000Y-112150000D02*
X142259000Y-110350000D01*
X142779000Y-113800000D02*
X141889000Y-112910000D01*
X143159000Y-113050000D02*
X142259000Y-112150000D01*
X143259000Y-109350001D02*
X144959000Y-109350000D01*
X144959000Y-109350000D02*
X145859000Y-110250000D01*
X145059000Y-113050000D02*
X143159000Y-113050000D01*
X145339000Y-108700000D02*
X142779000Y-108700000D01*
X145339000Y-113800000D02*
X142779000Y-113800000D01*
X145339000Y-113800000D02*
X146229000Y-112910000D01*
X145859000Y-110250000D02*
X145859000Y-112250000D01*
X145859000Y-112250000D02*
X145059000Y-113050000D01*
X146229000Y-109590000D02*
X145339000Y-108700000D01*
X146609000Y-112420000D02*
X146609000Y-110080000D01*
X145339000Y-111250000D02*
G75*
G02*
X142779000Y-111250000I-1280000J0D01*
G01*
X142779000Y-111250000D02*
G75*
G02*
X145339000Y-111250000I1280000J0D01*
G01*
%TO.C,SW2*%
X125184000Y-78695000D02*
X125184000Y-81255000D01*
X125834000Y-79075000D02*
X126734000Y-78175000D01*
X125834001Y-80775000D02*
X125834000Y-79075000D01*
X126074000Y-77805000D02*
X125184000Y-78695000D01*
X126074000Y-82145000D02*
X125184000Y-81255000D01*
X126734000Y-78175000D02*
X128734000Y-78175000D01*
X126834000Y-81775000D02*
X125834001Y-80775000D01*
X128634000Y-81775000D02*
X126834000Y-81775000D01*
X128734000Y-78175000D02*
X129534000Y-78975000D01*
X128904000Y-77425000D02*
X126564000Y-77425000D01*
X128904000Y-82525000D02*
X126564000Y-82525000D01*
X129534000Y-78975000D02*
X129534000Y-80875000D01*
X129534000Y-80875000D02*
X128634000Y-81775000D01*
X130284000Y-78695000D02*
X129394000Y-77805000D01*
X130284000Y-78695000D02*
X130284000Y-81255000D01*
X130284000Y-81255000D02*
X129394000Y-82145000D01*
X129014000Y-79975000D02*
G75*
G02*
X126454000Y-79975000I-1280000J0D01*
G01*
X126454000Y-79975000D02*
G75*
G02*
X129014000Y-79975000I1280000J0D01*
G01*
D15*
%TO.C,C27*%
X166131164Y-81360000D02*
X166346836Y-81360000D01*
X166131164Y-82080000D02*
X166346836Y-82080000D01*
%TO.C,C15*%
X131801164Y-84590000D02*
X132016836Y-84590000D01*
X131801164Y-85310000D02*
X132016836Y-85310000D01*
%TO.C,C2*%
X143776836Y-79565000D02*
X143561164Y-79565000D01*
X143776836Y-80285000D02*
X143561164Y-80285000D01*
%TO.C,J2*%
X153884000Y-117885000D02*
X155284000Y-115905000D01*
X153884000Y-125464999D02*
X153884000Y-117885000D01*
X153884000Y-125464999D02*
X154484000Y-126065000D01*
X154663999Y-117810000D02*
X155299000Y-117810000D01*
X154664000Y-118445000D02*
X154663999Y-117810000D01*
X155284000Y-115905000D02*
X156584000Y-115905000D01*
X156584000Y-115905000D02*
X157984000Y-117885000D01*
X157384000Y-126065000D02*
X154484000Y-126065000D01*
X157984000Y-117885000D02*
X157984000Y-125464999D01*
X157984000Y-125464999D02*
X157384000Y-126065000D01*
%TO.C,C4*%
X144201164Y-89740000D02*
X144416836Y-89740000D01*
X144201164Y-90460000D02*
X144416836Y-90460000D01*
%TO.C,J6*%
X174496439Y-116331657D02*
X176377343Y-118212561D01*
X178130967Y-112697129D02*
X174496439Y-116331657D01*
X178130967Y-112697129D02*
X180011871Y-114578033D01*
X179028993Y-111799103D02*
X179969445Y-110858651D01*
X179969445Y-110858651D02*
X180909897Y-111799103D01*
X180011871Y-114578033D02*
X176377343Y-118212561D01*
D14*
%TO.C,U6*%
X162384000Y-82150000D02*
X162284000Y-82250000D01*
X162384000Y-82550000D02*
X162384000Y-82150000D01*
D15*
%TO.C,D2*%
X151924000Y-58415000D02*
X151924000Y-60700000D01*
X153394000Y-58415000D02*
X151924000Y-58415000D01*
X153394000Y-60700000D02*
X153394000Y-58415000D01*
D12*
%TO.C,U7*%
X155134000Y-71567500D02*
X156734000Y-71567500D01*
X155134000Y-71617500D02*
X155134000Y-71567500D01*
X155134000Y-74567500D02*
X155134000Y-74517500D01*
X156734000Y-71567500D02*
X156734000Y-71617500D01*
X156734000Y-74517500D02*
X156734000Y-74567500D01*
X156734000Y-74567500D02*
X155134000Y-74567500D01*
D14*
X157374000Y-74667500D02*
G75*
G02*
X157094000Y-74667500I-140000J0D01*
G01*
X157094000Y-74667500D02*
G75*
G02*
X157374000Y-74667500I140000J0D01*
G01*
D15*
%TO.C,J9*%
X153254000Y-76620000D02*
X154584000Y-76620000D01*
X153254000Y-77950000D02*
X153254000Y-76620000D01*
X153254000Y-79220000D02*
X153254000Y-94520000D01*
X153254000Y-79220000D02*
X155914000Y-79220000D01*
X153254000Y-94520000D02*
X155914000Y-94520000D01*
X155914000Y-79220000D02*
X155914000Y-94520000D01*
D14*
%TO.C,U2*%
X141814000Y-76320000D02*
X144474000Y-76320000D01*
X144474000Y-78980000D02*
X141814000Y-78980000D01*
D12*
X141454000Y-76650000D02*
G75*
G02*
X141254000Y-76650000I-100000J0D01*
G01*
X141254000Y-76650000D02*
G75*
G02*
X141454000Y-76650000I100000J0D01*
G01*
D15*
%TO.C,R10*%
X147746742Y-91377500D02*
X148221258Y-91377500D01*
X147746742Y-92422500D02*
X148221258Y-92422500D01*
%TO.C,J13*%
X125629000Y-100280001D02*
X125629000Y-107960000D01*
X125629000Y-100280001D02*
X128289000Y-100280001D01*
X125629000Y-107960000D02*
X128289000Y-107960000D01*
X126959000Y-97680000D02*
X128289000Y-97680000D01*
X128289000Y-97680000D02*
X128289000Y-99010000D01*
X128289000Y-100280001D02*
X128289000Y-107960000D01*
D10*
%TO.C,U1*%
X167209000Y-89325000D02*
X170209000Y-89325000D01*
X167209000Y-89375000D02*
X167209000Y-89325000D01*
X167209000Y-90375000D02*
X167209000Y-90275000D01*
X167209000Y-91375000D02*
X167209000Y-91275000D01*
X167209000Y-92325000D02*
X167209000Y-92275000D01*
X168429000Y-89775000D02*
X169009000Y-89775000D01*
X168429000Y-90275000D02*
X169009000Y-90275000D01*
X170209000Y-89325000D02*
X170209000Y-89375000D01*
X170209000Y-90275000D02*
X170209000Y-90375000D01*
X170209000Y-91275000D02*
X170209000Y-91375000D01*
X170209000Y-92275000D02*
X170209000Y-92325000D01*
X170209000Y-92325000D02*
X167209000Y-92325000D01*
X168424637Y-90274962D02*
G75*
G02*
X168429000Y-90275000I4359J249962D01*
G01*
X169013363Y-89775038D02*
G75*
G02*
X169009000Y-89775000I-4363J-249962D01*
G01*
%TD*%
%LPC*%
D20*
%TO.C,C3*%
X144149001Y-81025000D03*
X143189001Y-81025000D03*
%TD*%
D21*
%TO.C,L7*%
X138771500Y-102025000D03*
X140346500Y-102025000D03*
%TD*%
D22*
%TO.C,L1*%
X146494001Y-76575000D03*
X146494001Y-78575000D03*
%TD*%
D23*
%TO.C,J5*%
X132773555Y-112714555D03*
D24*
X134569606Y-114510606D03*
X136365657Y-116306657D03*
%TD*%
D25*
%TO.C,J7*%
X152084000Y-101450000D03*
D26*
X154624000Y-101450000D03*
X157163999Y-101450000D03*
X159704000Y-101450000D03*
%TD*%
D27*
%TO.C,R4*%
X152684000Y-62225000D03*
X152684000Y-63875000D03*
%TD*%
D28*
%TO.C,C11*%
X130354000Y-105100000D03*
X131314000Y-105100000D03*
%TD*%
D29*
%TO.C,X1*%
X133009000Y-105100000D03*
X135209000Y-105100000D03*
X135209000Y-103400000D03*
X133009000Y-103400000D03*
%TD*%
D28*
%TO.C,C14*%
X142629000Y-88025000D03*
X143589000Y-88025000D03*
%TD*%
D30*
%TO.C,C13*%
X144119589Y-95585589D03*
X144798411Y-96264411D03*
%TD*%
D23*
%TO.C,J4*%
X176348555Y-69039555D03*
D24*
X178144606Y-70835606D03*
X179940657Y-72631657D03*
%TD*%
D25*
%TO.C,J12*%
X143159000Y-71450000D03*
D26*
X145699000Y-71450000D03*
%TD*%
D31*
%TO.C,U9*%
X131734000Y-98600000D03*
X132234000Y-98600000D03*
X132734000Y-98600000D03*
X133234000Y-98600000D03*
X133734000Y-98600000D03*
X134234000Y-98600000D03*
X134734000Y-98600000D03*
X135234000Y-98600000D03*
X135734000Y-98600000D03*
X136234000Y-98600000D03*
X136734000Y-98600000D03*
X137234000Y-98600000D03*
X137734000Y-98600000D03*
X138234000Y-98600000D03*
X138734000Y-98600000D03*
X139234000Y-98600000D03*
D32*
X141234000Y-96600000D03*
X141234000Y-96100000D03*
X141234000Y-95600000D03*
X141234000Y-95100000D03*
X141234000Y-94600000D03*
X141234000Y-94100000D03*
X141234000Y-93600000D03*
X141234000Y-93100000D03*
X141234000Y-92600000D03*
X141234000Y-92100000D03*
X141234000Y-91600000D03*
X141234000Y-91100000D03*
X141234000Y-90600000D03*
X141234000Y-90100000D03*
X141234000Y-89600000D03*
X141234000Y-89100000D03*
D31*
X139234000Y-87100000D03*
X138734000Y-87100000D03*
X138234000Y-87100000D03*
X137734000Y-87100000D03*
X137234000Y-87100000D03*
X136734000Y-87100000D03*
X136234000Y-87100000D03*
X135734000Y-87100000D03*
X135234000Y-87100000D03*
X134734000Y-87100000D03*
X134234000Y-87100000D03*
X133734000Y-87100000D03*
X133234000Y-87100000D03*
X132734000Y-87100000D03*
X132234000Y-87100000D03*
X131734000Y-87100000D03*
D32*
X129734000Y-89100000D03*
X129734000Y-89600000D03*
X129734000Y-90100000D03*
X129734000Y-90600000D03*
X129734000Y-91100000D03*
X129734000Y-91600000D03*
X129734000Y-92100000D03*
X129734000Y-92600000D03*
X129734000Y-93100000D03*
X129734000Y-93600000D03*
X129734000Y-94100000D03*
X129734000Y-94600000D03*
X129734000Y-95100000D03*
X129734000Y-95600000D03*
X129734000Y-96100000D03*
X129734000Y-96600000D03*
%TD*%
D33*
%TO.C,R2*%
X123559000Y-86700000D03*
X125209000Y-86700000D03*
%TD*%
D34*
%TO.C,J3*%
X136334000Y-69075000D03*
D35*
X134537949Y-70871051D03*
X132741898Y-72667102D03*
%TD*%
D36*
%TO.C,R3*%
X140419001Y-81800001D03*
X140419001Y-80150001D03*
%TD*%
D37*
%TO.C,D3*%
X155564000Y-59112499D03*
X155564000Y-60687501D03*
%TD*%
D38*
%TO.C,C16*%
X127159000Y-96580000D03*
X127159000Y-95620000D03*
%TD*%
D25*
%TO.C,J10*%
X164709000Y-76425000D03*
D26*
X167249000Y-76425000D03*
X169788999Y-76425000D03*
X172329000Y-76425000D03*
%TD*%
D36*
%TO.C,R1*%
X138894001Y-78800000D03*
X138894001Y-77150000D03*
%TD*%
D27*
%TO.C,R11*%
X158464000Y-62237498D03*
X158464000Y-63887498D03*
%TD*%
D39*
%TO.C,C12*%
X130709000Y-100195000D03*
X130709000Y-101155000D03*
%TD*%
%TO.C,C9*%
X144034000Y-106845000D03*
X144034000Y-107805000D03*
%TD*%
D40*
%TO.C,R9*%
X148809000Y-94125000D03*
X147159000Y-94125000D03*
%TD*%
D41*
%TO.C,U8*%
X154649000Y-96425000D03*
X154649000Y-96925000D03*
X154649000Y-97425000D03*
X154649000Y-97925000D03*
D42*
X155409000Y-98185000D03*
X155909000Y-98185000D03*
X156409000Y-98185000D03*
D41*
X157169000Y-97925000D03*
X157169000Y-97425000D03*
X157169000Y-96925000D03*
X157169000Y-96425000D03*
D42*
X156409000Y-96165000D03*
X155909000Y-96165000D03*
X155409000Y-96165000D03*
%TD*%
D25*
%TO.C,J8*%
X123584000Y-90950000D03*
D26*
X123584000Y-93490000D03*
%TD*%
D20*
%TO.C,C24*%
X137764000Y-100650000D03*
X136804000Y-100650000D03*
%TD*%
D38*
%TO.C,C1*%
X143119001Y-75604999D03*
X143119001Y-74644999D03*
%TD*%
D37*
%TO.C,D1*%
X158449000Y-59024997D03*
X158449000Y-60599999D03*
%TD*%
D25*
%TO.C,J11*%
X166159000Y-95125000D03*
D26*
X166159000Y-97665000D03*
X166159000Y-100205000D03*
X166159000Y-102745000D03*
%TD*%
D25*
%TO.C,J1*%
X157124000Y-77950000D03*
D26*
X157124000Y-80490000D03*
X157124000Y-83030000D03*
X157124000Y-85570000D03*
X157124000Y-88110000D03*
X157124000Y-90650000D03*
X157124000Y-93190000D03*
%TD*%
D20*
%TO.C,C17*%
X143439000Y-84350000D03*
X142479000Y-84350000D03*
%TD*%
D27*
%TO.C,R5*%
X155584000Y-62225000D03*
X155584000Y-63875000D03*
%TD*%
D39*
%TO.C,C10*%
X136909000Y-103420000D03*
X136909000Y-104380000D03*
%TD*%
D28*
%TO.C,C28*%
X165759000Y-83690000D03*
X166719000Y-83690000D03*
%TD*%
D43*
%TO.C,SW1*%
X147059000Y-113100000D03*
X141059000Y-113100000D03*
X147059000Y-109400000D03*
X141059000Y-109400000D03*
%TD*%
D44*
%TO.C,SW2*%
X129584000Y-76975000D03*
X129584000Y-82975000D03*
X125884000Y-76975000D03*
X125884000Y-82975000D03*
%TD*%
D28*
%TO.C,C27*%
X165759000Y-81720000D03*
X166719000Y-81720000D03*
%TD*%
%TO.C,C15*%
X131429000Y-84950000D03*
X132389000Y-84950000D03*
%TD*%
D20*
%TO.C,C2*%
X144149000Y-79925000D03*
X143189000Y-79925000D03*
%TD*%
D45*
%TO.C,J2*%
X155934000Y-117175000D03*
X156950000Y-124795000D03*
X154918000Y-124795000D03*
D46*
X155299000Y-118445000D03*
X155299000Y-119715000D03*
X155299000Y-120985000D03*
X155299000Y-122255000D03*
X155299000Y-123525000D03*
X156569000Y-123525000D03*
X156569000Y-122255000D03*
X156569000Y-120985000D03*
X156569000Y-119715000D03*
X156569000Y-118445000D03*
%TD*%
D28*
%TO.C,C4*%
X143829000Y-90100000D03*
X144789000Y-90100000D03*
%TD*%
D34*
%TO.C,J6*%
X179969445Y-112739555D03*
D35*
X178173394Y-114535606D03*
X176377343Y-116331657D03*
%TD*%
D47*
%TO.C,U6*%
X163104000Y-82400000D03*
X163104000Y-82900000D03*
X163384000Y-83430000D03*
X163884000Y-83430000D03*
X164384000Y-83430000D03*
X164664000Y-82900000D03*
X164664000Y-82400000D03*
X164384000Y-81870000D03*
X163884000Y-81870000D03*
X163384000Y-81870000D03*
%TD*%
D37*
%TO.C,D2*%
X152659000Y-59112499D03*
X152659000Y-60687501D03*
%TD*%
D48*
%TO.C,U7*%
X157134000Y-74017500D03*
X157134000Y-73067500D03*
X157134000Y-72117500D03*
X154744000Y-72117500D03*
X154734000Y-73067500D03*
X154744000Y-74017500D03*
%TD*%
D25*
%TO.C,J9*%
X154584000Y-77950000D03*
D26*
X154584000Y-80490000D03*
X154584000Y-83030000D03*
X154584000Y-85570000D03*
X154584000Y-88110000D03*
X154584000Y-90650000D03*
X154584000Y-93190000D03*
%TD*%
D49*
%TO.C,U2*%
X141984000Y-76650000D03*
X141984001Y-77150000D03*
X141984000Y-77650000D03*
X141984001Y-78150000D03*
X141984000Y-78650000D03*
X144304000Y-78650000D03*
X144303999Y-78150000D03*
X144304000Y-77650000D03*
X144303999Y-77150000D03*
X144304000Y-76650000D03*
D50*
X143144000Y-77650000D03*
%TD*%
D33*
%TO.C,R10*%
X147159000Y-91900000D03*
X148809000Y-91900000D03*
%TD*%
D25*
%TO.C,J13*%
X126959000Y-99010000D03*
D26*
X126959000Y-101550000D03*
X126959000Y-104089999D03*
X126959000Y-106630000D03*
%TD*%
D51*
%TO.C,U1*%
X167509000Y-89825000D03*
X167509000Y-90825000D03*
X167509000Y-91825000D03*
X169909000Y-91825000D03*
X169909000Y-90825000D03*
X169909000Y-89825000D03*
%TD*%
%LPD*%
M02*
