M48
; DRILL file {KiCad 8.0.5} date 2025-05-15T20:07:04-0400
; FORMAT={-:-/ absolute / inch / decimal}
; #@! TF.CreationDate,2025-05-15T20:07:04-04:00
; #@! TF.GenerationSoftware,Kicad,Pcbnew,8.0.5
; #@! TF.FileFunction,Plated,1,2,PTH
FMAT,2
INCH
; #@! TA.AperFunction,Plated,PTH,ViaDrill
T1C0.0118
; #@! TA.AperFunction,Plated,PTH,ComponentDrill
T2C0.0394
%
G90
G05
T1
X4.8803Y-3.9193
X5.0063Y-3.439
X5.023Y-3.6457
X5.0269Y-2.9134
X5.0279Y-3.1693
X5.0364Y-3.3364
X5.0397Y-3.7648
X5.1399Y-4.0309
X5.1439Y-3.8695
X5.1746Y-3.2992
X5.2208Y-3.3061
X5.2257Y-3.502
X5.2425Y-3.6654
X5.2435Y-2.9931
X5.2508Y-4.2013
X5.2533Y-3.2006
X5.2533Y-4.2717
X5.2553Y-3.8002
X5.2651Y-3.2953
X5.2779Y-3.6634
X5.2858Y-3.4961
X5.3006Y-3.2992
X5.3006Y-3.7146
X5.3183Y-4.2008
X5.3242Y-3.497
X5.3537Y-3.5719
X5.3643Y-3.3569
X5.375Y-3.3183
X5.3822Y-3.7992
X5.4021Y-3.5073
X5.4049Y-3.0256
X5.4118Y-3.1348
X5.4364Y-3.5768
X5.4522Y-3.761
X5.4561Y-3.2224
X5.458Y-3.8002
X5.4679Y-3.5797
X5.4767Y-3.7037
X5.4797Y-4.0817
X5.4814Y-3.2868
X5.4826Y-3.5098
X5.4836Y-3.7589
X5.4876Y-4.6811
X5.4944Y-2.876
X5.5116Y-3.3657
X5.5131Y-3.2884
X5.5151Y-3.4222
X5.5451Y-3.2899
X5.5604Y-3.3465
X5.5771Y-3.4793
X5.587Y-3.1348
X5.6234Y-3.6841
X5.6273Y-2.5059
X5.648Y-3.2333
X5.6549Y-3.7293
X5.6588Y-3.5089
X5.6608Y-3.696
X5.6933Y-3.4656
X5.7307Y-3.8159
X5.7309Y-3.1652
X5.7366Y-3.6181
X5.7454Y-3.5472
X5.7523Y-4.1673
X5.7553Y-3.8602
X5.7563Y-3.7057
X5.7937Y-2.7165
X5.8114Y-3.5689
X5.8537Y-3.0781
X5.8813Y-2.4528
X5.897Y-4.5876
X5.898Y-3.5768
X5.9009Y-4.0541
X5.9531Y-4.0531
X5.961Y-3.7215
X5.9659Y-4.6634
X6.0053Y-2.9695
X6.0104Y-2.5758
X6.0161Y-3.4094
X6.0161Y-4.06
X6.0191Y-3.7904
X6.0191Y-3.8888
X6.0387Y-3.8278
X6.0397Y-4.814
X6.0742Y-4.5994
X6.1244Y-2.5738
X6.1342Y-2.7854
X6.1391Y-4.185
X6.1535Y-3.8247
X6.2238Y-4.1841
X6.2326Y-3.4183
X6.2385Y-2.5719
X6.2385Y-3.7667
X6.2462Y-3.5226
X6.2506Y-3.6596
X6.2621Y-4.189
X6.2622Y-3.3474
X6.2681Y-3.4094
X6.2789Y-4.1309
X6.3104Y-4.7539
X6.335Y-3.498
X6.3626Y-3.3745
X6.3901Y-3.3012
X6.4039Y-2.6486
X6.463Y-3.1988
X6.4689Y-4.0364
X6.5141Y-3.3691
X6.5141Y-3.4469
X6.5186Y-3.2534
X6.5486Y-2.4754
X6.5633Y-4.7608
X6.5693Y-2.8652
X6.6027Y-3.3898
X6.649Y-3.8307
X6.6903Y-4.187
X6.775Y-3.2657
X7.2454Y-4.0669
X7.2504Y-3.6939
X7.2996Y-3.2283
T2
X4.8655Y-3.5807
X4.8655Y-3.6807
X4.9984Y-3.898
X4.9984Y-3.998
X4.9984Y-4.098
X4.9984Y-4.198
X5.2261Y-2.8609
X5.2273Y-4.4376
X5.2968Y-2.7902
X5.298Y-4.5083
X5.3675Y-2.7195
X5.3687Y-4.579
X5.6362Y-2.813
X5.7362Y-2.813
X5.9876Y-3.9941
X6.086Y-3.0689
X6.086Y-3.1689
X6.086Y-3.2689
X6.086Y-3.3689
X6.086Y-3.4689
X6.086Y-3.5689
X6.086Y-3.6689
X6.0876Y-3.9941
X6.186Y-3.0689
X6.186Y-3.1689
X6.186Y-3.2689
X6.186Y-3.3689
X6.186Y-3.4689
X6.186Y-3.5689
X6.186Y-3.6689
X6.1876Y-3.9941
X6.2876Y-3.9941
X6.4846Y-3.0089
X6.5417Y-3.7451
X6.5417Y-3.8451
X6.5417Y-3.9451
X6.5417Y-4.0451
X6.5846Y-3.0089
X6.6846Y-3.0089
X6.7846Y-3.0089
X6.9429Y-2.7181
X6.944Y-4.58
X7.0136Y-2.7888
X7.0147Y-4.5093
X7.0843Y-2.8595
X7.0854Y-4.4386
M30
