%TF.GenerationSoftware,KiCad,Pcbnew,8.0.5*%
%TF.CreationDate,2025-05-17T10:41:44-04:00*%
%TF.ProjectId,RTLS_VIC,52544c53-5f56-4494-932e-6b696361645f,rev?*%
%TF.SameCoordinates,Original*%
%TF.FileFunction,Soldermask,Top*%
%TF.FilePolarity,Negative*%
%FSLAX46Y46*%
G04 Gerber Fmt 4.6, Leading zero omitted, Abs format (unit mm)*
G04 Created by KiCad (PCBNEW 8.0.5) date 2025-05-17 10:41:44*
%MOMM*%
%LPD*%
G01*
G04 APERTURE LIST*
G04 Aperture macros list*
%AMRoundRect*
0 Rectangle with rounded corners*
0 $1 Rounding radius*
0 $2 $3 $4 $5 $6 $7 $8 $9 X,Y pos of 4 corners*
0 Add a 4 corners polygon primitive as box body*
4,1,4,$2,$3,$4,$5,$6,$7,$8,$9,$2,$3,0*
0 Add four circle primitives for the rounded corners*
1,1,$1+$1,$2,$3*
1,1,$1+$1,$4,$5*
1,1,$1+$1,$6,$7*
1,1,$1+$1,$8,$9*
0 Add four rect primitives between the rounded corners*
20,1,$1+$1,$2,$3,$4,$5,0*
20,1,$1+$1,$4,$5,$6,$7,0*
20,1,$1+$1,$6,$7,$8,$9,0*
20,1,$1+$1,$8,$9,$2,$3,0*%
%AMHorizOval*
0 Thick line with rounded ends*
0 $1 width*
0 $2 $3 position (X,Y) of the first rounded end (center of the circle)*
0 $4 $5 position (X,Y) of the second rounded end (center of the circle)*
0 Add line between two ends*
20,1,$1,$2,$3,$4,$5,0*
0 Add two circle primitives to create the rounded ends*
1,1,$1,$2,$3*
1,1,$1,$4,$5*%
%AMRotRect*
0 Rectangle, with rotation*
0 The origin of the aperture is its center*
0 $1 length*
0 $2 width*
0 $3 Rotation angle, in degrees counterclockwise*
0 Add horizontal line*
21,1,$1,$2,0,0,$3*%
G04 Aperture macros list end*
%ADD10RoundRect,0.140000X0.140000X0.170000X-0.140000X0.170000X-0.140000X-0.170000X0.140000X-0.170000X0*%
%ADD11RoundRect,0.140000X-0.140000X-0.170000X0.140000X-0.170000X0.140000X0.170000X-0.140000X0.170000X0*%
%ADD12RoundRect,0.218750X-0.218750X-0.256250X0.218750X-0.256250X0.218750X0.256250X-0.218750X0.256250X0*%
%ADD13R,1.800000X1.200000*%
%ADD14RotRect,1.700000X1.700000X45.000000*%
%ADD15HorizOval,1.700000X0.000000X0.000000X0.000000X0.000000X0*%
%ADD16R,1.700000X1.700000*%
%ADD17O,1.700000X1.700000*%
%ADD18RoundRect,0.200000X-0.275000X0.200000X-0.275000X-0.200000X0.275000X-0.200000X0.275000X0.200000X0*%
%ADD19R,1.400000X1.200000*%
%ADD20RoundRect,0.140000X-0.219203X-0.021213X-0.021213X-0.219203X0.219203X0.021213X0.021213X0.219203X0*%
%ADD21O,0.300000X2.000000*%
%ADD22O,2.000000X0.300000*%
%ADD23RoundRect,0.200000X-0.200000X-0.275000X0.200000X-0.275000X0.200000X0.275000X-0.200000X0.275000X0*%
%ADD24RotRect,1.700000X1.700000X315.000000*%
%ADD25HorizOval,1.700000X0.000000X0.000000X0.000000X0.000000X0*%
%ADD26RoundRect,0.200000X0.275000X-0.200000X0.275000X0.200000X-0.275000X0.200000X-0.275000X-0.200000X0*%
%ADD27RoundRect,0.218750X-0.256250X0.218750X-0.256250X-0.218750X0.256250X-0.218750X0.256250X0.218750X0*%
%ADD28RoundRect,0.140000X0.170000X-0.140000X0.170000X0.140000X-0.170000X0.140000X-0.170000X-0.140000X0*%
%ADD29RoundRect,0.140000X-0.170000X0.140000X-0.170000X-0.140000X0.170000X-0.140000X0.170000X0.140000X0*%
%ADD30RoundRect,0.200000X0.200000X0.275000X-0.200000X0.275000X-0.200000X-0.275000X0.200000X-0.275000X0*%
%ADD31R,0.680000X0.280000*%
%ADD32R,0.280000X0.680000*%
%ADD33R,1.000000X0.750000*%
%ADD34R,0.750000X1.000000*%
%ADD35R,1.300000X0.550000*%
%ADD36R,0.660000X0.280000*%
%ADD37R,1.200000X2.000000*%
%ADD38R,0.450000X0.450000*%
%ADD39R,1.000000X0.600000*%
%ADD40C,0.990600*%
G04 APERTURE END LIST*
D10*
%TO.C,C3*%
X144149001Y-81025000D03*
X143189001Y-81025000D03*
%TD*%
D11*
%TO.C,C6*%
X166529000Y-80700000D03*
X167489000Y-80700000D03*
%TD*%
D12*
%TO.C,L7*%
X138771500Y-102025000D03*
X140346500Y-102025000D03*
%TD*%
D13*
%TO.C,L1*%
X146494001Y-76575000D03*
X146494001Y-78575000D03*
%TD*%
D14*
%TO.C,J5*%
X133773555Y-111414555D03*
D15*
X135569606Y-113210606D03*
X137365657Y-115006657D03*
%TD*%
D16*
%TO.C,J7*%
X152084000Y-101450000D03*
D17*
X154624000Y-101450000D03*
X157163999Y-101450000D03*
X159704000Y-101450000D03*
%TD*%
D18*
%TO.C,R4*%
X152684000Y-62225000D03*
X152684000Y-63875000D03*
%TD*%
D11*
%TO.C,C11*%
X130354000Y-105100000D03*
X131314000Y-105100000D03*
%TD*%
D19*
%TO.C,X1*%
X133009000Y-105100000D03*
X135209000Y-105100000D03*
X135209000Y-103400000D03*
X133009000Y-103400000D03*
%TD*%
D11*
%TO.C,C14*%
X142629000Y-88025000D03*
X143589000Y-88025000D03*
%TD*%
D20*
%TO.C,C13*%
X144119589Y-95585589D03*
X144798411Y-96264411D03*
%TD*%
D14*
%TO.C,J4*%
X174684000Y-70475000D03*
D15*
X176480051Y-72271051D03*
X178276102Y-74067102D03*
%TD*%
D16*
%TO.C,J12*%
X143159000Y-71450000D03*
D17*
X145699000Y-71450000D03*
%TD*%
D21*
%TO.C,U9*%
X131734000Y-98600000D03*
X132234000Y-98600000D03*
X132734000Y-98600000D03*
X133234000Y-98600000D03*
X133734000Y-98600000D03*
X134234000Y-98600000D03*
X134734000Y-98600000D03*
X135234000Y-98600000D03*
X135734000Y-98600000D03*
X136234000Y-98600000D03*
X136734000Y-98600000D03*
X137234000Y-98600000D03*
X137734000Y-98600000D03*
X138234000Y-98600000D03*
X138734000Y-98600000D03*
X139234000Y-98600000D03*
D22*
X141234000Y-96600000D03*
X141234000Y-96100000D03*
X141234000Y-95600000D03*
X141234000Y-95100000D03*
X141234000Y-94600000D03*
X141234000Y-94100000D03*
X141234000Y-93600000D03*
X141234000Y-93100000D03*
X141234000Y-92600000D03*
X141234000Y-92100000D03*
X141234000Y-91600000D03*
X141234000Y-91100000D03*
X141234000Y-90600000D03*
X141234000Y-90100000D03*
X141234000Y-89600000D03*
X141234000Y-89100000D03*
D21*
X139234000Y-87100000D03*
X138734000Y-87100000D03*
X138234000Y-87100000D03*
X137734000Y-87100000D03*
X137234000Y-87100000D03*
X136734000Y-87100000D03*
X136234000Y-87100000D03*
X135734000Y-87100000D03*
X135234000Y-87100000D03*
X134734000Y-87100000D03*
X134234000Y-87100000D03*
X133734000Y-87100000D03*
X133234000Y-87100000D03*
X132734000Y-87100000D03*
X132234000Y-87100000D03*
X131734000Y-87100000D03*
D22*
X129734000Y-89100000D03*
X129734000Y-89600000D03*
X129734000Y-90100000D03*
X129734000Y-90600000D03*
X129734000Y-91100000D03*
X129734000Y-91600000D03*
X129734000Y-92100000D03*
X129734000Y-92600000D03*
X129734000Y-93100000D03*
X129734000Y-93600000D03*
X129734000Y-94100000D03*
X129734000Y-94600000D03*
X129734000Y-95100000D03*
X129734000Y-95600000D03*
X129734000Y-96100000D03*
X129734000Y-96600000D03*
%TD*%
D23*
%TO.C,R2*%
X123559000Y-86700000D03*
X125209000Y-86700000D03*
%TD*%
D24*
%TO.C,J3*%
X137759000Y-69925000D03*
D25*
X135962949Y-71721051D03*
X134166898Y-73517102D03*
%TD*%
D26*
%TO.C,R3*%
X140419001Y-81800001D03*
X140419001Y-80150001D03*
%TD*%
D27*
%TO.C,D3*%
X155564000Y-59112499D03*
X155564000Y-60687501D03*
%TD*%
D28*
%TO.C,C16*%
X127159000Y-96580000D03*
X127159000Y-95620000D03*
%TD*%
D16*
%TO.C,J10*%
X164709000Y-76425000D03*
D17*
X167249000Y-76425000D03*
X169788999Y-76425000D03*
X172329000Y-76425000D03*
%TD*%
D26*
%TO.C,R1*%
X138894001Y-78800000D03*
X138894001Y-77150000D03*
%TD*%
D18*
%TO.C,R11*%
X158464000Y-62237498D03*
X158464000Y-63887498D03*
%TD*%
D29*
%TO.C,C12*%
X130709000Y-100195000D03*
X130709000Y-101155000D03*
%TD*%
%TO.C,C9*%
X144034000Y-106845000D03*
X144034000Y-107805000D03*
%TD*%
D24*
%TO.C,J14*%
X135159000Y-67325000D03*
D25*
X133362949Y-69121051D03*
X131566898Y-70917102D03*
%TD*%
D30*
%TO.C,R9*%
X148809000Y-94125000D03*
X147159000Y-94125000D03*
%TD*%
D14*
%TO.C,J15*%
X177284000Y-67875000D03*
D15*
X179080051Y-69671051D03*
X180876102Y-71467102D03*
%TD*%
D16*
%TO.C,J8*%
X123584000Y-90950000D03*
D17*
X123584000Y-93490000D03*
%TD*%
D10*
%TO.C,C24*%
X137764000Y-100650000D03*
X136804000Y-100650000D03*
%TD*%
D24*
%TO.C,J17*%
X180898756Y-113979721D03*
D25*
X179102705Y-115775772D03*
X177306654Y-117571823D03*
%TD*%
D28*
%TO.C,C1*%
X143119001Y-75604999D03*
X143119001Y-74644999D03*
%TD*%
D27*
%TO.C,D1*%
X158449000Y-59024997D03*
X158449000Y-60599999D03*
%TD*%
D16*
%TO.C,J11*%
X166159000Y-95125000D03*
D17*
X166159000Y-97665000D03*
X166159000Y-100205000D03*
X166159000Y-102745000D03*
%TD*%
D16*
%TO.C,J1*%
X157124000Y-77950000D03*
D17*
X157124000Y-80490000D03*
X157124000Y-83030000D03*
X157124000Y-85570000D03*
X157124000Y-88110000D03*
X157124000Y-90650000D03*
X157124000Y-93190000D03*
%TD*%
D10*
%TO.C,C17*%
X143439000Y-84350000D03*
X142479000Y-84350000D03*
%TD*%
D18*
%TO.C,R5*%
X155584000Y-62225000D03*
X155584000Y-63875000D03*
%TD*%
D29*
%TO.C,C10*%
X136909000Y-103420000D03*
X136909000Y-104380000D03*
%TD*%
D31*
%TO.C,U3*%
X154899000Y-96724999D03*
X154899000Y-97225000D03*
X154899000Y-97725000D03*
X154899000Y-98225001D03*
D32*
X155659000Y-98485000D03*
X156159000Y-98485000D03*
X156659000Y-98485000D03*
D31*
X157419000Y-98225001D03*
X157419000Y-97725000D03*
X157419000Y-97225000D03*
X157419000Y-96724999D03*
D32*
X156659000Y-96465000D03*
X156159000Y-96465000D03*
X155659000Y-96465000D03*
%TD*%
D33*
%TO.C,SW1*%
X147059000Y-113100000D03*
X141059000Y-113100000D03*
X147059000Y-109400000D03*
X141059000Y-109400000D03*
%TD*%
D11*
%TO.C,C5*%
X158579000Y-98750000D03*
X159539000Y-98750000D03*
%TD*%
D14*
%TO.C,J16*%
X131159000Y-114000000D03*
D15*
X132955051Y-115796051D03*
X134751102Y-117592102D03*
%TD*%
D34*
%TO.C,SW2*%
X129584000Y-76975000D03*
X129584000Y-82975000D03*
X125884000Y-76975000D03*
X125884000Y-82975000D03*
%TD*%
D11*
%TO.C,C15*%
X131429000Y-84950000D03*
X132389000Y-84950000D03*
%TD*%
D10*
%TO.C,C2*%
X144149000Y-79925000D03*
X143189000Y-79925000D03*
%TD*%
D11*
%TO.C,C4*%
X143829000Y-90100000D03*
X144789000Y-90100000D03*
%TD*%
D24*
%TO.C,J6*%
X178313150Y-111390327D03*
D25*
X176517099Y-113186378D03*
X174721048Y-114982429D03*
%TD*%
D27*
%TO.C,D2*%
X152659000Y-59112499D03*
X152659000Y-60687501D03*
%TD*%
D35*
%TO.C,U7*%
X157134000Y-74017500D03*
X157134000Y-73067500D03*
X157134000Y-72117500D03*
X154744000Y-72117500D03*
X154734000Y-73067500D03*
X154744000Y-74017500D03*
%TD*%
D16*
%TO.C,J9*%
X154584000Y-77950000D03*
D17*
X154584000Y-80490000D03*
X154584000Y-83030000D03*
X154584000Y-85570000D03*
X154584000Y-88110000D03*
X154584000Y-90650000D03*
X154584000Y-93190000D03*
%TD*%
D36*
%TO.C,U2*%
X141984000Y-76650000D03*
X141984001Y-77150000D03*
X141984000Y-77650000D03*
X141984001Y-78150000D03*
X141984000Y-78650000D03*
X144304000Y-78650000D03*
X144303999Y-78150000D03*
X144304000Y-77650000D03*
X144303999Y-77150000D03*
X144304000Y-76650000D03*
D37*
X143144000Y-77650000D03*
%TD*%
D23*
%TO.C,R10*%
X147159000Y-91900000D03*
X148809000Y-91900000D03*
%TD*%
D38*
%TO.C,U4*%
X166504001Y-83205000D03*
X165854000Y-83205000D03*
X165214000Y-83205000D03*
X164563999Y-83205000D03*
X164563999Y-81745000D03*
X165214000Y-81745000D03*
X165854000Y-81745000D03*
X166504001Y-81745000D03*
%TD*%
D16*
%TO.C,J13*%
X126959000Y-99010000D03*
D17*
X126959000Y-101550000D03*
X126959000Y-104089999D03*
X126959000Y-106630000D03*
%TD*%
D39*
%TO.C,U1*%
X167309000Y-88325000D03*
X167309000Y-89325000D03*
X167309000Y-90325000D03*
X169709000Y-90325000D03*
X169709000Y-89325000D03*
X169709000Y-88325000D03*
%TD*%
D40*
%TO.C,J2*%
X155934000Y-117175000D03*
X156950000Y-124795000D03*
X154918000Y-124795000D03*
%TD*%
M02*
