%TF.GenerationSoftware,KiCad,Pcbnew,8.0.5*%
%TF.CreationDate,2025-05-19T13:47:33-04:00*%
%TF.ProjectId,RTLS_VIC,52544c53-5f56-4494-932e-6b696361645f,rev?*%
%TF.SameCoordinates,Original*%
%TF.FileFunction,Soldermask,Bot*%
%TF.FilePolarity,Negative*%
%FSLAX46Y46*%
G04 Gerber Fmt 4.6, Leading zero omitted, Abs format (unit mm)*
G04 Created by KiCad (PCBNEW 8.0.5) date 2025-05-19 13:47:33*
%MOMM*%
%LPD*%
G01*
G04 APERTURE LIST*
G04 Aperture macros list*
%AMHorizOval*
0 Thick line with rounded ends*
0 $1 width*
0 $2 $3 position (X,Y) of the first rounded end (center of the circle)*
0 $4 $5 position (X,Y) of the second rounded end (center of the circle)*
0 Add line between two ends*
20,1,$1,$2,$3,$4,$5,0*
0 Add two circle primitives to create the rounded ends*
1,1,$1,$2,$3*
1,1,$1,$4,$5*%
%AMRotRect*
0 Rectangle, with rotation*
0 The origin of the aperture is its center*
0 $1 length*
0 $2 width*
0 $3 Rotation angle, in degrees counterclockwise*
0 Add horizontal line*
21,1,$1,$2,0,0,$3*%
G04 Aperture macros list end*
%ADD10RotRect,1.700000X1.700000X45.000000*%
%ADD11HorizOval,1.700000X0.000000X0.000000X0.000000X0.000000X0*%
%ADD12R,1.700000X1.700000*%
%ADD13O,1.700000X1.700000*%
%ADD14RotRect,1.700000X1.700000X315.000000*%
%ADD15HorizOval,1.700000X0.000000X0.000000X0.000000X0.000000X0*%
%ADD16C,0.990600*%
%ADD17C,0.787400*%
G04 APERTURE END LIST*
D10*
%TO.C,J5*%
X133773555Y-111414555D03*
D11*
X135569606Y-113210606D03*
X137365657Y-115006657D03*
%TD*%
D12*
%TO.C,J7*%
X152084000Y-101450000D03*
D13*
X154624000Y-101450000D03*
X157163999Y-101450000D03*
X159704000Y-101450000D03*
%TD*%
D10*
%TO.C,J4*%
X174684000Y-70475000D03*
D11*
X176480051Y-72271051D03*
X178276102Y-74067102D03*
%TD*%
D12*
%TO.C,J12*%
X143159000Y-71450000D03*
D13*
X145699000Y-71450000D03*
%TD*%
D14*
%TO.C,J3*%
X137759000Y-69925000D03*
D15*
X135962949Y-71721051D03*
X134166898Y-73517102D03*
%TD*%
D12*
%TO.C,J10*%
X164709000Y-76425000D03*
D13*
X167249000Y-76425000D03*
X169788999Y-76425000D03*
X172329000Y-76425000D03*
%TD*%
D14*
%TO.C,J14*%
X135159000Y-67325000D03*
D15*
X133362949Y-69121051D03*
X131566898Y-70917102D03*
%TD*%
D10*
%TO.C,J15*%
X177284000Y-67875000D03*
D11*
X179080051Y-69671051D03*
X180876102Y-71467102D03*
%TD*%
D12*
%TO.C,J8*%
X123584000Y-90950000D03*
D13*
X123584000Y-93490000D03*
%TD*%
D14*
%TO.C,J17*%
X180898756Y-113979721D03*
D15*
X179102705Y-115775772D03*
X177306654Y-117571823D03*
%TD*%
D12*
%TO.C,J11*%
X166159000Y-95125000D03*
D13*
X166159000Y-97665000D03*
X166159000Y-100205000D03*
X166159000Y-102745000D03*
%TD*%
D12*
%TO.C,J1*%
X157124000Y-77950000D03*
D13*
X157124000Y-80490000D03*
X157124000Y-83030000D03*
X157124000Y-85570000D03*
X157124000Y-88110000D03*
X157124000Y-90650000D03*
X157124000Y-93190000D03*
%TD*%
D10*
%TO.C,J16*%
X131159000Y-114000000D03*
D11*
X132955051Y-115796051D03*
X134751102Y-117592102D03*
%TD*%
D14*
%TO.C,J6*%
X178313150Y-111390327D03*
D15*
X176517099Y-113186378D03*
X174721048Y-114982429D03*
%TD*%
D12*
%TO.C,J9*%
X154584000Y-77950000D03*
D13*
X154584000Y-80490000D03*
X154584000Y-83030000D03*
X154584000Y-85570000D03*
X154584000Y-88110000D03*
X154584000Y-90650000D03*
X154584000Y-93190000D03*
%TD*%
D12*
%TO.C,J13*%
X126959000Y-99010000D03*
D13*
X126959000Y-101550000D03*
X126959000Y-104089999D03*
X126959000Y-106630000D03*
%TD*%
D16*
%TO.C,J2*%
X155934000Y-117175000D03*
X156950000Y-124795000D03*
X154918000Y-124795000D03*
D17*
X156569000Y-118445000D03*
X156569000Y-119715000D03*
X156569000Y-120985000D03*
X156569000Y-122255000D03*
X156569000Y-123525000D03*
X155299000Y-123525000D03*
X155299000Y-122255000D03*
X155299000Y-120985000D03*
X155299000Y-119715000D03*
X155299000Y-118445000D03*
%TD*%
M02*
