%TF.GenerationSoftware,KiCad,Pcbnew,8.0.5*%
%TF.CreationDate,2025-05-15T20:07:03-04:00*%
%TF.ProjectId,RTLS_VIC,52544c53-5f56-4494-932e-6b696361645f,rev?*%
%TF.SameCoordinates,Original*%
%TF.FileFunction,Soldermask,Bot*%
%TF.FilePolarity,Negative*%
%FSLAX46Y46*%
G04 Gerber Fmt 4.6, Leading zero omitted, Abs format (unit mm)*
G04 Created by KiCad (PCBNEW 8.0.5) date 2025-05-15 20:07:03*
%MOMM*%
%LPD*%
G01*
G04 APERTURE LIST*
G04 Aperture macros list*
%AMHorizOval*
0 Thick line with rounded ends*
0 $1 width*
0 $2 $3 position (X,Y) of the first rounded end (center of the circle)*
0 $4 $5 position (X,Y) of the second rounded end (center of the circle)*
0 Add line between two ends*
20,1,$1,$2,$3,$4,$5,0*
0 Add two circle primitives to create the rounded ends*
1,1,$1,$2,$3*
1,1,$1,$4,$5*%
%AMRotRect*
0 Rectangle, with rotation*
0 The origin of the aperture is its center*
0 $1 length*
0 $2 width*
0 $3 Rotation angle, in degrees counterclockwise*
0 Add horizontal line*
21,1,$1,$2,0,0,$3*%
G04 Aperture macros list end*
%ADD10RotRect,1.700000X1.700000X45.000000*%
%ADD11HorizOval,1.700000X0.000000X0.000000X0.000000X0.000000X0*%
%ADD12R,1.700000X1.700000*%
%ADD13O,1.700000X1.700000*%
%ADD14RotRect,1.700000X1.700000X315.000000*%
%ADD15HorizOval,1.700000X0.000000X0.000000X0.000000X0.000000X0*%
%ADD16C,0.990600*%
G04 APERTURE END LIST*
D10*
%TO.C,J5*%
X132773555Y-112714555D03*
D11*
X134569606Y-114510606D03*
X136365657Y-116306657D03*
%TD*%
D12*
%TO.C,J7*%
X152084000Y-101450000D03*
D13*
X154624000Y-101450000D03*
X157163999Y-101450000D03*
X159704000Y-101450000D03*
%TD*%
D10*
%TO.C,J4*%
X176348555Y-69039555D03*
D11*
X178144606Y-70835606D03*
X179940657Y-72631657D03*
%TD*%
D12*
%TO.C,J12*%
X143159000Y-71450000D03*
D13*
X145699000Y-71450000D03*
%TD*%
D14*
%TO.C,J3*%
X136334000Y-69075000D03*
D15*
X134537949Y-70871051D03*
X132741898Y-72667102D03*
%TD*%
D12*
%TO.C,J10*%
X164709000Y-76425000D03*
D13*
X167249000Y-76425000D03*
X169788999Y-76425000D03*
X172329000Y-76425000D03*
%TD*%
D12*
%TO.C,J8*%
X123584000Y-90950000D03*
D13*
X123584000Y-93490000D03*
%TD*%
D12*
%TO.C,J11*%
X166159000Y-95125000D03*
D13*
X166159000Y-97665000D03*
X166159000Y-100205000D03*
X166159000Y-102745000D03*
%TD*%
D12*
%TO.C,J1*%
X157124000Y-77950000D03*
D13*
X157124000Y-80490000D03*
X157124000Y-83030000D03*
X157124000Y-85570000D03*
X157124000Y-88110000D03*
X157124000Y-90650000D03*
X157124000Y-93190000D03*
%TD*%
D16*
%TO.C,J2*%
X155934000Y-117175000D03*
X156950000Y-124795000D03*
X154918000Y-124795000D03*
%TD*%
D14*
%TO.C,J6*%
X179969445Y-112739555D03*
D15*
X178173394Y-114535606D03*
X176377343Y-116331657D03*
%TD*%
D12*
%TO.C,J9*%
X154584000Y-77950000D03*
D13*
X154584000Y-80490000D03*
X154584000Y-83030000D03*
X154584000Y-85570000D03*
X154584000Y-88110000D03*
X154584000Y-90650000D03*
X154584000Y-93190000D03*
%TD*%
D12*
%TO.C,J13*%
X126959000Y-99010000D03*
D13*
X126959000Y-101550000D03*
X126959000Y-104089999D03*
X126959000Y-106630000D03*
%TD*%
M02*
