%TF.GenerationSoftware,KiCad,Pcbnew,8.0.5*%
%TF.CreationDate,2025-05-15T20:02:14-04:00*%
%TF.ProjectId,RTLS_VIC,52544c53-5f56-4494-932e-6b696361645f,rev?*%
%TF.SameCoordinates,Original*%
%TF.FileFunction,Copper,L2,Bot*%
%TF.FilePolarity,Positive*%
%FSLAX46Y46*%
G04 Gerber Fmt 4.6, Leading zero omitted, Abs format (unit mm)*
G04 Created by KiCad (PCBNEW 8.0.5) date 2025-05-15 20:02:14*
%MOMM*%
%LPD*%
G01*
G04 APERTURE LIST*
G04 Aperture macros list*
%AMHorizOval*
0 Thick line with rounded ends*
0 $1 width*
0 $2 $3 position (X,Y) of the first rounded end (center of the circle)*
0 $4 $5 position (X,Y) of the second rounded end (center of the circle)*
0 Add line between two ends*
20,1,$1,$2,$3,$4,$5,0*
0 Add two circle primitives to create the rounded ends*
1,1,$1,$2,$3*
1,1,$1,$4,$5*%
%AMRotRect*
0 Rectangle, with rotation*
0 The origin of the aperture is its center*
0 $1 length*
0 $2 width*
0 $3 Rotation angle, in degrees counterclockwise*
0 Add horizontal line*
21,1,$1,$2,0,0,$3*%
G04 Aperture macros list end*
%TA.AperFunction,ComponentPad*%
%ADD10R,1.700000X1.700000*%
%TD*%
%TA.AperFunction,ComponentPad*%
%ADD11O,1.700000X1.700000*%
%TD*%
%TA.AperFunction,ComponentPad*%
%ADD12RotRect,1.700000X1.700000X45.000000*%
%TD*%
%TA.AperFunction,ComponentPad*%
%ADD13HorizOval,1.700000X0.000000X0.000000X0.000000X0.000000X0*%
%TD*%
%TA.AperFunction,ComponentPad*%
%ADD14RotRect,1.700000X1.700000X315.000000*%
%TD*%
%TA.AperFunction,ComponentPad*%
%ADD15HorizOval,1.700000X0.000000X0.000000X0.000000X0.000000X0*%
%TD*%
%TA.AperFunction,ViaPad*%
%ADD16C,0.600000*%
%TD*%
%TA.AperFunction,Conductor*%
%ADD17C,0.200000*%
%TD*%
%TA.AperFunction,Conductor*%
%ADD18C,0.400000*%
%TD*%
G04 APERTURE END LIST*
D10*
%TO.P,J13,1,Pin_1*%
%TO.N,+3V3*%
X126959000Y-99010000D03*
D11*
%TO.P,J13,2,Pin_2*%
%TO.N,DEBUG_UART6_TX*%
X126959000Y-101550000D03*
%TO.P,J13,3,Pin_3*%
%TO.N,DEBUG_UART6_RX*%
X126959000Y-104089999D03*
%TO.P,J13,4,Pin_4*%
%TO.N,GND*%
X126959000Y-106630000D03*
%TD*%
D10*
%TO.P,J12,1,Pin_1*%
%TO.N,GND*%
X143159000Y-71450000D03*
D11*
%TO.P,J12,2,Pin_2*%
%TO.N,+3V3*%
X145699000Y-71450000D03*
%TD*%
D10*
%TO.P,J11,1,Pin_1*%
%TO.N,DEBUG_NSS*%
X166159000Y-95125000D03*
D11*
%TO.P,J11,2,Pin_2*%
%TO.N,SPI_SCK*%
X166159000Y-97665000D03*
%TO.P,J11,3,Pin_3*%
%TO.N,SPI_MISO*%
X166159000Y-100205000D03*
%TO.P,J11,4,Pin_4*%
%TO.N,SPI_MOSI*%
X166159000Y-102745000D03*
%TD*%
D10*
%TO.P,J10,1,Pin_1*%
%TO.N,+3V3*%
X164709000Y-76425000D03*
D11*
%TO.P,J10,2,Pin_2*%
%TO.N,SDA*%
X167249000Y-76425000D03*
%TO.P,J10,3,Pin_3*%
%TO.N,SCL*%
X169788999Y-76425000D03*
%TO.P,J10,4,Pin_4*%
%TO.N,GND*%
X172329000Y-76425000D03*
%TD*%
D12*
%TO.P,J5,1,Pin_1*%
%TO.N,GND*%
X132773555Y-112714555D03*
D13*
%TO.P,J5,2,Pin_2*%
%TO.N,PWM_3*%
X134569606Y-114510606D03*
%TO.P,J5,3,Pin_3*%
%TO.N,+ESC_5V*%
X136365657Y-116306657D03*
%TD*%
D10*
%TO.P,J7,1,Pin_1*%
%TO.N,+3V3*%
X152084000Y-101450000D03*
D11*
%TO.P,J7,2,Pin_2*%
%TO.N,GPS_TX*%
X154624000Y-101450000D03*
%TO.P,J7,3,Pin_3*%
%TO.N,GPS_RX*%
X157163999Y-101450000D03*
%TO.P,J7,4,Pin_4*%
%TO.N,GND*%
X159704000Y-101450000D03*
%TD*%
D12*
%TO.P,J4,1,Pin_1*%
%TO.N,GND*%
X176348555Y-69039555D03*
D13*
%TO.P,J4,2,Pin_2*%
%TO.N,PWM_2*%
X178144606Y-70835606D03*
%TO.P,J4,3,Pin_3*%
%TO.N,+ESC_5V*%
X179940657Y-72631657D03*
%TD*%
D14*
%TO.P,J3,1,Pin_1*%
%TO.N,GND*%
X136334000Y-69075000D03*
D15*
%TO.P,J3,2,Pin_2*%
%TO.N,PWM_1*%
X134537949Y-70871051D03*
%TO.P,J3,3,Pin_3*%
%TO.N,+ESC_5V*%
X132741898Y-72667102D03*
%TD*%
D10*
%TO.P,J8,1,Pin_1*%
%TO.N,BOOT0*%
X123584000Y-90950000D03*
D11*
%TO.P,J8,2,Pin_2*%
%TO.N,+3V3*%
X123584000Y-93490000D03*
%TD*%
%TO.P,J1,7,Pin_7*%
%TO.N,/Sensors/WKUP1*%
X157124000Y-93190000D03*
%TO.P,J1,6,Pin_6*%
%TO.N,/Sensors/GPIO3*%
X157124000Y-90650000D03*
%TO.P,J1,5,Pin_5*%
%TO.N,/Sensors/GPIO1*%
X157124000Y-88110000D03*
%TO.P,J1,4,Pin_4*%
%TO.N,+BATT*%
X157124000Y-85570000D03*
%TO.P,J1,3,Pin_3*%
%TO.N,SPI_SCK*%
X157124000Y-83030000D03*
%TO.P,J1,2,Pin_2*%
%TO.N,SPI_MISO*%
X157124000Y-80490000D03*
D10*
%TO.P,J1,1,Pin_1*%
%TO.N,SDA*%
X157124000Y-77950000D03*
%TD*%
D14*
%TO.P,J6,1,Pin_1*%
%TO.N,GND*%
X179969445Y-112739555D03*
D15*
%TO.P,J6,2,Pin_2*%
%TO.N,PWM_4*%
X178173394Y-114535606D03*
%TO.P,J6,3,Pin_3*%
%TO.N,+ESC_5V*%
X176377343Y-116331657D03*
%TD*%
D10*
%TO.P,J9,1,Pin_1*%
%TO.N,SCL*%
X154584000Y-77950000D03*
D11*
%TO.P,J9,2,Pin_2*%
%TO.N,SPI_MOSI*%
X154584000Y-80490000D03*
%TO.P,J9,3,Pin_3*%
%TO.N,NSS*%
X154584000Y-83030000D03*
%TO.P,J9,4,Pin_4*%
%TO.N,GND*%
X154584000Y-85570000D03*
%TO.P,J9,5,Pin_5*%
%TO.N,/Sensors/GPIO2*%
X154584000Y-88110000D03*
%TO.P,J9,6,Pin_6*%
%TO.N,/Sensors/GPIO4*%
X154584000Y-90650000D03*
%TO.P,J9,7,Pin_7*%
%TO.N,+3V3*%
X154584000Y-93190000D03*
%TD*%
D16*
%TO.N,GND*%
X127924000Y-84745000D03*
X137214000Y-89085000D03*
X130654000Y-98285000D03*
X130554000Y-102385000D03*
%TO.N,DEBUG_UART6_RX*%
X136254000Y-85265000D03*
%TO.N,DEBUG_UART6_TX*%
X136524000Y-84285000D03*
%TO.N,GND*%
X158764000Y-92955000D03*
X158309000Y-86825000D03*
X158654000Y-89475000D03*
X154284000Y-116825000D03*
X169934000Y-106350000D03*
X164309000Y-102525000D03*
X159484000Y-104925000D03*
X152809000Y-103125000D03*
X151209000Y-102950000D03*
X149884000Y-102975000D03*
%TO.N,DEBUG_NSS*%
X142834000Y-93575000D03*
%TO.N,SPI_MOSI*%
X160909736Y-88849264D03*
%TO.N,SPI_MISO*%
X159209000Y-86600000D03*
%TO.N,SPI_SCK*%
X159059000Y-85025000D03*
%TO.N,GND*%
X139384000Y-118900000D03*
X172084000Y-82950000D03*
X147609000Y-90650000D03*
X140084000Y-86925000D03*
X141659000Y-88375000D03*
X143459000Y-82125000D03*
X133184000Y-76025000D03*
X133434000Y-81295000D03*
X127584000Y-92600000D03*
X158459000Y-95675000D03*
%TO.N,NSS*%
X152809000Y-86600000D03*
%TO.N,SDA*%
X152534000Y-75425000D03*
%TO.N,SPI_MOSI*%
X138084000Y-90850000D03*
%TO.N,SPI_MISO*%
X139259000Y-89150000D03*
%TO.N,GND*%
X162309000Y-83850000D03*
X149784000Y-116525000D03*
X133484000Y-96525000D03*
X142934000Y-63650000D03*
X127159000Y-87350000D03*
X145564000Y-80395000D03*
X184034000Y-103300000D03*
X149384000Y-62300000D03*
X146109000Y-105850000D03*
X127709000Y-80500000D03*
X143734000Y-89125000D03*
X136709000Y-96500000D03*
X135084000Y-106700000D03*
X166709000Y-120925000D03*
X168884000Y-97300000D03*
X123959000Y-99550000D03*
X141909000Y-79625000D03*
X147159000Y-69000000D03*
X132609000Y-83975000D03*
X127684000Y-74000000D03*
X133434000Y-108500000D03*
X135984000Y-90725000D03*
X151534000Y-118450000D03*
X138584000Y-81850000D03*
X166859000Y-72775000D03*
X134634000Y-94350000D03*
X139184000Y-103675000D03*
X141234000Y-85000000D03*
X128009000Y-95625000D03*
X148684000Y-78185000D03*
X139109000Y-94075000D03*
X166334000Y-62875000D03*
X145934000Y-90100000D03*
X139559000Y-73050000D03*
X185409000Y-82000000D03*
X155809000Y-70750000D03*
X145559000Y-96925000D03*
X137284000Y-76850000D03*
X164159000Y-81250000D03*
X138884000Y-90925000D03*
X167709000Y-86100000D03*
X144609000Y-88025000D03*
X152884000Y-96275000D03*
X162659000Y-67275000D03*
X184159000Y-93825000D03*
%TO.N,+3V3*%
X165459000Y-87550000D03*
X131434000Y-83800000D03*
X165459000Y-85575000D03*
X146184000Y-98050000D03*
X151409000Y-94525000D03*
%TO.N,SWDIO*%
X133371500Y-106712500D03*
X132734000Y-88950000D03*
%TO.N,SWCLK*%
X159058265Y-106400735D03*
X153409000Y-122275000D03*
X139284000Y-95475000D03*
X160284000Y-120750000D03*
%TO.N,DEBUG_RX*%
X138634000Y-96525000D03*
X155934000Y-106300000D03*
%TO.N,DEBUG_TX*%
X138485773Y-95528243D03*
X158084000Y-106275000D03*
%TO.N,PWM_1*%
X133734000Y-83700000D03*
%TO.N,PWM_2*%
X134634000Y-83800000D03*
%TO.N,PWM_3*%
X134259000Y-88800000D03*
%TO.N,PWM_4*%
X135234000Y-88825000D03*
%TO.N,PWR_SEL*%
X139995765Y-85488235D03*
X137459000Y-79625000D03*
%TO.N,LED_DEBUG_3*%
X139227380Y-83484562D03*
X152664001Y-65425000D03*
%TO.N,LED_DEBUG_2*%
X140034000Y-83525000D03*
X155559000Y-65375000D03*
%TO.N,SDA*%
X149809000Y-90850000D03*
X134059000Y-93050000D03*
X161609000Y-85712500D03*
X146209000Y-94125000D03*
%TO.N,SCL*%
X145709000Y-91900000D03*
X133159000Y-93100000D03*
%TO.N,LED_DEBUG_1*%
X140846500Y-83562500D03*
X158459000Y-65325000D03*
%TO.N,BMP581_INT*%
X152884000Y-98775000D03*
X165571500Y-82637500D03*
%TO.N,LSM6_INT2*%
X156299874Y-97147345D03*
X153384000Y-97225000D03*
%TO.N,NSS*%
X143634000Y-94725000D03*
%TO.N,SPI_SCK*%
X143784000Y-93879247D03*
%TD*%
D17*
%TO.N,DEBUG_UART6_RX*%
X129654000Y-88530686D02*
X129654000Y-101394999D01*
X133384686Y-84800000D02*
X129654000Y-88530686D01*
X135789000Y-84800000D02*
X133384686Y-84800000D01*
X129654000Y-101394999D02*
X126959000Y-104089999D01*
X136254000Y-85265000D02*
X135789000Y-84800000D01*
%TO.N,DEBUG_UART6_TX*%
X129254000Y-99255000D02*
X126959000Y-101550000D01*
X129254000Y-88365000D02*
X129254000Y-99255000D01*
X133219000Y-84400000D02*
X129254000Y-88365000D01*
X136409000Y-84400000D02*
X133219000Y-84400000D01*
X136524000Y-84285000D02*
X136409000Y-84400000D01*
%TO.N,DEBUG_NSS*%
X163759000Y-97525000D02*
X166159000Y-95125000D01*
X163759000Y-100525000D02*
X163759000Y-97525000D01*
X160459000Y-103825000D02*
X163759000Y-100525000D01*
X142834000Y-97250000D02*
X149409000Y-103825000D01*
X149409000Y-103825000D02*
X160459000Y-103825000D01*
X142834000Y-93575000D02*
X142834000Y-97250000D01*
%TO.N,SPI_MOSI*%
X155824000Y-79250000D02*
X154584000Y-80490000D01*
X157584000Y-79250000D02*
X155824000Y-79250000D01*
X160459000Y-82125000D02*
X157584000Y-79250000D01*
X160459000Y-88398528D02*
X160459000Y-82125000D01*
X160909736Y-88849264D02*
X160459000Y-88398528D01*
%TO.N,SPI_MISO*%
X157697529Y-80490000D02*
X157124000Y-80490000D01*
X159884000Y-85925000D02*
X159884000Y-82676471D01*
X159884000Y-82676471D02*
X157697529Y-80490000D01*
X159209000Y-86600000D02*
X159884000Y-85925000D01*
%TO.N,SPI_SCK*%
X157124000Y-83090000D02*
X157124000Y-83030000D01*
X159059000Y-85025000D02*
X157124000Y-83090000D01*
%TO.N,BMP581_INT*%
X157909000Y-98775000D02*
X152884000Y-98775000D01*
X166259000Y-90425000D02*
X157909000Y-98775000D01*
X166259000Y-83325000D02*
X166259000Y-90425000D01*
X165571500Y-82637500D02*
X166259000Y-83325000D01*
%TO.N,GND*%
X155839000Y-86825000D02*
X158309000Y-86825000D01*
X154584000Y-85570000D02*
X155839000Y-86825000D01*
%TO.N,+3V3*%
X163959000Y-87550000D02*
X165459000Y-87550000D01*
X159634000Y-91875000D02*
X163959000Y-87550000D01*
X155899000Y-91875000D02*
X159634000Y-91875000D01*
X154584000Y-93190000D02*
X155899000Y-91875000D01*
%TO.N,NSS*%
X152809000Y-89881372D02*
X152809000Y-86600000D01*
X149687186Y-93003186D02*
X152809000Y-89881372D01*
X146834000Y-95125000D02*
X147565372Y-95125000D01*
X144034000Y-95125000D02*
X146834000Y-95125000D01*
X147565372Y-95125000D02*
X149687186Y-93003186D01*
X143634000Y-94725000D02*
X144034000Y-95125000D01*
%TO.N,SPI_SCK*%
X152059000Y-85450000D02*
X153159000Y-84350000D01*
X152059000Y-90065686D02*
X152059000Y-85450000D01*
X147399686Y-94725000D02*
X152059000Y-90065686D01*
X144629753Y-94725000D02*
X147399686Y-94725000D01*
X153159000Y-84350000D02*
X155804000Y-84350000D01*
X155804000Y-84350000D02*
X157124000Y-83030000D01*
X143784000Y-93879247D02*
X144629753Y-94725000D01*
%TO.N,SDA*%
X149159000Y-92400000D02*
X147434000Y-94125000D01*
X149159000Y-91500000D02*
X149159000Y-92400000D01*
X147434000Y-94125000D02*
X146209000Y-94125000D01*
X149809000Y-90850000D02*
X149159000Y-91500000D01*
%TO.N,+3V3*%
X151409000Y-94525000D02*
X152084000Y-95200000D01*
X152084000Y-95200000D02*
X152084000Y-98050000D01*
%TO.N,SDA*%
X157124000Y-77950000D02*
X155074000Y-75900000D01*
X155074000Y-75900000D02*
X153009000Y-75900000D01*
X153009000Y-75900000D02*
X152534000Y-75425000D01*
%TO.N,SPI_MISO*%
X147049685Y-81775000D02*
X155839000Y-81775000D01*
X139674685Y-89150000D02*
X147049685Y-81775000D01*
X139259000Y-89150000D02*
X139674685Y-89150000D01*
X155839000Y-81775000D02*
X157124000Y-80490000D01*
%TO.N,SPI_MOSI*%
X147769000Y-80490000D02*
X154584000Y-80490000D01*
X139734000Y-88525000D02*
X147769000Y-80490000D01*
X138084000Y-90850000D02*
X138084000Y-89025000D01*
X138084000Y-89025000D02*
X138584000Y-88525000D01*
X138584000Y-88525000D02*
X139734000Y-88525000D01*
%TO.N,SDA*%
X144009000Y-91925000D02*
X135184000Y-91925000D01*
X135184000Y-91925000D02*
X134059000Y-93050000D01*
X146209000Y-94125000D02*
X144009000Y-91925000D01*
%TO.N,SCL*%
X134734000Y-91525000D02*
X133159000Y-93100000D01*
X145709000Y-91900000D02*
X145334000Y-91525000D01*
X145334000Y-91525000D02*
X134734000Y-91525000D01*
%TO.N,SPI_MOSI*%
X154584000Y-80490000D02*
X152694000Y-80490000D01*
%TO.N,SDA*%
X161059000Y-85162500D02*
X161059000Y-81885000D01*
X161059000Y-81885000D02*
X157124000Y-77950000D01*
X161609000Y-85712500D02*
X161059000Y-85162500D01*
D18*
%TO.N,+ESC_5V*%
X172409000Y-66750000D02*
X167009000Y-61350000D01*
X167009000Y-61350000D02*
X143259000Y-61350000D01*
X137309000Y-65375000D02*
X132741898Y-69942102D01*
X139234000Y-65375000D02*
X137309000Y-65375000D01*
X143259000Y-61350000D02*
X139234000Y-65375000D01*
X170884000Y-115250000D02*
X171965657Y-116331657D01*
X137422314Y-115250000D02*
X170884000Y-115250000D01*
X136365657Y-116306657D02*
X137422314Y-115250000D01*
X179940657Y-72631657D02*
X179940657Y-69531657D01*
X132741898Y-69942102D02*
X132741898Y-72667102D01*
X171965657Y-116331657D02*
X176377343Y-116331657D01*
X179940657Y-69531657D02*
X177159000Y-66750000D01*
X177159000Y-66750000D02*
X172409000Y-66750000D01*
D17*
%TO.N,+3V3*%
X146184000Y-98050000D02*
X152084000Y-98050000D01*
X152084000Y-101450000D02*
X152084000Y-98050000D01*
X130709000Y-83800000D02*
X128609000Y-85900000D01*
X128609000Y-85900000D02*
X128609000Y-88465000D01*
X131434000Y-83800000D02*
X130709000Y-83800000D01*
X128609000Y-88465000D02*
X123584000Y-93490000D01*
X165459000Y-87550000D02*
X165459000Y-85575000D01*
%TO.N,SWDIO*%
X133371500Y-106712500D02*
X131659000Y-105000000D01*
X131659000Y-90025000D02*
X132734000Y-88950000D01*
X131659000Y-105000000D02*
X131659000Y-90025000D01*
%TO.N,SWCLK*%
X157557530Y-104900000D02*
X159058265Y-106400735D01*
X139284000Y-95475000D02*
X148709000Y-104900000D01*
X160284000Y-120750000D02*
X158759000Y-122275000D01*
X158759000Y-122275000D02*
X153409000Y-122275000D01*
X148709000Y-104900000D02*
X157557530Y-104900000D01*
%TO.N,DEBUG_RX*%
X138634000Y-96525000D02*
X148409000Y-106300000D01*
X148409000Y-106300000D02*
X155934000Y-106300000D01*
%TO.N,DEBUG_TX*%
X148459000Y-105500000D02*
X157309000Y-105500000D01*
X157309000Y-105500000D02*
X158084000Y-106275000D01*
X138487243Y-95528243D02*
X148459000Y-105500000D01*
X138485773Y-95528243D02*
X138487243Y-95528243D01*
%TO.N,PWM_1*%
X134537949Y-82671051D02*
X134537949Y-70871051D01*
X133734000Y-83475000D02*
X134537949Y-82671051D01*
X133734000Y-83700000D02*
X133734000Y-83475000D01*
%TO.N,PWM_2*%
X164209000Y-63125000D02*
X171919606Y-70835606D01*
X134634000Y-83800000D02*
X135884000Y-82550000D01*
X145859000Y-63125000D02*
X164209000Y-63125000D01*
X135884000Y-82550000D02*
X135884000Y-73100000D01*
X171919606Y-70835606D02*
X178144606Y-70835606D01*
X135884000Y-73100000D02*
X145859000Y-63125000D01*
%TO.N,PWM_3*%
X132059000Y-100525000D02*
X135959000Y-104425000D01*
X132059000Y-92475000D02*
X132059000Y-100525000D01*
X134259000Y-90275000D02*
X132059000Y-92475000D01*
X135959000Y-113121212D02*
X134569606Y-114510606D01*
X134259000Y-88800000D02*
X134259000Y-90275000D01*
X135959000Y-104425000D02*
X135959000Y-113121212D01*
%TO.N,PWM_4*%
X134659000Y-90440686D02*
X132774685Y-92325000D01*
X134659000Y-90440685D02*
X134659000Y-90440686D01*
X170962788Y-107325000D02*
X178173394Y-114535606D01*
X132484000Y-92615685D02*
X132484000Y-100384314D01*
X135234000Y-88825000D02*
X135234000Y-89865685D01*
X135234000Y-89865685D02*
X134659000Y-90440685D01*
X132774685Y-92325000D02*
X132484000Y-92615685D01*
X132484000Y-100384314D02*
X139424686Y-107325000D01*
X139424686Y-107325000D02*
X170962788Y-107325000D01*
%TO.N,PWR_SEL*%
X137459000Y-82951470D02*
X137459000Y-79625000D01*
X139995765Y-85488235D02*
X137459000Y-82951470D01*
%TO.N,LED_DEBUG_3*%
X139227380Y-83456620D02*
X152664001Y-70019999D01*
X139227380Y-83484562D02*
X139227380Y-83456620D01*
X152664001Y-70019999D02*
X152664001Y-65425000D01*
%TO.N,LED_DEBUG_2*%
X155559000Y-68000000D02*
X155559000Y-65375000D01*
X140034000Y-83525000D02*
X155559000Y-68000000D01*
%TO.N,LED_DEBUG_1*%
X158459000Y-65950000D02*
X158459000Y-65325000D01*
X140846500Y-83562500D02*
X158459000Y-65950000D01*
%TO.N,LSM6_INT2*%
X156299874Y-97147345D02*
X156152529Y-97000000D01*
X156152529Y-97000000D02*
X153609000Y-97000000D01*
X153609000Y-97000000D02*
X153384000Y-97225000D01*
%TD*%
%TA.AperFunction,Conductor*%
%TO.N,GND*%
G36*
X142833898Y-92538109D02*
G01*
X142855649Y-92527360D01*
X142877043Y-92525500D01*
X143708903Y-92525500D01*
X143775942Y-92545185D01*
X143796584Y-92561819D01*
X144141161Y-92906396D01*
X144174646Y-92967719D01*
X144169662Y-93037411D01*
X144127790Y-93093344D01*
X144062326Y-93117761D01*
X144012526Y-93111119D01*
X143963257Y-93093879D01*
X143963249Y-93093877D01*
X143784004Y-93073682D01*
X143783996Y-93073682D01*
X143604746Y-93093878D01*
X143589545Y-93099197D01*
X143519767Y-93102757D01*
X143460913Y-93069835D01*
X143336262Y-92945184D01*
X143183523Y-92849211D01*
X143013254Y-92789631D01*
X143013249Y-92789630D01*
X142863160Y-92772720D01*
X142836633Y-92761573D01*
X142825892Y-92768477D01*
X142804840Y-92772720D01*
X142654750Y-92789630D01*
X142654745Y-92789631D01*
X142484476Y-92849211D01*
X142331737Y-92945184D01*
X142204184Y-93072737D01*
X142108211Y-93225476D01*
X142048631Y-93395745D01*
X142048630Y-93395750D01*
X142028435Y-93574996D01*
X142028435Y-93575003D01*
X142048630Y-93754249D01*
X142048631Y-93754254D01*
X142108211Y-93924523D01*
X142139389Y-93974142D01*
X142194218Y-94061402D01*
X142204185Y-94077263D01*
X142206445Y-94080097D01*
X142207334Y-94082275D01*
X142207889Y-94083158D01*
X142207734Y-94083255D01*
X142232855Y-94144783D01*
X142233500Y-94157412D01*
X142233500Y-97163330D01*
X142233499Y-97163348D01*
X142233499Y-97275902D01*
X142213814Y-97342941D01*
X142161010Y-97388696D01*
X142091852Y-97398640D01*
X142028296Y-97369615D01*
X142021818Y-97363583D01*
X140114700Y-95456465D01*
X140081215Y-95395142D01*
X140079163Y-95382686D01*
X140069368Y-95295745D01*
X140009789Y-95125478D01*
X139913816Y-94972738D01*
X139786262Y-94845184D01*
X139633523Y-94749211D01*
X139463254Y-94689631D01*
X139463249Y-94689630D01*
X139284004Y-94669435D01*
X139283996Y-94669435D01*
X139104750Y-94689630D01*
X139104737Y-94689633D01*
X138934478Y-94749210D01*
X138934476Y-94749211D01*
X138895133Y-94773931D01*
X138827896Y-94792930D01*
X138788209Y-94785978D01*
X138665027Y-94742874D01*
X138665022Y-94742873D01*
X138485777Y-94722678D01*
X138485769Y-94722678D01*
X138306523Y-94742873D01*
X138306518Y-94742874D01*
X138136249Y-94802454D01*
X137983510Y-94898427D01*
X137855957Y-95025980D01*
X137759984Y-95178719D01*
X137700404Y-95348988D01*
X137700403Y-95348993D01*
X137680208Y-95528239D01*
X137680208Y-95528246D01*
X137700403Y-95707492D01*
X137700404Y-95707497D01*
X137759984Y-95877766D01*
X137855957Y-96030505D01*
X137877150Y-96051698D01*
X137910635Y-96113021D01*
X137906511Y-96180333D01*
X137848632Y-96345742D01*
X137848630Y-96345750D01*
X137828435Y-96524996D01*
X137828435Y-96525003D01*
X137848630Y-96704249D01*
X137848631Y-96704254D01*
X137908211Y-96874523D01*
X137967007Y-96968095D01*
X138004184Y-97027262D01*
X138131738Y-97154816D01*
X138284478Y-97250789D01*
X138454745Y-97310368D01*
X138541669Y-97320161D01*
X138606080Y-97347226D01*
X138615465Y-97355700D01*
X147772583Y-106512819D01*
X147806068Y-106574142D01*
X147801084Y-106643834D01*
X147759212Y-106699767D01*
X147693748Y-106724184D01*
X147684902Y-106724500D01*
X139724783Y-106724500D01*
X139657744Y-106704815D01*
X139637102Y-106688181D01*
X133120819Y-100171898D01*
X133087334Y-100110575D01*
X133084500Y-100084217D01*
X133084500Y-94024772D01*
X133104185Y-93957733D01*
X133156989Y-93911978D01*
X133194617Y-93901552D01*
X133338249Y-93885369D01*
X133338252Y-93885368D01*
X133338255Y-93885368D01*
X133508522Y-93825789D01*
X133582814Y-93779107D01*
X133650049Y-93760107D01*
X133701962Y-93775348D01*
X133703205Y-93772769D01*
X133709470Y-93775786D01*
X133709477Y-93775788D01*
X133709478Y-93775789D01*
X133776923Y-93799389D01*
X133879745Y-93835368D01*
X133879750Y-93835369D01*
X134058996Y-93855565D01*
X134059000Y-93855565D01*
X134059004Y-93855565D01*
X134238249Y-93835369D01*
X134238252Y-93835368D01*
X134238255Y-93835368D01*
X134408522Y-93775789D01*
X134561262Y-93679816D01*
X134688816Y-93552262D01*
X134784789Y-93399522D01*
X134844368Y-93229255D01*
X134854161Y-93142329D01*
X134881226Y-93077918D01*
X134889690Y-93068543D01*
X135396416Y-92561819D01*
X135457739Y-92528334D01*
X135484097Y-92525500D01*
X142790957Y-92525500D01*
X142833898Y-92538109D01*
G37*
%TD.AperFunction*%
%TA.AperFunction,Conductor*%
G36*
X153271484Y-82395185D02*
G01*
X153317239Y-82447989D01*
X153327183Y-82517147D01*
X153316827Y-82551905D01*
X153310097Y-82566335D01*
X153310094Y-82566344D01*
X153248938Y-82794586D01*
X153248936Y-82794596D01*
X153228341Y-83029999D01*
X153228341Y-83030000D01*
X153248936Y-83265403D01*
X153248938Y-83265413D01*
X153310094Y-83493655D01*
X153310099Y-83493669D01*
X153347136Y-83573095D01*
X153357628Y-83642172D01*
X153329108Y-83705956D01*
X153270631Y-83744195D01*
X153234754Y-83749499D01*
X153079943Y-83749499D01*
X152972587Y-83778265D01*
X152927210Y-83790424D01*
X152927209Y-83790425D01*
X152877096Y-83819359D01*
X152877095Y-83819360D01*
X152833689Y-83844420D01*
X152790285Y-83869479D01*
X152790282Y-83869481D01*
X151578481Y-85081282D01*
X151578479Y-85081285D01*
X151528361Y-85168094D01*
X151528359Y-85168096D01*
X151499425Y-85218209D01*
X151499424Y-85218210D01*
X151486948Y-85264770D01*
X151458499Y-85370943D01*
X151458499Y-85370945D01*
X151458499Y-85539046D01*
X151458500Y-85539059D01*
X151458500Y-89765588D01*
X151438815Y-89832627D01*
X151422181Y-89853269D01*
X150736434Y-90539015D01*
X150675111Y-90572500D01*
X150605419Y-90567516D01*
X150549486Y-90525644D01*
X150537035Y-90505139D01*
X150534793Y-90500484D01*
X150438815Y-90347737D01*
X150311262Y-90220184D01*
X150158523Y-90124211D01*
X149988254Y-90064631D01*
X149988249Y-90064630D01*
X149809004Y-90044435D01*
X149808996Y-90044435D01*
X149629750Y-90064630D01*
X149629745Y-90064631D01*
X149459476Y-90124211D01*
X149306737Y-90220184D01*
X149179184Y-90347737D01*
X149083210Y-90500478D01*
X149023630Y-90670750D01*
X149013837Y-90757668D01*
X148986770Y-90822082D01*
X148978298Y-90831465D01*
X148790286Y-91019478D01*
X148678481Y-91131282D01*
X148678480Y-91131284D01*
X148639083Y-91199522D01*
X148616763Y-91238181D01*
X148607160Y-91254815D01*
X148599423Y-91268215D01*
X148558499Y-91420943D01*
X148558499Y-91420945D01*
X148558499Y-91589046D01*
X148558500Y-91589059D01*
X148558500Y-92099903D01*
X148538815Y-92166942D01*
X148522181Y-92187584D01*
X147221584Y-93488181D01*
X147160261Y-93521666D01*
X147133903Y-93524500D01*
X146791412Y-93524500D01*
X146724373Y-93504815D01*
X146714097Y-93497445D01*
X146711263Y-93495185D01*
X146711262Y-93495184D01*
X146600222Y-93425413D01*
X146558521Y-93399210D01*
X146388249Y-93339630D01*
X146301330Y-93329837D01*
X146236916Y-93302770D01*
X146227533Y-93294298D01*
X145827359Y-92894124D01*
X145793874Y-92832801D01*
X145798858Y-92763109D01*
X145840730Y-92707176D01*
X145881849Y-92688146D01*
X145881682Y-92687668D01*
X145886607Y-92685944D01*
X145887462Y-92685549D01*
X145888253Y-92685368D01*
X145888255Y-92685368D01*
X146058522Y-92625789D01*
X146211262Y-92529816D01*
X146338816Y-92402262D01*
X146434789Y-92249522D01*
X146494368Y-92079255D01*
X146498528Y-92042335D01*
X146514565Y-91900003D01*
X146514565Y-91899996D01*
X146494369Y-91720750D01*
X146494368Y-91720745D01*
X146483083Y-91688495D01*
X146434789Y-91550478D01*
X146338816Y-91397738D01*
X146211262Y-91270184D01*
X146121184Y-91213584D01*
X146058521Y-91174210D01*
X145888249Y-91114630D01*
X145801331Y-91104837D01*
X145736917Y-91077770D01*
X145727534Y-91069298D01*
X145702717Y-91044481D01*
X145702716Y-91044480D01*
X145598960Y-90984577D01*
X145598959Y-90984576D01*
X145565783Y-90965422D01*
X145509881Y-90950443D01*
X145413057Y-90924499D01*
X145254943Y-90924499D01*
X145247347Y-90924499D01*
X145247331Y-90924500D01*
X139008772Y-90924500D01*
X138941733Y-90904815D01*
X138895978Y-90852011D01*
X138885552Y-90814383D01*
X138869369Y-90670750D01*
X138869368Y-90670745D01*
X138844098Y-90598527D01*
X138809789Y-90500478D01*
X138713816Y-90347738D01*
X138713814Y-90347736D01*
X138713813Y-90347734D01*
X138711550Y-90344896D01*
X138710659Y-90342715D01*
X138710111Y-90341842D01*
X138710264Y-90341745D01*
X138685144Y-90280209D01*
X138684500Y-90267587D01*
X138684500Y-89958787D01*
X138704185Y-89891748D01*
X138756989Y-89845993D01*
X138826147Y-89836049D01*
X138874473Y-89853794D01*
X138909475Y-89875788D01*
X139079745Y-89935368D01*
X139079750Y-89935369D01*
X139258996Y-89955565D01*
X139259000Y-89955565D01*
X139259004Y-89955565D01*
X139438249Y-89935369D01*
X139438252Y-89935368D01*
X139438255Y-89935368D01*
X139608522Y-89875789D01*
X139761262Y-89779816D01*
X139780564Y-89760512D01*
X139836151Y-89728418D01*
X139906470Y-89709577D01*
X139967226Y-89674499D01*
X140043401Y-89630520D01*
X140155205Y-89518716D01*
X140155205Y-89518714D01*
X140165409Y-89508511D01*
X140165412Y-89508506D01*
X147262101Y-82411819D01*
X147323424Y-82378334D01*
X147349782Y-82375500D01*
X153204445Y-82375500D01*
X153271484Y-82395185D01*
G37*
%TD.AperFunction*%
%TA.AperFunction,Conductor*%
G36*
X158378046Y-86380513D02*
G01*
X158413461Y-86440743D01*
X158416412Y-86484816D01*
X158403435Y-86599995D01*
X158403435Y-86600003D01*
X158423630Y-86779249D01*
X158423631Y-86779254D01*
X158483211Y-86949523D01*
X158559858Y-87071505D01*
X158579184Y-87102262D01*
X158706738Y-87229816D01*
X158859478Y-87325789D01*
X159006071Y-87377084D01*
X159029745Y-87385368D01*
X159029750Y-87385369D01*
X159208996Y-87405565D01*
X159209000Y-87405565D01*
X159209004Y-87405565D01*
X159388249Y-87385369D01*
X159388252Y-87385368D01*
X159388255Y-87385368D01*
X159558522Y-87325789D01*
X159668527Y-87256667D01*
X159735764Y-87237667D01*
X159802599Y-87258034D01*
X159847814Y-87311302D01*
X159858500Y-87361661D01*
X159858500Y-88311858D01*
X159858499Y-88311876D01*
X159858499Y-88477582D01*
X159858498Y-88477582D01*
X159864436Y-88499742D01*
X159899423Y-88630313D01*
X159914418Y-88656284D01*
X159957126Y-88730257D01*
X159978479Y-88767243D01*
X160079034Y-88867798D01*
X160112519Y-88929121D01*
X160114573Y-88941595D01*
X160124366Y-89028513D01*
X160124367Y-89028518D01*
X160124368Y-89028519D01*
X160132250Y-89051045D01*
X160183946Y-89198785D01*
X160266455Y-89330097D01*
X160279920Y-89351526D01*
X160407474Y-89479080D01*
X160560214Y-89575053D01*
X160730481Y-89634632D01*
X160739423Y-89635639D01*
X160803836Y-89662705D01*
X160843392Y-89720300D01*
X160845531Y-89790137D01*
X160813221Y-89846541D01*
X159421584Y-91238181D01*
X159360261Y-91271666D01*
X159333903Y-91274500D01*
X158516407Y-91274500D01*
X158449368Y-91254815D01*
X158403613Y-91202011D01*
X158393669Y-91132853D01*
X158396632Y-91118407D01*
X158416440Y-91044480D01*
X158459063Y-90885408D01*
X158479659Y-90650000D01*
X158479658Y-90649994D01*
X158466577Y-90500476D01*
X158459063Y-90414592D01*
X158397903Y-90186337D01*
X158298035Y-89972171D01*
X158292425Y-89964158D01*
X158162494Y-89778597D01*
X157995402Y-89611506D01*
X157995396Y-89611501D01*
X157809842Y-89481575D01*
X157766217Y-89426998D01*
X157759023Y-89357500D01*
X157790546Y-89295145D01*
X157809842Y-89278425D01*
X157923578Y-89198786D01*
X157995401Y-89148495D01*
X158162495Y-88981401D01*
X158298035Y-88787830D01*
X158397903Y-88573663D01*
X158459063Y-88345408D01*
X158479659Y-88110000D01*
X158459063Y-87874592D01*
X158397903Y-87646337D01*
X158298035Y-87432171D01*
X158292425Y-87424158D01*
X158162494Y-87238597D01*
X157995402Y-87071506D01*
X157995396Y-87071501D01*
X157809842Y-86941575D01*
X157766217Y-86886998D01*
X157759023Y-86817500D01*
X157790546Y-86755145D01*
X157809842Y-86738425D01*
X157832026Y-86722891D01*
X157995401Y-86608495D01*
X158162495Y-86441401D01*
X158191617Y-86399809D01*
X158246193Y-86356185D01*
X158315691Y-86348991D01*
X158378046Y-86380513D01*
G37*
%TD.AperFunction*%
%TA.AperFunction,Conductor*%
G36*
X155938549Y-86236110D02*
G01*
X155955269Y-86255405D01*
X156085505Y-86441401D01*
X156085506Y-86441402D01*
X156252597Y-86608493D01*
X156252603Y-86608498D01*
X156438158Y-86738425D01*
X156481783Y-86793002D01*
X156488977Y-86862500D01*
X156457454Y-86924855D01*
X156438158Y-86941575D01*
X156252597Y-87071505D01*
X156085505Y-87238597D01*
X155955575Y-87424158D01*
X155900998Y-87467783D01*
X155831500Y-87474977D01*
X155769145Y-87443454D01*
X155752425Y-87424158D01*
X155622494Y-87238597D01*
X155455402Y-87071506D01*
X155455401Y-87071505D01*
X155269405Y-86941269D01*
X155225781Y-86886692D01*
X155218588Y-86817193D01*
X155250110Y-86754839D01*
X155269405Y-86738119D01*
X155455082Y-86608105D01*
X155622105Y-86441082D01*
X155752119Y-86255405D01*
X155806696Y-86211781D01*
X155876195Y-86204588D01*
X155938549Y-86236110D01*
G37*
%TD.AperFunction*%
%TA.AperFunction,Conductor*%
G36*
X153190992Y-85269754D02*
G01*
X153246034Y-85310449D01*
X153253363Y-85320000D01*
X154150988Y-85320000D01*
X154118075Y-85377007D01*
X154084000Y-85504174D01*
X154084000Y-85635826D01*
X154118075Y-85762993D01*
X154150988Y-85820000D01*
X153251981Y-85820000D01*
X153198696Y-85858908D01*
X153128950Y-85863062D01*
X153115794Y-85859259D01*
X152988262Y-85814633D01*
X152988250Y-85814630D01*
X152844498Y-85798434D01*
X152780085Y-85771368D01*
X152740529Y-85713773D01*
X152738392Y-85643936D01*
X152770699Y-85587535D01*
X153059982Y-85298252D01*
X153121301Y-85264770D01*
X153190992Y-85269754D01*
G37*
%TD.AperFunction*%
%TA.AperFunction,Conductor*%
G36*
X142278797Y-61155703D02*
G01*
X142315208Y-61215336D01*
X142313599Y-61285187D01*
X142283139Y-61335202D01*
X138980162Y-64638181D01*
X138918839Y-64671666D01*
X138892481Y-64674500D01*
X137240004Y-64674500D01*
X137104677Y-64701418D01*
X137104667Y-64701421D01*
X136977192Y-64754222D01*
X136862454Y-64830887D01*
X132197785Y-69495556D01*
X132121120Y-69610294D01*
X132068319Y-69737769D01*
X132068316Y-69737781D01*
X132049465Y-69832554D01*
X132049465Y-69832557D01*
X132041398Y-69873108D01*
X132041398Y-71444390D01*
X132021713Y-71511429D01*
X131988522Y-71545965D01*
X131870492Y-71628610D01*
X131703403Y-71795699D01*
X131567863Y-71989271D01*
X131567862Y-71989273D01*
X131467996Y-72203437D01*
X131467992Y-72203446D01*
X131406836Y-72431688D01*
X131406834Y-72431698D01*
X131386239Y-72667101D01*
X131386239Y-72667102D01*
X131406834Y-72902505D01*
X131406836Y-72902515D01*
X131467992Y-73130757D01*
X131467994Y-73130761D01*
X131467995Y-73130765D01*
X131562326Y-73333058D01*
X131567863Y-73344932D01*
X131567865Y-73344936D01*
X131676179Y-73499623D01*
X131703403Y-73538503D01*
X131870497Y-73705597D01*
X131967282Y-73773367D01*
X132064063Y-73841134D01*
X132064065Y-73841135D01*
X132064068Y-73841137D01*
X132278235Y-73941005D01*
X132506490Y-74002165D01*
X132694816Y-74018641D01*
X132741897Y-74022761D01*
X132741898Y-74022761D01*
X132741899Y-74022761D01*
X132781132Y-74019328D01*
X132977306Y-74002165D01*
X133205561Y-73941005D01*
X133419728Y-73841137D01*
X133613299Y-73705597D01*
X133725768Y-73593128D01*
X133787091Y-73559643D01*
X133856783Y-73564627D01*
X133912716Y-73606499D01*
X133937133Y-73671963D01*
X133937449Y-73680809D01*
X133937449Y-82370952D01*
X133917764Y-82437991D01*
X133901130Y-82458633D01*
X133397248Y-82962514D01*
X133375540Y-82979826D01*
X133231739Y-83070182D01*
X133104184Y-83197737D01*
X133008211Y-83350476D01*
X132948631Y-83520745D01*
X132948630Y-83520750D01*
X132928435Y-83699996D01*
X132928435Y-83700002D01*
X132937790Y-83783033D01*
X132925735Y-83851855D01*
X132878386Y-83903234D01*
X132876572Y-83904302D01*
X132850287Y-83919478D01*
X132850281Y-83919482D01*
X129421181Y-87348583D01*
X129359858Y-87382068D01*
X129290166Y-87377084D01*
X129234233Y-87335212D01*
X129209816Y-87269748D01*
X129209500Y-87260902D01*
X129209500Y-86200096D01*
X129229185Y-86133057D01*
X129245814Y-86112420D01*
X130859777Y-84498456D01*
X130921098Y-84464973D01*
X130990790Y-84469957D01*
X131013429Y-84481146D01*
X131084475Y-84525788D01*
X131254745Y-84585368D01*
X131254750Y-84585369D01*
X131433996Y-84605565D01*
X131434000Y-84605565D01*
X131434004Y-84605565D01*
X131613249Y-84585369D01*
X131613252Y-84585368D01*
X131613255Y-84585368D01*
X131783522Y-84525789D01*
X131936262Y-84429816D01*
X132063816Y-84302262D01*
X132159789Y-84149522D01*
X132219368Y-83979255D01*
X132219369Y-83979249D01*
X132239565Y-83800003D01*
X132239565Y-83799996D01*
X132219369Y-83620750D01*
X132219368Y-83620745D01*
X132202918Y-83573735D01*
X132159789Y-83450478D01*
X132151646Y-83437519D01*
X132096955Y-83350478D01*
X132063816Y-83297738D01*
X131936262Y-83170184D01*
X131783523Y-83074211D01*
X131613254Y-83014631D01*
X131613249Y-83014630D01*
X131434004Y-82994435D01*
X131433996Y-82994435D01*
X131254750Y-83014630D01*
X131254745Y-83014631D01*
X131084476Y-83074211D01*
X130931736Y-83170185D01*
X130928903Y-83172445D01*
X130926724Y-83173334D01*
X130925842Y-83173889D01*
X130925744Y-83173734D01*
X130864217Y-83198855D01*
X130851588Y-83199500D01*
X130629940Y-83199500D01*
X130589019Y-83210464D01*
X130589019Y-83210465D01*
X130551751Y-83220451D01*
X130477214Y-83240423D01*
X130477209Y-83240426D01*
X130340290Y-83319475D01*
X130340282Y-83319481D01*
X128128479Y-85531284D01*
X128112962Y-85558161D01*
X128106403Y-85569523D01*
X128080423Y-85614522D01*
X128049842Y-85667490D01*
X128049423Y-85668215D01*
X128008499Y-85820943D01*
X128008499Y-85820945D01*
X128008499Y-85989046D01*
X128008500Y-85989059D01*
X128008500Y-88164902D01*
X127988815Y-88231941D01*
X127972181Y-88252583D01*
X125146180Y-91078584D01*
X125084857Y-91112069D01*
X125015165Y-91107085D01*
X124959232Y-91065213D01*
X124934815Y-90999749D01*
X124934499Y-90990903D01*
X124934499Y-90052129D01*
X124934498Y-90052123D01*
X124934497Y-90052116D01*
X124928091Y-89992517D01*
X124921521Y-89974903D01*
X124877797Y-89857671D01*
X124877793Y-89857664D01*
X124791547Y-89742455D01*
X124791544Y-89742452D01*
X124676335Y-89656206D01*
X124676328Y-89656202D01*
X124541482Y-89605908D01*
X124541483Y-89605908D01*
X124481883Y-89599501D01*
X124481881Y-89599500D01*
X124481873Y-89599500D01*
X124481864Y-89599500D01*
X122686129Y-89599500D01*
X122686123Y-89599501D01*
X122626516Y-89605908D01*
X122491671Y-89656202D01*
X122491664Y-89656206D01*
X122376455Y-89742452D01*
X122376452Y-89742455D01*
X122290206Y-89857664D01*
X122290202Y-89857671D01*
X122239908Y-89992517D01*
X122234595Y-90041942D01*
X122233501Y-90052123D01*
X122233500Y-90052135D01*
X122233500Y-91847870D01*
X122233501Y-91847876D01*
X122239908Y-91907483D01*
X122290202Y-92042328D01*
X122290206Y-92042335D01*
X122376452Y-92157544D01*
X122376455Y-92157547D01*
X122491664Y-92243793D01*
X122491671Y-92243797D01*
X122623081Y-92292810D01*
X122679015Y-92334681D01*
X122703432Y-92400145D01*
X122688580Y-92468418D01*
X122667430Y-92496673D01*
X122545503Y-92618600D01*
X122409965Y-92812169D01*
X122409964Y-92812171D01*
X122310098Y-93026335D01*
X122310094Y-93026344D01*
X122248938Y-93254586D01*
X122248936Y-93254596D01*
X122228341Y-93489999D01*
X122228341Y-93490000D01*
X122248936Y-93725403D01*
X122248938Y-93725413D01*
X122310094Y-93953655D01*
X122310096Y-93953659D01*
X122310097Y-93953663D01*
X122389760Y-94124500D01*
X122409965Y-94167830D01*
X122409967Y-94167834D01*
X122452443Y-94228495D01*
X122545505Y-94361401D01*
X122712599Y-94528495D01*
X122737112Y-94545659D01*
X122906165Y-94664032D01*
X122906167Y-94664033D01*
X122906170Y-94664035D01*
X123120337Y-94763903D01*
X123348592Y-94825063D01*
X123536918Y-94841539D01*
X123583999Y-94845659D01*
X123584000Y-94845659D01*
X123584001Y-94845659D01*
X123623234Y-94842226D01*
X123819408Y-94825063D01*
X124047663Y-94763903D01*
X124261830Y-94664035D01*
X124455401Y-94528495D01*
X124622495Y-94361401D01*
X124758035Y-94167830D01*
X124857903Y-93953663D01*
X124919063Y-93725408D01*
X124939659Y-93490000D01*
X124919063Y-93254592D01*
X124884671Y-93126239D01*
X124886334Y-93056393D01*
X124916763Y-93006470D01*
X128441821Y-89481413D01*
X128503142Y-89447930D01*
X128572834Y-89452914D01*
X128628767Y-89494786D01*
X128653184Y-89560250D01*
X128653500Y-89569096D01*
X128653500Y-98954902D01*
X128633815Y-99021941D01*
X128617181Y-99042583D01*
X128521180Y-99138584D01*
X128459857Y-99172069D01*
X128390165Y-99167085D01*
X128334232Y-99125213D01*
X128309815Y-99059749D01*
X128309499Y-99050903D01*
X128309499Y-98112129D01*
X128309498Y-98112123D01*
X128309497Y-98112116D01*
X128303091Y-98052517D01*
X128302153Y-98050003D01*
X128252797Y-97917671D01*
X128252793Y-97917664D01*
X128166547Y-97802455D01*
X128166544Y-97802452D01*
X128051335Y-97716206D01*
X128051328Y-97716202D01*
X127916482Y-97665908D01*
X127916483Y-97665908D01*
X127856883Y-97659501D01*
X127856881Y-97659500D01*
X127856873Y-97659500D01*
X127856864Y-97659500D01*
X126061129Y-97659500D01*
X126061123Y-97659501D01*
X126001516Y-97665908D01*
X125866671Y-97716202D01*
X125866664Y-97716206D01*
X125751455Y-97802452D01*
X125751452Y-97802455D01*
X125665206Y-97917664D01*
X125665202Y-97917671D01*
X125614908Y-98052517D01*
X125608501Y-98112116D01*
X125608501Y-98112123D01*
X125608500Y-98112135D01*
X125608500Y-99907870D01*
X125608501Y-99907876D01*
X125614908Y-99967483D01*
X125665202Y-100102328D01*
X125665206Y-100102335D01*
X125751452Y-100217544D01*
X125751455Y-100217547D01*
X125866664Y-100303793D01*
X125866671Y-100303797D01*
X125998081Y-100352810D01*
X126054015Y-100394681D01*
X126078432Y-100460145D01*
X126063580Y-100528418D01*
X126042430Y-100556673D01*
X125920503Y-100678600D01*
X125784965Y-100872169D01*
X125784964Y-100872171D01*
X125685098Y-101086335D01*
X125685094Y-101086344D01*
X125623938Y-101314586D01*
X125623936Y-101314596D01*
X125603341Y-101549999D01*
X125603341Y-101550000D01*
X125623936Y-101785403D01*
X125623938Y-101785413D01*
X125685094Y-102013655D01*
X125685096Y-102013659D01*
X125685097Y-102013663D01*
X125742070Y-102135842D01*
X125784965Y-102227830D01*
X125784967Y-102227834D01*
X125920501Y-102421395D01*
X125920506Y-102421402D01*
X126087597Y-102588493D01*
X126087603Y-102588498D01*
X126273157Y-102718424D01*
X126316782Y-102773001D01*
X126323976Y-102842499D01*
X126292453Y-102904854D01*
X126273158Y-102921574D01*
X126087594Y-103051507D01*
X125920505Y-103218596D01*
X125784965Y-103412168D01*
X125784964Y-103412170D01*
X125685098Y-103626334D01*
X125685094Y-103626343D01*
X125623938Y-103854585D01*
X125623936Y-103854595D01*
X125603341Y-104089998D01*
X125603341Y-104089999D01*
X125623936Y-104325402D01*
X125623938Y-104325412D01*
X125685094Y-104553654D01*
X125685096Y-104553658D01*
X125685097Y-104553662D01*
X125741088Y-104673735D01*
X125784965Y-104767829D01*
X125784967Y-104767833D01*
X125920501Y-104961394D01*
X125920506Y-104961401D01*
X126087597Y-105128492D01*
X126087603Y-105128497D01*
X126273595Y-105258730D01*
X126317220Y-105313307D01*
X126324414Y-105382805D01*
X126292891Y-105445160D01*
X126273595Y-105461880D01*
X126087927Y-105591886D01*
X126087920Y-105591891D01*
X125920891Y-105758920D01*
X125920886Y-105758926D01*
X125785400Y-105952420D01*
X125785399Y-105952422D01*
X125685570Y-106166507D01*
X125685567Y-106166513D01*
X125628364Y-106379999D01*
X125628364Y-106380000D01*
X126525988Y-106380000D01*
X126493075Y-106437007D01*
X126459000Y-106564174D01*
X126459000Y-106695826D01*
X126493075Y-106822993D01*
X126525988Y-106880000D01*
X125628364Y-106880000D01*
X125685567Y-107093486D01*
X125685570Y-107093492D01*
X125785399Y-107307578D01*
X125920894Y-107501082D01*
X126087917Y-107668105D01*
X126281421Y-107803600D01*
X126495507Y-107903429D01*
X126495516Y-107903433D01*
X126709000Y-107960634D01*
X126709000Y-107063012D01*
X126766007Y-107095925D01*
X126893174Y-107130000D01*
X127024826Y-107130000D01*
X127151993Y-107095925D01*
X127209000Y-107063012D01*
X127209000Y-107960633D01*
X127422483Y-107903433D01*
X127422492Y-107903429D01*
X127636578Y-107803600D01*
X127830082Y-107668105D01*
X127997105Y-107501082D01*
X128132600Y-107307578D01*
X128232429Y-107093492D01*
X128232432Y-107093486D01*
X128289636Y-106880000D01*
X127392012Y-106880000D01*
X127424925Y-106822993D01*
X127459000Y-106695826D01*
X127459000Y-106564174D01*
X127424925Y-106437007D01*
X127392012Y-106380000D01*
X128289636Y-106380000D01*
X128289635Y-106379999D01*
X128232432Y-106166513D01*
X128232429Y-106166507D01*
X128132600Y-105952422D01*
X128132599Y-105952420D01*
X127997113Y-105758926D01*
X127997108Y-105758920D01*
X127830078Y-105591890D01*
X127644404Y-105461878D01*
X127600779Y-105407301D01*
X127593587Y-105337803D01*
X127625110Y-105275448D01*
X127644399Y-105258733D01*
X127830401Y-105128494D01*
X127879841Y-105079054D01*
X131058498Y-105079054D01*
X131099423Y-105231785D01*
X131118042Y-105264034D01*
X131128358Y-105281900D01*
X131128359Y-105281904D01*
X131128360Y-105281904D01*
X131178479Y-105368714D01*
X131178481Y-105368717D01*
X131297349Y-105487585D01*
X131297355Y-105487590D01*
X132540798Y-106731034D01*
X132574283Y-106792357D01*
X132576337Y-106804831D01*
X132586130Y-106891749D01*
X132645710Y-107062021D01*
X132688424Y-107130000D01*
X132741684Y-107214762D01*
X132869238Y-107342316D01*
X133021978Y-107438289D01*
X133192245Y-107497868D01*
X133192250Y-107497869D01*
X133371496Y-107518065D01*
X133371500Y-107518065D01*
X133371504Y-107518065D01*
X133550749Y-107497869D01*
X133550752Y-107497868D01*
X133550755Y-107497868D01*
X133721022Y-107438289D01*
X133873762Y-107342316D01*
X134001316Y-107214762D01*
X134097289Y-107062022D01*
X134156868Y-106891755D01*
X134156869Y-106891749D01*
X134177065Y-106712503D01*
X134177065Y-106712496D01*
X134156869Y-106533250D01*
X134156868Y-106533245D01*
X134149721Y-106512819D01*
X134097289Y-106362978D01*
X134001316Y-106210238D01*
X133873762Y-106082684D01*
X133823673Y-106051211D01*
X133721021Y-105986710D01*
X133550749Y-105927130D01*
X133463831Y-105917337D01*
X133399417Y-105890270D01*
X133390034Y-105881798D01*
X132295819Y-104787583D01*
X132262334Y-104726260D01*
X132259500Y-104699902D01*
X132259500Y-101874097D01*
X132279185Y-101807058D01*
X132331989Y-101761303D01*
X132401147Y-101751359D01*
X132464703Y-101780384D01*
X132471181Y-101786416D01*
X135322181Y-104637416D01*
X135355666Y-104698739D01*
X135358500Y-104725097D01*
X135358500Y-112821114D01*
X135338815Y-112888153D01*
X135322181Y-112908795D01*
X135053136Y-113177839D01*
X134991813Y-113211324D01*
X134933362Y-113209933D01*
X134805019Y-113175544D01*
X134805009Y-113175542D01*
X134569607Y-113154947D01*
X134569604Y-113154947D01*
X134525985Y-113158763D01*
X134457485Y-113144996D01*
X134407302Y-113096381D01*
X134391369Y-113028352D01*
X134402384Y-112983722D01*
X134460316Y-112856869D01*
X134460317Y-112856868D01*
X134480777Y-112714555D01*
X134460317Y-112572241D01*
X134460316Y-112572236D01*
X134400590Y-112441457D01*
X134363010Y-112394822D01*
X133904925Y-111936737D01*
X133904924Y-111936737D01*
X133256517Y-112585144D01*
X133239480Y-112521562D01*
X133173654Y-112407548D01*
X133080562Y-112314456D01*
X132966548Y-112248630D01*
X132902965Y-112231592D01*
X133551372Y-111583184D01*
X133551372Y-111583183D01*
X133093291Y-111125103D01*
X133093287Y-111125099D01*
X133046652Y-111087519D01*
X132915873Y-111027793D01*
X132915868Y-111027792D01*
X132773555Y-111007332D01*
X132631241Y-111027792D01*
X132631236Y-111027793D01*
X132500457Y-111087519D01*
X132453817Y-111125103D01*
X131995737Y-111583183D01*
X131995737Y-111583184D01*
X132644145Y-112231592D01*
X132580562Y-112248630D01*
X132466548Y-112314456D01*
X132373456Y-112407548D01*
X132307630Y-112521562D01*
X132290592Y-112585145D01*
X131642184Y-111936737D01*
X131642183Y-111936737D01*
X131184103Y-112394817D01*
X131146519Y-112441457D01*
X131086793Y-112572236D01*
X131086792Y-112572241D01*
X131066332Y-112714555D01*
X131086792Y-112856868D01*
X131086793Y-112856873D01*
X131146519Y-112987652D01*
X131184099Y-113034287D01*
X131642184Y-113492372D01*
X132290592Y-112843964D01*
X132307630Y-112907548D01*
X132373456Y-113021562D01*
X132466548Y-113114654D01*
X132580562Y-113180480D01*
X132644145Y-113197517D01*
X131995737Y-113845924D01*
X131995737Y-113845925D01*
X132453822Y-114304010D01*
X132500457Y-114341590D01*
X132631236Y-114401316D01*
X132631241Y-114401317D01*
X132773555Y-114421777D01*
X132915868Y-114401317D01*
X132915869Y-114401316D01*
X133042722Y-114343384D01*
X133111881Y-114333440D01*
X133175437Y-114362464D01*
X133213212Y-114421242D01*
X133217763Y-114466985D01*
X133213947Y-114510603D01*
X133213947Y-114510606D01*
X133234542Y-114746009D01*
X133234544Y-114746019D01*
X133295700Y-114974261D01*
X133295702Y-114974265D01*
X133295703Y-114974269D01*
X133346804Y-115083855D01*
X133395571Y-115188436D01*
X133395573Y-115188440D01*
X133436595Y-115247025D01*
X133531111Y-115382007D01*
X133698205Y-115549101D01*
X133733906Y-115574099D01*
X133891771Y-115684638D01*
X133891773Y-115684639D01*
X133891776Y-115684641D01*
X134105943Y-115784509D01*
X134334198Y-115845669D01*
X134522524Y-115862145D01*
X134569605Y-115866265D01*
X134569606Y-115866265D01*
X134569607Y-115866265D01*
X134608840Y-115862832D01*
X134805014Y-115845669D01*
X134905705Y-115818689D01*
X134975555Y-115820352D01*
X135033417Y-115859515D01*
X135060921Y-115923743D01*
X135057573Y-115970556D01*
X135030596Y-116071240D01*
X135030593Y-116071253D01*
X135009998Y-116306656D01*
X135009998Y-116306657D01*
X135030593Y-116542060D01*
X135030595Y-116542070D01*
X135091751Y-116770312D01*
X135091753Y-116770316D01*
X135091754Y-116770320D01*
X135176675Y-116952434D01*
X135191622Y-116984487D01*
X135191624Y-116984491D01*
X135262026Y-117085034D01*
X135327162Y-117178058D01*
X135494256Y-117345152D01*
X135561936Y-117392542D01*
X135687822Y-117480689D01*
X135687824Y-117480690D01*
X135687827Y-117480692D01*
X135901994Y-117580560D01*
X136130249Y-117641720D01*
X136318575Y-117658196D01*
X136365656Y-117662316D01*
X136365657Y-117662316D01*
X136365658Y-117662316D01*
X136404891Y-117658883D01*
X136601065Y-117641720D01*
X136829320Y-117580560D01*
X137043487Y-117480692D01*
X137237058Y-117345152D01*
X137404152Y-117178058D01*
X137457731Y-117101540D01*
X155188200Y-117101540D01*
X155188200Y-117248459D01*
X155216858Y-117392534D01*
X155216861Y-117392544D01*
X155273078Y-117528266D01*
X155273083Y-117528275D01*
X155354698Y-117650419D01*
X155354701Y-117650423D01*
X155458576Y-117754298D01*
X155458580Y-117754301D01*
X155580724Y-117835916D01*
X155580730Y-117835919D01*
X155580731Y-117835920D01*
X155716458Y-117892140D01*
X155860540Y-117920799D01*
X155860544Y-117920800D01*
X155860545Y-117920800D01*
X156007456Y-117920800D01*
X156007457Y-117920799D01*
X156151542Y-117892140D01*
X156287269Y-117835920D01*
X156409420Y-117754301D01*
X156513301Y-117650420D01*
X156594920Y-117528269D01*
X156651140Y-117392542D01*
X156679800Y-117248455D01*
X156679800Y-117101545D01*
X156651140Y-116957458D01*
X156594920Y-116821731D01*
X156594919Y-116821730D01*
X156594916Y-116821724D01*
X156513301Y-116699580D01*
X156513298Y-116699576D01*
X156409423Y-116595701D01*
X156409419Y-116595698D01*
X156287275Y-116514083D01*
X156287266Y-116514078D01*
X156151544Y-116457861D01*
X156151545Y-116457861D01*
X156151542Y-116457860D01*
X156151538Y-116457859D01*
X156151534Y-116457858D01*
X156007459Y-116429200D01*
X156007455Y-116429200D01*
X155860545Y-116429200D01*
X155860540Y-116429200D01*
X155716465Y-116457858D01*
X155716455Y-116457861D01*
X155580733Y-116514078D01*
X155580724Y-116514083D01*
X155458580Y-116595698D01*
X155458576Y-116595701D01*
X155354701Y-116699576D01*
X155354698Y-116699580D01*
X155273083Y-116821724D01*
X155273078Y-116821733D01*
X155216861Y-116957455D01*
X155216858Y-116957465D01*
X155188200Y-117101540D01*
X137457731Y-117101540D01*
X137539692Y-116984487D01*
X137639560Y-116770320D01*
X137700720Y-116542065D01*
X137721316Y-116306657D01*
X137701950Y-116085307D01*
X137715716Y-116016808D01*
X137764332Y-115966625D01*
X137825478Y-115950500D01*
X170542481Y-115950500D01*
X170609520Y-115970185D01*
X170630162Y-115986819D01*
X171519110Y-116875768D01*
X171519111Y-116875769D01*
X171633849Y-116952434D01*
X171761324Y-117005235D01*
X171761329Y-117005237D01*
X171761333Y-117005237D01*
X171761334Y-117005238D01*
X171896660Y-117032157D01*
X171896663Y-117032157D01*
X171896664Y-117032157D01*
X175154632Y-117032157D01*
X175221671Y-117051842D01*
X175256207Y-117085034D01*
X175338848Y-117203059D01*
X175480940Y-117345150D01*
X175505942Y-117370152D01*
X175602727Y-117437922D01*
X175699508Y-117505689D01*
X175699510Y-117505690D01*
X175699513Y-117505692D01*
X175913680Y-117605560D01*
X176141935Y-117666720D01*
X176330261Y-117683196D01*
X176377342Y-117687316D01*
X176377343Y-117687316D01*
X176377344Y-117687316D01*
X176416577Y-117683883D01*
X176612751Y-117666720D01*
X176841006Y-117605560D01*
X177055173Y-117505692D01*
X177248744Y-117370152D01*
X177415838Y-117203058D01*
X177551378Y-117009487D01*
X177651246Y-116795320D01*
X177712406Y-116567065D01*
X177733002Y-116331657D01*
X177712406Y-116096249D01*
X177685426Y-115995557D01*
X177687089Y-115925707D01*
X177726252Y-115867845D01*
X177790480Y-115840341D01*
X177837294Y-115843689D01*
X177937986Y-115870669D01*
X178126312Y-115887145D01*
X178173393Y-115891265D01*
X178173394Y-115891265D01*
X178173395Y-115891265D01*
X178212628Y-115887832D01*
X178408802Y-115870669D01*
X178637057Y-115809509D01*
X178851224Y-115709641D01*
X179044795Y-115574101D01*
X179211889Y-115407007D01*
X179347429Y-115213436D01*
X179447297Y-114999269D01*
X179508457Y-114771014D01*
X179529053Y-114535606D01*
X179525236Y-114491984D01*
X179539002Y-114423487D01*
X179587616Y-114373303D01*
X179655644Y-114357369D01*
X179700276Y-114368384D01*
X179827127Y-114426316D01*
X179827131Y-114426317D01*
X179969445Y-114446777D01*
X180111758Y-114426317D01*
X180111763Y-114426316D01*
X180242542Y-114366590D01*
X180289177Y-114329010D01*
X180747262Y-113870925D01*
X180747262Y-113870924D01*
X180098854Y-113222517D01*
X180162438Y-113205480D01*
X180276452Y-113139654D01*
X180369544Y-113046562D01*
X180435370Y-112932548D01*
X180452407Y-112868964D01*
X181100814Y-113517372D01*
X181100815Y-113517372D01*
X181558900Y-113059287D01*
X181596480Y-113012652D01*
X181656206Y-112881873D01*
X181656207Y-112881868D01*
X181676667Y-112739555D01*
X181656207Y-112597241D01*
X181656206Y-112597236D01*
X181596480Y-112466457D01*
X181558900Y-112419822D01*
X181100815Y-111961737D01*
X181100814Y-111961737D01*
X180452407Y-112610144D01*
X180435370Y-112546562D01*
X180369544Y-112432548D01*
X180276452Y-112339456D01*
X180162438Y-112273630D01*
X180098855Y-112256592D01*
X180747262Y-111608184D01*
X180747262Y-111608183D01*
X180289181Y-111150103D01*
X180289177Y-111150099D01*
X180242542Y-111112519D01*
X180111763Y-111052793D01*
X180111758Y-111052792D01*
X179969445Y-111032332D01*
X179827131Y-111052792D01*
X179827126Y-111052793D01*
X179696347Y-111112519D01*
X179649707Y-111150103D01*
X179191627Y-111608183D01*
X179191627Y-111608184D01*
X179840035Y-112256592D01*
X179776452Y-112273630D01*
X179662438Y-112339456D01*
X179569346Y-112432548D01*
X179503520Y-112546562D01*
X179486482Y-112610145D01*
X178838074Y-111961737D01*
X178838073Y-111961737D01*
X178379993Y-112419817D01*
X178342409Y-112466457D01*
X178282683Y-112597236D01*
X178282682Y-112597241D01*
X178262222Y-112739555D01*
X178282682Y-112881868D01*
X178282683Y-112881872D01*
X178340615Y-113008723D01*
X178350559Y-113077882D01*
X178321534Y-113141437D01*
X178262756Y-113179212D01*
X178217014Y-113183763D01*
X178173396Y-113179947D01*
X178173393Y-113179947D01*
X177937990Y-113200542D01*
X177937980Y-113200544D01*
X177809637Y-113234933D01*
X177739787Y-113233270D01*
X177689863Y-113202839D01*
X171450378Y-106963355D01*
X171450376Y-106963352D01*
X171331505Y-106844481D01*
X171331504Y-106844480D01*
X171220722Y-106780520D01*
X171220722Y-106780519D01*
X171220717Y-106780518D01*
X171211594Y-106775250D01*
X171194574Y-106765423D01*
X171156391Y-106755192D01*
X171041845Y-106724499D01*
X170883731Y-106724499D01*
X170876135Y-106724499D01*
X170876119Y-106724500D01*
X159966107Y-106724500D01*
X159899068Y-106704815D01*
X159853313Y-106652011D01*
X159842887Y-106586617D01*
X159863830Y-106400738D01*
X159863830Y-106400731D01*
X159843634Y-106221485D01*
X159843633Y-106221480D01*
X159784053Y-106051211D01*
X159721978Y-105952420D01*
X159688081Y-105898473D01*
X159560527Y-105770919D01*
X159541431Y-105758920D01*
X159407786Y-105674945D01*
X159237514Y-105615365D01*
X159150595Y-105605572D01*
X159086181Y-105578505D01*
X159076798Y-105570033D01*
X158143946Y-104637181D01*
X158110461Y-104575858D01*
X158115445Y-104506166D01*
X158157317Y-104450233D01*
X158222781Y-104425816D01*
X158231627Y-104425500D01*
X160372331Y-104425500D01*
X160372347Y-104425501D01*
X160379943Y-104425501D01*
X160538054Y-104425501D01*
X160538057Y-104425501D01*
X160690785Y-104384577D01*
X160740904Y-104355639D01*
X160827716Y-104305520D01*
X160939520Y-104193716D01*
X160939520Y-104193714D01*
X160949728Y-104183507D01*
X160949729Y-104183504D01*
X164239520Y-100893716D01*
X164318577Y-100756784D01*
X164359501Y-100604057D01*
X164359501Y-100445942D01*
X164359501Y-100438347D01*
X164359500Y-100438329D01*
X164359500Y-97825096D01*
X164379185Y-97758057D01*
X164395815Y-97737419D01*
X164594569Y-97538665D01*
X164655891Y-97505181D01*
X164725583Y-97510165D01*
X164781516Y-97552037D01*
X164805933Y-97617501D01*
X164805777Y-97637154D01*
X164803341Y-97664997D01*
X164803341Y-97665000D01*
X164823936Y-97900403D01*
X164823938Y-97900413D01*
X164885094Y-98128655D01*
X164885096Y-98128659D01*
X164885097Y-98128663D01*
X164932004Y-98229255D01*
X164984965Y-98342830D01*
X164984967Y-98342834D01*
X165120501Y-98536395D01*
X165120506Y-98536402D01*
X165287597Y-98703493D01*
X165287603Y-98703498D01*
X165473158Y-98833425D01*
X165516783Y-98888002D01*
X165523977Y-98957500D01*
X165492454Y-99019855D01*
X165473158Y-99036575D01*
X165287597Y-99166505D01*
X165120505Y-99333597D01*
X164984965Y-99527169D01*
X164984964Y-99527171D01*
X164885098Y-99741335D01*
X164885094Y-99741344D01*
X164823938Y-99969586D01*
X164823936Y-99969596D01*
X164803341Y-100204999D01*
X164803341Y-100205000D01*
X164823936Y-100440403D01*
X164823938Y-100440413D01*
X164885094Y-100668655D01*
X164885096Y-100668659D01*
X164885097Y-100668663D01*
X164950174Y-100808221D01*
X164984965Y-100882830D01*
X164984967Y-100882834D01*
X165093281Y-101037521D01*
X165101949Y-101049901D01*
X165120501Y-101076395D01*
X165120506Y-101076402D01*
X165287597Y-101243493D01*
X165287603Y-101243498D01*
X165473158Y-101373425D01*
X165516783Y-101428002D01*
X165523977Y-101497500D01*
X165492454Y-101559855D01*
X165473158Y-101576575D01*
X165287597Y-101706505D01*
X165120505Y-101873597D01*
X164984965Y-102067169D01*
X164984964Y-102067171D01*
X164885098Y-102281335D01*
X164885094Y-102281344D01*
X164823938Y-102509586D01*
X164823936Y-102509596D01*
X164803341Y-102744999D01*
X164803341Y-102745000D01*
X164823936Y-102980403D01*
X164823938Y-102980413D01*
X164885094Y-103208655D01*
X164885096Y-103208659D01*
X164885097Y-103208663D01*
X164892482Y-103224500D01*
X164984965Y-103422830D01*
X164984967Y-103422834D01*
X165093281Y-103577521D01*
X165120505Y-103616401D01*
X165287599Y-103783495D01*
X165384384Y-103851265D01*
X165481165Y-103919032D01*
X165481167Y-103919033D01*
X165481170Y-103919035D01*
X165695337Y-104018903D01*
X165923592Y-104080063D01*
X166111918Y-104096539D01*
X166158999Y-104100659D01*
X166159000Y-104100659D01*
X166159001Y-104100659D01*
X166198234Y-104097226D01*
X166394408Y-104080063D01*
X166622663Y-104018903D01*
X166836830Y-103919035D01*
X167030401Y-103783495D01*
X167197495Y-103616401D01*
X167333035Y-103422830D01*
X167432903Y-103208663D01*
X167494063Y-102980408D01*
X167514659Y-102745000D01*
X167494063Y-102509592D01*
X167432903Y-102281337D01*
X167333035Y-102067171D01*
X167295570Y-102013664D01*
X167197494Y-101873597D01*
X167030402Y-101706506D01*
X167030396Y-101706501D01*
X166844842Y-101576575D01*
X166801217Y-101521998D01*
X166794023Y-101452500D01*
X166825546Y-101390145D01*
X166844842Y-101373425D01*
X166928867Y-101314590D01*
X167030401Y-101243495D01*
X167197495Y-101076401D01*
X167333035Y-100882830D01*
X167432903Y-100668663D01*
X167494063Y-100440408D01*
X167514659Y-100205000D01*
X167494063Y-99969592D01*
X167432903Y-99741337D01*
X167333035Y-99527171D01*
X167314563Y-99500789D01*
X167197494Y-99333597D01*
X167030402Y-99166506D01*
X167030396Y-99166501D01*
X166844842Y-99036575D01*
X166801217Y-98981998D01*
X166794023Y-98912500D01*
X166825546Y-98850145D01*
X166844842Y-98833425D01*
X166867026Y-98817891D01*
X167030401Y-98703495D01*
X167197495Y-98536401D01*
X167333035Y-98342830D01*
X167432903Y-98128663D01*
X167494063Y-97900408D01*
X167514659Y-97665000D01*
X167494063Y-97429592D01*
X167432903Y-97201337D01*
X167333035Y-96987171D01*
X167319674Y-96968090D01*
X167197496Y-96793600D01*
X167197495Y-96793599D01*
X167075567Y-96671671D01*
X167042084Y-96610351D01*
X167047068Y-96540659D01*
X167088939Y-96484725D01*
X167119915Y-96467810D01*
X167251331Y-96418796D01*
X167366546Y-96332546D01*
X167452796Y-96217331D01*
X167503091Y-96082483D01*
X167509500Y-96022873D01*
X167509499Y-94227128D01*
X167503091Y-94167517D01*
X167480362Y-94106578D01*
X167452797Y-94032671D01*
X167452793Y-94032664D01*
X167366547Y-93917455D01*
X167366544Y-93917452D01*
X167251335Y-93831206D01*
X167251328Y-93831202D01*
X167116482Y-93780908D01*
X167116483Y-93780908D01*
X167056883Y-93774501D01*
X167056881Y-93774500D01*
X167056873Y-93774500D01*
X167056864Y-93774500D01*
X165261129Y-93774500D01*
X165261123Y-93774501D01*
X165201516Y-93780908D01*
X165066671Y-93831202D01*
X165066664Y-93831206D01*
X164951455Y-93917452D01*
X164951452Y-93917455D01*
X164865206Y-94032664D01*
X164865202Y-94032671D01*
X164814908Y-94167517D01*
X164808501Y-94227116D01*
X164808501Y-94227123D01*
X164808500Y-94227135D01*
X164808500Y-95574901D01*
X164788815Y-95641940D01*
X164772181Y-95662582D01*
X163390286Y-97044478D01*
X163278481Y-97156282D01*
X163278479Y-97156285D01*
X163234891Y-97231784D01*
X163234889Y-97231786D01*
X163199425Y-97293209D01*
X163199423Y-97293212D01*
X163178951Y-97369615D01*
X163158499Y-97445943D01*
X163158499Y-97445945D01*
X163158499Y-97614046D01*
X163158500Y-97614059D01*
X163158500Y-100224902D01*
X163138815Y-100291941D01*
X163122181Y-100312583D01*
X160246584Y-103188181D01*
X160185261Y-103221666D01*
X160158903Y-103224500D01*
X149709097Y-103224500D01*
X149642058Y-103204815D01*
X149621416Y-103188181D01*
X143470819Y-97037584D01*
X143437334Y-96976261D01*
X143434500Y-96949903D01*
X143434500Y-95674098D01*
X143454185Y-95607059D01*
X143506989Y-95561304D01*
X143576147Y-95551360D01*
X143639703Y-95580385D01*
X143646181Y-95586417D01*
X143665284Y-95605520D01*
X143665286Y-95605521D01*
X143665290Y-95605524D01*
X143802209Y-95684573D01*
X143802216Y-95684577D01*
X143914019Y-95714534D01*
X143954942Y-95725500D01*
X143954943Y-95725500D01*
X146754943Y-95725500D01*
X147478703Y-95725500D01*
X147478719Y-95725501D01*
X147486315Y-95725501D01*
X147644426Y-95725501D01*
X147644429Y-95725501D01*
X147797157Y-95684577D01*
X147849676Y-95654255D01*
X147849677Y-95654255D01*
X147934081Y-95605524D01*
X147934080Y-95605524D01*
X147934088Y-95605520D01*
X148045892Y-95493716D01*
X148045892Y-95493714D01*
X148056096Y-95483511D01*
X148056099Y-95483506D01*
X150167705Y-93371902D01*
X150226264Y-93313343D01*
X150226276Y-93313329D01*
X153019916Y-90519691D01*
X153081238Y-90486207D01*
X153150930Y-90491191D01*
X153206863Y-90533063D01*
X153231280Y-90598527D01*
X153231124Y-90618178D01*
X153228341Y-90649994D01*
X153228341Y-90650000D01*
X153248936Y-90885403D01*
X153248938Y-90885413D01*
X153310094Y-91113655D01*
X153310096Y-91113659D01*
X153310097Y-91113663D01*
X153382165Y-91268213D01*
X153409965Y-91327830D01*
X153409967Y-91327834D01*
X153545501Y-91521395D01*
X153545506Y-91521402D01*
X153712597Y-91688493D01*
X153712603Y-91688498D01*
X153898158Y-91818425D01*
X153941783Y-91873002D01*
X153948977Y-91942500D01*
X153917454Y-92004855D01*
X153898158Y-92021575D01*
X153712597Y-92151505D01*
X153545505Y-92318597D01*
X153409965Y-92512169D01*
X153409964Y-92512171D01*
X153310098Y-92726335D01*
X153310094Y-92726344D01*
X153248938Y-92954586D01*
X153248936Y-92954596D01*
X153228341Y-93189999D01*
X153228341Y-93190000D01*
X153248936Y-93425403D01*
X153248938Y-93425413D01*
X153310094Y-93653655D01*
X153310096Y-93653659D01*
X153310097Y-93653663D01*
X153390361Y-93825789D01*
X153409965Y-93867830D01*
X153409967Y-93867834D01*
X153518281Y-94022521D01*
X153545505Y-94061401D01*
X153712599Y-94228495D01*
X153809384Y-94296265D01*
X153906165Y-94364032D01*
X153906167Y-94364033D01*
X153906170Y-94364035D01*
X154120337Y-94463903D01*
X154348592Y-94525063D01*
X154536918Y-94541539D01*
X154583999Y-94545659D01*
X154584000Y-94545659D01*
X154584001Y-94545659D01*
X154623234Y-94542226D01*
X154819408Y-94525063D01*
X155047663Y-94463903D01*
X155261830Y-94364035D01*
X155455401Y-94228495D01*
X155622495Y-94061401D01*
X155752425Y-93875842D01*
X155807002Y-93832217D01*
X155876500Y-93825023D01*
X155938855Y-93856546D01*
X155955575Y-93875842D01*
X156085500Y-94061395D01*
X156085505Y-94061401D01*
X156252599Y-94228495D01*
X156349384Y-94296265D01*
X156446165Y-94364032D01*
X156446167Y-94364033D01*
X156446170Y-94364035D01*
X156660337Y-94463903D01*
X156888592Y-94525063D01*
X157076918Y-94541539D01*
X157123999Y-94545659D01*
X157124000Y-94545659D01*
X157124001Y-94545659D01*
X157163234Y-94542226D01*
X157359408Y-94525063D01*
X157587663Y-94463903D01*
X157801830Y-94364035D01*
X157995401Y-94228495D01*
X158162495Y-94061401D01*
X158298035Y-93867830D01*
X158397903Y-93653663D01*
X158459063Y-93425408D01*
X158479659Y-93190000D01*
X158459063Y-92954592D01*
X158397903Y-92726337D01*
X158363193Y-92651903D01*
X158352702Y-92582828D01*
X158381221Y-92519044D01*
X158439698Y-92480804D01*
X158475576Y-92475500D01*
X159547331Y-92475500D01*
X159547347Y-92475501D01*
X159554943Y-92475501D01*
X159713054Y-92475501D01*
X159713057Y-92475501D01*
X159865785Y-92434577D01*
X159921756Y-92402262D01*
X160002716Y-92355520D01*
X160114520Y-92243716D01*
X160114520Y-92243714D01*
X160124724Y-92233511D01*
X160124727Y-92233506D01*
X164171417Y-88186819D01*
X164232740Y-88153334D01*
X164259098Y-88150500D01*
X164876588Y-88150500D01*
X164943627Y-88170185D01*
X164953903Y-88177555D01*
X164956736Y-88179814D01*
X164956738Y-88179816D01*
X165109478Y-88275789D01*
X165212609Y-88311876D01*
X165279745Y-88335368D01*
X165279750Y-88335369D01*
X165458996Y-88355565D01*
X165459000Y-88355565D01*
X165459001Y-88355565D01*
X165467324Y-88354627D01*
X165520617Y-88348622D01*
X165589437Y-88360676D01*
X165640817Y-88408024D01*
X165658500Y-88471842D01*
X165658500Y-90124903D01*
X165638815Y-90191942D01*
X165622181Y-90212584D01*
X157696584Y-98138181D01*
X157635261Y-98171666D01*
X157608903Y-98174500D01*
X156517955Y-98174500D01*
X156450916Y-98154815D01*
X156405161Y-98102011D01*
X156395217Y-98032853D01*
X156424242Y-97969297D01*
X156477000Y-97933458D01*
X156484769Y-97930739D01*
X156649396Y-97873134D01*
X156802136Y-97777161D01*
X156929690Y-97649607D01*
X157025663Y-97496867D01*
X157085242Y-97326600D01*
X157089004Y-97293212D01*
X157105439Y-97147348D01*
X157105439Y-97147341D01*
X157085243Y-96968095D01*
X157085242Y-96968090D01*
X157052501Y-96874522D01*
X157025663Y-96797823D01*
X156929690Y-96645083D01*
X156802136Y-96517529D01*
X156735246Y-96475499D01*
X156649397Y-96421556D01*
X156479128Y-96361976D01*
X156479123Y-96361975D01*
X156299878Y-96341780D01*
X156299870Y-96341780D01*
X156120624Y-96361975D01*
X156120611Y-96361978D01*
X156033270Y-96392541D01*
X155992315Y-96399500D01*
X153688057Y-96399500D01*
X153529943Y-96399500D01*
X153474420Y-96414376D01*
X153457026Y-96419037D01*
X153411058Y-96422482D01*
X153384002Y-96419435D01*
X153383996Y-96419435D01*
X153204750Y-96439630D01*
X153204745Y-96439631D01*
X153034476Y-96499211D01*
X152875842Y-96598889D01*
X152874402Y-96596598D01*
X152821096Y-96618346D01*
X152752404Y-96605573D01*
X152701522Y-96557690D01*
X152684500Y-96494987D01*
X152684500Y-95120945D01*
X152684499Y-95120941D01*
X152679415Y-95101967D01*
X152664404Y-95045942D01*
X152643577Y-94968215D01*
X152606649Y-94904255D01*
X152564520Y-94831284D01*
X152452716Y-94719480D01*
X152452715Y-94719479D01*
X152448385Y-94715149D01*
X152448374Y-94715139D01*
X152239700Y-94506465D01*
X152206215Y-94445142D01*
X152204163Y-94432686D01*
X152194368Y-94345745D01*
X152134789Y-94175478D01*
X152038816Y-94022738D01*
X151911262Y-93895184D01*
X151895640Y-93885368D01*
X151758523Y-93799211D01*
X151588254Y-93739631D01*
X151588249Y-93739630D01*
X151409004Y-93719435D01*
X151408996Y-93719435D01*
X151229750Y-93739630D01*
X151229745Y-93739631D01*
X151059476Y-93799211D01*
X150906737Y-93895184D01*
X150779184Y-94022737D01*
X150683211Y-94175476D01*
X150623631Y-94345745D01*
X150623630Y-94345750D01*
X150603435Y-94524996D01*
X150603435Y-94525003D01*
X150623630Y-94704249D01*
X150623631Y-94704254D01*
X150683211Y-94874523D01*
X150744924Y-94972738D01*
X150779184Y-95027262D01*
X150906738Y-95154816D01*
X151059478Y-95250789D01*
X151229745Y-95310368D01*
X151316669Y-95320161D01*
X151381080Y-95347226D01*
X151390465Y-95355700D01*
X151447181Y-95412416D01*
X151480666Y-95473739D01*
X151483500Y-95500097D01*
X151483500Y-97325500D01*
X151463815Y-97392539D01*
X151411011Y-97438294D01*
X151359500Y-97449500D01*
X146766412Y-97449500D01*
X146699373Y-97429815D01*
X146689097Y-97422445D01*
X146686263Y-97420185D01*
X146686262Y-97420184D01*
X146596182Y-97363583D01*
X146533523Y-97324211D01*
X146363254Y-97264631D01*
X146363249Y-97264630D01*
X146184004Y-97244435D01*
X146183996Y-97244435D01*
X146004750Y-97264630D01*
X146004745Y-97264631D01*
X145834476Y-97324211D01*
X145681737Y-97420184D01*
X145554184Y-97547737D01*
X145458211Y-97700476D01*
X145398631Y-97870745D01*
X145398630Y-97870750D01*
X145378435Y-98049996D01*
X145378435Y-98050003D01*
X145398630Y-98229249D01*
X145398631Y-98229254D01*
X145458211Y-98399523D01*
X145544214Y-98536395D01*
X145554184Y-98552262D01*
X145681738Y-98679816D01*
X145772080Y-98736582D01*
X145832426Y-98774500D01*
X145834478Y-98775789D01*
X145999192Y-98833425D01*
X146004745Y-98835368D01*
X146004750Y-98835369D01*
X146183996Y-98855565D01*
X146184000Y-98855565D01*
X146184004Y-98855565D01*
X146363249Y-98835369D01*
X146363252Y-98835368D01*
X146363255Y-98835368D01*
X146533522Y-98775789D01*
X146686262Y-98679816D01*
X146686267Y-98679810D01*
X146689097Y-98677555D01*
X146691275Y-98676665D01*
X146692158Y-98676111D01*
X146692255Y-98676265D01*
X146753783Y-98651145D01*
X146766412Y-98650500D01*
X151359500Y-98650500D01*
X151426539Y-98670185D01*
X151472294Y-98722989D01*
X151483500Y-98774500D01*
X151483500Y-99975500D01*
X151463815Y-100042539D01*
X151411011Y-100088294D01*
X151359501Y-100099500D01*
X151186130Y-100099500D01*
X151186123Y-100099501D01*
X151126516Y-100105908D01*
X150991671Y-100156202D01*
X150991664Y-100156206D01*
X150876455Y-100242452D01*
X150876452Y-100242455D01*
X150790206Y-100357664D01*
X150790202Y-100357671D01*
X150739908Y-100492517D01*
X150733501Y-100552116D01*
X150733500Y-100552135D01*
X150733500Y-102347870D01*
X150733501Y-102347876D01*
X150739908Y-102407483D01*
X150790202Y-102542328D01*
X150790206Y-102542335D01*
X150876452Y-102657544D01*
X150876455Y-102657547D01*
X150991664Y-102743793D01*
X150991671Y-102743797D01*
X151126517Y-102794091D01*
X151126516Y-102794091D01*
X151133444Y-102794835D01*
X151186127Y-102800500D01*
X152981872Y-102800499D01*
X153041483Y-102794091D01*
X153176331Y-102743796D01*
X153291546Y-102657546D01*
X153377796Y-102542331D01*
X153426810Y-102410916D01*
X153468681Y-102354984D01*
X153534145Y-102330566D01*
X153602418Y-102345417D01*
X153630673Y-102366569D01*
X153752599Y-102488495D01*
X153849384Y-102556265D01*
X153946165Y-102624032D01*
X153946167Y-102624033D01*
X153946170Y-102624035D01*
X154160337Y-102723903D01*
X154160343Y-102723904D01*
X154160344Y-102723905D01*
X154215285Y-102738626D01*
X154388592Y-102785063D01*
X154565034Y-102800500D01*
X154623999Y-102805659D01*
X154624000Y-102805659D01*
X154624001Y-102805659D01*
X154682966Y-102800500D01*
X154859408Y-102785063D01*
X155087663Y-102723903D01*
X155301830Y-102624035D01*
X155495401Y-102488495D01*
X155662495Y-102321401D01*
X155792424Y-102135842D01*
X155847001Y-102092218D01*
X155916499Y-102085024D01*
X155978854Y-102116547D01*
X155995574Y-102135842D01*
X156125504Y-102321401D01*
X156292598Y-102488495D01*
X156389383Y-102556265D01*
X156486164Y-102624032D01*
X156486166Y-102624033D01*
X156486169Y-102624035D01*
X156700336Y-102723903D01*
X156700342Y-102723904D01*
X156700343Y-102723905D01*
X156755284Y-102738626D01*
X156928591Y-102785063D01*
X157105033Y-102800500D01*
X157163998Y-102805659D01*
X157163999Y-102805659D01*
X157164000Y-102805659D01*
X157222965Y-102800500D01*
X157399407Y-102785063D01*
X157627662Y-102723903D01*
X157841829Y-102624035D01*
X158035400Y-102488495D01*
X158202494Y-102321401D01*
X158332731Y-102135403D01*
X158387306Y-102091780D01*
X158456804Y-102084586D01*
X158519159Y-102116109D01*
X158535878Y-102135404D01*
X158665890Y-102321078D01*
X158832917Y-102488105D01*
X159026421Y-102623600D01*
X159240507Y-102723429D01*
X159240516Y-102723433D01*
X159454000Y-102780634D01*
X159454000Y-101883012D01*
X159511007Y-101915925D01*
X159638174Y-101950000D01*
X159769826Y-101950000D01*
X159896993Y-101915925D01*
X159954000Y-101883012D01*
X159954000Y-102780633D01*
X160167483Y-102723433D01*
X160167492Y-102723429D01*
X160381578Y-102623600D01*
X160575082Y-102488105D01*
X160742105Y-102321082D01*
X160877600Y-102127578D01*
X160977429Y-101913492D01*
X160977432Y-101913486D01*
X161034636Y-101700000D01*
X160137012Y-101700000D01*
X160169925Y-101642993D01*
X160204000Y-101515826D01*
X160204000Y-101384174D01*
X160169925Y-101257007D01*
X160137012Y-101200000D01*
X161034636Y-101200000D01*
X161034635Y-101199999D01*
X160977432Y-100986513D01*
X160977429Y-100986507D01*
X160877600Y-100772422D01*
X160877599Y-100772420D01*
X160742113Y-100578926D01*
X160742108Y-100578920D01*
X160575082Y-100411894D01*
X160381578Y-100276399D01*
X160167492Y-100176570D01*
X160167486Y-100176567D01*
X159954000Y-100119364D01*
X159954000Y-101016988D01*
X159896993Y-100984075D01*
X159769826Y-100950000D01*
X159638174Y-100950000D01*
X159511007Y-100984075D01*
X159454000Y-101016988D01*
X159454000Y-100119364D01*
X159453999Y-100119364D01*
X159240513Y-100176567D01*
X159240507Y-100176570D01*
X159026422Y-100276399D01*
X159026420Y-100276400D01*
X158832926Y-100411886D01*
X158832920Y-100411891D01*
X158665891Y-100578920D01*
X158665890Y-100578922D01*
X158535879Y-100764596D01*
X158481302Y-100808221D01*
X158411803Y-100815413D01*
X158349449Y-100783891D01*
X158332729Y-100764595D01*
X158332422Y-100764157D01*
X158272515Y-100678600D01*
X158202493Y-100578597D01*
X158035401Y-100411506D01*
X158035394Y-100411501D01*
X157841833Y-100275967D01*
X157841829Y-100275965D01*
X157841827Y-100275964D01*
X157627662Y-100176097D01*
X157627658Y-100176096D01*
X157627654Y-100176094D01*
X157399412Y-100114938D01*
X157399402Y-100114936D01*
X157164000Y-100094341D01*
X157163998Y-100094341D01*
X156928595Y-100114936D01*
X156928585Y-100114938D01*
X156700343Y-100176094D01*
X156700334Y-100176098D01*
X156486170Y-100275964D01*
X156486168Y-100275965D01*
X156292596Y-100411505D01*
X156125507Y-100578594D01*
X155995574Y-100764158D01*
X155940997Y-100807782D01*
X155871498Y-100814975D01*
X155809144Y-100783453D01*
X155792424Y-100764157D01*
X155662494Y-100578597D01*
X155495402Y-100411506D01*
X155495395Y-100411501D01*
X155301834Y-100275967D01*
X155301830Y-100275965D01*
X155301828Y-100275964D01*
X155087663Y-100176097D01*
X155087659Y-100176096D01*
X155087655Y-100176094D01*
X154859413Y-100114938D01*
X154859403Y-100114936D01*
X154624001Y-100094341D01*
X154623999Y-100094341D01*
X154388596Y-100114936D01*
X154388586Y-100114938D01*
X154160344Y-100176094D01*
X154160335Y-100176098D01*
X153946171Y-100275964D01*
X153946169Y-100275965D01*
X153752600Y-100411503D01*
X153630673Y-100533430D01*
X153569350Y-100566914D01*
X153499658Y-100561930D01*
X153443725Y-100520058D01*
X153426810Y-100489081D01*
X153377797Y-100357671D01*
X153377793Y-100357664D01*
X153291547Y-100242455D01*
X153291544Y-100242452D01*
X153176335Y-100156206D01*
X153176328Y-100156202D01*
X153041482Y-100105908D01*
X153041483Y-100105908D01*
X152981883Y-100099501D01*
X152981881Y-100099500D01*
X152981873Y-100099500D01*
X152981865Y-100099500D01*
X152808500Y-100099500D01*
X152741461Y-100079815D01*
X152695706Y-100027011D01*
X152684500Y-99975500D01*
X152684500Y-99696842D01*
X152704185Y-99629803D01*
X152756989Y-99584048D01*
X152822382Y-99573622D01*
X152875675Y-99579627D01*
X152883999Y-99580565D01*
X152884000Y-99580565D01*
X152884004Y-99580565D01*
X153063249Y-99560369D01*
X153063252Y-99560368D01*
X153063255Y-99560368D01*
X153233522Y-99500789D01*
X153386262Y-99404816D01*
X153386267Y-99404810D01*
X153389097Y-99402555D01*
X153391275Y-99401665D01*
X153392158Y-99401111D01*
X153392255Y-99401265D01*
X153453783Y-99376145D01*
X153466412Y-99375500D01*
X157822331Y-99375500D01*
X157822347Y-99375501D01*
X157829943Y-99375501D01*
X157988054Y-99375501D01*
X157988057Y-99375501D01*
X158140785Y-99334577D01*
X158197495Y-99301835D01*
X158277716Y-99255520D01*
X158389520Y-99143716D01*
X158389520Y-99143714D01*
X158399724Y-99133511D01*
X158399728Y-99133506D01*
X166617506Y-90915728D01*
X166617511Y-90915724D01*
X166627714Y-90905520D01*
X166627716Y-90905520D01*
X166739520Y-90793716D01*
X166786226Y-90712819D01*
X166797563Y-90693183D01*
X166797564Y-90693181D01*
X166818574Y-90656790D01*
X166818573Y-90656790D01*
X166818577Y-90656785D01*
X166859500Y-90504058D01*
X166859500Y-90345943D01*
X166859500Y-83414059D01*
X166859501Y-83414046D01*
X166859501Y-83245945D01*
X166859501Y-83245943D01*
X166818577Y-83093215D01*
X166782380Y-83030520D01*
X166782380Y-83030519D01*
X166739524Y-82956290D01*
X166739521Y-82956286D01*
X166739520Y-82956284D01*
X166627716Y-82844480D01*
X166627715Y-82844479D01*
X166623385Y-82840149D01*
X166623374Y-82840139D01*
X166402200Y-82618965D01*
X166368715Y-82557642D01*
X166366663Y-82545186D01*
X166356868Y-82458245D01*
X166297289Y-82287978D01*
X166201316Y-82135238D01*
X166073762Y-82007684D01*
X166048013Y-81991505D01*
X165921023Y-81911711D01*
X165750754Y-81852131D01*
X165750749Y-81852130D01*
X165571504Y-81831935D01*
X165571496Y-81831935D01*
X165392250Y-81852130D01*
X165392245Y-81852131D01*
X165221976Y-81911711D01*
X165069237Y-82007684D01*
X164941684Y-82135237D01*
X164845711Y-82287976D01*
X164786131Y-82458245D01*
X164786130Y-82458250D01*
X164765935Y-82637496D01*
X164765935Y-82637503D01*
X164786130Y-82816749D01*
X164786131Y-82816754D01*
X164845711Y-82987023D01*
X164938717Y-83135040D01*
X164941684Y-83139762D01*
X165069238Y-83267316D01*
X165221978Y-83363289D01*
X165392245Y-83422868D01*
X165479169Y-83432661D01*
X165543580Y-83459726D01*
X165552965Y-83468200D01*
X165622181Y-83537416D01*
X165655666Y-83598739D01*
X165658500Y-83625097D01*
X165658500Y-84653156D01*
X165638815Y-84720195D01*
X165586011Y-84765950D01*
X165520618Y-84776377D01*
X165480815Y-84771892D01*
X165459000Y-84769435D01*
X165458998Y-84769435D01*
X165458997Y-84769435D01*
X165458996Y-84769435D01*
X165279750Y-84789630D01*
X165279745Y-84789631D01*
X165109476Y-84849211D01*
X164956737Y-84945184D01*
X164829184Y-85072737D01*
X164733211Y-85225476D01*
X164673631Y-85395745D01*
X164673630Y-85395750D01*
X164653435Y-85574996D01*
X164653435Y-85575003D01*
X164673630Y-85754249D01*
X164673631Y-85754254D01*
X164733211Y-85924523D01*
X164773754Y-85989046D01*
X164812285Y-86050368D01*
X164829185Y-86077263D01*
X164831445Y-86080097D01*
X164832334Y-86082275D01*
X164832889Y-86083158D01*
X164832734Y-86083255D01*
X164857855Y-86144783D01*
X164858500Y-86157412D01*
X164858500Y-86825500D01*
X164838815Y-86892539D01*
X164786011Y-86938294D01*
X164734500Y-86949500D01*
X164045670Y-86949500D01*
X164045654Y-86949499D01*
X164038058Y-86949499D01*
X163879943Y-86949499D01*
X163803579Y-86969961D01*
X163727214Y-86990423D01*
X163727209Y-86990426D01*
X163590290Y-87069475D01*
X163590282Y-87069481D01*
X161907013Y-88752749D01*
X161845690Y-88786234D01*
X161775998Y-88781250D01*
X161720065Y-88739378D01*
X161696111Y-88678950D01*
X161695104Y-88670009D01*
X161635525Y-88499742D01*
X161539552Y-88347002D01*
X161411998Y-88219448D01*
X161339897Y-88174144D01*
X161259257Y-88123474D01*
X161178979Y-88095384D01*
X161142545Y-88082635D01*
X161085770Y-88041914D01*
X161060022Y-87976962D01*
X161059500Y-87965594D01*
X161059500Y-86536996D01*
X161079185Y-86469957D01*
X161131989Y-86424202D01*
X161201147Y-86414258D01*
X161249473Y-86432003D01*
X161259475Y-86438288D01*
X161429745Y-86497868D01*
X161429750Y-86497869D01*
X161608996Y-86518065D01*
X161609000Y-86518065D01*
X161609004Y-86518065D01*
X161788249Y-86497869D01*
X161788252Y-86497868D01*
X161788255Y-86497868D01*
X161958522Y-86438289D01*
X162111262Y-86342316D01*
X162238816Y-86214762D01*
X162334789Y-86062022D01*
X162394368Y-85891755D01*
X162397601Y-85863062D01*
X162414565Y-85712503D01*
X162414565Y-85712496D01*
X162394369Y-85533250D01*
X162394368Y-85533245D01*
X162378617Y-85488231D01*
X162334789Y-85362978D01*
X162238816Y-85210238D01*
X162111262Y-85082684D01*
X162095433Y-85072738D01*
X161958521Y-84986710D01*
X161788249Y-84927130D01*
X161769615Y-84925031D01*
X161705202Y-84897964D01*
X161665647Y-84840369D01*
X161659500Y-84801811D01*
X161659500Y-81805945D01*
X161659500Y-81805943D01*
X161618577Y-81653216D01*
X161572395Y-81573225D01*
X161539524Y-81516290D01*
X161539521Y-81516286D01*
X161539520Y-81516284D01*
X161427716Y-81404480D01*
X161427715Y-81404479D01*
X161423385Y-81400149D01*
X161423374Y-81400139D01*
X158510818Y-78487583D01*
X158477333Y-78426260D01*
X158474499Y-78399902D01*
X158474499Y-77052129D01*
X158474498Y-77052123D01*
X158474497Y-77052116D01*
X158468091Y-76992517D01*
X158429292Y-76888492D01*
X158417797Y-76857671D01*
X158417793Y-76857664D01*
X158331547Y-76742455D01*
X158331544Y-76742452D01*
X158216335Y-76656206D01*
X158216328Y-76656202D01*
X158081482Y-76605908D01*
X158081483Y-76605908D01*
X158021883Y-76599501D01*
X158021881Y-76599500D01*
X158021873Y-76599500D01*
X158021865Y-76599500D01*
X156674098Y-76599500D01*
X156607059Y-76579815D01*
X156586417Y-76563181D01*
X155561590Y-75538355D01*
X155561588Y-75538352D01*
X155550371Y-75527135D01*
X163358500Y-75527135D01*
X163358500Y-77322870D01*
X163358501Y-77322876D01*
X163364908Y-77382483D01*
X163415202Y-77517328D01*
X163415206Y-77517335D01*
X163501452Y-77632544D01*
X163501455Y-77632547D01*
X163616664Y-77718793D01*
X163616671Y-77718797D01*
X163751517Y-77769091D01*
X163751516Y-77769091D01*
X163758444Y-77769835D01*
X163811127Y-77775500D01*
X165606872Y-77775499D01*
X165666483Y-77769091D01*
X165801331Y-77718796D01*
X165916546Y-77632546D01*
X166002796Y-77517331D01*
X166051810Y-77385916D01*
X166093681Y-77329984D01*
X166159145Y-77305566D01*
X166227418Y-77320417D01*
X166255673Y-77341569D01*
X166377599Y-77463495D01*
X166474384Y-77531265D01*
X166571165Y-77599032D01*
X166571167Y-77599033D01*
X166571170Y-77599035D01*
X166785337Y-77698903D01*
X167013592Y-77760063D01*
X167190034Y-77775500D01*
X167248999Y-77780659D01*
X167249000Y-77780659D01*
X167249001Y-77780659D01*
X167307966Y-77775500D01*
X167484408Y-77760063D01*
X167712663Y-77698903D01*
X167926830Y-77599035D01*
X168120401Y-77463495D01*
X168287495Y-77296401D01*
X168417424Y-77110842D01*
X168472001Y-77067218D01*
X168541499Y-77060024D01*
X168603854Y-77091547D01*
X168620574Y-77110842D01*
X168750504Y-77296401D01*
X168917598Y-77463495D01*
X169014383Y-77531265D01*
X169111164Y-77599032D01*
X169111166Y-77599033D01*
X169111169Y-77599035D01*
X169325336Y-77698903D01*
X169553591Y-77760063D01*
X169730033Y-77775500D01*
X169788998Y-77780659D01*
X169788999Y-77780659D01*
X169789000Y-77780659D01*
X169847965Y-77775500D01*
X170024407Y-77760063D01*
X170252662Y-77698903D01*
X170466829Y-77599035D01*
X170660400Y-77463495D01*
X170827494Y-77296401D01*
X170957731Y-77110403D01*
X171012306Y-77066780D01*
X171081804Y-77059586D01*
X171144159Y-77091109D01*
X171160878Y-77110404D01*
X171290890Y-77296078D01*
X171457917Y-77463105D01*
X171651421Y-77598600D01*
X171865507Y-77698429D01*
X171865516Y-77698433D01*
X172079000Y-77755634D01*
X172079000Y-76858012D01*
X172136007Y-76890925D01*
X172263174Y-76925000D01*
X172394826Y-76925000D01*
X172521993Y-76890925D01*
X172579000Y-76858012D01*
X172579000Y-77755633D01*
X172792483Y-77698433D01*
X172792492Y-77698429D01*
X173006578Y-77598600D01*
X173200082Y-77463105D01*
X173367105Y-77296082D01*
X173502600Y-77102578D01*
X173602429Y-76888492D01*
X173602432Y-76888486D01*
X173659636Y-76675000D01*
X172762012Y-76675000D01*
X172794925Y-76617993D01*
X172829000Y-76490826D01*
X172829000Y-76359174D01*
X172794925Y-76232007D01*
X172762012Y-76175000D01*
X173659636Y-76175000D01*
X173659635Y-76174999D01*
X173602432Y-75961513D01*
X173602429Y-75961507D01*
X173502600Y-75747422D01*
X173502599Y-75747420D01*
X173367113Y-75553926D01*
X173367108Y-75553920D01*
X173200082Y-75386894D01*
X173006578Y-75251399D01*
X172792492Y-75151570D01*
X172792486Y-75151567D01*
X172579000Y-75094364D01*
X172579000Y-75991988D01*
X172521993Y-75959075D01*
X172394826Y-75925000D01*
X172263174Y-75925000D01*
X172136007Y-75959075D01*
X172079000Y-75991988D01*
X172079000Y-75094364D01*
X172078999Y-75094364D01*
X171865513Y-75151567D01*
X171865507Y-75151570D01*
X171651422Y-75251399D01*
X171651420Y-75251400D01*
X171457926Y-75386886D01*
X171457920Y-75386891D01*
X171290891Y-75553920D01*
X171290890Y-75553922D01*
X171160879Y-75739596D01*
X171106302Y-75783221D01*
X171036803Y-75790413D01*
X170974449Y-75758891D01*
X170957729Y-75739595D01*
X170957422Y-75739157D01*
X170862963Y-75604254D01*
X170827493Y-75553597D01*
X170660401Y-75386506D01*
X170660394Y-75386501D01*
X170635911Y-75369358D01*
X170583517Y-75332671D01*
X170466833Y-75250967D01*
X170466829Y-75250965D01*
X170455635Y-75245745D01*
X170252662Y-75151097D01*
X170252658Y-75151096D01*
X170252654Y-75151094D01*
X170024412Y-75089938D01*
X170024402Y-75089936D01*
X169789000Y-75069341D01*
X169788998Y-75069341D01*
X169553595Y-75089936D01*
X169553585Y-75089938D01*
X169325343Y-75151094D01*
X169325334Y-75151098D01*
X169111170Y-75250964D01*
X169111168Y-75250965D01*
X168917596Y-75386505D01*
X168750507Y-75553594D01*
X168620574Y-75739158D01*
X168565997Y-75782782D01*
X168496498Y-75789975D01*
X168434144Y-75758453D01*
X168417424Y-75739157D01*
X168287494Y-75553597D01*
X168120402Y-75386506D01*
X168120395Y-75386501D01*
X168095912Y-75369358D01*
X168043518Y-75332671D01*
X167926834Y-75250967D01*
X167926830Y-75250965D01*
X167915636Y-75245745D01*
X167712663Y-75151097D01*
X167712659Y-75151096D01*
X167712655Y-75151094D01*
X167484413Y-75089938D01*
X167484403Y-75089936D01*
X167249001Y-75069341D01*
X167248999Y-75069341D01*
X167013596Y-75089936D01*
X167013586Y-75089938D01*
X166785344Y-75151094D01*
X166785335Y-75151098D01*
X166571171Y-75250964D01*
X166571169Y-75250965D01*
X166377600Y-75386503D01*
X166255673Y-75508430D01*
X166194350Y-75541914D01*
X166124658Y-75536930D01*
X166068725Y-75495058D01*
X166051810Y-75464081D01*
X166002797Y-75332671D01*
X166002793Y-75332664D01*
X165916547Y-75217455D01*
X165916544Y-75217452D01*
X165801335Y-75131206D01*
X165801328Y-75131202D01*
X165666482Y-75080908D01*
X165666483Y-75080908D01*
X165606883Y-75074501D01*
X165606881Y-75074500D01*
X165606873Y-75074500D01*
X165606864Y-75074500D01*
X163811129Y-75074500D01*
X163811123Y-75074501D01*
X163751516Y-75080908D01*
X163616671Y-75131202D01*
X163616664Y-75131206D01*
X163501455Y-75217452D01*
X163501452Y-75217455D01*
X163415206Y-75332664D01*
X163415202Y-75332671D01*
X163364908Y-75467517D01*
X163358501Y-75527116D01*
X163358500Y-75527135D01*
X155550371Y-75527135D01*
X155442717Y-75419481D01*
X155442716Y-75419480D01*
X155355904Y-75369360D01*
X155355904Y-75369359D01*
X155355900Y-75369358D01*
X155305785Y-75340423D01*
X155153057Y-75299499D01*
X154994943Y-75299499D01*
X154987347Y-75299499D01*
X154987331Y-75299500D01*
X153426160Y-75299500D01*
X153359121Y-75279815D01*
X153313366Y-75227011D01*
X153309122Y-75216466D01*
X153259789Y-75075478D01*
X153163816Y-74922738D01*
X153036262Y-74795184D01*
X152883523Y-74699211D01*
X152713254Y-74639631D01*
X152713249Y-74639630D01*
X152534004Y-74619435D01*
X152533996Y-74619435D01*
X152354750Y-74639630D01*
X152354745Y-74639631D01*
X152184476Y-74699211D01*
X152031737Y-74795184D01*
X151904184Y-74922737D01*
X151808211Y-75075476D01*
X151748631Y-75245745D01*
X151748630Y-75245750D01*
X151728435Y-75424996D01*
X151728435Y-75425003D01*
X151748630Y-75604249D01*
X151748631Y-75604254D01*
X151808211Y-75774523D01*
X151902763Y-75925000D01*
X151904184Y-75927262D01*
X152031738Y-76054816D01*
X152184478Y-76150789D01*
X152354745Y-76210368D01*
X152441669Y-76220161D01*
X152506080Y-76247226D01*
X152515465Y-76255700D01*
X152524139Y-76264374D01*
X152524149Y-76264385D01*
X152528479Y-76268715D01*
X152528480Y-76268716D01*
X152640284Y-76380520D01*
X152640286Y-76380521D01*
X152640290Y-76380524D01*
X152717326Y-76425000D01*
X152777216Y-76459577D01*
X152889019Y-76489534D01*
X152929942Y-76500500D01*
X152929943Y-76500500D01*
X153327106Y-76500500D01*
X153394145Y-76520185D01*
X153439900Y-76572989D01*
X153449844Y-76642147D01*
X153420819Y-76705703D01*
X153401418Y-76723766D01*
X153376452Y-76742455D01*
X153290206Y-76857664D01*
X153290202Y-76857671D01*
X153239908Y-76992517D01*
X153233501Y-77052116D01*
X153233501Y-77052123D01*
X153233500Y-77052135D01*
X153233500Y-78847870D01*
X153233501Y-78847876D01*
X153239908Y-78907483D01*
X153290202Y-79042328D01*
X153290206Y-79042335D01*
X153376452Y-79157544D01*
X153376455Y-79157547D01*
X153491664Y-79243793D01*
X153491671Y-79243797D01*
X153623081Y-79292810D01*
X153679015Y-79334681D01*
X153703432Y-79400145D01*
X153688580Y-79468418D01*
X153667430Y-79496673D01*
X153545503Y-79618600D01*
X153409965Y-79812170D01*
X153409962Y-79812175D01*
X153407289Y-79817909D01*
X153361115Y-79870346D01*
X153294909Y-79889500D01*
X147855669Y-79889500D01*
X147855653Y-79889499D01*
X147848057Y-79889499D01*
X147689943Y-79889499D01*
X147582587Y-79918265D01*
X147537210Y-79930424D01*
X147537209Y-79930425D01*
X147487096Y-79959359D01*
X147487095Y-79959360D01*
X147460832Y-79974523D01*
X147400285Y-80009479D01*
X147400282Y-80009481D01*
X147288478Y-80121286D01*
X139521584Y-87888181D01*
X139460261Y-87921666D01*
X139433903Y-87924500D01*
X138670670Y-87924500D01*
X138670654Y-87924499D01*
X138663058Y-87924499D01*
X138504943Y-87924499D01*
X138428579Y-87944961D01*
X138352214Y-87965423D01*
X138352209Y-87965426D01*
X138215290Y-88044475D01*
X138215282Y-88044481D01*
X137708217Y-88551546D01*
X137708214Y-88551548D01*
X137708215Y-88551549D01*
X137603478Y-88656286D01*
X137573676Y-88707905D01*
X137558775Y-88733716D01*
X137537396Y-88770745D01*
X137528454Y-88786234D01*
X137524423Y-88793215D01*
X137483499Y-88945943D01*
X137483499Y-88945945D01*
X137483499Y-89114046D01*
X137483500Y-89114059D01*
X137483500Y-90267587D01*
X137463815Y-90334626D01*
X137456450Y-90344896D01*
X137454186Y-90347734D01*
X137358211Y-90500476D01*
X137298631Y-90670745D01*
X137298630Y-90670750D01*
X137282448Y-90814383D01*
X137255382Y-90878797D01*
X137197787Y-90918352D01*
X137159228Y-90924500D01*
X135323781Y-90924500D01*
X135256742Y-90904815D01*
X135210987Y-90852011D01*
X135201043Y-90782853D01*
X135230068Y-90719297D01*
X135236100Y-90712819D01*
X135278174Y-90670745D01*
X135714520Y-90234401D01*
X135793577Y-90097470D01*
X135834501Y-89944742D01*
X135834501Y-89786627D01*
X135834501Y-89779032D01*
X135834500Y-89779014D01*
X135834500Y-89407412D01*
X135854185Y-89340373D01*
X135861555Y-89330097D01*
X135863810Y-89327267D01*
X135863816Y-89327262D01*
X135959789Y-89174522D01*
X136019368Y-89004255D01*
X136026428Y-88941595D01*
X136039565Y-88825003D01*
X136039565Y-88824996D01*
X136019369Y-88645750D01*
X136019368Y-88645745D01*
X135994145Y-88573663D01*
X135959789Y-88475478D01*
X135957504Y-88471842D01*
X135887654Y-88360676D01*
X135863816Y-88322738D01*
X135736262Y-88195184D01*
X135702777Y-88174144D01*
X135583523Y-88099211D01*
X135413254Y-88039631D01*
X135413249Y-88039630D01*
X135234004Y-88019435D01*
X135233996Y-88019435D01*
X135054750Y-88039630D01*
X135054737Y-88039633D01*
X134884482Y-88099208D01*
X134832364Y-88131956D01*
X134765127Y-88150955D01*
X134700421Y-88131955D01*
X134608523Y-88074211D01*
X134438254Y-88014631D01*
X134438249Y-88014630D01*
X134259004Y-87994435D01*
X134258996Y-87994435D01*
X134079750Y-88014630D01*
X134079745Y-88014631D01*
X133909476Y-88074211D01*
X133756737Y-88170184D01*
X133629182Y-88297739D01*
X133551627Y-88421167D01*
X133499292Y-88467457D01*
X133430239Y-88478105D01*
X133366391Y-88449730D01*
X133358953Y-88442875D01*
X133236262Y-88320184D01*
X133083523Y-88224211D01*
X132913254Y-88164631D01*
X132913249Y-88164630D01*
X132734004Y-88144435D01*
X132733996Y-88144435D01*
X132554750Y-88164630D01*
X132554745Y-88164631D01*
X132384476Y-88224211D01*
X132231737Y-88320184D01*
X132104184Y-88447737D01*
X132008210Y-88600478D01*
X131948630Y-88770750D01*
X131938837Y-88857668D01*
X131911770Y-88922082D01*
X131903298Y-88931465D01*
X131290286Y-89544478D01*
X131178481Y-89656282D01*
X131178475Y-89656290D01*
X131132821Y-89735367D01*
X131132821Y-89735368D01*
X131099423Y-89793215D01*
X131058499Y-89945943D01*
X131058499Y-89945945D01*
X131058499Y-90114046D01*
X131058500Y-90114059D01*
X131058500Y-104913330D01*
X131058499Y-104913348D01*
X131058499Y-105079054D01*
X131058498Y-105079054D01*
X127879841Y-105079054D01*
X127997495Y-104961400D01*
X128133035Y-104767829D01*
X128232903Y-104553662D01*
X128294063Y-104325407D01*
X128314659Y-104089999D01*
X128294063Y-103854591D01*
X128259671Y-103726238D01*
X128261334Y-103656392D01*
X128291763Y-103606469D01*
X130134520Y-101763715D01*
X130213577Y-101626783D01*
X130254501Y-101474056D01*
X130254501Y-101315941D01*
X130254501Y-101308346D01*
X130254500Y-101308328D01*
X130254500Y-88830783D01*
X130274185Y-88763744D01*
X130290819Y-88743102D01*
X133597103Y-85436819D01*
X133658426Y-85403334D01*
X133684784Y-85400500D01*
X135365339Y-85400500D01*
X135432378Y-85420185D01*
X135478133Y-85472989D01*
X135482377Y-85483536D01*
X135498306Y-85529057D01*
X135528210Y-85614521D01*
X135616011Y-85754255D01*
X135624184Y-85767262D01*
X135751738Y-85894816D01*
X135842080Y-85951582D01*
X135901724Y-85989059D01*
X135904478Y-85990789D01*
X136027005Y-86033663D01*
X136074745Y-86050368D01*
X136074750Y-86050369D01*
X136253996Y-86070565D01*
X136254000Y-86070565D01*
X136254004Y-86070565D01*
X136433249Y-86050369D01*
X136433252Y-86050368D01*
X136433255Y-86050368D01*
X136603522Y-85990789D01*
X136756262Y-85894816D01*
X136883816Y-85767262D01*
X136979789Y-85614522D01*
X137039368Y-85444255D01*
X137042080Y-85420185D01*
X137059565Y-85265003D01*
X137059565Y-85264996D01*
X137039369Y-85085753D01*
X137039367Y-85085742D01*
X137017397Y-85022956D01*
X137013835Y-84953177D01*
X137046754Y-84894323D01*
X137153816Y-84787262D01*
X137249789Y-84634522D01*
X137309368Y-84464255D01*
X137309369Y-84464249D01*
X137329565Y-84285003D01*
X137329565Y-84284996D01*
X137309369Y-84105750D01*
X137309368Y-84105745D01*
X137295027Y-84064762D01*
X137249789Y-83935478D01*
X137249787Y-83935475D01*
X137249787Y-83935474D01*
X137246911Y-83929501D01*
X137235557Y-83860559D01*
X137263279Y-83796424D01*
X137321273Y-83757458D01*
X137391128Y-83756031D01*
X137446311Y-83788016D01*
X139165063Y-85506768D01*
X139198548Y-85568091D01*
X139200602Y-85580565D01*
X139210395Y-85667484D01*
X139269975Y-85837756D01*
X139324494Y-85924522D01*
X139365949Y-85990497D01*
X139493503Y-86118051D01*
X139556146Y-86157412D01*
X139631225Y-86204588D01*
X139646243Y-86214024D01*
X139742855Y-86247830D01*
X139816510Y-86273603D01*
X139816515Y-86273604D01*
X139995761Y-86293800D01*
X139995765Y-86293800D01*
X139995769Y-86293800D01*
X140175014Y-86273604D01*
X140175017Y-86273603D01*
X140175020Y-86273603D01*
X140345287Y-86214024D01*
X140498027Y-86118051D01*
X140625581Y-85990497D01*
X140721554Y-85837757D01*
X140781133Y-85667490D01*
X140791554Y-85575000D01*
X140801330Y-85488238D01*
X140801330Y-85488231D01*
X140781134Y-85308985D01*
X140781133Y-85308980D01*
X140732467Y-85169901D01*
X140721554Y-85138713D01*
X140699789Y-85104075D01*
X140648819Y-85022956D01*
X140625581Y-84985973D01*
X140498027Y-84858419D01*
X140407936Y-84801811D01*
X140345286Y-84762445D01*
X140175014Y-84702865D01*
X140088095Y-84693072D01*
X140023681Y-84666005D01*
X140014298Y-84657533D01*
X139893888Y-84537123D01*
X139860403Y-84475800D01*
X139865387Y-84406108D01*
X139907259Y-84350175D01*
X139972723Y-84325758D01*
X139995453Y-84326222D01*
X140033997Y-84330565D01*
X140034000Y-84330565D01*
X140034004Y-84330565D01*
X140213249Y-84310369D01*
X140213251Y-84310368D01*
X140213255Y-84310368D01*
X140213258Y-84310366D01*
X140213262Y-84310366D01*
X140327268Y-84270473D01*
X140361696Y-84258425D01*
X140431474Y-84254863D01*
X140468622Y-84270473D01*
X140496974Y-84288287D01*
X140496975Y-84288287D01*
X140496978Y-84288289D01*
X140617796Y-84330565D01*
X140667245Y-84347868D01*
X140667250Y-84347869D01*
X140846496Y-84368065D01*
X140846500Y-84368065D01*
X140846504Y-84368065D01*
X141025749Y-84347869D01*
X141025752Y-84347868D01*
X141025755Y-84347868D01*
X141196022Y-84288289D01*
X141348762Y-84192316D01*
X141476316Y-84064762D01*
X141572289Y-83912022D01*
X141631868Y-83741755D01*
X141641661Y-83654829D01*
X141668726Y-83590418D01*
X141677190Y-83581043D01*
X158817506Y-66440728D01*
X158817511Y-66440724D01*
X158827714Y-66430520D01*
X158827716Y-66430520D01*
X158939520Y-66318716D01*
X159018577Y-66181784D01*
X159059500Y-66029057D01*
X159059500Y-65907412D01*
X159079185Y-65840373D01*
X159086555Y-65830097D01*
X159088810Y-65827267D01*
X159088816Y-65827262D01*
X159184789Y-65674522D01*
X159244368Y-65504255D01*
X159245706Y-65492382D01*
X159264565Y-65325003D01*
X159264565Y-65324996D01*
X159244369Y-65145750D01*
X159244368Y-65145745D01*
X159184789Y-64975478D01*
X159088816Y-64822738D01*
X158961262Y-64695184D01*
X158928344Y-64674500D01*
X158808523Y-64599211D01*
X158638254Y-64539631D01*
X158638249Y-64539630D01*
X158459004Y-64519435D01*
X158458996Y-64519435D01*
X158279750Y-64539630D01*
X158279745Y-64539631D01*
X158109476Y-64599211D01*
X157956737Y-64695184D01*
X157829184Y-64822737D01*
X157733211Y-64975476D01*
X157673631Y-65145745D01*
X157673630Y-65145750D01*
X157653435Y-65324996D01*
X157653435Y-65325003D01*
X157673630Y-65504249D01*
X157673633Y-65504262D01*
X157733209Y-65674520D01*
X157739268Y-65684163D01*
X157758264Y-65751401D01*
X157737894Y-65818235D01*
X157721952Y-65837811D01*
X156371181Y-67188583D01*
X156309858Y-67222068D01*
X156240166Y-67217084D01*
X156184233Y-67175212D01*
X156159816Y-67109748D01*
X156159500Y-67100902D01*
X156159500Y-65957412D01*
X156179185Y-65890373D01*
X156186555Y-65880097D01*
X156188810Y-65877267D01*
X156188816Y-65877262D01*
X156284789Y-65724522D01*
X156344368Y-65554255D01*
X156350002Y-65504254D01*
X156364565Y-65375003D01*
X156364565Y-65374996D01*
X156344369Y-65195750D01*
X156344368Y-65195745D01*
X156284788Y-65025476D01*
X156188815Y-64872737D01*
X156061262Y-64745184D01*
X155908523Y-64649211D01*
X155738254Y-64589631D01*
X155738249Y-64589630D01*
X155559004Y-64569435D01*
X155558996Y-64569435D01*
X155379750Y-64589630D01*
X155379745Y-64589631D01*
X155209476Y-64649211D01*
X155056737Y-64745184D01*
X154929184Y-64872737D01*
X154833211Y-65025476D01*
X154773631Y-65195745D01*
X154773630Y-65195750D01*
X154753435Y-65374996D01*
X154753435Y-65375003D01*
X154773630Y-65554249D01*
X154773631Y-65554254D01*
X154833211Y-65724523D01*
X154892095Y-65818235D01*
X154916187Y-65856578D01*
X154929185Y-65877263D01*
X154931445Y-65880097D01*
X154932334Y-65882275D01*
X154932889Y-65883158D01*
X154932734Y-65883255D01*
X154957855Y-65944783D01*
X154958500Y-65957412D01*
X154958500Y-67699902D01*
X154938815Y-67766941D01*
X154922181Y-67787583D01*
X153476182Y-69233582D01*
X153414859Y-69267067D01*
X153345167Y-69262083D01*
X153289234Y-69220211D01*
X153264817Y-69154747D01*
X153264501Y-69145901D01*
X153264501Y-66007412D01*
X153284186Y-65940373D01*
X153291556Y-65930097D01*
X153293811Y-65927267D01*
X153293817Y-65927262D01*
X153389790Y-65774522D01*
X153449369Y-65604255D01*
X153455003Y-65554254D01*
X153469566Y-65425003D01*
X153469566Y-65424996D01*
X153449370Y-65245750D01*
X153449369Y-65245745D01*
X153389789Y-65075476D01*
X153326956Y-64975478D01*
X153293817Y-64922738D01*
X153166263Y-64795184D01*
X153165628Y-64794785D01*
X153013524Y-64699211D01*
X152843255Y-64639631D01*
X152843250Y-64639630D01*
X152664005Y-64619435D01*
X152663997Y-64619435D01*
X152484751Y-64639630D01*
X152484746Y-64639631D01*
X152314477Y-64699211D01*
X152161738Y-64795184D01*
X152034185Y-64922737D01*
X151938212Y-65075476D01*
X151878632Y-65245745D01*
X151878631Y-65245750D01*
X151858436Y-65424996D01*
X151858436Y-65425003D01*
X151878631Y-65604249D01*
X151878632Y-65604254D01*
X151938212Y-65774523D01*
X151989771Y-65856578D01*
X152029065Y-65919114D01*
X152034186Y-65927263D01*
X152036446Y-65930097D01*
X152037335Y-65932275D01*
X152037890Y-65933158D01*
X152037735Y-65933255D01*
X152062856Y-65994783D01*
X152063501Y-66007412D01*
X152063501Y-69719901D01*
X152043816Y-69786940D01*
X152027182Y-69807582D01*
X139177355Y-82657408D01*
X139116032Y-82690893D01*
X139103559Y-82692947D01*
X139048130Y-82699192D01*
X138877858Y-82758772D01*
X138725117Y-82854746D01*
X138597562Y-82982301D01*
X138580540Y-83009393D01*
X138528206Y-83055683D01*
X138459152Y-83066331D01*
X138395304Y-83037956D01*
X138387866Y-83031101D01*
X138095819Y-82739054D01*
X138062334Y-82677731D01*
X138059500Y-82651373D01*
X138059500Y-80207412D01*
X138079185Y-80140373D01*
X138086555Y-80130097D01*
X138088810Y-80127267D01*
X138088816Y-80127262D01*
X138184789Y-79974522D01*
X138244368Y-79804255D01*
X138264565Y-79625000D01*
X138250106Y-79496673D01*
X138244369Y-79445750D01*
X138244368Y-79445745D01*
X138216625Y-79366460D01*
X138184789Y-79275478D01*
X138164882Y-79243797D01*
X138088815Y-79122737D01*
X137961262Y-78995184D01*
X137808523Y-78899211D01*
X137638254Y-78839631D01*
X137638249Y-78839630D01*
X137459004Y-78819435D01*
X137458996Y-78819435D01*
X137279750Y-78839630D01*
X137279745Y-78839631D01*
X137109476Y-78899211D01*
X136956737Y-78995184D01*
X136829184Y-79122737D01*
X136733209Y-79275479D01*
X136725541Y-79297395D01*
X136684819Y-79354170D01*
X136619866Y-79379917D01*
X136551305Y-79366460D01*
X136500902Y-79318073D01*
X136484500Y-79256439D01*
X136484500Y-73400097D01*
X136504185Y-73333058D01*
X136520819Y-73312416D01*
X139281080Y-70552155D01*
X141809000Y-70552155D01*
X141809000Y-71200000D01*
X142725988Y-71200000D01*
X142693075Y-71257007D01*
X142659000Y-71384174D01*
X142659000Y-71515826D01*
X142693075Y-71642993D01*
X142725988Y-71700000D01*
X141809000Y-71700000D01*
X141809000Y-72347844D01*
X141815401Y-72407372D01*
X141815403Y-72407379D01*
X141865645Y-72542086D01*
X141865649Y-72542093D01*
X141951809Y-72657187D01*
X141951812Y-72657190D01*
X142066906Y-72743350D01*
X142066913Y-72743354D01*
X142201620Y-72793596D01*
X142201627Y-72793598D01*
X142261155Y-72799999D01*
X142261172Y-72800000D01*
X142909000Y-72800000D01*
X142909000Y-71883012D01*
X142966007Y-71915925D01*
X143093174Y-71950000D01*
X143224826Y-71950000D01*
X143351993Y-71915925D01*
X143409000Y-71883012D01*
X143409000Y-72800000D01*
X144056828Y-72800000D01*
X144056844Y-72799999D01*
X144116372Y-72793598D01*
X144116379Y-72793596D01*
X144251086Y-72743354D01*
X144251093Y-72743350D01*
X144366187Y-72657190D01*
X144366190Y-72657187D01*
X144452350Y-72542093D01*
X144452354Y-72542086D01*
X144501422Y-72410529D01*
X144543293Y-72354595D01*
X144608757Y-72330178D01*
X144677030Y-72345030D01*
X144705285Y-72366181D01*
X144827599Y-72488495D01*
X144904135Y-72542086D01*
X145021165Y-72624032D01*
X145021167Y-72624033D01*
X145021170Y-72624035D01*
X145235337Y-72723903D01*
X145235343Y-72723904D01*
X145235344Y-72723905D01*
X145290285Y-72738626D01*
X145463592Y-72785063D01*
X145634319Y-72800000D01*
X145698999Y-72805659D01*
X145699000Y-72805659D01*
X145699001Y-72805659D01*
X145763681Y-72800000D01*
X145934408Y-72785063D01*
X146162663Y-72723903D01*
X146376830Y-72624035D01*
X146570401Y-72488495D01*
X146737495Y-72321401D01*
X146873035Y-72127830D01*
X146972903Y-71913663D01*
X147034063Y-71685408D01*
X147054659Y-71450000D01*
X147053443Y-71436107D01*
X147044573Y-71334715D01*
X147034063Y-71214592D01*
X146972903Y-70986337D01*
X146873035Y-70772171D01*
X146823926Y-70702035D01*
X146737494Y-70578597D01*
X146570402Y-70411506D01*
X146570395Y-70411501D01*
X146376834Y-70275967D01*
X146376830Y-70275965D01*
X146305727Y-70242809D01*
X146162663Y-70176097D01*
X146162659Y-70176096D01*
X146162655Y-70176094D01*
X145934413Y-70114938D01*
X145934403Y-70114936D01*
X145699001Y-70094341D01*
X145698999Y-70094341D01*
X145463596Y-70114936D01*
X145463586Y-70114938D01*
X145235344Y-70176094D01*
X145235335Y-70176098D01*
X145021171Y-70275964D01*
X145021169Y-70275965D01*
X144827600Y-70411503D01*
X144705284Y-70533819D01*
X144643961Y-70567303D01*
X144574269Y-70562319D01*
X144518336Y-70520447D01*
X144501421Y-70489470D01*
X144452354Y-70357913D01*
X144452350Y-70357906D01*
X144366190Y-70242812D01*
X144366187Y-70242809D01*
X144251093Y-70156649D01*
X144251086Y-70156645D01*
X144116379Y-70106403D01*
X144116372Y-70106401D01*
X144056844Y-70100000D01*
X143409000Y-70100000D01*
X143409000Y-71016988D01*
X143351993Y-70984075D01*
X143224826Y-70950000D01*
X143093174Y-70950000D01*
X142966007Y-70984075D01*
X142909000Y-71016988D01*
X142909000Y-70100000D01*
X142261155Y-70100000D01*
X142201627Y-70106401D01*
X142201620Y-70106403D01*
X142066913Y-70156645D01*
X142066906Y-70156649D01*
X141951812Y-70242809D01*
X141951809Y-70242812D01*
X141865649Y-70357906D01*
X141865645Y-70357913D01*
X141815403Y-70492620D01*
X141815401Y-70492627D01*
X141809000Y-70552155D01*
X139281080Y-70552155D01*
X146071416Y-63761819D01*
X146132739Y-63728334D01*
X146159097Y-63725500D01*
X163908903Y-63725500D01*
X163975942Y-63745185D01*
X163996583Y-63761818D01*
X171550890Y-71316126D01*
X171550892Y-71316127D01*
X171550896Y-71316130D01*
X171687815Y-71395179D01*
X171687822Y-71395183D01*
X171840549Y-71436107D01*
X171840551Y-71436107D01*
X172006260Y-71436107D01*
X172006276Y-71436106D01*
X176855515Y-71436106D01*
X176922554Y-71455791D01*
X176967898Y-71507703D01*
X176970571Y-71513436D01*
X177106111Y-71707007D01*
X177273205Y-71874101D01*
X177329707Y-71913664D01*
X177466771Y-72009638D01*
X177466773Y-72009639D01*
X177466776Y-72009641D01*
X177680943Y-72109509D01*
X177909198Y-72170669D01*
X178097524Y-72187145D01*
X178144605Y-72191265D01*
X178144606Y-72191265D01*
X178144607Y-72191265D01*
X178183840Y-72187832D01*
X178380014Y-72170669D01*
X178480705Y-72143689D01*
X178550555Y-72145352D01*
X178608417Y-72184515D01*
X178635921Y-72248743D01*
X178632573Y-72295556D01*
X178605596Y-72396240D01*
X178605593Y-72396253D01*
X178584998Y-72631656D01*
X178584998Y-72631657D01*
X178605593Y-72867060D01*
X178605595Y-72867070D01*
X178666751Y-73095312D01*
X178666753Y-73095316D01*
X178666754Y-73095320D01*
X178705803Y-73179060D01*
X178766622Y-73309487D01*
X178766624Y-73309491D01*
X178830068Y-73400097D01*
X178902162Y-73503058D01*
X179069256Y-73670152D01*
X179084476Y-73680809D01*
X179262822Y-73805689D01*
X179262824Y-73805690D01*
X179262827Y-73805692D01*
X179476994Y-73905560D01*
X179705249Y-73966720D01*
X179893575Y-73983196D01*
X179940656Y-73987316D01*
X179940657Y-73987316D01*
X179940658Y-73987316D01*
X179979891Y-73983883D01*
X180176065Y-73966720D01*
X180404320Y-73905560D01*
X180618487Y-73805692D01*
X180812058Y-73670152D01*
X180979152Y-73503058D01*
X181114692Y-73309487D01*
X181214560Y-73095320D01*
X181275720Y-72867065D01*
X181296316Y-72631657D01*
X181295250Y-72619478D01*
X181283791Y-72488498D01*
X181275720Y-72396249D01*
X181214560Y-72167994D01*
X181114692Y-71953828D01*
X181088153Y-71915925D01*
X180979151Y-71760254D01*
X180812061Y-71593165D01*
X180812058Y-71593162D01*
X180812053Y-71593158D01*
X180812050Y-71593156D01*
X180694033Y-71510518D01*
X180650408Y-71455941D01*
X180641157Y-71408944D01*
X180641157Y-69462661D01*
X180614238Y-69327334D01*
X180614237Y-69327333D01*
X180614237Y-69327329D01*
X180606530Y-69308722D01*
X180561434Y-69199849D01*
X180484769Y-69085111D01*
X178177405Y-66777747D01*
X178143920Y-66716424D01*
X178148904Y-66646732D01*
X178190776Y-66590799D01*
X178256240Y-66566382D01*
X178324513Y-66581234D01*
X178345855Y-66595979D01*
X178557589Y-66777747D01*
X178793342Y-66980134D01*
X178796474Y-66982916D01*
X179576719Y-67699902D01*
X179651457Y-67768580D01*
X179654486Y-67771458D01*
X180482519Y-68585623D01*
X180485410Y-68588564D01*
X181031148Y-69162680D01*
X181285424Y-69430178D01*
X181288258Y-69433262D01*
X182036786Y-70275967D01*
X182059373Y-70301395D01*
X182062090Y-70304559D01*
X182458335Y-70782222D01*
X182803490Y-71198297D01*
X182806109Y-71201566D01*
X183516847Y-72119764D01*
X183519355Y-72123119D01*
X184198701Y-73064831D01*
X184201092Y-73068266D01*
X184827959Y-74002165D01*
X184848241Y-74032380D01*
X184850508Y-74035885D01*
X185403288Y-74922738D01*
X185464741Y-75021329D01*
X185466887Y-75024906D01*
X186006230Y-75959075D01*
X186047468Y-76030501D01*
X186049499Y-76034160D01*
X186592233Y-77052128D01*
X186595795Y-77058808D01*
X186597695Y-77062522D01*
X186939855Y-77760061D01*
X187109073Y-78105035D01*
X187110854Y-78108826D01*
X187586734Y-79168027D01*
X187588385Y-79171876D01*
X188028204Y-80246503D01*
X188029725Y-80250406D01*
X188433006Y-81339301D01*
X188434394Y-81343253D01*
X188655255Y-82007684D01*
X188778461Y-82378334D01*
X188800664Y-82445127D01*
X188801918Y-82449124D01*
X189130764Y-83562742D01*
X189131883Y-83566778D01*
X189422939Y-84690902D01*
X189423920Y-84694974D01*
X189676837Y-85828262D01*
X189677680Y-85832365D01*
X189892178Y-86973547D01*
X189892882Y-86977676D01*
X190068716Y-88125457D01*
X190069280Y-88129607D01*
X190206246Y-89282655D01*
X190206670Y-89286823D01*
X190304615Y-90443854D01*
X190304898Y-90448032D01*
X190363712Y-91607731D01*
X190363853Y-91611918D01*
X190383464Y-92772906D01*
X190383464Y-92777094D01*
X190363853Y-93938081D01*
X190363712Y-93942268D01*
X190304898Y-95101967D01*
X190304615Y-95106145D01*
X190206670Y-96263176D01*
X190206246Y-96267344D01*
X190069280Y-97420392D01*
X190068716Y-97424542D01*
X189892882Y-98572323D01*
X189892178Y-98576452D01*
X189677680Y-99717634D01*
X189676837Y-99721737D01*
X189423920Y-100855025D01*
X189422939Y-100859097D01*
X189131883Y-101983221D01*
X189130764Y-101987257D01*
X188801918Y-103100875D01*
X188800664Y-103104872D01*
X188434394Y-104206746D01*
X188433006Y-104210698D01*
X188029725Y-105299593D01*
X188028204Y-105303496D01*
X187588385Y-106378123D01*
X187586734Y-106381972D01*
X187110854Y-107441173D01*
X187109073Y-107444964D01*
X186597703Y-108487462D01*
X186595795Y-108491191D01*
X186049501Y-109515836D01*
X186047468Y-109519498D01*
X185466896Y-110525078D01*
X185464741Y-110528670D01*
X184850516Y-111514103D01*
X184848241Y-111517619D01*
X184201094Y-112481730D01*
X184198701Y-112485168D01*
X183519355Y-113426880D01*
X183516847Y-113430235D01*
X182806109Y-114348433D01*
X182803490Y-114351702D01*
X182062102Y-115245426D01*
X182059373Y-115248604D01*
X181288258Y-116116737D01*
X181285424Y-116119821D01*
X180485433Y-116961412D01*
X180482497Y-116964399D01*
X179654493Y-117778534D01*
X179651457Y-117781419D01*
X178796474Y-118567083D01*
X178793342Y-118569865D01*
X177912288Y-119326225D01*
X177909064Y-119328899D01*
X177002990Y-120055053D01*
X176999678Y-120057617D01*
X176069584Y-120752763D01*
X176066187Y-120755214D01*
X175113136Y-121418557D01*
X175109659Y-121420891D01*
X174134756Y-122051662D01*
X174131201Y-122053878D01*
X173135544Y-122651366D01*
X173131917Y-122653460D01*
X172116654Y-123216978D01*
X172112957Y-123218949D01*
X171079233Y-123747858D01*
X171075473Y-123749702D01*
X170024499Y-124243386D01*
X170020678Y-124245103D01*
X168953597Y-124703023D01*
X168949721Y-124704609D01*
X167867815Y-125126217D01*
X167863887Y-125127672D01*
X166768329Y-125512508D01*
X166764354Y-125513829D01*
X165656441Y-125861439D01*
X165652424Y-125862625D01*
X164533408Y-126172617D01*
X164529353Y-126173667D01*
X163400514Y-126445685D01*
X163396426Y-126446598D01*
X162258989Y-126680347D01*
X162254873Y-126681120D01*
X161110266Y-126876307D01*
X161106125Y-126876942D01*
X159955522Y-127033367D01*
X159951363Y-127033861D01*
X158796144Y-127151336D01*
X158791970Y-127151689D01*
X157633456Y-127230078D01*
X157629273Y-127230290D01*
X156468780Y-127269508D01*
X156464592Y-127269579D01*
X155303408Y-127269579D01*
X155299220Y-127269508D01*
X154138726Y-127230290D01*
X154134543Y-127230078D01*
X152976029Y-127151689D01*
X152971855Y-127151336D01*
X151816636Y-127033861D01*
X151812477Y-127033367D01*
X150661874Y-126876942D01*
X150657733Y-126876307D01*
X149513126Y-126681120D01*
X149509010Y-126680347D01*
X148371573Y-126446598D01*
X148367485Y-126445685D01*
X147238646Y-126173667D01*
X147234591Y-126172617D01*
X146115575Y-125862625D01*
X146111558Y-125861439D01*
X145003645Y-125513829D01*
X144999670Y-125512508D01*
X143904112Y-125127672D01*
X143900184Y-125126217D01*
X142861725Y-124721540D01*
X154172200Y-124721540D01*
X154172200Y-124868459D01*
X154200858Y-125012534D01*
X154200861Y-125012544D01*
X154257078Y-125148266D01*
X154257083Y-125148275D01*
X154338698Y-125270419D01*
X154338701Y-125270423D01*
X154442576Y-125374298D01*
X154442580Y-125374301D01*
X154564724Y-125455916D01*
X154564730Y-125455919D01*
X154564731Y-125455920D01*
X154700458Y-125512140D01*
X154844540Y-125540799D01*
X154844544Y-125540800D01*
X154844545Y-125540800D01*
X154991456Y-125540800D01*
X154991457Y-125540799D01*
X155135542Y-125512140D01*
X155271269Y-125455920D01*
X155393420Y-125374301D01*
X155497301Y-125270420D01*
X155578920Y-125148269D01*
X155635140Y-125012542D01*
X155663800Y-124868455D01*
X155663800Y-124721545D01*
X155663799Y-124721540D01*
X156204200Y-124721540D01*
X156204200Y-124868459D01*
X156232858Y-125012534D01*
X156232861Y-125012544D01*
X156289078Y-125148266D01*
X156289083Y-125148275D01*
X156370698Y-125270419D01*
X156370701Y-125270423D01*
X156474576Y-125374298D01*
X156474580Y-125374301D01*
X156596724Y-125455916D01*
X156596730Y-125455919D01*
X156596731Y-125455920D01*
X156732458Y-125512140D01*
X156876540Y-125540799D01*
X156876544Y-125540800D01*
X156876545Y-125540800D01*
X157023456Y-125540800D01*
X157023457Y-125540799D01*
X157167542Y-125512140D01*
X157303269Y-125455920D01*
X157425420Y-125374301D01*
X157529301Y-125270420D01*
X157610920Y-125148269D01*
X157667140Y-125012542D01*
X157695800Y-124868455D01*
X157695800Y-124721545D01*
X157667140Y-124577458D01*
X157610920Y-124441731D01*
X157610919Y-124441730D01*
X157610916Y-124441724D01*
X157529301Y-124319580D01*
X157529298Y-124319576D01*
X157425423Y-124215701D01*
X157425419Y-124215698D01*
X157303275Y-124134083D01*
X157303266Y-124134078D01*
X157167544Y-124077861D01*
X157167545Y-124077861D01*
X157167542Y-124077860D01*
X157167538Y-124077859D01*
X157167534Y-124077858D01*
X157023459Y-124049200D01*
X157023455Y-124049200D01*
X156876545Y-124049200D01*
X156876540Y-124049200D01*
X156732465Y-124077858D01*
X156732455Y-124077861D01*
X156596733Y-124134078D01*
X156596724Y-124134083D01*
X156474580Y-124215698D01*
X156474576Y-124215701D01*
X156370701Y-124319576D01*
X156370698Y-124319580D01*
X156289083Y-124441724D01*
X156289078Y-124441733D01*
X156232861Y-124577455D01*
X156232858Y-124577465D01*
X156204200Y-124721540D01*
X155663799Y-124721540D01*
X155635140Y-124577458D01*
X155578920Y-124441731D01*
X155578919Y-124441730D01*
X155578916Y-124441724D01*
X155497301Y-124319580D01*
X155497298Y-124319576D01*
X155393423Y-124215701D01*
X155393419Y-124215698D01*
X155271275Y-124134083D01*
X155271266Y-124134078D01*
X155135544Y-124077861D01*
X155135545Y-124077861D01*
X155135542Y-124077860D01*
X155135538Y-124077859D01*
X155135534Y-124077858D01*
X154991459Y-124049200D01*
X154991455Y-124049200D01*
X154844545Y-124049200D01*
X154844540Y-124049200D01*
X154700465Y-124077858D01*
X154700455Y-124077861D01*
X154564733Y-124134078D01*
X154564724Y-124134083D01*
X154442580Y-124215698D01*
X154442576Y-124215701D01*
X154338701Y-124319576D01*
X154338698Y-124319580D01*
X154257083Y-124441724D01*
X154257078Y-124441733D01*
X154200861Y-124577455D01*
X154200858Y-124577465D01*
X154172200Y-124721540D01*
X142861725Y-124721540D01*
X142818278Y-124704609D01*
X142814402Y-124703023D01*
X142077878Y-124386956D01*
X141747303Y-124245095D01*
X141743518Y-124243394D01*
X141036985Y-123911508D01*
X140692526Y-123749702D01*
X140688766Y-123747858D01*
X139655042Y-123218949D01*
X139651358Y-123216985D01*
X138636075Y-122653455D01*
X138632455Y-122651366D01*
X138005270Y-122274996D01*
X152603435Y-122274996D01*
X152603435Y-122275003D01*
X152623630Y-122454249D01*
X152623631Y-122454254D01*
X152683211Y-122624523D01*
X152779184Y-122777262D01*
X152906738Y-122904816D01*
X153059478Y-123000789D01*
X153229745Y-123060368D01*
X153229750Y-123060369D01*
X153408996Y-123080565D01*
X153409000Y-123080565D01*
X153409004Y-123080565D01*
X153588249Y-123060369D01*
X153588252Y-123060368D01*
X153588255Y-123060368D01*
X153758522Y-123000789D01*
X153911262Y-122904816D01*
X153911267Y-122904810D01*
X153914097Y-122902555D01*
X153916275Y-122901665D01*
X153917158Y-122901111D01*
X153917255Y-122901265D01*
X153978783Y-122876145D01*
X153991412Y-122875500D01*
X158672331Y-122875500D01*
X158672347Y-122875501D01*
X158679943Y-122875501D01*
X158838054Y-122875501D01*
X158838057Y-122875501D01*
X158990785Y-122834577D01*
X159040904Y-122805639D01*
X159127716Y-122755520D01*
X159239520Y-122643716D01*
X159239520Y-122643714D01*
X159249728Y-122633507D01*
X159249730Y-122633504D01*
X160302535Y-121580698D01*
X160363856Y-121547215D01*
X160376311Y-121545163D01*
X160463255Y-121535368D01*
X160633522Y-121475789D01*
X160786262Y-121379816D01*
X160913816Y-121252262D01*
X161009789Y-121099522D01*
X161069368Y-120929255D01*
X161089565Y-120750000D01*
X161086419Y-120722082D01*
X161069369Y-120570750D01*
X161069368Y-120570745D01*
X161009788Y-120400476D01*
X160913815Y-120247737D01*
X160786262Y-120120184D01*
X160633523Y-120024211D01*
X160463254Y-119964631D01*
X160463249Y-119964630D01*
X160284004Y-119944435D01*
X160283996Y-119944435D01*
X160104750Y-119964630D01*
X160104745Y-119964631D01*
X159934476Y-120024211D01*
X159781737Y-120120184D01*
X159654184Y-120247737D01*
X159558210Y-120400478D01*
X159498630Y-120570750D01*
X159488837Y-120657668D01*
X159461770Y-120722082D01*
X159453298Y-120731465D01*
X158546584Y-121638181D01*
X158485261Y-121671666D01*
X158458903Y-121674500D01*
X153991412Y-121674500D01*
X153924373Y-121654815D01*
X153914097Y-121647445D01*
X153911263Y-121645185D01*
X153911262Y-121645184D01*
X153854496Y-121609515D01*
X153758523Y-121549211D01*
X153588254Y-121489631D01*
X153588249Y-121489630D01*
X153409004Y-121469435D01*
X153408996Y-121469435D01*
X153229750Y-121489630D01*
X153229745Y-121489631D01*
X153059476Y-121549211D01*
X152906737Y-121645184D01*
X152779184Y-121772737D01*
X152683211Y-121925476D01*
X152623631Y-122095745D01*
X152623630Y-122095750D01*
X152603435Y-122274996D01*
X138005270Y-122274996D01*
X137636798Y-122053878D01*
X137633243Y-122051662D01*
X137202144Y-121772737D01*
X136658319Y-121420877D01*
X136654885Y-121418571D01*
X135701812Y-120755214D01*
X135698415Y-120752763D01*
X135022700Y-120247738D01*
X134768317Y-120057613D01*
X134765009Y-120055053D01*
X133858935Y-119328899D01*
X133855711Y-119326225D01*
X132974657Y-118569865D01*
X132971525Y-118567083D01*
X132268221Y-117920800D01*
X132116537Y-117781414D01*
X132113506Y-117778534D01*
X132020734Y-117687316D01*
X131285479Y-116964376D01*
X131282589Y-116961435D01*
X130482575Y-116119821D01*
X130479741Y-116116737D01*
X130390980Y-116016808D01*
X129708610Y-115248585D01*
X129705913Y-115245444D01*
X128964509Y-114351702D01*
X128961890Y-114348433D01*
X128251152Y-113430235D01*
X128248644Y-113426880D01*
X127974285Y-113046562D01*
X127569287Y-112485153D01*
X127566905Y-112481730D01*
X126919741Y-111517593D01*
X126917500Y-111514129D01*
X126303238Y-110528637D01*
X126301123Y-110525111D01*
X125720518Y-109519475D01*
X125718511Y-109515860D01*
X125172184Y-108491153D01*
X125170315Y-108487500D01*
X124658911Y-107444933D01*
X124657160Y-107441205D01*
X124181264Y-106381969D01*
X124179614Y-106378123D01*
X124147640Y-106300000D01*
X123739783Y-105303466D01*
X123738286Y-105299624D01*
X123334990Y-104210689D01*
X123333605Y-104206746D01*
X123291494Y-104080061D01*
X122967321Y-103104828D01*
X122966089Y-103100903D01*
X122637230Y-101987242D01*
X122636124Y-101983252D01*
X122345056Y-100859081D01*
X122344079Y-100855025D01*
X122325644Y-100772422D01*
X122091161Y-99721734D01*
X122090319Y-99717634D01*
X122003460Y-99255522D01*
X121875818Y-98576437D01*
X121875117Y-98572323D01*
X121839960Y-98342834D01*
X121699281Y-97424530D01*
X121698719Y-97420392D01*
X121561747Y-96267290D01*
X121561333Y-96263225D01*
X121463383Y-95106139D01*
X121463101Y-95101967D01*
X121460260Y-95045942D01*
X121404286Y-93942248D01*
X121404146Y-93938081D01*
X121403798Y-93917452D01*
X121384535Y-92777072D01*
X121384535Y-92772906D01*
X121404146Y-91611895D01*
X121404287Y-91607731D01*
X121405742Y-91579057D01*
X121463102Y-90448016D01*
X121463384Y-90443854D01*
X121465862Y-90414586D01*
X121561334Y-89286768D01*
X121561746Y-89282715D01*
X121698721Y-88129587D01*
X121699283Y-88125457D01*
X121703304Y-88099211D01*
X121875121Y-86977651D01*
X121875821Y-86973547D01*
X121880342Y-86949499D01*
X122090321Y-85832351D01*
X122091162Y-85828262D01*
X122092795Y-85820945D01*
X122344085Y-84694945D01*
X122345052Y-84690931D01*
X122636128Y-83566732D01*
X122637226Y-83562773D01*
X122966094Y-82449079D01*
X122967315Y-82445188D01*
X123333614Y-81343225D01*
X123334983Y-81339328D01*
X123738293Y-80250355D01*
X123739775Y-80246553D01*
X124179623Y-79171852D01*
X124181265Y-79168027D01*
X124657170Y-78108771D01*
X124658900Y-78105089D01*
X125170327Y-77062475D01*
X125172172Y-77058870D01*
X125718524Y-76034114D01*
X125720503Y-76030550D01*
X126301138Y-75024861D01*
X126303222Y-75021388D01*
X126917517Y-74035843D01*
X126919723Y-74032433D01*
X127566934Y-73068226D01*
X127569268Y-73064874D01*
X128248660Y-72123097D01*
X128251135Y-72119785D01*
X128961912Y-71201537D01*
X128964486Y-71198324D01*
X129705937Y-70304525D01*
X129708584Y-70301443D01*
X130479767Y-69433232D01*
X130482548Y-69430206D01*
X131282618Y-68588533D01*
X131285450Y-68585652D01*
X132113542Y-67771430D01*
X132116505Y-67768615D01*
X132971554Y-66982889D01*
X132974627Y-66980160D01*
X133855748Y-66223742D01*
X133858897Y-66221131D01*
X134765050Y-65494913D01*
X134768279Y-65492413D01*
X135698447Y-64797212D01*
X135701780Y-64794807D01*
X136654925Y-64131400D01*
X136658278Y-64129149D01*
X137633271Y-63498319D01*
X137636770Y-63496137D01*
X138632506Y-62898603D01*
X138636030Y-62896568D01*
X139651403Y-62332989D01*
X139654983Y-62331081D01*
X140688795Y-61802126D01*
X140692496Y-61800311D01*
X141743567Y-61306582D01*
X141747254Y-61304925D01*
X142146560Y-61133569D01*
X142215927Y-61125222D01*
X142278797Y-61155703D01*
G37*
%TD.AperFunction*%
%TA.AperFunction,Conductor*%
G36*
X166734520Y-62070185D02*
G01*
X166755162Y-62086819D01*
X171962453Y-67294111D01*
X171962454Y-67294112D01*
X172077190Y-67370776D01*
X172154728Y-67402893D01*
X172204671Y-67423580D01*
X172204672Y-67423580D01*
X172204677Y-67423582D01*
X172231545Y-67428925D01*
X172231551Y-67428926D01*
X172231591Y-67428934D01*
X172321937Y-67446905D01*
X172340006Y-67450500D01*
X172340007Y-67450500D01*
X175729059Y-67450500D01*
X175796098Y-67470185D01*
X175841853Y-67522989D01*
X175851797Y-67592147D01*
X175822772Y-67655703D01*
X175816740Y-67662181D01*
X175570737Y-67908183D01*
X175570737Y-67908184D01*
X176219145Y-68556592D01*
X176155562Y-68573630D01*
X176041548Y-68639456D01*
X175948456Y-68732548D01*
X175882630Y-68846562D01*
X175865592Y-68910145D01*
X175217184Y-68261737D01*
X175217183Y-68261737D01*
X174759103Y-68719817D01*
X174721519Y-68766457D01*
X174661793Y-68897236D01*
X174661792Y-68897241D01*
X174641332Y-69039555D01*
X174661792Y-69181868D01*
X174661793Y-69181873D01*
X174721519Y-69312652D01*
X174759099Y-69359287D01*
X175217184Y-69817372D01*
X175865592Y-69168964D01*
X175882630Y-69232548D01*
X175948456Y-69346562D01*
X176041548Y-69439654D01*
X176155562Y-69505480D01*
X176219143Y-69522517D01*
X175542874Y-70198787D01*
X175481551Y-70232272D01*
X175455193Y-70235106D01*
X172219704Y-70235106D01*
X172152665Y-70215421D01*
X172132023Y-70198787D01*
X164696590Y-62763355D01*
X164696588Y-62763352D01*
X164577717Y-62644481D01*
X164577716Y-62644480D01*
X164490904Y-62594360D01*
X164490904Y-62594359D01*
X164490900Y-62594358D01*
X164440785Y-62565423D01*
X164288057Y-62524499D01*
X164129943Y-62524499D01*
X164122347Y-62524499D01*
X164122331Y-62524500D01*
X145938057Y-62524500D01*
X145779942Y-62524500D01*
X145627215Y-62565423D01*
X145627214Y-62565423D01*
X145627212Y-62565424D01*
X145627209Y-62565425D01*
X145577096Y-62594359D01*
X145577095Y-62594360D01*
X145533689Y-62619420D01*
X145490285Y-62644479D01*
X145490282Y-62644481D01*
X135403479Y-72731284D01*
X135396511Y-72743354D01*
X135372433Y-72785061D01*
X135372432Y-72785062D01*
X135372427Y-72785070D01*
X135369832Y-72789564D01*
X135319262Y-72837776D01*
X135250654Y-72850995D01*
X135185791Y-72825023D01*
X135145266Y-72768106D01*
X135138449Y-72727557D01*
X135138449Y-72160141D01*
X135158134Y-72093102D01*
X135210050Y-72047757D01*
X135215779Y-72045086D01*
X135409350Y-71909546D01*
X135576444Y-71742452D01*
X135711984Y-71548881D01*
X135811852Y-71334714D01*
X135873012Y-71106459D01*
X135893608Y-70871051D01*
X135889791Y-70827429D01*
X135903557Y-70758932D01*
X135952171Y-70708748D01*
X136020199Y-70692814D01*
X136064831Y-70703829D01*
X136191682Y-70761761D01*
X136191686Y-70761762D01*
X136334000Y-70782222D01*
X136476313Y-70761762D01*
X136476318Y-70761761D01*
X136607097Y-70702035D01*
X136653732Y-70664455D01*
X137111817Y-70206370D01*
X137111817Y-70206369D01*
X136463410Y-69557962D01*
X136526993Y-69540925D01*
X136641007Y-69475099D01*
X136734099Y-69382007D01*
X136799925Y-69267993D01*
X136816962Y-69204410D01*
X137465369Y-69852817D01*
X137465370Y-69852817D01*
X137923455Y-69394732D01*
X137961035Y-69348097D01*
X138020761Y-69217318D01*
X138020762Y-69217313D01*
X138041222Y-69075000D01*
X138020762Y-68932686D01*
X138020761Y-68932681D01*
X137961035Y-68801902D01*
X137923455Y-68755267D01*
X137465370Y-68297182D01*
X137465369Y-68297182D01*
X136816962Y-68945589D01*
X136799925Y-68882007D01*
X136734099Y-68767993D01*
X136641007Y-68674901D01*
X136526993Y-68609075D01*
X136463409Y-68592037D01*
X137111817Y-67943629D01*
X137111817Y-67943628D01*
X136653736Y-67485548D01*
X136653732Y-67485544D01*
X136607097Y-67447964D01*
X136508406Y-67402893D01*
X136455602Y-67357138D01*
X136435918Y-67290098D01*
X136455603Y-67223059D01*
X136472230Y-67202426D01*
X137562838Y-66111819D01*
X137624161Y-66078334D01*
X137650519Y-66075500D01*
X139302996Y-66075500D01*
X139394040Y-66057389D01*
X139438328Y-66048580D01*
X139537717Y-66007412D01*
X139565807Y-65995777D01*
X139565808Y-65995776D01*
X139565811Y-65995775D01*
X139680543Y-65919114D01*
X143512838Y-62086819D01*
X143574161Y-62053334D01*
X143600519Y-62050500D01*
X166667481Y-62050500D01*
X166734520Y-62070185D01*
G37*
%TD.AperFunction*%
%TD*%
M02*
