%TF.GenerationSoftware,KiCad,Pcbnew,8.0.5*%
%TF.CreationDate,2025-05-15T21:27:35-04:00*%
%TF.ProjectId,RTLS_VIC,52544c53-5f56-4494-932e-6b696361645f,rev?*%
%TF.SameCoordinates,Original*%
%TF.FileFunction,Legend,Bot*%
%TF.FilePolarity,Positive*%
%FSLAX46Y46*%
G04 Gerber Fmt 4.6, Leading zero omitted, Abs format (unit mm)*
G04 Created by KiCad (PCBNEW 8.0.5) date 2025-05-15 21:27:35*
%MOMM*%
%LPD*%
G01*
G04 APERTURE LIST*
G04 Aperture macros list*
%AMHorizOval*
0 Thick line with rounded ends*
0 $1 width*
0 $2 $3 position (X,Y) of the first rounded end (center of the circle)*
0 $4 $5 position (X,Y) of the second rounded end (center of the circle)*
0 Add line between two ends*
20,1,$1,$2,$3,$4,$5,0*
0 Add two circle primitives to create the rounded ends*
1,1,$1,$2,$3*
1,1,$1,$4,$5*%
%AMRotRect*
0 Rectangle, with rotation*
0 The origin of the aperture is its center*
0 $1 length*
0 $2 width*
0 $3 Rotation angle, in degrees counterclockwise*
0 Add horizontal line*
21,1,$1,$2,0,0,$3*%
G04 Aperture macros list end*
%ADD10C,0.400000*%
%ADD11C,0.240000*%
%ADD12C,0.150000*%
%ADD13C,0.120000*%
%ADD14RotRect,1.700000X1.700000X45.000000*%
%ADD15HorizOval,1.700000X0.000000X0.000000X0.000000X0.000000X0*%
%ADD16R,1.700000X1.700000*%
%ADD17O,1.700000X1.700000*%
%ADD18RotRect,1.700000X1.700000X315.000000*%
%ADD19HorizOval,1.700000X0.000000X0.000000X0.000000X0.000000X0*%
%ADD20C,0.990600*%
%ADD21C,0.787400*%
G04 APERTURE END LIST*
D10*
G36*
X173522974Y-64875000D02*
G01*
X172912367Y-64875000D01*
X172848673Y-64873032D01*
X172740755Y-64859572D01*
X172641494Y-64833361D01*
X172550887Y-64794399D01*
X172531983Y-64784071D01*
X172445535Y-64724813D01*
X172372538Y-64652866D01*
X172312995Y-64568230D01*
X172293188Y-64531067D01*
X172255225Y-64431414D01*
X172235171Y-64333488D01*
X172228487Y-64227756D01*
X172228487Y-63455949D01*
X172228557Y-63452529D01*
X172580196Y-63452529D01*
X172580196Y-64231175D01*
X172584521Y-64295433D01*
X172612055Y-64391340D01*
X172670566Y-64474930D01*
X172712858Y-64509952D01*
X172807151Y-64552172D01*
X172912367Y-64564811D01*
X173171264Y-64564811D01*
X173171264Y-63121824D01*
X172912367Y-63121824D01*
X172848871Y-63126125D01*
X172753833Y-63153511D01*
X172670566Y-63211706D01*
X172635354Y-63253951D01*
X172592905Y-63347909D01*
X172580196Y-63452529D01*
X172228557Y-63452529D01*
X172229229Y-63419850D01*
X172240371Y-63316913D01*
X172268430Y-63211965D01*
X172312995Y-63116939D01*
X172323827Y-63099175D01*
X172386061Y-63017792D01*
X172461748Y-62948813D01*
X172550887Y-62892236D01*
X172610330Y-62864845D01*
X172706706Y-62834383D01*
X172811739Y-62816673D01*
X172912367Y-62811636D01*
X173522974Y-62811636D01*
X173522974Y-64875000D01*
G37*
G36*
X171256957Y-63281788D02*
G01*
X171360173Y-63293320D01*
X171455429Y-63317062D01*
X171551934Y-63357763D01*
X171560999Y-63362617D01*
X171644614Y-63417819D01*
X171721824Y-63492537D01*
X171778591Y-63573185D01*
X171792908Y-63599518D01*
X171830460Y-63693246D01*
X171852366Y-63796133D01*
X171858703Y-63896563D01*
X171858703Y-64290282D01*
X171857999Y-64324587D01*
X171847437Y-64422608D01*
X171820838Y-64522910D01*
X171778591Y-64614148D01*
X171768261Y-64631190D01*
X171708936Y-64709243D01*
X171636827Y-64775369D01*
X171551934Y-64829570D01*
X171514511Y-64847545D01*
X171414076Y-64881997D01*
X171315282Y-64900196D01*
X171208528Y-64906263D01*
X171177863Y-64905793D01*
X171075130Y-64896757D01*
X170979551Y-64876221D01*
X170879075Y-64838668D01*
X170787942Y-64786095D01*
X170727784Y-64738033D01*
X170655128Y-64655377D01*
X170603569Y-64560048D01*
X170575451Y-64464672D01*
X170921787Y-64464672D01*
X170935412Y-64502224D01*
X171005071Y-64579676D01*
X171097184Y-64614881D01*
X171205598Y-64624895D01*
X171295662Y-64616881D01*
X171396107Y-64578733D01*
X171466632Y-64509170D01*
X171507237Y-64408190D01*
X171518228Y-64296632D01*
X171518228Y-64187212D01*
X170564216Y-64187212D01*
X170564216Y-63906821D01*
X170904690Y-63906821D01*
X170904690Y-63968370D01*
X171518228Y-63968370D01*
X171518228Y-63907309D01*
X171514535Y-63838484D01*
X171491019Y-63737356D01*
X171441048Y-63651831D01*
X171397389Y-63612508D01*
X171305868Y-63572571D01*
X171208528Y-63561950D01*
X171162914Y-63564132D01*
X171061731Y-63590234D01*
X170980894Y-63651343D01*
X170944057Y-63707495D01*
X170913695Y-63801479D01*
X170904690Y-63906821D01*
X170564216Y-63906821D01*
X170564216Y-63902424D01*
X170564924Y-63867762D01*
X170575550Y-63768770D01*
X170602312Y-63667572D01*
X170644816Y-63575628D01*
X170655084Y-63558407D01*
X170714036Y-63479571D01*
X170785677Y-63412853D01*
X170870008Y-63358251D01*
X170906927Y-63340048D01*
X171005969Y-63305157D01*
X171103346Y-63286726D01*
X171208528Y-63280582D01*
X171256957Y-63281788D01*
G37*
G36*
X169592129Y-64906263D02*
G01*
X169698852Y-64900872D01*
X169797370Y-64884701D01*
X169896262Y-64854460D01*
X169904760Y-64851064D01*
X169997427Y-64802772D01*
X170078747Y-64735728D01*
X170114321Y-64693283D01*
X170162394Y-64603889D01*
X170185960Y-64502401D01*
X170188570Y-64451482D01*
X169833930Y-64451482D01*
X169802760Y-64548538D01*
X169767984Y-64580443D01*
X169673142Y-64617558D01*
X169589198Y-64624895D01*
X169468542Y-64624895D01*
X169365707Y-64615545D01*
X169271683Y-64576046D01*
X169214391Y-64495944D01*
X169206714Y-64441224D01*
X169234940Y-64343392D01*
X169319617Y-64275574D01*
X169416658Y-64245105D01*
X169445584Y-64239968D01*
X169662471Y-64211147D01*
X169776502Y-64188036D01*
X169875329Y-64154605D01*
X169977482Y-64098305D01*
X170055878Y-64025882D01*
X170110518Y-63937334D01*
X170141401Y-63832663D01*
X170149003Y-63737316D01*
X170139783Y-63631956D01*
X170107368Y-63529556D01*
X170051615Y-63444234D01*
X170001480Y-63396842D01*
X169907911Y-63340642D01*
X169806963Y-63306128D01*
X169704908Y-63287848D01*
X169607238Y-63281036D01*
X169572590Y-63280582D01*
X169465612Y-63280582D01*
X169355994Y-63286239D01*
X169256240Y-63303209D01*
X169154314Y-63336457D01*
X169065273Y-63384481D01*
X169045025Y-63398796D01*
X168968046Y-63470967D01*
X168916260Y-63555039D01*
X168889667Y-63651012D01*
X168885779Y-63709473D01*
X169240420Y-63709473D01*
X169279439Y-63616748D01*
X169299526Y-63601029D01*
X169393255Y-63567445D01*
X169468542Y-63561950D01*
X169575032Y-63561950D01*
X169676118Y-63572544D01*
X169767953Y-63621707D01*
X169805860Y-63721026D01*
X169806086Y-63731454D01*
X169777166Y-63825221D01*
X169690407Y-63886701D01*
X169600434Y-63909752D01*
X169381103Y-63943946D01*
X169272958Y-63964235D01*
X169177622Y-63992191D01*
X169084352Y-64033529D01*
X168999422Y-64092005D01*
X168991292Y-64099284D01*
X168923801Y-64181831D01*
X168884431Y-64271458D01*
X168865308Y-64375614D01*
X168863309Y-64426570D01*
X168872895Y-64533853D01*
X168901655Y-64628558D01*
X168956927Y-64720067D01*
X169016693Y-64780233D01*
X169102453Y-64835371D01*
X169206348Y-64874755D01*
X169312132Y-64896293D01*
X169413855Y-64905155D01*
X169468542Y-64906263D01*
X169592129Y-64906263D01*
G37*
G36*
X168484732Y-64875000D02*
G01*
X168484732Y-64564811D01*
X167955702Y-64564811D01*
X167955702Y-63622034D01*
X168428556Y-63622034D01*
X168428556Y-63311845D01*
X167603993Y-63311845D01*
X167603993Y-64564811D01*
X167128696Y-64564811D01*
X167128696Y-64875000D01*
X168484732Y-64875000D01*
G37*
G36*
X167803783Y-63061741D02*
G01*
X167904764Y-63046300D01*
X167972799Y-63007030D01*
X168025693Y-62923148D01*
X168034348Y-62858531D01*
X168012650Y-62761341D01*
X167972799Y-62710519D01*
X167883286Y-62664430D01*
X167803783Y-62655321D01*
X167702940Y-62670899D01*
X167635256Y-62710519D01*
X167581942Y-62793982D01*
X167573218Y-62858531D01*
X167595089Y-62955893D01*
X167635256Y-63007030D01*
X167724361Y-63052711D01*
X167803783Y-63061741D01*
G37*
G36*
X166317348Y-63280740D02*
G01*
X166414805Y-63290688D01*
X166514792Y-63321004D01*
X166602627Y-63371532D01*
X166678312Y-63442271D01*
X166710941Y-63484426D01*
X166763148Y-63579131D01*
X166794554Y-63673368D01*
X166812636Y-63778217D01*
X166817531Y-63876535D01*
X166817531Y-64179884D01*
X166816987Y-64213878D01*
X166806518Y-64325853D01*
X166782726Y-64426936D01*
X166739220Y-64529121D01*
X166678312Y-64617079D01*
X166669516Y-64627027D01*
X166592312Y-64695239D01*
X166502958Y-64743241D01*
X166401452Y-64771031D01*
X166302667Y-64778768D01*
X166212739Y-64771851D01*
X166116050Y-64744612D01*
X166027161Y-64691329D01*
X165973670Y-64636576D01*
X165923146Y-64547103D01*
X165897712Y-64448551D01*
X165891850Y-64448551D01*
X165897712Y-64733339D01*
X165897712Y-64846667D01*
X165901406Y-64897844D01*
X165942966Y-64995932D01*
X166030702Y-65051373D01*
X166134139Y-65065020D01*
X166592339Y-65065020D01*
X166592339Y-65375209D01*
X166128277Y-65375209D01*
X166094963Y-65374678D01*
X165985485Y-65364467D01*
X165887087Y-65341259D01*
X165788200Y-65298822D01*
X165703783Y-65239410D01*
X165694256Y-65230853D01*
X165628929Y-65155183D01*
X165582958Y-65066691D01*
X165556343Y-64965376D01*
X165548933Y-64866207D01*
X165548933Y-63894609D01*
X165900643Y-63894609D01*
X165900643Y-64164741D01*
X165901811Y-64199653D01*
X165921736Y-64299410D01*
X165975381Y-64388468D01*
X165994890Y-64407244D01*
X166084907Y-64455358D01*
X166184453Y-64468579D01*
X166209279Y-64467888D01*
X166310712Y-64446383D01*
X166393036Y-64389933D01*
X166417772Y-64357905D01*
X166455586Y-64264873D01*
X166465821Y-64164741D01*
X166465821Y-63894609D01*
X166464684Y-63859148D01*
X166445279Y-63758448D01*
X166393036Y-63669905D01*
X166373749Y-63651358D01*
X166284154Y-63603831D01*
X166184453Y-63590771D01*
X166159706Y-63591475D01*
X166058300Y-63613380D01*
X165975381Y-63670882D01*
X165949982Y-63703157D01*
X165911153Y-63795828D01*
X165900643Y-63894609D01*
X165548933Y-63894609D01*
X165548933Y-63311845D01*
X165900643Y-63311845D01*
X165891850Y-63613729D01*
X165897712Y-63613729D01*
X165914229Y-63539815D01*
X165958811Y-63444858D01*
X166027161Y-63368998D01*
X166107981Y-63318660D01*
X166203348Y-63289217D01*
X166302667Y-63280582D01*
X166317348Y-63280740D01*
G37*
G36*
X165124928Y-64875000D02*
G01*
X165124928Y-63311845D01*
X164782011Y-63311845D01*
X164782011Y-63628384D01*
X164776149Y-63628384D01*
X164752354Y-63533330D01*
X164707888Y-63444748D01*
X164644258Y-63372906D01*
X164554888Y-63316646D01*
X164456913Y-63287885D01*
X164365332Y-63280582D01*
X164257224Y-63290199D01*
X164160535Y-63319050D01*
X164075263Y-63367136D01*
X164001411Y-63434455D01*
X163941571Y-63517773D01*
X163898829Y-63614340D01*
X163875454Y-63709706D01*
X163865169Y-63815216D01*
X163864635Y-63847226D01*
X163864635Y-64875000D01*
X164216344Y-64875000D01*
X164216344Y-63886304D01*
X164226854Y-63788897D01*
X164265683Y-63698524D01*
X164291083Y-63667463D01*
X164372176Y-63612415D01*
X164468587Y-63591445D01*
X164491850Y-63590771D01*
X164589896Y-63603912D01*
X164679383Y-63651732D01*
X164698968Y-63670394D01*
X164752263Y-63759960D01*
X164772058Y-63861720D01*
X164773218Y-63897540D01*
X164773218Y-64875000D01*
X165124928Y-64875000D01*
G37*
G36*
X162864773Y-63281788D02*
G01*
X162967989Y-63293320D01*
X163063245Y-63317062D01*
X163159750Y-63357763D01*
X163168814Y-63362617D01*
X163252429Y-63417819D01*
X163329640Y-63492537D01*
X163386407Y-63573185D01*
X163400724Y-63599518D01*
X163438276Y-63693246D01*
X163460182Y-63796133D01*
X163466519Y-63896563D01*
X163466519Y-64290282D01*
X163465815Y-64324587D01*
X163455253Y-64422608D01*
X163428653Y-64522910D01*
X163386407Y-64614148D01*
X163376076Y-64631190D01*
X163316752Y-64709243D01*
X163244643Y-64775369D01*
X163159750Y-64829570D01*
X163122327Y-64847545D01*
X163021892Y-64881997D01*
X162923098Y-64900196D01*
X162816344Y-64906263D01*
X162785678Y-64905793D01*
X162682946Y-64896757D01*
X162587367Y-64876221D01*
X162486891Y-64838668D01*
X162395758Y-64786095D01*
X162335600Y-64738033D01*
X162262944Y-64655377D01*
X162211385Y-64560048D01*
X162183267Y-64464672D01*
X162529603Y-64464672D01*
X162543227Y-64502224D01*
X162612887Y-64579676D01*
X162705000Y-64614881D01*
X162813413Y-64624895D01*
X162903478Y-64616881D01*
X163003923Y-64578733D01*
X163074448Y-64509170D01*
X163115053Y-64408190D01*
X163126044Y-64296632D01*
X163126044Y-64187212D01*
X162172032Y-64187212D01*
X162172032Y-63906821D01*
X162512506Y-63906821D01*
X162512506Y-63968370D01*
X163126044Y-63968370D01*
X163126044Y-63907309D01*
X163122351Y-63838484D01*
X163098835Y-63737356D01*
X163048863Y-63651831D01*
X163005205Y-63612508D01*
X162913684Y-63572571D01*
X162816344Y-63561950D01*
X162770730Y-63564132D01*
X162669547Y-63590234D01*
X162588710Y-63651343D01*
X162551873Y-63707495D01*
X162521511Y-63801479D01*
X162512506Y-63906821D01*
X162172032Y-63906821D01*
X162172032Y-63902424D01*
X162172740Y-63867762D01*
X162183366Y-63768770D01*
X162210128Y-63667572D01*
X162252632Y-63575628D01*
X162262899Y-63558407D01*
X162321852Y-63479571D01*
X162393493Y-63412853D01*
X162477824Y-63358251D01*
X162514742Y-63340048D01*
X162613785Y-63305157D01*
X162711162Y-63286726D01*
X162816344Y-63280582D01*
X162864773Y-63281788D01*
G37*
G36*
X160865332Y-63250296D02*
G01*
X160853609Y-63605914D01*
X160859471Y-63605914D01*
X160888472Y-63524100D01*
X160938506Y-63439218D01*
X161011390Y-63365579D01*
X161077193Y-63324492D01*
X161177314Y-63290626D01*
X161281522Y-63280582D01*
X161390027Y-63290749D01*
X161487419Y-63321249D01*
X161573698Y-63372082D01*
X161648863Y-63443248D01*
X161681493Y-63485693D01*
X161733700Y-63581253D01*
X161765105Y-63676538D01*
X161783187Y-63782717D01*
X161788082Y-63882397D01*
X161788082Y-64307379D01*
X161787532Y-64341140D01*
X161776954Y-64452481D01*
X161752911Y-64553210D01*
X161708947Y-64655334D01*
X161647398Y-64743597D01*
X161571774Y-64814763D01*
X161485587Y-64865596D01*
X161388836Y-64896096D01*
X161281522Y-64906263D01*
X161194076Y-64899810D01*
X161098951Y-64874397D01*
X161009924Y-64824685D01*
X160954180Y-64773191D01*
X160896202Y-64687943D01*
X160859471Y-64593143D01*
X160856540Y-64593143D01*
X160856540Y-64875000D01*
X160513623Y-64875000D01*
X160513623Y-63905844D01*
X160865332Y-63905844D01*
X160865332Y-64281001D01*
X160867157Y-64326360D01*
X160888980Y-64428777D01*
X160940071Y-64514009D01*
X160959580Y-64533243D01*
X161049596Y-64582530D01*
X161149143Y-64596074D01*
X161173994Y-64595374D01*
X161276229Y-64573602D01*
X161360657Y-64516451D01*
X161386388Y-64484205D01*
X161425725Y-64390399D01*
X161436372Y-64289305D01*
X161436372Y-63897540D01*
X161435189Y-63861720D01*
X161415003Y-63759960D01*
X161360657Y-63670394D01*
X161340682Y-63651732D01*
X161249327Y-63603912D01*
X161149143Y-63590771D01*
X161124396Y-63591496D01*
X161022989Y-63614070D01*
X160940071Y-63673325D01*
X160914671Y-63706504D01*
X160875842Y-63802621D01*
X160865332Y-63905844D01*
X160513623Y-63905844D01*
X160513623Y-62811636D01*
X160865332Y-62811636D01*
X160865332Y-63250296D01*
G37*
G36*
X158335465Y-64875000D02*
G01*
X158571892Y-63311845D01*
X158290524Y-63311845D01*
X158161076Y-64272208D01*
X158149827Y-64370646D01*
X158143002Y-64454902D01*
X158135222Y-64556190D01*
X158129812Y-64620010D01*
X158116135Y-64620010D01*
X158106127Y-64520003D01*
X158099038Y-64456367D01*
X158087101Y-64355248D01*
X158076568Y-64272208D01*
X157927579Y-63311845D01*
X157634976Y-63311845D01*
X157491362Y-64272208D01*
X157478722Y-64371350D01*
X157468891Y-64456367D01*
X157458470Y-64553740D01*
X157451794Y-64622941D01*
X157438117Y-64622941D01*
X157429371Y-64520349D01*
X157423951Y-64456367D01*
X157413919Y-64355248D01*
X157403923Y-64272208D01*
X157269101Y-63311845D01*
X156996037Y-63311845D01*
X157238326Y-64875000D01*
X157601271Y-64875000D01*
X157736093Y-63925383D01*
X157749951Y-63825619D01*
X157760029Y-63750017D01*
X157771999Y-63652335D01*
X157778103Y-63591748D01*
X157789826Y-63591748D01*
X157802630Y-63693002D01*
X157809366Y-63750017D01*
X157821303Y-63847681D01*
X157831836Y-63925383D01*
X157972520Y-64875000D01*
X158335465Y-64875000D01*
G37*
G36*
X156735674Y-64875000D02*
G01*
X156735674Y-64564811D01*
X156206644Y-64564811D01*
X156206644Y-63622034D01*
X156679498Y-63622034D01*
X156679498Y-63311845D01*
X155854935Y-63311845D01*
X155854935Y-64564811D01*
X155379638Y-64564811D01*
X155379638Y-64875000D01*
X156735674Y-64875000D01*
G37*
G36*
X156054725Y-63061741D02*
G01*
X156155706Y-63046300D01*
X156223741Y-63007030D01*
X156276635Y-62923148D01*
X156285290Y-62858531D01*
X156263592Y-62761341D01*
X156223741Y-62710519D01*
X156134228Y-62664430D01*
X156054725Y-62655321D01*
X155953882Y-62670899D01*
X155886198Y-62710519D01*
X155832884Y-62793982D01*
X155824160Y-62858531D01*
X155846031Y-62955893D01*
X155886198Y-63007030D01*
X155975303Y-63052711D01*
X156054725Y-63061741D01*
G37*
G36*
X154258075Y-64875000D02*
G01*
X154360962Y-64867031D01*
X154463427Y-64839017D01*
X154551827Y-64790833D01*
X154602946Y-64747505D01*
X154664813Y-64668641D01*
X154706432Y-64575480D01*
X154727804Y-64468022D01*
X154730929Y-64402145D01*
X154730929Y-63622034D01*
X155150050Y-63622034D01*
X155150050Y-63311845D01*
X154730929Y-63311845D01*
X154730929Y-62874162D01*
X154376288Y-62874162D01*
X154376288Y-63311845D01*
X153782778Y-63311845D01*
X153782778Y-63622034D01*
X154376288Y-63622034D01*
X154376288Y-64404588D01*
X154351458Y-64501976D01*
X154338675Y-64519870D01*
X154249557Y-64564109D01*
X154233162Y-64564811D01*
X153811110Y-64564811D01*
X153811110Y-64875000D01*
X154258075Y-64875000D01*
G37*
G36*
X153375870Y-64875000D02*
G01*
X153375870Y-62811636D01*
X153024160Y-62811636D01*
X153024160Y-63327477D01*
X153032953Y-63628384D01*
X153027091Y-63628384D01*
X153003296Y-63533330D01*
X152958830Y-63444748D01*
X152895200Y-63372906D01*
X152805830Y-63316646D01*
X152707855Y-63287885D01*
X152616274Y-63280582D01*
X152508166Y-63290199D01*
X152411477Y-63319050D01*
X152326206Y-63367136D01*
X152252353Y-63434455D01*
X152192513Y-63517773D01*
X152149771Y-63614340D01*
X152126396Y-63709706D01*
X152116111Y-63815216D01*
X152115577Y-63847226D01*
X152115577Y-64875000D01*
X152467286Y-64875000D01*
X152467286Y-63886304D01*
X152477796Y-63788897D01*
X152516625Y-63698524D01*
X152542025Y-63667463D01*
X152623118Y-63612415D01*
X152719530Y-63591445D01*
X152742792Y-63590771D01*
X152840838Y-63603912D01*
X152930325Y-63651732D01*
X152949910Y-63670394D01*
X153003205Y-63759960D01*
X153023000Y-63861720D01*
X153024160Y-63897540D01*
X153024160Y-64875000D01*
X153375870Y-64875000D01*
G37*
G36*
X149141187Y-64875000D02*
G01*
X149250974Y-64866298D01*
X149349282Y-64840195D01*
X149446157Y-64790027D01*
X149511459Y-64735781D01*
X149578757Y-64650516D01*
X149624031Y-64551340D01*
X149645783Y-64451505D01*
X149650678Y-64369417D01*
X149650678Y-63121824D01*
X150159680Y-63121824D01*
X150159680Y-62811636D01*
X149298968Y-62811636D01*
X149298968Y-64371371D01*
X149279696Y-64467961D01*
X149249631Y-64512543D01*
X149160792Y-64560677D01*
X149116274Y-64564811D01*
X148662960Y-64564811D01*
X148662960Y-64875000D01*
X149141187Y-64875000D01*
G37*
G36*
X147803585Y-63284673D02*
G01*
X147903877Y-63300381D01*
X148009858Y-63333596D01*
X148103965Y-63382847D01*
X148186198Y-63448133D01*
X148236437Y-63503319D01*
X148292466Y-63590076D01*
X148331806Y-63687913D01*
X148354456Y-63796830D01*
X148360587Y-63899005D01*
X148360587Y-64287840D01*
X148357862Y-64356861D01*
X148339981Y-64468943D01*
X148305409Y-64569946D01*
X148254148Y-64659869D01*
X148186198Y-64738712D01*
X148116440Y-64795653D01*
X148024029Y-64847194D01*
X147919744Y-64882701D01*
X147820906Y-64900372D01*
X147713344Y-64906263D01*
X147623102Y-64902172D01*
X147522810Y-64886464D01*
X147416829Y-64853249D01*
X147322722Y-64803998D01*
X147240489Y-64738712D01*
X147190250Y-64683526D01*
X147134221Y-64596769D01*
X147094881Y-64498932D01*
X147072231Y-64390015D01*
X147066100Y-64287840D01*
X147066100Y-63898028D01*
X147417810Y-63898028D01*
X147417810Y-64288817D01*
X147419706Y-64333811D01*
X147442385Y-64434721D01*
X147495479Y-64517428D01*
X147521148Y-64540085D01*
X147609518Y-64583094D01*
X147713344Y-64596074D01*
X147747530Y-64594845D01*
X147845036Y-64573878D01*
X147931697Y-64517428D01*
X147957926Y-64485280D01*
X147998024Y-64391032D01*
X148008877Y-64288817D01*
X148008877Y-63898028D01*
X148006993Y-63853046D01*
X147984457Y-63752278D01*
X147931697Y-63669905D01*
X147905887Y-63647108D01*
X147817249Y-63603831D01*
X147713344Y-63590771D01*
X147679165Y-63592007D01*
X147581789Y-63613105D01*
X147495479Y-63669905D01*
X147469084Y-63701888D01*
X147428732Y-63795881D01*
X147417810Y-63898028D01*
X147066100Y-63898028D01*
X147066100Y-63896074D01*
X147068825Y-63827740D01*
X147086707Y-63716639D01*
X147121278Y-63616338D01*
X147172539Y-63526836D01*
X147240489Y-63448133D01*
X147310247Y-63391192D01*
X147402658Y-63339650D01*
X147506943Y-63304144D01*
X147605781Y-63286473D01*
X147713344Y-63280582D01*
X147803585Y-63284673D01*
G37*
G36*
X146257168Y-64875000D02*
G01*
X146789129Y-63311845D01*
X146423253Y-63311845D01*
X146111110Y-64263904D01*
X146081555Y-64362324D01*
X146061773Y-64441224D01*
X146039143Y-64540486D01*
X146029045Y-64586304D01*
X146006355Y-64489434D01*
X145995828Y-64441224D01*
X145971596Y-64341087D01*
X145950399Y-64266835D01*
X145643630Y-63311845D01*
X145280685Y-63311845D01*
X145809715Y-64875000D01*
X146257168Y-64875000D01*
G37*
G36*
X144401968Y-63281788D02*
G01*
X144505184Y-63293320D01*
X144600440Y-63317062D01*
X144696944Y-63357763D01*
X144706009Y-63362617D01*
X144789624Y-63417819D01*
X144866834Y-63492537D01*
X144923602Y-63573185D01*
X144937919Y-63599518D01*
X144975471Y-63693246D01*
X144997376Y-63796133D01*
X145003713Y-63896563D01*
X145003713Y-64290282D01*
X145003009Y-64324587D01*
X144992448Y-64422608D01*
X144965848Y-64522910D01*
X144923602Y-64614148D01*
X144913271Y-64631190D01*
X144853947Y-64709243D01*
X144781838Y-64775369D01*
X144696944Y-64829570D01*
X144659522Y-64847545D01*
X144559086Y-64881997D01*
X144460293Y-64900196D01*
X144353539Y-64906263D01*
X144322873Y-64905793D01*
X144220141Y-64896757D01*
X144124561Y-64876221D01*
X144024086Y-64838668D01*
X143932953Y-64786095D01*
X143872795Y-64738033D01*
X143800139Y-64655377D01*
X143748580Y-64560048D01*
X143720461Y-64464672D01*
X144066798Y-64464672D01*
X144080422Y-64502224D01*
X144150081Y-64579676D01*
X144242195Y-64614881D01*
X144350608Y-64624895D01*
X144440673Y-64616881D01*
X144541117Y-64578733D01*
X144611643Y-64509170D01*
X144652248Y-64408190D01*
X144663239Y-64296632D01*
X144663239Y-64187212D01*
X143709226Y-64187212D01*
X143709226Y-63906821D01*
X144049701Y-63906821D01*
X144049701Y-63968370D01*
X144663239Y-63968370D01*
X144663239Y-63907309D01*
X144659546Y-63838484D01*
X144636030Y-63737356D01*
X144586058Y-63651831D01*
X144542400Y-63612508D01*
X144450878Y-63572571D01*
X144353539Y-63561950D01*
X144307925Y-63564132D01*
X144206741Y-63590234D01*
X144125905Y-63651343D01*
X144089068Y-63707495D01*
X144058705Y-63801479D01*
X144049701Y-63906821D01*
X143709226Y-63906821D01*
X143709226Y-63902424D01*
X143709935Y-63867762D01*
X143720561Y-63768770D01*
X143747322Y-63667572D01*
X143789826Y-63575628D01*
X143800094Y-63558407D01*
X143859046Y-63479571D01*
X143930688Y-63412853D01*
X144015018Y-63358251D01*
X144051937Y-63340048D01*
X144150980Y-63305157D01*
X144248357Y-63286726D01*
X144353539Y-63280582D01*
X144401968Y-63281788D01*
G37*
G36*
X143100085Y-65343946D02*
G01*
X142874893Y-64468579D01*
X142424997Y-64468579D01*
X142790385Y-65343946D01*
X143100085Y-65343946D01*
G37*
G36*
X173517112Y-68235000D02*
G01*
X173165402Y-68235000D01*
X173165402Y-67422159D01*
X172833720Y-67422159D01*
X172770730Y-67420263D01*
X172663779Y-67407293D01*
X172565097Y-67382035D01*
X172474683Y-67344490D01*
X172455781Y-67334478D01*
X172369399Y-67277148D01*
X172296565Y-67207701D01*
X172237279Y-67126137D01*
X172222177Y-67099421D01*
X172182564Y-67004166D01*
X172159456Y-66899371D01*
X172152771Y-66796898D01*
X172509854Y-66796898D01*
X172512928Y-66847467D01*
X172540680Y-66944545D01*
X172597293Y-67024532D01*
X172638493Y-67058602D01*
X172730635Y-67099675D01*
X172833720Y-67111971D01*
X173165402Y-67111971D01*
X173165402Y-66481824D01*
X172833720Y-66481824D01*
X172780014Y-66484916D01*
X172678495Y-66512822D01*
X172597293Y-66569752D01*
X172563223Y-66610507D01*
X172522150Y-66699468D01*
X172509854Y-66796898D01*
X172152771Y-66796898D01*
X172153514Y-66761881D01*
X172164655Y-66661984D01*
X172192715Y-66560051D01*
X172237279Y-66467658D01*
X172248053Y-66450378D01*
X172310048Y-66371304D01*
X172385592Y-66304443D01*
X172474683Y-66249794D01*
X172534040Y-66223232D01*
X172629966Y-66193694D01*
X172734161Y-66176521D01*
X172833720Y-66171636D01*
X173517112Y-66171636D01*
X173517112Y-68235000D01*
G37*
G36*
X171256957Y-66641788D02*
G01*
X171360173Y-66653320D01*
X171455429Y-66677062D01*
X171551934Y-66717763D01*
X171560999Y-66722617D01*
X171644614Y-66777819D01*
X171721824Y-66852537D01*
X171778591Y-66933185D01*
X171792908Y-66959518D01*
X171830460Y-67053246D01*
X171852366Y-67156133D01*
X171858703Y-67256563D01*
X171858703Y-67650282D01*
X171857999Y-67684587D01*
X171847437Y-67782608D01*
X171820838Y-67882910D01*
X171778591Y-67974148D01*
X171768261Y-67991190D01*
X171708936Y-68069243D01*
X171636827Y-68135369D01*
X171551934Y-68189570D01*
X171514511Y-68207545D01*
X171414076Y-68241997D01*
X171315282Y-68260196D01*
X171208528Y-68266263D01*
X171177863Y-68265793D01*
X171075130Y-68256757D01*
X170979551Y-68236221D01*
X170879075Y-68198668D01*
X170787942Y-68146095D01*
X170727784Y-68098033D01*
X170655128Y-68015377D01*
X170603569Y-67920048D01*
X170575451Y-67824672D01*
X170921787Y-67824672D01*
X170935412Y-67862224D01*
X171005071Y-67939676D01*
X171097184Y-67974881D01*
X171205598Y-67984895D01*
X171295662Y-67976881D01*
X171396107Y-67938733D01*
X171466632Y-67869170D01*
X171507237Y-67768190D01*
X171518228Y-67656632D01*
X171518228Y-67547212D01*
X170564216Y-67547212D01*
X170564216Y-67266821D01*
X170904690Y-67266821D01*
X170904690Y-67328370D01*
X171518228Y-67328370D01*
X171518228Y-67267309D01*
X171514535Y-67198484D01*
X171491019Y-67097356D01*
X171441048Y-67011831D01*
X171397389Y-66972508D01*
X171305868Y-66932571D01*
X171208528Y-66921950D01*
X171162914Y-66924132D01*
X171061731Y-66950234D01*
X170980894Y-67011343D01*
X170944057Y-67067495D01*
X170913695Y-67161479D01*
X170904690Y-67266821D01*
X170564216Y-67266821D01*
X170564216Y-67262424D01*
X170564924Y-67227762D01*
X170575550Y-67128770D01*
X170602312Y-67027572D01*
X170644816Y-66935628D01*
X170655084Y-66918407D01*
X170714036Y-66839571D01*
X170785677Y-66772853D01*
X170870008Y-66718251D01*
X170906927Y-66700048D01*
X171005969Y-66665157D01*
X171103346Y-66646726D01*
X171208528Y-66640582D01*
X171256957Y-66641788D01*
G37*
G36*
X169364006Y-68235000D02*
G01*
X169466894Y-68227031D01*
X169569358Y-68199017D01*
X169657758Y-68150833D01*
X169708877Y-68107505D01*
X169770744Y-68028641D01*
X169812364Y-67935480D01*
X169833736Y-67828022D01*
X169836861Y-67762145D01*
X169836861Y-66982034D01*
X170255981Y-66982034D01*
X170255981Y-66671845D01*
X169836861Y-66671845D01*
X169836861Y-66234162D01*
X169482220Y-66234162D01*
X169482220Y-66671845D01*
X168888710Y-66671845D01*
X168888710Y-66982034D01*
X169482220Y-66982034D01*
X169482220Y-67764588D01*
X169457389Y-67861976D01*
X169444607Y-67879870D01*
X169355489Y-67924109D01*
X169339094Y-67924811D01*
X168917042Y-67924811D01*
X168917042Y-68235000D01*
X169364006Y-68235000D01*
G37*
G36*
X167900084Y-66641788D02*
G01*
X168003300Y-66653320D01*
X168098556Y-66677062D01*
X168195060Y-66717763D01*
X168204125Y-66722617D01*
X168287740Y-66777819D01*
X168364950Y-66852537D01*
X168421718Y-66933185D01*
X168436034Y-66959518D01*
X168473587Y-67053246D01*
X168495492Y-67156133D01*
X168501829Y-67256563D01*
X168501829Y-67650282D01*
X168501125Y-67684587D01*
X168490564Y-67782608D01*
X168463964Y-67882910D01*
X168421718Y-67974148D01*
X168411387Y-67991190D01*
X168352063Y-68069243D01*
X168279954Y-68135369D01*
X168195060Y-68189570D01*
X168157638Y-68207545D01*
X168057202Y-68241997D01*
X167958408Y-68260196D01*
X167851655Y-68266263D01*
X167820989Y-68265793D01*
X167718257Y-68256757D01*
X167622677Y-68236221D01*
X167522202Y-68198668D01*
X167431069Y-68146095D01*
X167370910Y-68098033D01*
X167298254Y-68015377D01*
X167246696Y-67920048D01*
X167218577Y-67824672D01*
X167564914Y-67824672D01*
X167578538Y-67862224D01*
X167648197Y-67939676D01*
X167740311Y-67974881D01*
X167848724Y-67984895D01*
X167938788Y-67976881D01*
X168039233Y-67938733D01*
X168109758Y-67869170D01*
X168150364Y-67768190D01*
X168161355Y-67656632D01*
X168161355Y-67547212D01*
X167207342Y-67547212D01*
X167207342Y-67266821D01*
X167547817Y-67266821D01*
X167547817Y-67328370D01*
X168161355Y-67328370D01*
X168161355Y-67267309D01*
X168157661Y-67198484D01*
X168134145Y-67097356D01*
X168084174Y-67011831D01*
X168040516Y-66972508D01*
X167948994Y-66932571D01*
X167851655Y-66921950D01*
X167806041Y-66924132D01*
X167704857Y-66950234D01*
X167624020Y-67011343D01*
X167587184Y-67067495D01*
X167556821Y-67161479D01*
X167547817Y-67266821D01*
X167207342Y-67266821D01*
X167207342Y-67262424D01*
X167208051Y-67227762D01*
X167218677Y-67128770D01*
X167245438Y-67027572D01*
X167287942Y-66935628D01*
X167298210Y-66918407D01*
X167357162Y-66839571D01*
X167428804Y-66772853D01*
X167513134Y-66718251D01*
X167550053Y-66700048D01*
X167649095Y-66665157D01*
X167746472Y-66646726D01*
X167851655Y-66640582D01*
X167900084Y-66641788D01*
G37*
G36*
X166758424Y-68235000D02*
G01*
X166758424Y-66671845D01*
X166415507Y-66671845D01*
X166415507Y-66976172D01*
X166406714Y-66976172D01*
X166380645Y-66875836D01*
X166327980Y-66784944D01*
X166271892Y-66729487D01*
X166187041Y-66678870D01*
X166087645Y-66649264D01*
X165984662Y-66640582D01*
X165884715Y-66648179D01*
X165781652Y-66675466D01*
X165690496Y-66722597D01*
X165611247Y-66789573D01*
X165602178Y-66799340D01*
X165539347Y-66885710D01*
X165494467Y-66986552D01*
X165469924Y-67086660D01*
X165459124Y-67197847D01*
X165458563Y-67231650D01*
X165458563Y-67360122D01*
X165827370Y-67360122D01*
X165827370Y-67258028D01*
X165837880Y-67158217D01*
X165876709Y-67064517D01*
X165902108Y-67031859D01*
X165986315Y-66973656D01*
X166082909Y-66952038D01*
X166117042Y-66950771D01*
X166215485Y-66962260D01*
X166304593Y-67004705D01*
X166372485Y-67091510D01*
X166402188Y-67200975D01*
X166406714Y-67277568D01*
X166406714Y-68235000D01*
X166758424Y-68235000D01*
G37*
G36*
X162808040Y-68266263D02*
G01*
X162916210Y-68260312D01*
X163015957Y-68242460D01*
X163116908Y-68208667D01*
X163154376Y-68191036D01*
X163239222Y-68137961D01*
X163317676Y-68065583D01*
X163380545Y-67978545D01*
X163422792Y-67887888D01*
X163449391Y-67787501D01*
X163459953Y-67688831D01*
X163460657Y-67654190D01*
X163460657Y-66752445D01*
X163454320Y-66651149D01*
X163432414Y-66547841D01*
X163394862Y-66454266D01*
X163380545Y-66428091D01*
X163324035Y-66348359D01*
X163246998Y-66274649D01*
X163163441Y-66220362D01*
X163154376Y-66215600D01*
X163057586Y-66175929D01*
X162961582Y-66152788D01*
X162857156Y-66141548D01*
X162808040Y-66140373D01*
X162701325Y-66146323D01*
X162602647Y-66164175D01*
X162502431Y-66197968D01*
X162465123Y-66215600D01*
X162379877Y-66268417D01*
X162300761Y-66340621D01*
X162242162Y-66419084D01*
X162237000Y-66427602D01*
X162193981Y-66518211D01*
X162166895Y-66618455D01*
X162156140Y-66716914D01*
X162155423Y-66751468D01*
X162509575Y-66751468D01*
X162520497Y-66652367D01*
X162560849Y-66560364D01*
X162587244Y-66528719D01*
X162674199Y-66472619D01*
X162773174Y-66451782D01*
X162808040Y-66450561D01*
X162906615Y-66461346D01*
X162998525Y-66501190D01*
X163030301Y-66527254D01*
X163086751Y-66614179D01*
X163107718Y-66713825D01*
X163108947Y-66749026D01*
X163108947Y-67655167D01*
X163097888Y-67754269D01*
X163057028Y-67846272D01*
X163030301Y-67877916D01*
X162942295Y-67934016D01*
X162842929Y-67954853D01*
X162808040Y-67956074D01*
X162709671Y-67945083D01*
X162618523Y-67904478D01*
X162587244Y-67877916D01*
X162531496Y-67789588D01*
X162510789Y-67689422D01*
X162509575Y-67654190D01*
X162155423Y-67654190D01*
X162161876Y-67755526D01*
X162184182Y-67858966D01*
X162222421Y-67952771D01*
X162237000Y-67979033D01*
X162294330Y-68058765D01*
X162372050Y-68132475D01*
X162456027Y-68186762D01*
X162465123Y-68191524D01*
X162561370Y-68230937D01*
X162656476Y-68253928D01*
X162759619Y-68265095D01*
X162808040Y-68266263D01*
G37*
G36*
X161723113Y-68235000D02*
G01*
X161723113Y-66671845D01*
X161380196Y-66671845D01*
X161380196Y-66976172D01*
X161371404Y-66976172D01*
X161345334Y-66875836D01*
X161292670Y-66784944D01*
X161236581Y-66729487D01*
X161151731Y-66678870D01*
X161052335Y-66649264D01*
X160949352Y-66640582D01*
X160849405Y-66648179D01*
X160746342Y-66675466D01*
X160655186Y-66722597D01*
X160575937Y-66789573D01*
X160566868Y-66799340D01*
X160504036Y-66885710D01*
X160459157Y-66986552D01*
X160434613Y-67086660D01*
X160423814Y-67197847D01*
X160423253Y-67231650D01*
X160423253Y-67360122D01*
X160792060Y-67360122D01*
X160792060Y-67258028D01*
X160802570Y-67158217D01*
X160841398Y-67064517D01*
X160866798Y-67031859D01*
X160951004Y-66973656D01*
X161047599Y-66952038D01*
X161081732Y-66950771D01*
X161180175Y-66962260D01*
X161269283Y-67004705D01*
X161337175Y-67091510D01*
X161366877Y-67200975D01*
X161371404Y-67277568D01*
X161371404Y-68235000D01*
X161723113Y-68235000D01*
G37*
G36*
X159552643Y-66644673D02*
G01*
X159652935Y-66660381D01*
X159758916Y-66693596D01*
X159853023Y-66742847D01*
X159935256Y-66808133D01*
X159985495Y-66863319D01*
X160041524Y-66950076D01*
X160080864Y-67047913D01*
X160103514Y-67156830D01*
X160109645Y-67259005D01*
X160109645Y-67647840D01*
X160106920Y-67716861D01*
X160089038Y-67828943D01*
X160054467Y-67929946D01*
X160003206Y-68019869D01*
X159935256Y-68098712D01*
X159865498Y-68155653D01*
X159773087Y-68207194D01*
X159668802Y-68242701D01*
X159569964Y-68260372D01*
X159462401Y-68266263D01*
X159372160Y-68262172D01*
X159271868Y-68246464D01*
X159165887Y-68213249D01*
X159071780Y-68163998D01*
X158989547Y-68098712D01*
X158939308Y-68043526D01*
X158883279Y-67956769D01*
X158843939Y-67858932D01*
X158821289Y-67750015D01*
X158815158Y-67647840D01*
X158815158Y-67258028D01*
X159166868Y-67258028D01*
X159166868Y-67648817D01*
X159168764Y-67693811D01*
X159191443Y-67794721D01*
X159244537Y-67877428D01*
X159270206Y-67900085D01*
X159358576Y-67943094D01*
X159462401Y-67956074D01*
X159496588Y-67954845D01*
X159594094Y-67933878D01*
X159680755Y-67877428D01*
X159706984Y-67845280D01*
X159747082Y-67751032D01*
X159757935Y-67648817D01*
X159757935Y-67258028D01*
X159756051Y-67213046D01*
X159733515Y-67112278D01*
X159680755Y-67029905D01*
X159654944Y-67007108D01*
X159566307Y-66963831D01*
X159462401Y-66950771D01*
X159428223Y-66952007D01*
X159330847Y-66973105D01*
X159244537Y-67029905D01*
X159218141Y-67061888D01*
X159177790Y-67155881D01*
X159166868Y-67258028D01*
X158815158Y-67258028D01*
X158815158Y-67256074D01*
X158817883Y-67187740D01*
X158835764Y-67076639D01*
X158870336Y-66976338D01*
X158921597Y-66886836D01*
X158989547Y-66808133D01*
X159059305Y-66751192D01*
X159151716Y-66699650D01*
X159256001Y-66664144D01*
X159354839Y-66646473D01*
X159462401Y-66640582D01*
X159552643Y-66644673D01*
G37*
G36*
X157843071Y-68266263D02*
G01*
X157949794Y-68260872D01*
X158048312Y-68244701D01*
X158147204Y-68214460D01*
X158155702Y-68211064D01*
X158248369Y-68162772D01*
X158329689Y-68095728D01*
X158365263Y-68053283D01*
X158413336Y-67963889D01*
X158436902Y-67862401D01*
X158439512Y-67811482D01*
X158084872Y-67811482D01*
X158053702Y-67908538D01*
X158018926Y-67940443D01*
X157924084Y-67977558D01*
X157840140Y-67984895D01*
X157719484Y-67984895D01*
X157616649Y-67975545D01*
X157522625Y-67936046D01*
X157465333Y-67855944D01*
X157457656Y-67801224D01*
X157485882Y-67703392D01*
X157570559Y-67635574D01*
X157667600Y-67605105D01*
X157696526Y-67599968D01*
X157913413Y-67571147D01*
X158027444Y-67548036D01*
X158126271Y-67514605D01*
X158228424Y-67458305D01*
X158306820Y-67385882D01*
X158361460Y-67297334D01*
X158392343Y-67192663D01*
X158399945Y-67097316D01*
X158390725Y-66991956D01*
X158358310Y-66889556D01*
X158302557Y-66804234D01*
X158252422Y-66756842D01*
X158158854Y-66700642D01*
X158057905Y-66666128D01*
X157955851Y-66647848D01*
X157858180Y-66641036D01*
X157823532Y-66640582D01*
X157716554Y-66640582D01*
X157606936Y-66646239D01*
X157507182Y-66663209D01*
X157405257Y-66696457D01*
X157316215Y-66744481D01*
X157295967Y-66758796D01*
X157218988Y-66830967D01*
X157167202Y-66915039D01*
X157140609Y-67011012D01*
X157136721Y-67069473D01*
X157491362Y-67069473D01*
X157530381Y-66976748D01*
X157550468Y-66961029D01*
X157644197Y-66927445D01*
X157719484Y-66921950D01*
X157825974Y-66921950D01*
X157927060Y-66932544D01*
X158018895Y-66981707D01*
X158056802Y-67081026D01*
X158057028Y-67091454D01*
X158028108Y-67185221D01*
X157941349Y-67246701D01*
X157851376Y-67269752D01*
X157632046Y-67303946D01*
X157523900Y-67324235D01*
X157428565Y-67352191D01*
X157335294Y-67393529D01*
X157250364Y-67452005D01*
X157242234Y-67459284D01*
X157174743Y-67541831D01*
X157135373Y-67631458D01*
X157116250Y-67735614D01*
X157114251Y-67786570D01*
X157123837Y-67893853D01*
X157152597Y-67988558D01*
X157207869Y-68080067D01*
X157267635Y-68140233D01*
X157353395Y-68195371D01*
X157457290Y-68234755D01*
X157563074Y-68256293D01*
X157664797Y-68265155D01*
X157719484Y-68266263D01*
X157843071Y-68266263D01*
G37*
G36*
X156164635Y-68266263D02*
G01*
X156271357Y-68260872D01*
X156369875Y-68244701D01*
X156468767Y-68214460D01*
X156477265Y-68211064D01*
X156569933Y-68162772D01*
X156651253Y-68095728D01*
X156686826Y-68053283D01*
X156734900Y-67963889D01*
X156758465Y-67862401D01*
X156761076Y-67811482D01*
X156406435Y-67811482D01*
X156375265Y-67908538D01*
X156340489Y-67940443D01*
X156245647Y-67977558D01*
X156161704Y-67984895D01*
X156041048Y-67984895D01*
X155938212Y-67975545D01*
X155844188Y-67936046D01*
X155786896Y-67855944D01*
X155779219Y-67801224D01*
X155807445Y-67703392D01*
X155892122Y-67635574D01*
X155989163Y-67605105D01*
X156018089Y-67599968D01*
X156234976Y-67571147D01*
X156349007Y-67548036D01*
X156447834Y-67514605D01*
X156549987Y-67458305D01*
X156628383Y-67385882D01*
X156683023Y-67297334D01*
X156713906Y-67192663D01*
X156721508Y-67097316D01*
X156712288Y-66991956D01*
X156679873Y-66889556D01*
X156624120Y-66804234D01*
X156573986Y-66756842D01*
X156480417Y-66700642D01*
X156379468Y-66666128D01*
X156277414Y-66647848D01*
X156179743Y-66641036D01*
X156145095Y-66640582D01*
X156038117Y-66640582D01*
X155928499Y-66646239D01*
X155828745Y-66663209D01*
X155726820Y-66696457D01*
X155637778Y-66744481D01*
X155617531Y-66758796D01*
X155540551Y-66830967D01*
X155488765Y-66915039D01*
X155462172Y-67011012D01*
X155458284Y-67069473D01*
X155812925Y-67069473D01*
X155851945Y-66976748D01*
X155872032Y-66961029D01*
X155965760Y-66927445D01*
X156041048Y-66921950D01*
X156147538Y-66921950D01*
X156248624Y-66932544D01*
X156340458Y-66981707D01*
X156378366Y-67081026D01*
X156378591Y-67091454D01*
X156349671Y-67185221D01*
X156262912Y-67246701D01*
X156172939Y-67269752D01*
X155953609Y-67303946D01*
X155845464Y-67324235D01*
X155750128Y-67352191D01*
X155656857Y-67393529D01*
X155571927Y-67452005D01*
X155563797Y-67459284D01*
X155496306Y-67541831D01*
X155456936Y-67631458D01*
X155437814Y-67735614D01*
X155435814Y-67786570D01*
X155445400Y-67893853D01*
X155474160Y-67988558D01*
X155529432Y-68080067D01*
X155589198Y-68140233D01*
X155674958Y-68195371D01*
X155778853Y-68234755D01*
X155884637Y-68256293D01*
X155986361Y-68265155D01*
X156041048Y-68266263D01*
X156164635Y-68266263D01*
G37*
G36*
X152925974Y-68547630D02*
G01*
X152925974Y-65859005D01*
X152571334Y-65859005D01*
X152571334Y-68547630D01*
X152925974Y-68547630D01*
G37*
G36*
X150078103Y-68235000D02*
G01*
X150078103Y-66171636D01*
X149661913Y-66171636D01*
X149465053Y-66828649D01*
X149437087Y-66922927D01*
X149415716Y-67008412D01*
X149395475Y-67106231D01*
X149391780Y-67128579D01*
X149373195Y-67032598D01*
X149367845Y-67008412D01*
X149343338Y-66911623D01*
X149318508Y-66828649D01*
X149124579Y-66171636D01*
X148705458Y-66171636D01*
X148705458Y-68235000D01*
X149034209Y-68235000D01*
X149034209Y-67370868D01*
X149033419Y-67265699D01*
X149031049Y-67163415D01*
X149027099Y-67064015D01*
X149020494Y-66951696D01*
X149011739Y-66843304D01*
X149001651Y-66737830D01*
X148991048Y-66634694D01*
X148979932Y-66533895D01*
X148968301Y-66435433D01*
X148961424Y-66380219D01*
X149239861Y-67347421D01*
X149546630Y-67347421D01*
X149827998Y-66399759D01*
X149814046Y-66500601D01*
X149800521Y-66606266D01*
X149787423Y-66716755D01*
X149776314Y-66817391D01*
X149774753Y-66832069D01*
X149764856Y-66938160D01*
X149757389Y-67050843D01*
X149752924Y-67152675D01*
X149750245Y-67259350D01*
X149749352Y-67370868D01*
X149749352Y-68235000D01*
X150078103Y-68235000D01*
G37*
G36*
X148458773Y-68235000D02*
G01*
X148098759Y-68235000D01*
X147986407Y-67734790D01*
X147440280Y-67734790D01*
X147327928Y-68235000D01*
X146967914Y-68235000D01*
X147164974Y-67453422D01*
X147505249Y-67453422D01*
X147921438Y-67453422D01*
X147797852Y-66900945D01*
X147788297Y-66859538D01*
X147765463Y-66757239D01*
X147744118Y-66655725D01*
X147731458Y-66592337D01*
X147713344Y-66494525D01*
X147702446Y-66555004D01*
X147682569Y-66655725D01*
X147672317Y-66705500D01*
X147651046Y-66804637D01*
X147628836Y-66903876D01*
X147505249Y-67453422D01*
X147164974Y-67453422D01*
X147488152Y-66171636D01*
X147941466Y-66171636D01*
X148458773Y-68235000D01*
G37*
G36*
X146212227Y-68235000D02*
G01*
X146212227Y-67492501D01*
X146814530Y-66171636D01*
X146445723Y-66171636D01*
X146124788Y-66893618D01*
X146087282Y-66989016D01*
X146063239Y-67062145D01*
X146036162Y-67158110D01*
X146029045Y-67190129D01*
X146002726Y-67091798D01*
X145994362Y-67062145D01*
X145963416Y-66967950D01*
X145933790Y-66893618D01*
X145621159Y-66171636D01*
X145255284Y-66171636D01*
X145857586Y-67492501D01*
X145857586Y-68235000D01*
X146212227Y-68235000D01*
G37*
G36*
X143299875Y-68235000D02*
G01*
X143299875Y-67921880D01*
X142604760Y-67189152D01*
X142537735Y-67111962D01*
X142479495Y-67031706D01*
X142446002Y-66974218D01*
X142408486Y-66879693D01*
X142393785Y-66777447D01*
X142393734Y-66771008D01*
X142405206Y-66666846D01*
X142443525Y-66575244D01*
X142475311Y-66535069D01*
X142557537Y-66477300D01*
X142653313Y-66452624D01*
X142695130Y-66450561D01*
X142794025Y-66462857D01*
X142888046Y-66508285D01*
X142921299Y-66538000D01*
X142975066Y-66620089D01*
X143000368Y-66715470D01*
X143004341Y-66779801D01*
X143356051Y-66779801D01*
X143348104Y-66673159D01*
X143327561Y-66575249D01*
X143289961Y-66476703D01*
X143270566Y-66440303D01*
X143212368Y-66357661D01*
X143141575Y-66287422D01*
X143058189Y-66229586D01*
X143040001Y-66219508D01*
X142942151Y-66177776D01*
X142844950Y-66153433D01*
X142739094Y-66141609D01*
X142689268Y-66140373D01*
X142582650Y-66146177D01*
X142484448Y-66163591D01*
X142380513Y-66198580D01*
X142288033Y-66249370D01*
X142217879Y-66305481D01*
X142149358Y-66383419D01*
X142097666Y-66472764D01*
X142062804Y-66573517D01*
X142044772Y-66685676D01*
X142042025Y-66754888D01*
X142050134Y-66857699D01*
X142074463Y-66959747D01*
X142110227Y-67050937D01*
X142125067Y-67081196D01*
X142179661Y-67173722D01*
X142241424Y-67259535D01*
X142305685Y-67337377D01*
X142379482Y-67417789D01*
X142390803Y-67429487D01*
X142869519Y-67924811D01*
X142016623Y-67924811D01*
X142016623Y-68235000D01*
X143299875Y-68235000D01*
G37*
G36*
X141044466Y-67019719D02*
G01*
X141134907Y-67066053D01*
X141163552Y-67104627D01*
X141185221Y-67200387D01*
X141180307Y-67249894D01*
X141134907Y-67337651D01*
X141095997Y-67367966D01*
X140999596Y-67390896D01*
X140950118Y-67385697D01*
X140864774Y-67337651D01*
X140835850Y-67297409D01*
X140813972Y-67200387D01*
X140817990Y-67155792D01*
X140864774Y-67066053D01*
X140903405Y-67037408D01*
X140999596Y-67015739D01*
X141044466Y-67019719D01*
G37*
G36*
X141048712Y-66141571D02*
G01*
X141153139Y-66153030D01*
X141249142Y-66176622D01*
X141345933Y-66217065D01*
X141354997Y-66221889D01*
X141438554Y-66276901D01*
X141515592Y-66351630D01*
X141572101Y-66432487D01*
X141586418Y-66458924D01*
X141623971Y-66553187D01*
X141645876Y-66656894D01*
X141652213Y-66758307D01*
X141652213Y-67648328D01*
X141651509Y-67682987D01*
X141640947Y-67781914D01*
X141614348Y-67882950D01*
X141572101Y-67974637D01*
X141561830Y-67991736D01*
X141502744Y-68069960D01*
X141430778Y-68136068D01*
X141345933Y-68190059D01*
X141308464Y-68207919D01*
X141207514Y-68242151D01*
X141107767Y-68260235D01*
X140999596Y-68266263D01*
X140950488Y-68265072D01*
X140846134Y-68253686D01*
X140750281Y-68230244D01*
X140653748Y-68190059D01*
X140644654Y-68185205D01*
X140560848Y-68130002D01*
X140483648Y-68055284D01*
X140427091Y-67974637D01*
X140412774Y-67948112D01*
X140375222Y-67853621D01*
X140353316Y-67749780D01*
X140346979Y-67648328D01*
X140346979Y-66760750D01*
X140678661Y-66760750D01*
X140678661Y-67645886D01*
X140680796Y-67688619D01*
X140706327Y-67786776D01*
X140766100Y-67871566D01*
X140806993Y-67904495D01*
X140898067Y-67944190D01*
X140999596Y-67956074D01*
X141043949Y-67954011D01*
X141145758Y-67929335D01*
X141233581Y-67871566D01*
X141263130Y-67837884D01*
X141308304Y-67743797D01*
X141320531Y-67645886D01*
X141320531Y-66760750D01*
X141318432Y-66718017D01*
X141293329Y-66619860D01*
X141234558Y-66535069D01*
X141193929Y-66502141D01*
X141102476Y-66462445D01*
X140999596Y-66450561D01*
X140954576Y-66452624D01*
X140851923Y-66477300D01*
X140764635Y-66535069D01*
X140735417Y-66568752D01*
X140690751Y-66662839D01*
X140678661Y-66760750D01*
X140346979Y-66760750D01*
X140346979Y-66758307D01*
X140347683Y-66723653D01*
X140358245Y-66624790D01*
X140384845Y-66523916D01*
X140427091Y-66432487D01*
X140437364Y-66415331D01*
X140496517Y-66336935D01*
X140568645Y-66270846D01*
X140653748Y-66217065D01*
X140691102Y-66199090D01*
X140791833Y-66164639D01*
X140891464Y-66146439D01*
X140999596Y-66140373D01*
X141048712Y-66141571D01*
G37*
G36*
X139943002Y-68235000D02*
G01*
X139943002Y-67921880D01*
X139247886Y-67189152D01*
X139180861Y-67111962D01*
X139122621Y-67031706D01*
X139089129Y-66974218D01*
X139051612Y-66879693D01*
X139036912Y-66777447D01*
X139036861Y-66771008D01*
X139048332Y-66666846D01*
X139086651Y-66575244D01*
X139118438Y-66535069D01*
X139200664Y-66477300D01*
X139296439Y-66452624D01*
X139338256Y-66450561D01*
X139437152Y-66462857D01*
X139531172Y-66508285D01*
X139564425Y-66538000D01*
X139618192Y-66620089D01*
X139643494Y-66715470D01*
X139647468Y-66779801D01*
X139999177Y-66779801D01*
X139991230Y-66673159D01*
X139970687Y-66575249D01*
X139933087Y-66476703D01*
X139913692Y-66440303D01*
X139855494Y-66357661D01*
X139784702Y-66287422D01*
X139701316Y-66229586D01*
X139683127Y-66219508D01*
X139585277Y-66177776D01*
X139488076Y-66153433D01*
X139382220Y-66141609D01*
X139332394Y-66140373D01*
X139225777Y-66146177D01*
X139127574Y-66163591D01*
X139023640Y-66198580D01*
X138931159Y-66249370D01*
X138861006Y-66305481D01*
X138792484Y-66383419D01*
X138740793Y-66472764D01*
X138705931Y-66573517D01*
X138687899Y-66685676D01*
X138685151Y-66754888D01*
X138693261Y-66857699D01*
X138717589Y-66959747D01*
X138753353Y-67050937D01*
X138768193Y-67081196D01*
X138822787Y-67173722D01*
X138884550Y-67259535D01*
X138948811Y-67337377D01*
X139022609Y-67417789D01*
X139033930Y-67429487D01*
X139512646Y-67924811D01*
X138659750Y-67924811D01*
X138659750Y-68235000D01*
X139943002Y-68235000D01*
G37*
G36*
X137645653Y-68266263D02*
G01*
X137748298Y-68261231D01*
X137858023Y-68242641D01*
X137956949Y-68210354D01*
X138045075Y-68164369D01*
X138101411Y-68123136D01*
X138177492Y-68044887D01*
X138234279Y-67953754D01*
X138271770Y-67849737D01*
X138288747Y-67748153D01*
X138289966Y-67732836D01*
X137938256Y-67732836D01*
X137908397Y-67831222D01*
X137852283Y-67896967D01*
X137763256Y-67941297D01*
X137661917Y-67955843D01*
X137645653Y-67956074D01*
X137545705Y-67945358D01*
X137454276Y-67905768D01*
X137423392Y-67879870D01*
X137368695Y-67794261D01*
X137348379Y-67697146D01*
X137347189Y-67662983D01*
X137347189Y-67462704D01*
X137359523Y-67360621D01*
X137404410Y-67268279D01*
X137421927Y-67248258D01*
X137508065Y-67193561D01*
X137609460Y-67173245D01*
X137645653Y-67172055D01*
X137748865Y-67185555D01*
X137837053Y-67231590D01*
X137898689Y-67310296D01*
X138242094Y-67310296D01*
X138227928Y-66171636D01*
X137071683Y-66171636D01*
X137071683Y-66481824D01*
X137895758Y-66481824D01*
X137901620Y-67087547D01*
X137895758Y-67087547D01*
X137854413Y-66997773D01*
X137782586Y-66929037D01*
X137770706Y-66921461D01*
X137675737Y-66880723D01*
X137578559Y-66863961D01*
X137524509Y-66861866D01*
X137420204Y-66869346D01*
X137314050Y-66896213D01*
X137221818Y-66942619D01*
X137143507Y-67008565D01*
X137134697Y-67018182D01*
X137073789Y-67103941D01*
X137030284Y-67204905D01*
X137006491Y-67305721D01*
X136996023Y-67418177D01*
X136995479Y-67452445D01*
X136995479Y-67655655D01*
X137001575Y-67757860D01*
X137024099Y-67866419D01*
X137063218Y-67963478D01*
X137118934Y-68049036D01*
X137168891Y-68103108D01*
X137250810Y-68166681D01*
X137345258Y-68214640D01*
X137452234Y-68246984D01*
X137553900Y-68262279D01*
X137645653Y-68266263D01*
G37*
D11*
G36*
X172272178Y-110757000D02*
G01*
X172272178Y-110570886D01*
X172023930Y-110570886D01*
X172023930Y-109705094D01*
X172272178Y-109705094D01*
X172272178Y-109518981D01*
X171562897Y-109518981D01*
X171562897Y-109705094D01*
X171811145Y-109705094D01*
X171811145Y-110570886D01*
X171562897Y-110570886D01*
X171562897Y-110757000D01*
X172272178Y-110757000D01*
G37*
G36*
X171286805Y-110757000D02*
G01*
X171286805Y-109819107D01*
X171081055Y-109819107D01*
X171081055Y-110009030D01*
X171077538Y-110009030D01*
X171063261Y-109951998D01*
X171036581Y-109898849D01*
X170998403Y-109855743D01*
X170944781Y-109821988D01*
X170885996Y-109804731D01*
X170831048Y-109800349D01*
X170766183Y-109806119D01*
X170708169Y-109823430D01*
X170657006Y-109852281D01*
X170612695Y-109892673D01*
X170576791Y-109942663D01*
X170551145Y-110000604D01*
X170537120Y-110057823D01*
X170530950Y-110121130D01*
X170530629Y-110140335D01*
X170530629Y-110757000D01*
X170741655Y-110757000D01*
X170741655Y-110163782D01*
X170747961Y-110105338D01*
X170771258Y-110051114D01*
X170786498Y-110032478D01*
X170835154Y-109999449D01*
X170893001Y-109986867D01*
X170906958Y-109986462D01*
X170965786Y-109994347D01*
X171019478Y-110023039D01*
X171031229Y-110034236D01*
X171063206Y-110087976D01*
X171075083Y-110149032D01*
X171075779Y-110170524D01*
X171075779Y-110757000D01*
X171286805Y-110757000D01*
G37*
G36*
X168889610Y-110775757D02*
G01*
X168954512Y-110772187D01*
X169014361Y-110761476D01*
X169074931Y-110741200D01*
X169097412Y-110730621D01*
X169148319Y-110698776D01*
X169195392Y-110655350D01*
X169233113Y-110603127D01*
X169258461Y-110548733D01*
X169274421Y-110488500D01*
X169280758Y-110429299D01*
X169281180Y-110408514D01*
X169281180Y-109867467D01*
X169277378Y-109806689D01*
X169264235Y-109744705D01*
X169241703Y-109688559D01*
X169233113Y-109672854D01*
X169199207Y-109625015D01*
X169152985Y-109580789D01*
X169102850Y-109548217D01*
X169097412Y-109545360D01*
X169039337Y-109521557D01*
X168981736Y-109507673D01*
X168919080Y-109500929D01*
X168889610Y-109500224D01*
X168825581Y-109503794D01*
X168766374Y-109514505D01*
X168706245Y-109534781D01*
X168683860Y-109545360D01*
X168632712Y-109577050D01*
X168585243Y-109620373D01*
X168550083Y-109667450D01*
X168546986Y-109672561D01*
X168521175Y-109726926D01*
X168504923Y-109787073D01*
X168498470Y-109846148D01*
X168498040Y-109866881D01*
X168710531Y-109866881D01*
X168717085Y-109807420D01*
X168741296Y-109752218D01*
X168757133Y-109733231D01*
X168809305Y-109699571D01*
X168868691Y-109687069D01*
X168889610Y-109686337D01*
X168948755Y-109692807D01*
X169003901Y-109716714D01*
X169022967Y-109732352D01*
X169056837Y-109784507D01*
X169069417Y-109844295D01*
X169070154Y-109865415D01*
X169070154Y-110409100D01*
X169063519Y-110468561D01*
X169039003Y-110523763D01*
X169022967Y-110542750D01*
X168970163Y-110576409D01*
X168910543Y-110588912D01*
X168889610Y-110589644D01*
X168830589Y-110583050D01*
X168775900Y-110558687D01*
X168757133Y-110542750D01*
X168723683Y-110489753D01*
X168711259Y-110429653D01*
X168710531Y-110408514D01*
X168498040Y-110408514D01*
X168501912Y-110469315D01*
X168515295Y-110531380D01*
X168538239Y-110587662D01*
X168546986Y-110603420D01*
X168581384Y-110651259D01*
X168628016Y-110695485D01*
X168678403Y-110728057D01*
X168683860Y-110730914D01*
X168741608Y-110754562D01*
X168798672Y-110768357D01*
X168860557Y-110775057D01*
X168889610Y-110775757D01*
G37*
G36*
X167943434Y-109802803D02*
G01*
X168003609Y-109812228D01*
X168067198Y-109832158D01*
X168123662Y-109861708D01*
X168173002Y-109900879D01*
X168203145Y-109933991D01*
X168236763Y-109986045D01*
X168260367Y-110044748D01*
X168273957Y-110110098D01*
X168277635Y-110171403D01*
X168277635Y-110404704D01*
X168276000Y-110446117D01*
X168265271Y-110513366D01*
X168244528Y-110573967D01*
X168213772Y-110627921D01*
X168173002Y-110675227D01*
X168131147Y-110709392D01*
X168075700Y-110740316D01*
X168013129Y-110761620D01*
X167953826Y-110772223D01*
X167889289Y-110775757D01*
X167835144Y-110773303D01*
X167774969Y-110763878D01*
X167711380Y-110743949D01*
X167654916Y-110714398D01*
X167605577Y-110675227D01*
X167575433Y-110642115D01*
X167541815Y-110590061D01*
X167518212Y-110531359D01*
X167504622Y-110466009D01*
X167500943Y-110404704D01*
X167500943Y-110170817D01*
X167711969Y-110170817D01*
X167711969Y-110405290D01*
X167713107Y-110432286D01*
X167726714Y-110492833D01*
X167758570Y-110542457D01*
X167773972Y-110556051D01*
X167826994Y-110581856D01*
X167889289Y-110589644D01*
X167909801Y-110588907D01*
X167968304Y-110576327D01*
X168020301Y-110542457D01*
X168036039Y-110523168D01*
X168060097Y-110466619D01*
X168066609Y-110405290D01*
X168066609Y-110170817D01*
X168065479Y-110143827D01*
X168051957Y-110083367D01*
X168020301Y-110033943D01*
X168004815Y-110020264D01*
X167951633Y-109994298D01*
X167889289Y-109986462D01*
X167868782Y-109987204D01*
X167810356Y-109999863D01*
X167758570Y-110033943D01*
X167742733Y-110053132D01*
X167718522Y-110109529D01*
X167711969Y-110170817D01*
X167500943Y-110170817D01*
X167500943Y-110169644D01*
X167502578Y-110128644D01*
X167513307Y-110061983D01*
X167534050Y-110001803D01*
X167564806Y-109948101D01*
X167605577Y-109900879D01*
X167647431Y-109866715D01*
X167702878Y-109835790D01*
X167765449Y-109814486D01*
X167824752Y-109803883D01*
X167889289Y-109800349D01*
X167943434Y-109802803D01*
G37*
G36*
X166731871Y-110757000D02*
G01*
X166797743Y-110751779D01*
X166856728Y-110736117D01*
X166914853Y-110706016D01*
X166954034Y-110673468D01*
X166994413Y-110622309D01*
X167021577Y-110562804D01*
X167034629Y-110502903D01*
X167037565Y-110453650D01*
X167037565Y-109705094D01*
X167342967Y-109705094D01*
X167342967Y-109518981D01*
X166826540Y-109518981D01*
X166826540Y-110454822D01*
X166814976Y-110512776D01*
X166796937Y-110539526D01*
X166743634Y-110568406D01*
X166716923Y-110570886D01*
X166444935Y-110570886D01*
X166444935Y-110757000D01*
X166731871Y-110757000D01*
G37*
G36*
X165724809Y-110757000D02*
G01*
X165790681Y-110751779D01*
X165849666Y-110736117D01*
X165907791Y-110706016D01*
X165946972Y-110673468D01*
X165987351Y-110622309D01*
X166014515Y-110562804D01*
X166027567Y-110502903D01*
X166030503Y-110453650D01*
X166030503Y-109705094D01*
X166335905Y-109705094D01*
X166335905Y-109518981D01*
X165819478Y-109518981D01*
X165819478Y-110454822D01*
X165807914Y-110512776D01*
X165789875Y-110539526D01*
X165736572Y-110568406D01*
X165709861Y-110570886D01*
X165437872Y-110570886D01*
X165437872Y-110757000D01*
X165724809Y-110757000D01*
G37*
G36*
X164889795Y-109801073D02*
G01*
X164956134Y-109808392D01*
X165016724Y-109823593D01*
X165071563Y-109846676D01*
X165127196Y-109882708D01*
X165173009Y-109927276D01*
X165206697Y-109978622D01*
X165228257Y-110036746D01*
X165237691Y-110101647D01*
X165036923Y-110101647D01*
X165026055Y-110062503D01*
X164985632Y-110017823D01*
X164979705Y-110014025D01*
X164924952Y-109992465D01*
X164866344Y-109986462D01*
X164856590Y-109986612D01*
X164796002Y-109996061D01*
X164743246Y-110024857D01*
X164708942Y-110074420D01*
X164699282Y-110132715D01*
X164699282Y-110213022D01*
X164922032Y-110213022D01*
X164942845Y-110213314D01*
X165011128Y-110218934D01*
X165072314Y-110231706D01*
X165133552Y-110255062D01*
X165185521Y-110287760D01*
X165222294Y-110323247D01*
X165256302Y-110377446D01*
X165273998Y-110433720D01*
X165279896Y-110497614D01*
X165277878Y-110536590D01*
X165264076Y-110600075D01*
X165237198Y-110654983D01*
X165197244Y-110701312D01*
X165152108Y-110733882D01*
X165092222Y-110759400D01*
X165030892Y-110772195D01*
X164970978Y-110775757D01*
X164964055Y-110775714D01*
X164899014Y-110770493D01*
X164841586Y-110756571D01*
X164787210Y-110731207D01*
X164761848Y-110713227D01*
X164719906Y-110666281D01*
X164695765Y-110608402D01*
X164692541Y-110608402D01*
X164692541Y-110757000D01*
X164488256Y-110757000D01*
X164488256Y-110458339D01*
X164699282Y-110458339D01*
X164700166Y-110476845D01*
X164717180Y-110534187D01*
X164755849Y-110579972D01*
X164782167Y-110597788D01*
X164839380Y-110619265D01*
X164901808Y-110625695D01*
X164911389Y-110625547D01*
X164971271Y-110616242D01*
X165024321Y-110587886D01*
X165057733Y-110542457D01*
X165068870Y-110482373D01*
X165061129Y-110431627D01*
X165028424Y-110381549D01*
X164976847Y-110352506D01*
X164917049Y-110344327D01*
X164699282Y-110344327D01*
X164699282Y-110458339D01*
X164488256Y-110458339D01*
X164488256Y-110119819D01*
X164488354Y-110110593D01*
X164494484Y-110049477D01*
X164513169Y-109987048D01*
X164544310Y-109932533D01*
X164587907Y-109885932D01*
X164620816Y-109861277D01*
X164672826Y-109833780D01*
X164731765Y-109814474D01*
X164797631Y-109803358D01*
X164859603Y-109800349D01*
X164889795Y-109801073D01*
G37*
G36*
X164237370Y-110757000D02*
G01*
X164031620Y-110757000D01*
X164031620Y-110584076D01*
X164020079Y-110627215D01*
X163991366Y-110682238D01*
X163948968Y-110725639D01*
X163899440Y-110754173D01*
X163841531Y-110770863D01*
X163781613Y-110775757D01*
X163715045Y-110769712D01*
X163655437Y-110751577D01*
X163602790Y-110721352D01*
X163557105Y-110679037D01*
X163537321Y-110653776D01*
X163505667Y-110596770D01*
X163486626Y-110539797D01*
X163475662Y-110476204D01*
X163472695Y-110416427D01*
X163472695Y-110170524D01*
X163683720Y-110170524D01*
X163683720Y-110405583D01*
X163684837Y-110432249D01*
X163698187Y-110492270D01*
X163729443Y-110541870D01*
X163741359Y-110553067D01*
X163795996Y-110581760D01*
X163856058Y-110589644D01*
X163870909Y-110589219D01*
X163931833Y-110575996D01*
X163981794Y-110541284D01*
X163996934Y-110521689D01*
X164020079Y-110465470D01*
X164026344Y-110405583D01*
X164026344Y-110170524D01*
X164025648Y-110149366D01*
X164013771Y-110088954D01*
X163981794Y-110035115D01*
X163970020Y-110023712D01*
X163915834Y-109994492D01*
X163856058Y-109986462D01*
X163841150Y-109986882D01*
X163779889Y-109999945D01*
X163729443Y-110034236D01*
X163713904Y-110053584D01*
X163690150Y-110109867D01*
X163683720Y-110170524D01*
X163472695Y-110170524D01*
X163472695Y-110161438D01*
X163473024Y-110140968D01*
X163479372Y-110073527D01*
X163493797Y-110012621D01*
X163520175Y-109951016D01*
X163557105Y-109897949D01*
X163562435Y-109891944D01*
X163608991Y-109850769D01*
X163662507Y-109821794D01*
X163722985Y-109805019D01*
X163781613Y-109800349D01*
X163842544Y-109805673D01*
X163901369Y-109823827D01*
X163951606Y-109854864D01*
X163988179Y-109893058D01*
X164016840Y-109944591D01*
X164033378Y-110006099D01*
X164026344Y-109782177D01*
X164026344Y-109518981D01*
X164237370Y-109518981D01*
X164237370Y-110757000D01*
G37*
G36*
X162199799Y-110757000D02*
G01*
X162326414Y-109518981D01*
X162144111Y-109518981D01*
X162069666Y-110385066D01*
X162065527Y-110446056D01*
X162062339Y-110497907D01*
X162058797Y-110557777D01*
X162056184Y-110614264D01*
X162051444Y-110554078D01*
X162046219Y-110497907D01*
X162040221Y-110438809D01*
X162034202Y-110385066D01*
X161933085Y-109518981D01*
X161755765Y-109518981D01*
X161661096Y-110385066D01*
X161654250Y-110446056D01*
X161648494Y-110497907D01*
X161641543Y-110557777D01*
X161634132Y-110614264D01*
X161631690Y-110554078D01*
X161629150Y-110497907D01*
X161625530Y-110438809D01*
X161620650Y-110385066D01*
X161547963Y-109518981D01*
X161367419Y-109518981D01*
X161500775Y-110757000D01*
X161733783Y-110757000D01*
X161824935Y-109895897D01*
X161830911Y-109834248D01*
X161836072Y-109777195D01*
X161840988Y-109717144D01*
X161845158Y-109662010D01*
X161849857Y-109720815D01*
X161854537Y-109777195D01*
X161859839Y-109838019D01*
X161865381Y-109895897D01*
X161965032Y-110757000D01*
X162199799Y-110757000D01*
G37*
G36*
X161217942Y-110757000D02*
G01*
X161217942Y-110570886D01*
X160900524Y-110570886D01*
X160900524Y-110005220D01*
X161184237Y-110005220D01*
X161184237Y-109819107D01*
X160689498Y-109819107D01*
X160689498Y-110570886D01*
X160404321Y-110570886D01*
X160404321Y-110757000D01*
X161217942Y-110757000D01*
G37*
G36*
X160809373Y-109669044D02*
G01*
X160869961Y-109659780D01*
X160910782Y-109636218D01*
X160942519Y-109585889D01*
X160947712Y-109547118D01*
X160934693Y-109488804D01*
X160910782Y-109458311D01*
X160857075Y-109430658D01*
X160809373Y-109425192D01*
X160748867Y-109434539D01*
X160708256Y-109458311D01*
X160676268Y-109508389D01*
X160671034Y-109547118D01*
X160684156Y-109605535D01*
X160708256Y-109636218D01*
X160761719Y-109663627D01*
X160809373Y-109669044D01*
G37*
G36*
X159731383Y-110757000D02*
G01*
X159793115Y-110752218D01*
X159854594Y-110735410D01*
X159907634Y-110706500D01*
X159938305Y-110680503D01*
X159975425Y-110633184D01*
X160000397Y-110577288D01*
X160013220Y-110512813D01*
X160015095Y-110473287D01*
X160015095Y-110005220D01*
X160266568Y-110005220D01*
X160266568Y-109819107D01*
X160015095Y-109819107D01*
X160015095Y-109556497D01*
X159802311Y-109556497D01*
X159802311Y-109819107D01*
X159446205Y-109819107D01*
X159446205Y-110005220D01*
X159802311Y-110005220D01*
X159802311Y-110474752D01*
X159787412Y-110533185D01*
X159779743Y-110543922D01*
X159726272Y-110570465D01*
X159716435Y-110570886D01*
X159463204Y-110570886D01*
X159463204Y-110757000D01*
X159731383Y-110757000D01*
G37*
G36*
X159202060Y-110757000D02*
G01*
X159202060Y-109518981D01*
X158991034Y-109518981D01*
X158991034Y-109828486D01*
X158996309Y-110009030D01*
X158992792Y-110009030D01*
X158978515Y-109951998D01*
X158951836Y-109898849D01*
X158913658Y-109855743D01*
X158860036Y-109821988D01*
X158801251Y-109804731D01*
X158746302Y-109800349D01*
X158681438Y-109806119D01*
X158623424Y-109823430D01*
X158572261Y-109852281D01*
X158527949Y-109892673D01*
X158492046Y-109942663D01*
X158466400Y-110000604D01*
X158452375Y-110057823D01*
X158446204Y-110121130D01*
X158445884Y-110140335D01*
X158445884Y-110757000D01*
X158656909Y-110757000D01*
X158656909Y-110163782D01*
X158663216Y-110105338D01*
X158686513Y-110051114D01*
X158701752Y-110032478D01*
X158750409Y-109999449D01*
X158808255Y-109986867D01*
X158822213Y-109986462D01*
X158881040Y-109994347D01*
X158934733Y-110023039D01*
X158946484Y-110034236D01*
X158978461Y-110087976D01*
X158990338Y-110149032D01*
X158991034Y-110170524D01*
X158991034Y-110757000D01*
X159202060Y-110757000D01*
G37*
G36*
X157818668Y-110081717D02*
G01*
X157879045Y-110073087D01*
X157932681Y-110042443D01*
X157966298Y-109994116D01*
X157975765Y-109941033D01*
X157963605Y-109880571D01*
X157932681Y-109839037D01*
X157879045Y-109808850D01*
X157818668Y-109800349D01*
X157758291Y-109808850D01*
X157704655Y-109839037D01*
X157669818Y-109890207D01*
X157661571Y-109941033D01*
X157673731Y-110000454D01*
X157704655Y-110042443D01*
X157758291Y-110073087D01*
X157818668Y-110081717D01*
G37*
G36*
X157818668Y-110775757D02*
G01*
X157879045Y-110767321D01*
X157932681Y-110737362D01*
X157966298Y-110689225D01*
X157975765Y-110635073D01*
X157963605Y-110575735D01*
X157932681Y-110533957D01*
X157879045Y-110503084D01*
X157818668Y-110494390D01*
X157758291Y-110503084D01*
X157704655Y-110533957D01*
X157671038Y-110582055D01*
X157661571Y-110635073D01*
X157673731Y-110695618D01*
X157704655Y-110737362D01*
X157758291Y-110767321D01*
X157818668Y-110775757D01*
G37*
G36*
X171968242Y-112791757D02*
G01*
X172035723Y-112788099D01*
X172097702Y-112777126D01*
X172154178Y-112758836D01*
X172213112Y-112728252D01*
X172264558Y-112687710D01*
X172306927Y-112638541D01*
X172338890Y-112582331D01*
X172360446Y-112519081D01*
X172370640Y-112459263D01*
X172373295Y-112405463D01*
X172162269Y-112405463D01*
X172156208Y-112464399D01*
X172133418Y-112522351D01*
X172110978Y-112551715D01*
X172062536Y-112586632D01*
X172006228Y-112603064D01*
X171968242Y-112605644D01*
X171906391Y-112598225D01*
X171851106Y-112573444D01*
X171826386Y-112552888D01*
X171792418Y-112503303D01*
X171776433Y-112446027D01*
X171773923Y-112407515D01*
X171773923Y-111721094D01*
X172120064Y-111721094D01*
X172120064Y-111534981D01*
X171562897Y-111534981D01*
X171562897Y-112409566D01*
X171566730Y-112473245D01*
X171578229Y-112531730D01*
X171601334Y-112593400D01*
X171634874Y-112648001D01*
X171671927Y-112689175D01*
X171723272Y-112729146D01*
X171782162Y-112759300D01*
X171838646Y-112777332D01*
X171900672Y-112788151D01*
X171968242Y-112791757D01*
G37*
G36*
X170937774Y-111817073D02*
G01*
X170999704Y-111823992D01*
X171056857Y-111838237D01*
X171114760Y-111862658D01*
X171120199Y-111865570D01*
X171170368Y-111898691D01*
X171216694Y-111943522D01*
X171250755Y-111991911D01*
X171259345Y-112007710D01*
X171281876Y-112063947D01*
X171295019Y-112125680D01*
X171298822Y-112185937D01*
X171298822Y-112422169D01*
X171298399Y-112442752D01*
X171292062Y-112501565D01*
X171276102Y-112561746D01*
X171250755Y-112616489D01*
X171244556Y-112626714D01*
X171208962Y-112673545D01*
X171165696Y-112713221D01*
X171114760Y-112745742D01*
X171092307Y-112756527D01*
X171032045Y-112777198D01*
X170972769Y-112788117D01*
X170908717Y-112791757D01*
X170890317Y-112791476D01*
X170828678Y-112786054D01*
X170771330Y-112773732D01*
X170711045Y-112751201D01*
X170656365Y-112719657D01*
X170620270Y-112690819D01*
X170576677Y-112641226D01*
X170545741Y-112584029D01*
X170528870Y-112526803D01*
X170736672Y-112526803D01*
X170744847Y-112549334D01*
X170786642Y-112595805D01*
X170841910Y-112616928D01*
X170906958Y-112622937D01*
X170960997Y-112618128D01*
X171021264Y-112595240D01*
X171063579Y-112553502D01*
X171087942Y-112492914D01*
X171094537Y-112425979D01*
X171094537Y-112360327D01*
X170522129Y-112360327D01*
X170522129Y-112192092D01*
X170726414Y-112192092D01*
X170726414Y-112229022D01*
X171094537Y-112229022D01*
X171094537Y-112192385D01*
X171092321Y-112151090D01*
X171078211Y-112090413D01*
X171048228Y-112039099D01*
X171022033Y-112015505D01*
X170967120Y-111991542D01*
X170908717Y-111985170D01*
X170881348Y-111986479D01*
X170820638Y-112002140D01*
X170772136Y-112038806D01*
X170750034Y-112072497D01*
X170731817Y-112128887D01*
X170726414Y-112192092D01*
X170522129Y-112192092D01*
X170522129Y-112189454D01*
X170522554Y-112168657D01*
X170528930Y-112109262D01*
X170544987Y-112048543D01*
X170570489Y-111993376D01*
X170576650Y-111983044D01*
X170612021Y-111935743D01*
X170655006Y-111895712D01*
X170705605Y-111862951D01*
X170727756Y-111852028D01*
X170787181Y-111831094D01*
X170845607Y-111820035D01*
X170908717Y-111816349D01*
X170937774Y-111817073D01*
G37*
G36*
X169925105Y-111817073D02*
G01*
X169991445Y-111824392D01*
X170052034Y-111839593D01*
X170106874Y-111862676D01*
X170162506Y-111898708D01*
X170208320Y-111943276D01*
X170242007Y-111994622D01*
X170263568Y-112052746D01*
X170273002Y-112117647D01*
X170072234Y-112117647D01*
X170061365Y-112078503D01*
X170020943Y-112033823D01*
X170015016Y-112030025D01*
X169960263Y-112008465D01*
X169901655Y-112002462D01*
X169891900Y-112002612D01*
X169831313Y-112012061D01*
X169778556Y-112040857D01*
X169744253Y-112090420D01*
X169734593Y-112148715D01*
X169734593Y-112229022D01*
X169957342Y-112229022D01*
X169978155Y-112229314D01*
X170046438Y-112234934D01*
X170107625Y-112247706D01*
X170168863Y-112271062D01*
X170220831Y-112303760D01*
X170257605Y-112339247D01*
X170291613Y-112393446D01*
X170309308Y-112449720D01*
X170315207Y-112513614D01*
X170313189Y-112552590D01*
X170299387Y-112616075D01*
X170272509Y-112670983D01*
X170232555Y-112717312D01*
X170187419Y-112749882D01*
X170127532Y-112775400D01*
X170066203Y-112788195D01*
X170006288Y-112791757D01*
X169999366Y-112791714D01*
X169934324Y-112786493D01*
X169876897Y-112772571D01*
X169822520Y-112747207D01*
X169797159Y-112729227D01*
X169755217Y-112682281D01*
X169731076Y-112624402D01*
X169727852Y-112624402D01*
X169727852Y-112773000D01*
X169523567Y-112773000D01*
X169523567Y-112474339D01*
X169734593Y-112474339D01*
X169735477Y-112492845D01*
X169752491Y-112550187D01*
X169791159Y-112595972D01*
X169817478Y-112613788D01*
X169874690Y-112635265D01*
X169937119Y-112641695D01*
X169946699Y-112641547D01*
X170006581Y-112632242D01*
X170059631Y-112603886D01*
X170093043Y-112558457D01*
X170104181Y-112498373D01*
X170096439Y-112447627D01*
X170063734Y-112397549D01*
X170012157Y-112368506D01*
X169952360Y-112360327D01*
X169734593Y-112360327D01*
X169734593Y-112474339D01*
X169523567Y-112474339D01*
X169523567Y-112135819D01*
X169523664Y-112126593D01*
X169529795Y-112065477D01*
X169548480Y-112003048D01*
X169579621Y-111948533D01*
X169623218Y-111901932D01*
X169656126Y-111877277D01*
X169708137Y-111849780D01*
X169767075Y-111830474D01*
X169832942Y-111819358D01*
X169894914Y-111816349D01*
X169925105Y-111817073D01*
G37*
G36*
X169272681Y-112773000D02*
G01*
X169272681Y-111835107D01*
X169066930Y-111835107D01*
X169066930Y-112025030D01*
X169063413Y-112025030D01*
X169049137Y-111967998D01*
X169022457Y-111914849D01*
X168984279Y-111871743D01*
X168930657Y-111837988D01*
X168871872Y-111820731D01*
X168816923Y-111816349D01*
X168752059Y-111822119D01*
X168694045Y-111839430D01*
X168642882Y-111868281D01*
X168598570Y-111908673D01*
X168562667Y-111958663D01*
X168537021Y-112016604D01*
X168522996Y-112073823D01*
X168516825Y-112137130D01*
X168516505Y-112156335D01*
X168516505Y-112773000D01*
X168727531Y-112773000D01*
X168727531Y-112179782D01*
X168733837Y-112121338D01*
X168757134Y-112067114D01*
X168772374Y-112048478D01*
X168821030Y-112015449D01*
X168878876Y-112002867D01*
X168892834Y-112002462D01*
X168951661Y-112010347D01*
X169005354Y-112039039D01*
X169017105Y-112050236D01*
X169049082Y-112103976D01*
X169060959Y-112165032D01*
X169061655Y-112186524D01*
X169061655Y-112773000D01*
X169272681Y-112773000D01*
G37*
G36*
X168159519Y-112304053D02*
G01*
X168159519Y-112097717D01*
X167619059Y-112097717D01*
X167619059Y-112304053D01*
X168159519Y-112304053D01*
G37*
G36*
X167260315Y-112773000D02*
G01*
X167049289Y-112773000D01*
X167049289Y-112283830D01*
X166899226Y-112283830D01*
X166684683Y-112773000D01*
X166448452Y-112773000D01*
X166693183Y-112253642D01*
X166661537Y-112240066D01*
X166609875Y-112209066D01*
X166565030Y-112169628D01*
X166527000Y-112121750D01*
X166505983Y-112085807D01*
X166482611Y-112027756D01*
X166469023Y-111964745D01*
X166465572Y-111911018D01*
X166679701Y-111911018D01*
X166680939Y-111937396D01*
X166695744Y-111997406D01*
X166730406Y-112048184D01*
X166754340Y-112067485D01*
X166808762Y-112090751D01*
X166870503Y-112097717D01*
X167049289Y-112097717D01*
X167049289Y-111721094D01*
X166870503Y-111721094D01*
X166843920Y-111722347D01*
X166783177Y-111737323D01*
X166731285Y-111772385D01*
X166711185Y-111796550D01*
X166686955Y-111850581D01*
X166679701Y-111911018D01*
X166465572Y-111911018D01*
X166465158Y-111904570D01*
X166465604Y-111883732D01*
X166472288Y-111824405D01*
X166489124Y-111764086D01*
X166515863Y-111709664D01*
X166522355Y-111699475D01*
X166559455Y-111652827D01*
X166604284Y-111613334D01*
X166656840Y-111580997D01*
X166691856Y-111565359D01*
X166748747Y-111547968D01*
X166810878Y-111537857D01*
X166870503Y-111534981D01*
X167260315Y-111534981D01*
X167260315Y-112773000D01*
G37*
G36*
X165896857Y-111817073D02*
G01*
X165963196Y-111824392D01*
X166023786Y-111839593D01*
X166078625Y-111862676D01*
X166134258Y-111898708D01*
X166180072Y-111943276D01*
X166213759Y-111994622D01*
X166235319Y-112052746D01*
X166244753Y-112117647D01*
X166043986Y-112117647D01*
X166033117Y-112078503D01*
X165992695Y-112033823D01*
X165986767Y-112030025D01*
X165932014Y-112008465D01*
X165873406Y-112002462D01*
X165863652Y-112002612D01*
X165803064Y-112012061D01*
X165750308Y-112040857D01*
X165716004Y-112090420D01*
X165706344Y-112148715D01*
X165706344Y-112229022D01*
X165929094Y-112229022D01*
X165949907Y-112229314D01*
X166018190Y-112234934D01*
X166079376Y-112247706D01*
X166140614Y-112271062D01*
X166192583Y-112303760D01*
X166229356Y-112339247D01*
X166263364Y-112393446D01*
X166281060Y-112449720D01*
X166286958Y-112513614D01*
X166284940Y-112552590D01*
X166271138Y-112616075D01*
X166244260Y-112670983D01*
X166204307Y-112717312D01*
X166159170Y-112749882D01*
X166099284Y-112775400D01*
X166037954Y-112788195D01*
X165978040Y-112791757D01*
X165971117Y-112791714D01*
X165906076Y-112786493D01*
X165848648Y-112772571D01*
X165794272Y-112747207D01*
X165768910Y-112729227D01*
X165726968Y-112682281D01*
X165702827Y-112624402D01*
X165699603Y-112624402D01*
X165699603Y-112773000D01*
X165495318Y-112773000D01*
X165495318Y-112474339D01*
X165706344Y-112474339D01*
X165707228Y-112492845D01*
X165724242Y-112550187D01*
X165762911Y-112595972D01*
X165789230Y-112613788D01*
X165846442Y-112635265D01*
X165908870Y-112641695D01*
X165918451Y-112641547D01*
X165978333Y-112632242D01*
X166031383Y-112603886D01*
X166064795Y-112558457D01*
X166075933Y-112498373D01*
X166068191Y-112447627D01*
X166035486Y-112397549D01*
X165983909Y-112368506D01*
X165924111Y-112360327D01*
X165706344Y-112360327D01*
X165706344Y-112474339D01*
X165495318Y-112474339D01*
X165495318Y-112135819D01*
X165495416Y-112126593D01*
X165501547Y-112065477D01*
X165520231Y-112003048D01*
X165551372Y-111948533D01*
X165594969Y-111901932D01*
X165627878Y-111877277D01*
X165679888Y-111849780D01*
X165738827Y-111830474D01*
X165804694Y-111819358D01*
X165866665Y-111816349D01*
X165896857Y-111817073D01*
G37*
G36*
X164829818Y-111819536D02*
G01*
X164891724Y-111836270D01*
X164944893Y-111867347D01*
X164978339Y-111899372D01*
X165013126Y-111952458D01*
X165035165Y-112011548D01*
X165038682Y-112011548D01*
X165038682Y-111835107D01*
X165244432Y-111835107D01*
X165244432Y-113073125D01*
X165033406Y-113073125D01*
X165033406Y-112814032D01*
X165038682Y-112603886D01*
X165035165Y-112603886D01*
X165020034Y-112646201D01*
X164987858Y-112700194D01*
X164944307Y-112742811D01*
X164904940Y-112766472D01*
X164845383Y-112785974D01*
X164783692Y-112791757D01*
X164718590Y-112785657D01*
X164660154Y-112767357D01*
X164608387Y-112736858D01*
X164563288Y-112694158D01*
X164543710Y-112668691D01*
X164512386Y-112611355D01*
X164493543Y-112554184D01*
X164482693Y-112490477D01*
X164479757Y-112430669D01*
X164479757Y-112186524D01*
X164690782Y-112186524D01*
X164690782Y-112421583D01*
X164691483Y-112443075D01*
X164703438Y-112504131D01*
X164735625Y-112557870D01*
X164747335Y-112569067D01*
X164801444Y-112597760D01*
X164861362Y-112605644D01*
X164876220Y-112605212D01*
X164937385Y-112591748D01*
X164987977Y-112556405D01*
X165003416Y-112536398D01*
X165027018Y-112478575D01*
X165033406Y-112416600D01*
X165033406Y-112191506D01*
X165032297Y-112164298D01*
X165019032Y-112102933D01*
X164987977Y-112051995D01*
X164975997Y-112040385D01*
X164921283Y-112010637D01*
X164861362Y-112002462D01*
X164846461Y-112002882D01*
X164785441Y-112015945D01*
X164735625Y-112050236D01*
X164720386Y-112069584D01*
X164697089Y-112125867D01*
X164690782Y-112186524D01*
X164479757Y-112186524D01*
X164479757Y-112175679D01*
X164480083Y-112155423D01*
X164486364Y-112088618D01*
X164500639Y-112028181D01*
X164526743Y-111966907D01*
X164563288Y-111913949D01*
X164608387Y-111871249D01*
X164660154Y-111840749D01*
X164718590Y-111822449D01*
X164783692Y-111816349D01*
X164829818Y-111819536D01*
G37*
G36*
X164237370Y-112773000D02*
G01*
X164237370Y-111534981D01*
X164026344Y-111534981D01*
X164026344Y-111844486D01*
X164031620Y-112025030D01*
X164028103Y-112025030D01*
X164013826Y-111967998D01*
X163987146Y-111914849D01*
X163948968Y-111871743D01*
X163895346Y-111837988D01*
X163836562Y-111820731D01*
X163781613Y-111816349D01*
X163716748Y-111822119D01*
X163658734Y-111839430D01*
X163607572Y-111868281D01*
X163563260Y-111908673D01*
X163527356Y-111958663D01*
X163501711Y-112016604D01*
X163487686Y-112073823D01*
X163481515Y-112137130D01*
X163481194Y-112156335D01*
X163481194Y-112773000D01*
X163692220Y-112773000D01*
X163692220Y-112179782D01*
X163698526Y-112121338D01*
X163721823Y-112067114D01*
X163737063Y-112048478D01*
X163785719Y-112015449D01*
X163843566Y-112002867D01*
X163857524Y-112002462D01*
X163916351Y-112010347D01*
X163970043Y-112039039D01*
X163981794Y-112050236D01*
X164013771Y-112103976D01*
X164025648Y-112165032D01*
X164026344Y-112186524D01*
X164026344Y-112773000D01*
X164237370Y-112773000D01*
G37*
G36*
X162875670Y-111817073D02*
G01*
X162942010Y-111824392D01*
X163002600Y-111839593D01*
X163057439Y-111862676D01*
X163113071Y-111898708D01*
X163158885Y-111943276D01*
X163192572Y-111994622D01*
X163214133Y-112052746D01*
X163223567Y-112117647D01*
X163022799Y-112117647D01*
X163011931Y-112078503D01*
X162971508Y-112033823D01*
X162965581Y-112030025D01*
X162910828Y-112008465D01*
X162852220Y-112002462D01*
X162842466Y-112002612D01*
X162781878Y-112012061D01*
X162729122Y-112040857D01*
X162694818Y-112090420D01*
X162685158Y-112148715D01*
X162685158Y-112229022D01*
X162907907Y-112229022D01*
X162928720Y-112229314D01*
X162997003Y-112234934D01*
X163058190Y-112247706D01*
X163119428Y-112271062D01*
X163171397Y-112303760D01*
X163208170Y-112339247D01*
X163242178Y-112393446D01*
X163259874Y-112449720D01*
X163265772Y-112513614D01*
X163263754Y-112552590D01*
X163249952Y-112616075D01*
X163223074Y-112670983D01*
X163183120Y-112717312D01*
X163137984Y-112749882D01*
X163078097Y-112775400D01*
X163016768Y-112788195D01*
X162956854Y-112791757D01*
X162949931Y-112791714D01*
X162884890Y-112786493D01*
X162827462Y-112772571D01*
X162773085Y-112747207D01*
X162747724Y-112729227D01*
X162705782Y-112682281D01*
X162681641Y-112624402D01*
X162678417Y-112624402D01*
X162678417Y-112773000D01*
X162474132Y-112773000D01*
X162474132Y-112474339D01*
X162685158Y-112474339D01*
X162686042Y-112492845D01*
X162703056Y-112550187D01*
X162741725Y-112595972D01*
X162768043Y-112613788D01*
X162825256Y-112635265D01*
X162887684Y-112641695D01*
X162897265Y-112641547D01*
X162957147Y-112632242D01*
X163010196Y-112603886D01*
X163043609Y-112558457D01*
X163054746Y-112498373D01*
X163047004Y-112447627D01*
X163014300Y-112397549D01*
X162962722Y-112368506D01*
X162902925Y-112360327D01*
X162685158Y-112360327D01*
X162685158Y-112474339D01*
X162474132Y-112474339D01*
X162474132Y-112135819D01*
X162474229Y-112126593D01*
X162480360Y-112065477D01*
X162499045Y-112003048D01*
X162530186Y-111948533D01*
X162573783Y-111901932D01*
X162606692Y-111877277D01*
X162658702Y-111849780D01*
X162717640Y-111830474D01*
X162783507Y-111819358D01*
X162845479Y-111816349D01*
X162875670Y-111817073D01*
G37*
G36*
X161874215Y-111817073D02*
G01*
X161936145Y-111823992D01*
X161993298Y-111838237D01*
X162051201Y-111862658D01*
X162056640Y-111865570D01*
X162106809Y-111898691D01*
X162153135Y-111943522D01*
X162187196Y-111991911D01*
X162195786Y-112007710D01*
X162218317Y-112063947D01*
X162231460Y-112125680D01*
X162235263Y-112185937D01*
X162235263Y-112422169D01*
X162234840Y-112442752D01*
X162228503Y-112501565D01*
X162212543Y-112561746D01*
X162187196Y-112616489D01*
X162180997Y-112626714D01*
X162145403Y-112673545D01*
X162102137Y-112713221D01*
X162051201Y-112745742D01*
X162028748Y-112756527D01*
X161968486Y-112777198D01*
X161909210Y-112788117D01*
X161845158Y-112791757D01*
X161826758Y-112791476D01*
X161765119Y-112786054D01*
X161707771Y-112773732D01*
X161647486Y-112751201D01*
X161592806Y-112719657D01*
X161556711Y-112690819D01*
X161513118Y-112641226D01*
X161482183Y-112584029D01*
X161465311Y-112526803D01*
X161673113Y-112526803D01*
X161681288Y-112549334D01*
X161723083Y-112595805D01*
X161778351Y-112616928D01*
X161843399Y-112622937D01*
X161897438Y-112618128D01*
X161957705Y-112595240D01*
X162000020Y-112553502D01*
X162024383Y-112492914D01*
X162030978Y-112425979D01*
X162030978Y-112360327D01*
X161458570Y-112360327D01*
X161458570Y-112192092D01*
X161662855Y-112192092D01*
X161662855Y-112229022D01*
X162030978Y-112229022D01*
X162030978Y-112192385D01*
X162028762Y-112151090D01*
X162014652Y-112090413D01*
X161984669Y-112039099D01*
X161958474Y-112015505D01*
X161903562Y-111991542D01*
X161845158Y-111985170D01*
X161817789Y-111986479D01*
X161757079Y-112002140D01*
X161708577Y-112038806D01*
X161686475Y-112072497D01*
X161668258Y-112128887D01*
X161662855Y-112192092D01*
X161458570Y-112192092D01*
X161458570Y-112189454D01*
X161458995Y-112168657D01*
X161465371Y-112109262D01*
X161481428Y-112048543D01*
X161506930Y-111993376D01*
X161513091Y-111983044D01*
X161548462Y-111935743D01*
X161591447Y-111895712D01*
X161642046Y-111862951D01*
X161664197Y-111852028D01*
X161723622Y-111831094D01*
X161782049Y-111820035D01*
X161845158Y-111816349D01*
X161874215Y-111817073D01*
G37*
G36*
X160689498Y-112773000D02*
G01*
X160755371Y-112767779D01*
X160814355Y-112752117D01*
X160872480Y-112722016D01*
X160911662Y-112689468D01*
X160952041Y-112638309D01*
X160979204Y-112578804D01*
X160992256Y-112518903D01*
X160995193Y-112469650D01*
X160995193Y-111721094D01*
X161300594Y-111721094D01*
X161300594Y-111534981D01*
X160784167Y-111534981D01*
X160784167Y-112470822D01*
X160772604Y-112528776D01*
X160754565Y-112555526D01*
X160701261Y-112584406D01*
X160674551Y-112586886D01*
X160402562Y-112586886D01*
X160402562Y-112773000D01*
X160689498Y-112773000D01*
G37*
G36*
X160086023Y-113054367D02*
G01*
X159950908Y-112529147D01*
X159680971Y-112529147D01*
X159900203Y-113054367D01*
X160086023Y-113054367D01*
G37*
G36*
X172364795Y-114789000D02*
G01*
X172148787Y-114789000D01*
X172081376Y-114488874D01*
X171753699Y-114488874D01*
X171686288Y-114789000D01*
X171470280Y-114789000D01*
X171588516Y-114320053D01*
X171792681Y-114320053D01*
X172042394Y-114320053D01*
X171968242Y-113988567D01*
X171962509Y-113963723D01*
X171948809Y-113902343D01*
X171936002Y-113841435D01*
X171928406Y-113803402D01*
X171917538Y-113744715D01*
X171910999Y-113781002D01*
X171899073Y-113841435D01*
X171892922Y-113871300D01*
X171880159Y-113930782D01*
X171866833Y-113990325D01*
X171792681Y-114320053D01*
X171588516Y-114320053D01*
X171782422Y-113550981D01*
X172054411Y-113550981D01*
X172364795Y-114789000D01*
G37*
G36*
X170760120Y-114789000D02*
G01*
X170825992Y-114783779D01*
X170884976Y-114768117D01*
X170943101Y-114738016D01*
X170982283Y-114705468D01*
X171022662Y-114654309D01*
X171049826Y-114594804D01*
X171062877Y-114534903D01*
X171065814Y-114485650D01*
X171065814Y-113737094D01*
X171371215Y-113737094D01*
X171371215Y-113550981D01*
X170854788Y-113550981D01*
X170854788Y-114486822D01*
X170843225Y-114544776D01*
X170825186Y-114571526D01*
X170771882Y-114600406D01*
X170745172Y-114602886D01*
X170473183Y-114602886D01*
X170473183Y-114789000D01*
X170760120Y-114789000D01*
G37*
G36*
X169925105Y-113833073D02*
G01*
X169991445Y-113840392D01*
X170052034Y-113855593D01*
X170106874Y-113878676D01*
X170162506Y-113914708D01*
X170208320Y-113959276D01*
X170242007Y-114010622D01*
X170263568Y-114068746D01*
X170273002Y-114133647D01*
X170072234Y-114133647D01*
X170061365Y-114094503D01*
X170020943Y-114049823D01*
X170015016Y-114046025D01*
X169960263Y-114024465D01*
X169901655Y-114018462D01*
X169891900Y-114018612D01*
X169831313Y-114028061D01*
X169778556Y-114056857D01*
X169744253Y-114106420D01*
X169734593Y-114164715D01*
X169734593Y-114245022D01*
X169957342Y-114245022D01*
X169978155Y-114245314D01*
X170046438Y-114250934D01*
X170107625Y-114263706D01*
X170168863Y-114287062D01*
X170220831Y-114319760D01*
X170257605Y-114355247D01*
X170291613Y-114409446D01*
X170309308Y-114465720D01*
X170315207Y-114529614D01*
X170313189Y-114568590D01*
X170299387Y-114632075D01*
X170272509Y-114686983D01*
X170232555Y-114733312D01*
X170187419Y-114765882D01*
X170127532Y-114791400D01*
X170066203Y-114804195D01*
X170006288Y-114807757D01*
X169999366Y-114807714D01*
X169934324Y-114802493D01*
X169876897Y-114788571D01*
X169822520Y-114763207D01*
X169797159Y-114745227D01*
X169755217Y-114698281D01*
X169731076Y-114640402D01*
X169727852Y-114640402D01*
X169727852Y-114789000D01*
X169523567Y-114789000D01*
X169523567Y-114490339D01*
X169734593Y-114490339D01*
X169735477Y-114508845D01*
X169752491Y-114566187D01*
X169791159Y-114611972D01*
X169817478Y-114629788D01*
X169874690Y-114651265D01*
X169937119Y-114657695D01*
X169946699Y-114657547D01*
X170006581Y-114648242D01*
X170059631Y-114619886D01*
X170093043Y-114574457D01*
X170104181Y-114514373D01*
X170096439Y-114463627D01*
X170063734Y-114413549D01*
X170012157Y-114384506D01*
X169952360Y-114376327D01*
X169734593Y-114376327D01*
X169734593Y-114490339D01*
X169523567Y-114490339D01*
X169523567Y-114151819D01*
X169523664Y-114142593D01*
X169529795Y-114081477D01*
X169548480Y-114019048D01*
X169579621Y-113964533D01*
X169623218Y-113917932D01*
X169656126Y-113893277D01*
X169708137Y-113865780D01*
X169767075Y-113846474D01*
X169832942Y-113835358D01*
X169894914Y-113832349D01*
X169925105Y-113833073D01*
G37*
G36*
X169272681Y-114789000D02*
G01*
X169272681Y-113851107D01*
X169066930Y-113851107D01*
X169066930Y-114041030D01*
X169063413Y-114041030D01*
X169049137Y-113983998D01*
X169022457Y-113930849D01*
X168984279Y-113887743D01*
X168930657Y-113853988D01*
X168871872Y-113836731D01*
X168816923Y-113832349D01*
X168752059Y-113838119D01*
X168694045Y-113855430D01*
X168642882Y-113884281D01*
X168598570Y-113924673D01*
X168562667Y-113974663D01*
X168537021Y-114032604D01*
X168522996Y-114089823D01*
X168516825Y-114153130D01*
X168516505Y-114172335D01*
X168516505Y-114789000D01*
X168727531Y-114789000D01*
X168727531Y-114195782D01*
X168733837Y-114137338D01*
X168757134Y-114083114D01*
X168772374Y-114064478D01*
X168821030Y-114031449D01*
X168878876Y-114018867D01*
X168892834Y-114018462D01*
X168951661Y-114026347D01*
X169005354Y-114055039D01*
X169017105Y-114066236D01*
X169049082Y-114119976D01*
X169060959Y-114181032D01*
X169061655Y-114202524D01*
X169061655Y-114789000D01*
X169272681Y-114789000D01*
G37*
G36*
X168265618Y-114789000D02*
G01*
X168265618Y-113851107D01*
X168059868Y-113851107D01*
X168059868Y-114041030D01*
X168056351Y-114041030D01*
X168042074Y-113983998D01*
X168015395Y-113930849D01*
X167977217Y-113887743D01*
X167923595Y-113853988D01*
X167864810Y-113836731D01*
X167809861Y-113832349D01*
X167744997Y-113838119D01*
X167686983Y-113855430D01*
X167635820Y-113884281D01*
X167591508Y-113924673D01*
X167555605Y-113974663D01*
X167529959Y-114032604D01*
X167515934Y-114089823D01*
X167509763Y-114153130D01*
X167509443Y-114172335D01*
X167509443Y-114789000D01*
X167720468Y-114789000D01*
X167720468Y-114195782D01*
X167726774Y-114137338D01*
X167750072Y-114083114D01*
X167765311Y-114064478D01*
X167813968Y-114031449D01*
X167871814Y-114018867D01*
X167885772Y-114018462D01*
X167944599Y-114026347D01*
X167998292Y-114055039D01*
X168010043Y-114066236D01*
X168042019Y-114119976D01*
X168053897Y-114181032D01*
X168054593Y-114202524D01*
X168054593Y-114789000D01*
X168265618Y-114789000D01*
G37*
G36*
X166903919Y-113833073D02*
G01*
X166970259Y-113840392D01*
X167030848Y-113855593D01*
X167085687Y-113878676D01*
X167141320Y-113914708D01*
X167187134Y-113959276D01*
X167220821Y-114010622D01*
X167242381Y-114068746D01*
X167251815Y-114133647D01*
X167051048Y-114133647D01*
X167040179Y-114094503D01*
X166999757Y-114049823D01*
X166993830Y-114046025D01*
X166939076Y-114024465D01*
X166880468Y-114018462D01*
X166870714Y-114018612D01*
X166810127Y-114028061D01*
X166757370Y-114056857D01*
X166723066Y-114106420D01*
X166713406Y-114164715D01*
X166713406Y-114245022D01*
X166936156Y-114245022D01*
X166956969Y-114245314D01*
X167025252Y-114250934D01*
X167086438Y-114263706D01*
X167147676Y-114287062D01*
X167199645Y-114319760D01*
X167236418Y-114355247D01*
X167270427Y-114409446D01*
X167288122Y-114465720D01*
X167294020Y-114529614D01*
X167292003Y-114568590D01*
X167278200Y-114632075D01*
X167251322Y-114686983D01*
X167211369Y-114733312D01*
X167166233Y-114765882D01*
X167106346Y-114791400D01*
X167045016Y-114804195D01*
X166985102Y-114807757D01*
X166978179Y-114807714D01*
X166913138Y-114802493D01*
X166855711Y-114788571D01*
X166801334Y-114763207D01*
X166775972Y-114745227D01*
X166734030Y-114698281D01*
X166709889Y-114640402D01*
X166706665Y-114640402D01*
X166706665Y-114789000D01*
X166502381Y-114789000D01*
X166502381Y-114490339D01*
X166713406Y-114490339D01*
X166714290Y-114508845D01*
X166731304Y-114566187D01*
X166769973Y-114611972D01*
X166796292Y-114629788D01*
X166853504Y-114651265D01*
X166915933Y-114657695D01*
X166925513Y-114657547D01*
X166985395Y-114648242D01*
X167038445Y-114619886D01*
X167071857Y-114574457D01*
X167082995Y-114514373D01*
X167075253Y-114463627D01*
X167042548Y-114413549D01*
X166990971Y-114384506D01*
X166931173Y-114376327D01*
X166713406Y-114376327D01*
X166713406Y-114490339D01*
X166502381Y-114490339D01*
X166502381Y-114151819D01*
X166502478Y-114142593D01*
X166508609Y-114081477D01*
X166527293Y-114019048D01*
X166558434Y-113964533D01*
X166602032Y-113917932D01*
X166634940Y-113893277D01*
X166686950Y-113865780D01*
X166745889Y-113846474D01*
X166811756Y-113835358D01*
X166873727Y-113832349D01*
X166903919Y-113833073D01*
G37*
G36*
X166128396Y-115070367D02*
G01*
X165993281Y-114545147D01*
X165723344Y-114545147D01*
X165942576Y-115070367D01*
X166128396Y-115070367D01*
G37*
G36*
X171968242Y-116823757D02*
G01*
X172035723Y-116820099D01*
X172097702Y-116809126D01*
X172154178Y-116790836D01*
X172213112Y-116760252D01*
X172264558Y-116719710D01*
X172306927Y-116670541D01*
X172338890Y-116614331D01*
X172360446Y-116551081D01*
X172370640Y-116491263D01*
X172373295Y-116437463D01*
X172162269Y-116437463D01*
X172156208Y-116496399D01*
X172133418Y-116554351D01*
X172110978Y-116583715D01*
X172062536Y-116618632D01*
X172006228Y-116635064D01*
X171968242Y-116637644D01*
X171906391Y-116630225D01*
X171851106Y-116605444D01*
X171826386Y-116584888D01*
X171792418Y-116535303D01*
X171776433Y-116478027D01*
X171773923Y-116439515D01*
X171773923Y-115753094D01*
X172120064Y-115753094D01*
X172120064Y-115566981D01*
X171562897Y-115566981D01*
X171562897Y-116441566D01*
X171566730Y-116505245D01*
X171578229Y-116563730D01*
X171601334Y-116625400D01*
X171634874Y-116680001D01*
X171671927Y-116721175D01*
X171723272Y-116761146D01*
X171782162Y-116791300D01*
X171838646Y-116809332D01*
X171900672Y-116820151D01*
X171968242Y-116823757D01*
G37*
G36*
X170937774Y-115849073D02*
G01*
X170999704Y-115855992D01*
X171056857Y-115870237D01*
X171114760Y-115894658D01*
X171120199Y-115897570D01*
X171170368Y-115930691D01*
X171216694Y-115975522D01*
X171250755Y-116023911D01*
X171259345Y-116039710D01*
X171281876Y-116095947D01*
X171295019Y-116157680D01*
X171298822Y-116217937D01*
X171298822Y-116454169D01*
X171298399Y-116474752D01*
X171292062Y-116533565D01*
X171276102Y-116593746D01*
X171250755Y-116648489D01*
X171244556Y-116658714D01*
X171208962Y-116705545D01*
X171165696Y-116745221D01*
X171114760Y-116777742D01*
X171092307Y-116788527D01*
X171032045Y-116809198D01*
X170972769Y-116820117D01*
X170908717Y-116823757D01*
X170890317Y-116823476D01*
X170828678Y-116818054D01*
X170771330Y-116805732D01*
X170711045Y-116783201D01*
X170656365Y-116751657D01*
X170620270Y-116722819D01*
X170576677Y-116673226D01*
X170545741Y-116616029D01*
X170528870Y-116558803D01*
X170736672Y-116558803D01*
X170744847Y-116581334D01*
X170786642Y-116627805D01*
X170841910Y-116648928D01*
X170906958Y-116654937D01*
X170960997Y-116650128D01*
X171021264Y-116627240D01*
X171063579Y-116585502D01*
X171087942Y-116524914D01*
X171094537Y-116457979D01*
X171094537Y-116392327D01*
X170522129Y-116392327D01*
X170522129Y-116224092D01*
X170726414Y-116224092D01*
X170726414Y-116261022D01*
X171094537Y-116261022D01*
X171094537Y-116224385D01*
X171092321Y-116183090D01*
X171078211Y-116122413D01*
X171048228Y-116071099D01*
X171022033Y-116047505D01*
X170967120Y-116023542D01*
X170908717Y-116017170D01*
X170881348Y-116018479D01*
X170820638Y-116034140D01*
X170772136Y-116070806D01*
X170750034Y-116104497D01*
X170731817Y-116160887D01*
X170726414Y-116224092D01*
X170522129Y-116224092D01*
X170522129Y-116221454D01*
X170522554Y-116200657D01*
X170528930Y-116141262D01*
X170544987Y-116080543D01*
X170570489Y-116025376D01*
X170576650Y-116015044D01*
X170612021Y-115967743D01*
X170655006Y-115927712D01*
X170705605Y-115894951D01*
X170727756Y-115884028D01*
X170787181Y-115863094D01*
X170845607Y-115852035D01*
X170908717Y-115848349D01*
X170937774Y-115849073D01*
G37*
G36*
X169925105Y-115849073D02*
G01*
X169991445Y-115856392D01*
X170052034Y-115871593D01*
X170106874Y-115894676D01*
X170162506Y-115930708D01*
X170208320Y-115975276D01*
X170242007Y-116026622D01*
X170263568Y-116084746D01*
X170273002Y-116149647D01*
X170072234Y-116149647D01*
X170061365Y-116110503D01*
X170020943Y-116065823D01*
X170015016Y-116062025D01*
X169960263Y-116040465D01*
X169901655Y-116034462D01*
X169891900Y-116034612D01*
X169831313Y-116044061D01*
X169778556Y-116072857D01*
X169744253Y-116122420D01*
X169734593Y-116180715D01*
X169734593Y-116261022D01*
X169957342Y-116261022D01*
X169978155Y-116261314D01*
X170046438Y-116266934D01*
X170107625Y-116279706D01*
X170168863Y-116303062D01*
X170220831Y-116335760D01*
X170257605Y-116371247D01*
X170291613Y-116425446D01*
X170309308Y-116481720D01*
X170315207Y-116545614D01*
X170313189Y-116584590D01*
X170299387Y-116648075D01*
X170272509Y-116702983D01*
X170232555Y-116749312D01*
X170187419Y-116781882D01*
X170127532Y-116807400D01*
X170066203Y-116820195D01*
X170006288Y-116823757D01*
X169999366Y-116823714D01*
X169934324Y-116818493D01*
X169876897Y-116804571D01*
X169822520Y-116779207D01*
X169797159Y-116761227D01*
X169755217Y-116714281D01*
X169731076Y-116656402D01*
X169727852Y-116656402D01*
X169727852Y-116805000D01*
X169523567Y-116805000D01*
X169523567Y-116506339D01*
X169734593Y-116506339D01*
X169735477Y-116524845D01*
X169752491Y-116582187D01*
X169791159Y-116627972D01*
X169817478Y-116645788D01*
X169874690Y-116667265D01*
X169937119Y-116673695D01*
X169946699Y-116673547D01*
X170006581Y-116664242D01*
X170059631Y-116635886D01*
X170093043Y-116590457D01*
X170104181Y-116530373D01*
X170096439Y-116479627D01*
X170063734Y-116429549D01*
X170012157Y-116400506D01*
X169952360Y-116392327D01*
X169734593Y-116392327D01*
X169734593Y-116506339D01*
X169523567Y-116506339D01*
X169523567Y-116167819D01*
X169523664Y-116158593D01*
X169529795Y-116097477D01*
X169548480Y-116035048D01*
X169579621Y-115980533D01*
X169623218Y-115933932D01*
X169656126Y-115909277D01*
X169708137Y-115881780D01*
X169767075Y-115862474D01*
X169832942Y-115851358D01*
X169894914Y-115848349D01*
X169925105Y-115849073D01*
G37*
G36*
X169272681Y-116805000D02*
G01*
X169272681Y-115867107D01*
X169066930Y-115867107D01*
X169066930Y-116057030D01*
X169063413Y-116057030D01*
X169049137Y-115999998D01*
X169022457Y-115946849D01*
X168984279Y-115903743D01*
X168930657Y-115869988D01*
X168871872Y-115852731D01*
X168816923Y-115848349D01*
X168752059Y-115854119D01*
X168694045Y-115871430D01*
X168642882Y-115900281D01*
X168598570Y-115940673D01*
X168562667Y-115990663D01*
X168537021Y-116048604D01*
X168522996Y-116105823D01*
X168516825Y-116169130D01*
X168516505Y-116188335D01*
X168516505Y-116805000D01*
X168727531Y-116805000D01*
X168727531Y-116211782D01*
X168733837Y-116153338D01*
X168757134Y-116099114D01*
X168772374Y-116080478D01*
X168821030Y-116047449D01*
X168878876Y-116034867D01*
X168892834Y-116034462D01*
X168951661Y-116042347D01*
X169005354Y-116071039D01*
X169017105Y-116082236D01*
X169049082Y-116135976D01*
X169060959Y-116197032D01*
X169061655Y-116218524D01*
X169061655Y-116805000D01*
X169272681Y-116805000D01*
G37*
G36*
X167851004Y-115851536D02*
G01*
X167912910Y-115868270D01*
X167966079Y-115899347D01*
X167999526Y-115931372D01*
X168034312Y-115984458D01*
X168056351Y-116043548D01*
X168059868Y-116043548D01*
X168059868Y-115867107D01*
X168265618Y-115867107D01*
X168265618Y-117105125D01*
X168054593Y-117105125D01*
X168054593Y-116846032D01*
X168059868Y-116635886D01*
X168056351Y-116635886D01*
X168041220Y-116678201D01*
X168009044Y-116732194D01*
X167965493Y-116774811D01*
X167926126Y-116798472D01*
X167866569Y-116817974D01*
X167804879Y-116823757D01*
X167739776Y-116817657D01*
X167681341Y-116799357D01*
X167629573Y-116768858D01*
X167584474Y-116726158D01*
X167564896Y-116700691D01*
X167533572Y-116643355D01*
X167514729Y-116586184D01*
X167503880Y-116522477D01*
X167500943Y-116462669D01*
X167500943Y-116218524D01*
X167711969Y-116218524D01*
X167711969Y-116453583D01*
X167712669Y-116475075D01*
X167724625Y-116536131D01*
X167756812Y-116589870D01*
X167768522Y-116601067D01*
X167822631Y-116629760D01*
X167882548Y-116637644D01*
X167897406Y-116637212D01*
X167958571Y-116623748D01*
X168009163Y-116588405D01*
X168024602Y-116568398D01*
X168048204Y-116510575D01*
X168054593Y-116448600D01*
X168054593Y-116223506D01*
X168053484Y-116196298D01*
X168040219Y-116134933D01*
X168009163Y-116083995D01*
X167997183Y-116072385D01*
X167942469Y-116042637D01*
X167882548Y-116034462D01*
X167867648Y-116034882D01*
X167806627Y-116047945D01*
X167756812Y-116082236D01*
X167741572Y-116101584D01*
X167718275Y-116157867D01*
X167711969Y-116218524D01*
X167500943Y-116218524D01*
X167500943Y-116207679D01*
X167501269Y-116187423D01*
X167507550Y-116120618D01*
X167521826Y-116060181D01*
X167547929Y-115998907D01*
X167584474Y-115945949D01*
X167629573Y-115903249D01*
X167681341Y-115872749D01*
X167739776Y-115854449D01*
X167804879Y-115848349D01*
X167851004Y-115851536D01*
G37*
G36*
X167260315Y-116805000D02*
G01*
X167260315Y-116618886D01*
X166942897Y-116618886D01*
X166942897Y-116053220D01*
X167226609Y-116053220D01*
X167226609Y-115867107D01*
X166731871Y-115867107D01*
X166731871Y-116618886D01*
X166446693Y-116618886D01*
X166446693Y-116805000D01*
X167260315Y-116805000D01*
G37*
G36*
X166851745Y-115717044D02*
G01*
X166912334Y-115707780D01*
X166953155Y-115684218D01*
X166984891Y-115633889D01*
X166990085Y-115595118D01*
X166977066Y-115536804D01*
X166953155Y-115506311D01*
X166899447Y-115478658D01*
X166851745Y-115473192D01*
X166791240Y-115482539D01*
X166750629Y-115506311D01*
X166718641Y-115556389D01*
X166713406Y-115595118D01*
X166726529Y-115653535D01*
X166750629Y-115684218D01*
X166804092Y-115711627D01*
X166851745Y-115717044D01*
G37*
G36*
X165902464Y-115849073D02*
G01*
X165964393Y-115855992D01*
X166021547Y-115870237D01*
X166079450Y-115894658D01*
X166084888Y-115897570D01*
X166135057Y-115930691D01*
X166181384Y-115975522D01*
X166215444Y-116023911D01*
X166224034Y-116039710D01*
X166246566Y-116095947D01*
X166259709Y-116157680D01*
X166263511Y-116217937D01*
X166263511Y-116454169D01*
X166263089Y-116474752D01*
X166256752Y-116533565D01*
X166240792Y-116593746D01*
X166215444Y-116648489D01*
X166209246Y-116658714D01*
X166173651Y-116705545D01*
X166130386Y-116745221D01*
X166079450Y-116777742D01*
X166056996Y-116788527D01*
X165996735Y-116809198D01*
X165937459Y-116820117D01*
X165873406Y-116823757D01*
X165855007Y-116823476D01*
X165793367Y-116818054D01*
X165736020Y-116805732D01*
X165675734Y-116783201D01*
X165621055Y-116751657D01*
X165584960Y-116722819D01*
X165541366Y-116673226D01*
X165510431Y-116616029D01*
X165493560Y-116558803D01*
X165701362Y-116558803D01*
X165709536Y-116581334D01*
X165751332Y-116627805D01*
X165806600Y-116648928D01*
X165871648Y-116654937D01*
X165925687Y-116650128D01*
X165985953Y-116627240D01*
X166028269Y-116585502D01*
X166052632Y-116524914D01*
X166059226Y-116457979D01*
X166059226Y-116392327D01*
X165486819Y-116392327D01*
X165486819Y-116224092D01*
X165691103Y-116224092D01*
X165691103Y-116261022D01*
X166059226Y-116261022D01*
X166059226Y-116224385D01*
X166057010Y-116183090D01*
X166042901Y-116122413D01*
X166012918Y-116071099D01*
X165986723Y-116047505D01*
X165931810Y-116023542D01*
X165873406Y-116017170D01*
X165846038Y-116018479D01*
X165785328Y-116034140D01*
X165736826Y-116070806D01*
X165714724Y-116104497D01*
X165696506Y-116160887D01*
X165691103Y-116224092D01*
X165486819Y-116224092D01*
X165486819Y-116221454D01*
X165487244Y-116200657D01*
X165493619Y-116141262D01*
X165509676Y-116080543D01*
X165535179Y-116025376D01*
X165541339Y-116015044D01*
X165576711Y-115967743D01*
X165619696Y-115927712D01*
X165670294Y-115894951D01*
X165692445Y-115884028D01*
X165751871Y-115863094D01*
X165810297Y-115852035D01*
X165873406Y-115848349D01*
X165902464Y-115849073D01*
G37*
G36*
X165217468Y-116805000D02*
G01*
X165217468Y-115867107D01*
X165011718Y-115867107D01*
X165011718Y-116049703D01*
X165006442Y-116049703D01*
X164990800Y-115989502D01*
X164959202Y-115934966D01*
X164925549Y-115901692D01*
X164874638Y-115871322D01*
X164815001Y-115853558D01*
X164753211Y-115848349D01*
X164693243Y-115852907D01*
X164631405Y-115869279D01*
X164576711Y-115897558D01*
X164529162Y-115937743D01*
X164523720Y-115943604D01*
X164486021Y-115995426D01*
X164459094Y-116055931D01*
X164444368Y-116115996D01*
X164437888Y-116182708D01*
X164437551Y-116202990D01*
X164437551Y-116280073D01*
X164658836Y-116280073D01*
X164658836Y-116218817D01*
X164665142Y-116158930D01*
X164688439Y-116102710D01*
X164703678Y-116083115D01*
X164754202Y-116048193D01*
X164812159Y-116035222D01*
X164832639Y-116034462D01*
X164891705Y-116041356D01*
X164945170Y-116066823D01*
X164985905Y-116118906D01*
X165003726Y-116184585D01*
X165006442Y-116230540D01*
X165006442Y-116805000D01*
X165217468Y-116805000D01*
G37*
G36*
X164210406Y-116805000D02*
G01*
X164210406Y-115867107D01*
X164004655Y-115867107D01*
X164004655Y-116049703D01*
X163999380Y-116049703D01*
X163983738Y-115989502D01*
X163952139Y-115934966D01*
X163918487Y-115901692D01*
X163867576Y-115871322D01*
X163807938Y-115853558D01*
X163746149Y-115848349D01*
X163686180Y-115852907D01*
X163624343Y-115869279D01*
X163569649Y-115897558D01*
X163522100Y-115937743D01*
X163516658Y-115943604D01*
X163478959Y-115995426D01*
X163452032Y-116055931D01*
X163437305Y-116115996D01*
X163430826Y-116182708D01*
X163430489Y-116202990D01*
X163430489Y-116280073D01*
X163651773Y-116280073D01*
X163651773Y-116218817D01*
X163658079Y-116158930D01*
X163681377Y-116102710D01*
X163696616Y-116083115D01*
X163747140Y-116048193D01*
X163805097Y-116035222D01*
X163825577Y-116034462D01*
X163884643Y-116041356D01*
X163938107Y-116066823D01*
X163978843Y-116118906D01*
X163996664Y-116184585D01*
X163999380Y-116230540D01*
X163999380Y-116805000D01*
X164210406Y-116805000D01*
G37*
G36*
X162881277Y-115849073D02*
G01*
X162943207Y-115855992D01*
X163000361Y-115870237D01*
X163058263Y-115894658D01*
X163063702Y-115897570D01*
X163113871Y-115930691D01*
X163160197Y-115975522D01*
X163194258Y-116023911D01*
X163202848Y-116039710D01*
X163225379Y-116095947D01*
X163238523Y-116157680D01*
X163242325Y-116217937D01*
X163242325Y-116454169D01*
X163241902Y-116474752D01*
X163235565Y-116533565D01*
X163219606Y-116593746D01*
X163194258Y-116648489D01*
X163188059Y-116658714D01*
X163152465Y-116705545D01*
X163109199Y-116745221D01*
X163058263Y-116777742D01*
X163035810Y-116788527D01*
X162975549Y-116809198D01*
X162916272Y-116820117D01*
X162852220Y-116823757D01*
X162833821Y-116823476D01*
X162772181Y-116818054D01*
X162714833Y-116805732D01*
X162654548Y-116783201D01*
X162599868Y-116751657D01*
X162563773Y-116722819D01*
X162520180Y-116673226D01*
X162489245Y-116616029D01*
X162472374Y-116558803D01*
X162680175Y-116558803D01*
X162688350Y-116581334D01*
X162730145Y-116627805D01*
X162785413Y-116648928D01*
X162850461Y-116654937D01*
X162904500Y-116650128D01*
X162964767Y-116627240D01*
X163007082Y-116585502D01*
X163031445Y-116524914D01*
X163038040Y-116457979D01*
X163038040Y-116392327D01*
X162465632Y-116392327D01*
X162465632Y-116224092D01*
X162669917Y-116224092D01*
X162669917Y-116261022D01*
X163038040Y-116261022D01*
X163038040Y-116224385D01*
X163035824Y-116183090D01*
X163021714Y-116122413D01*
X162991732Y-116071099D01*
X162965536Y-116047505D01*
X162910624Y-116023542D01*
X162852220Y-116017170D01*
X162824851Y-116018479D01*
X162764141Y-116034140D01*
X162715639Y-116070806D01*
X162693537Y-116104497D01*
X162675320Y-116160887D01*
X162669917Y-116224092D01*
X162465632Y-116224092D01*
X162465632Y-116221454D01*
X162466057Y-116200657D01*
X162472433Y-116141262D01*
X162488490Y-116080543D01*
X162513993Y-116025376D01*
X162520153Y-116015044D01*
X162555524Y-115967743D01*
X162598509Y-115927712D01*
X162649108Y-115894951D01*
X162671259Y-115884028D01*
X162730684Y-115863094D01*
X162789111Y-115852035D01*
X162852220Y-115848349D01*
X162881277Y-115849073D01*
G37*
G36*
X162100147Y-117086367D02*
G01*
X161965032Y-116561147D01*
X161695095Y-116561147D01*
X161914327Y-117086367D01*
X162100147Y-117086367D01*
G37*
G36*
X171968242Y-118839757D02*
G01*
X172035723Y-118836099D01*
X172097702Y-118825126D01*
X172154178Y-118806836D01*
X172213112Y-118776252D01*
X172264558Y-118735710D01*
X172306927Y-118686541D01*
X172338890Y-118630331D01*
X172360446Y-118567081D01*
X172370640Y-118507263D01*
X172373295Y-118453463D01*
X172162269Y-118453463D01*
X172156208Y-118512399D01*
X172133418Y-118570351D01*
X172110978Y-118599715D01*
X172062536Y-118634632D01*
X172006228Y-118651064D01*
X171968242Y-118653644D01*
X171906391Y-118646225D01*
X171851106Y-118621444D01*
X171826386Y-118600888D01*
X171792418Y-118551303D01*
X171776433Y-118494027D01*
X171773923Y-118455515D01*
X171773923Y-117769094D01*
X172120064Y-117769094D01*
X172120064Y-117582981D01*
X171562897Y-117582981D01*
X171562897Y-118457566D01*
X171566730Y-118521245D01*
X171578229Y-118579730D01*
X171601334Y-118641400D01*
X171634874Y-118696001D01*
X171671927Y-118737175D01*
X171723272Y-118777146D01*
X171782162Y-118807300D01*
X171838646Y-118825332D01*
X171900672Y-118836151D01*
X171968242Y-118839757D01*
G37*
G36*
X170910475Y-118839757D02*
G01*
X170974302Y-118836244D01*
X171032791Y-118825703D01*
X171094282Y-118804523D01*
X171148508Y-118773779D01*
X171189205Y-118739813D01*
X171228605Y-118692609D01*
X171258328Y-118638449D01*
X171278374Y-118577333D01*
X171287853Y-118519411D01*
X171290322Y-118467238D01*
X171290322Y-117883107D01*
X171079296Y-117883107D01*
X171079296Y-118465773D01*
X171073114Y-118527803D01*
X171050273Y-118585273D01*
X171035332Y-118604991D01*
X170986002Y-118639913D01*
X170925318Y-118653217D01*
X170910475Y-118653644D01*
X170851697Y-118645615D01*
X170798180Y-118616394D01*
X170786498Y-118604991D01*
X170755843Y-118554397D01*
X170742750Y-118493051D01*
X170741655Y-118465773D01*
X170741655Y-117883107D01*
X170530629Y-117883107D01*
X170530629Y-118467238D01*
X170534256Y-118529419D01*
X170547656Y-118595505D01*
X170570929Y-118654633D01*
X170604076Y-118706806D01*
X170633797Y-118739813D01*
X170682199Y-118778756D01*
X170737389Y-118808134D01*
X170799367Y-118827948D01*
X170857894Y-118837317D01*
X170910475Y-118839757D01*
G37*
G36*
X169753057Y-118821000D02*
G01*
X169818930Y-118815779D01*
X169877914Y-118800117D01*
X169936039Y-118770016D01*
X169975221Y-118737468D01*
X170015599Y-118686309D01*
X170042763Y-118626804D01*
X170055815Y-118566903D01*
X170058752Y-118517650D01*
X170058752Y-117769094D01*
X170364153Y-117769094D01*
X170364153Y-117582981D01*
X169847726Y-117582981D01*
X169847726Y-118518822D01*
X169836163Y-118576776D01*
X169818124Y-118603526D01*
X169764820Y-118632406D01*
X169738110Y-118634886D01*
X169466121Y-118634886D01*
X169466121Y-118821000D01*
X169753057Y-118821000D01*
G37*
G36*
X169274439Y-118821000D02*
G01*
X169274439Y-118634886D01*
X168957021Y-118634886D01*
X168957021Y-118069220D01*
X169240734Y-118069220D01*
X169240734Y-117883107D01*
X168745995Y-117883107D01*
X168745995Y-118634886D01*
X168460817Y-118634886D01*
X168460817Y-118821000D01*
X169274439Y-118821000D01*
G37*
G36*
X168865870Y-117733044D02*
G01*
X168926458Y-117723780D01*
X168967279Y-117700218D01*
X168999016Y-117649889D01*
X169004209Y-117611118D01*
X168991190Y-117552804D01*
X168967279Y-117522311D01*
X168913571Y-117494658D01*
X168865870Y-117489192D01*
X168805364Y-117498539D01*
X168764753Y-117522311D01*
X168732765Y-117572389D01*
X168727531Y-117611118D01*
X168740653Y-117669535D01*
X168764753Y-117700218D01*
X168818216Y-117727627D01*
X168865870Y-117733044D01*
G37*
G36*
X167910981Y-117865073D02*
G01*
X167977321Y-117872392D01*
X168037910Y-117887593D01*
X168092750Y-117910676D01*
X168148382Y-117946708D01*
X168194196Y-117991276D01*
X168227883Y-118042622D01*
X168249443Y-118100746D01*
X168258877Y-118165647D01*
X168058110Y-118165647D01*
X168047241Y-118126503D01*
X168006819Y-118081823D01*
X168000892Y-118078025D01*
X167946139Y-118056465D01*
X167887531Y-118050462D01*
X167877776Y-118050612D01*
X167817189Y-118060061D01*
X167764432Y-118088857D01*
X167730128Y-118138420D01*
X167720468Y-118196715D01*
X167720468Y-118277022D01*
X167943218Y-118277022D01*
X167964031Y-118277314D01*
X168032314Y-118282934D01*
X168093501Y-118295706D01*
X168154738Y-118319062D01*
X168206707Y-118351760D01*
X168243480Y-118387247D01*
X168277489Y-118441446D01*
X168295184Y-118497720D01*
X168301083Y-118561614D01*
X168299065Y-118600590D01*
X168285262Y-118664075D01*
X168258385Y-118718983D01*
X168218431Y-118765312D01*
X168173295Y-118797882D01*
X168113408Y-118823400D01*
X168052078Y-118836195D01*
X167992164Y-118839757D01*
X167985241Y-118839714D01*
X167920200Y-118834493D01*
X167862773Y-118820571D01*
X167808396Y-118795207D01*
X167783034Y-118777227D01*
X167741092Y-118730281D01*
X167716951Y-118672402D01*
X167713727Y-118672402D01*
X167713727Y-118821000D01*
X167509443Y-118821000D01*
X167509443Y-118522339D01*
X167720468Y-118522339D01*
X167721352Y-118540845D01*
X167738366Y-118598187D01*
X167777035Y-118643972D01*
X167803354Y-118661788D01*
X167860566Y-118683265D01*
X167922995Y-118689695D01*
X167932575Y-118689547D01*
X167992457Y-118680242D01*
X168045507Y-118651886D01*
X168078919Y-118606457D01*
X168090057Y-118546373D01*
X168082315Y-118495627D01*
X168049610Y-118445549D01*
X167998033Y-118416506D01*
X167938235Y-118408327D01*
X167720468Y-118408327D01*
X167720468Y-118522339D01*
X167509443Y-118522339D01*
X167509443Y-118183819D01*
X167509540Y-118174593D01*
X167515671Y-118113477D01*
X167534355Y-118051048D01*
X167565496Y-117996533D01*
X167609094Y-117949932D01*
X167642002Y-117925277D01*
X167694012Y-117897780D01*
X167752951Y-117878474D01*
X167818818Y-117867358D01*
X167880789Y-117864349D01*
X167910981Y-117865073D01*
G37*
G36*
X167258556Y-118821000D02*
G01*
X167258556Y-117883107D01*
X167052806Y-117883107D01*
X167052806Y-118073030D01*
X167049289Y-118073030D01*
X167035012Y-118015998D01*
X167008332Y-117962849D01*
X166970154Y-117919743D01*
X166916532Y-117885988D01*
X166857748Y-117868731D01*
X166802799Y-117864349D01*
X166737934Y-117870119D01*
X166679921Y-117887430D01*
X166628758Y-117916281D01*
X166584446Y-117956673D01*
X166548542Y-118006663D01*
X166522897Y-118064604D01*
X166508872Y-118121823D01*
X166502701Y-118185130D01*
X166502381Y-118204335D01*
X166502381Y-118821000D01*
X166713406Y-118821000D01*
X166713406Y-118227782D01*
X166719712Y-118169338D01*
X166743010Y-118115114D01*
X166758249Y-118096478D01*
X166806906Y-118063449D01*
X166864752Y-118050867D01*
X166878710Y-118050462D01*
X166937537Y-118058347D01*
X166991230Y-118087039D01*
X167002981Y-118098236D01*
X167034957Y-118151976D01*
X167046834Y-118213032D01*
X167047531Y-118234524D01*
X167047531Y-118821000D01*
X167258556Y-118821000D01*
G37*
D12*
X158288819Y-120651666D02*
X159003104Y-120651666D01*
X159003104Y-120651666D02*
X159145961Y-120604047D01*
X159145961Y-120604047D02*
X159241200Y-120508809D01*
X159241200Y-120508809D02*
X159288819Y-120365952D01*
X159288819Y-120365952D02*
X159288819Y-120270714D01*
X158384057Y-121080238D02*
X158336438Y-121127857D01*
X158336438Y-121127857D02*
X158288819Y-121223095D01*
X158288819Y-121223095D02*
X158288819Y-121461190D01*
X158288819Y-121461190D02*
X158336438Y-121556428D01*
X158336438Y-121556428D02*
X158384057Y-121604047D01*
X158384057Y-121604047D02*
X158479295Y-121651666D01*
X158479295Y-121651666D02*
X158574533Y-121651666D01*
X158574533Y-121651666D02*
X158717390Y-121604047D01*
X158717390Y-121604047D02*
X159288819Y-121032619D01*
X159288819Y-121032619D02*
X159288819Y-121651666D01*
D13*
%TO.C,J2*%
X156584000Y-115905000D02*
X157984000Y-117885000D01*
X157984000Y-117885000D02*
X157984000Y-125464999D01*
X157384000Y-126065000D02*
X157984000Y-125464999D01*
X156569000Y-117810000D02*
X157204001Y-117810000D01*
X157204001Y-117810000D02*
X157204000Y-118445000D01*
X155284000Y-115905000D02*
X156584000Y-115905000D01*
X153884000Y-117885000D02*
X155284000Y-115905000D01*
X157384000Y-126065000D02*
X154484000Y-126065000D01*
X153884000Y-125464999D02*
X153884000Y-117885000D01*
X154484000Y-126065000D02*
X153884000Y-125464999D01*
%TD*%
%LPC*%
D14*
%TO.C,J5*%
X132773555Y-112714555D03*
D15*
X134569606Y-114510606D03*
X136365657Y-116306657D03*
%TD*%
D16*
%TO.C,J7*%
X152084000Y-101450000D03*
D17*
X154624000Y-101450000D03*
X157163999Y-101450000D03*
X159704000Y-101450000D03*
%TD*%
D14*
%TO.C,J4*%
X176348555Y-69039555D03*
D15*
X178144606Y-70835606D03*
X179940657Y-72631657D03*
%TD*%
D16*
%TO.C,J12*%
X143159000Y-71450000D03*
D17*
X145699000Y-71450000D03*
%TD*%
D18*
%TO.C,J3*%
X136334000Y-69075000D03*
D19*
X134537949Y-70871051D03*
X132741898Y-72667102D03*
%TD*%
D16*
%TO.C,J10*%
X164709000Y-76425000D03*
D17*
X167249000Y-76425000D03*
X169788999Y-76425000D03*
X172329000Y-76425000D03*
%TD*%
D16*
%TO.C,J8*%
X123584000Y-90950000D03*
D17*
X123584000Y-93490000D03*
%TD*%
D16*
%TO.C,J11*%
X166159000Y-95125000D03*
D17*
X166159000Y-97665000D03*
X166159000Y-100205000D03*
X166159000Y-102745000D03*
%TD*%
D16*
%TO.C,J1*%
X157124000Y-77950000D03*
D17*
X157124000Y-80490000D03*
X157124000Y-83030000D03*
X157124000Y-85570000D03*
X157124000Y-88110000D03*
X157124000Y-90650000D03*
X157124000Y-93190000D03*
%TD*%
D20*
%TO.C,J2*%
X155934000Y-117175000D03*
X154918000Y-124795000D03*
X156950000Y-124795000D03*
D21*
X156569000Y-118445000D03*
X156569000Y-119715000D03*
X156569000Y-120985000D03*
X156569000Y-122255000D03*
X156569000Y-123525000D03*
X155299000Y-123525000D03*
X155299000Y-122255000D03*
X155299000Y-120985000D03*
X155299000Y-119715000D03*
X155299000Y-118445000D03*
%TD*%
D18*
%TO.C,J6*%
X179969445Y-112739555D03*
D19*
X178173394Y-114535606D03*
X176377343Y-116331657D03*
%TD*%
D16*
%TO.C,J9*%
X154584000Y-77950000D03*
D17*
X154584000Y-80490000D03*
X154584000Y-83030000D03*
X154584000Y-85570000D03*
X154584000Y-88110000D03*
X154584000Y-90650000D03*
X154584000Y-93190000D03*
%TD*%
D16*
%TO.C,J13*%
X126959000Y-99010000D03*
D17*
X126959000Y-101550000D03*
X126959000Y-104089999D03*
X126959000Y-106630000D03*
%TD*%
%LPD*%
M02*
