%TF.GenerationSoftware,KiCad,Pcbnew,8.0.5*%
%TF.CreationDate,2025-05-16T20:13:13-04:00*%
%TF.ProjectId,RTLS_VIC,52544c53-5f56-4494-932e-6b696361645f,rev?*%
%TF.SameCoordinates,Original*%
%TF.FileFunction,Paste,Top*%
%TF.FilePolarity,Positive*%
%FSLAX46Y46*%
G04 Gerber Fmt 4.6, Leading zero omitted, Abs format (unit mm)*
G04 Created by KiCad (PCBNEW 8.0.5) date 2025-05-16 20:13:13*
%MOMM*%
%LPD*%
G01*
G04 APERTURE LIST*
G04 Aperture macros list*
%AMRoundRect*
0 Rectangle with rounded corners*
0 $1 Rounding radius*
0 $2 $3 $4 $5 $6 $7 $8 $9 X,Y pos of 4 corners*
0 Add a 4 corners polygon primitive as box body*
4,1,4,$2,$3,$4,$5,$6,$7,$8,$9,$2,$3,0*
0 Add four circle primitives for the rounded corners*
1,1,$1+$1,$2,$3*
1,1,$1+$1,$4,$5*
1,1,$1+$1,$6,$7*
1,1,$1+$1,$8,$9*
0 Add four rect primitives between the rounded corners*
20,1,$1+$1,$2,$3,$4,$5,0*
20,1,$1+$1,$4,$5,$6,$7,0*
20,1,$1+$1,$6,$7,$8,$9,0*
20,1,$1+$1,$8,$9,$2,$3,0*%
G04 Aperture macros list end*
%ADD10RoundRect,0.140000X0.140000X0.170000X-0.140000X0.170000X-0.140000X-0.170000X0.140000X-0.170000X0*%
%ADD11RoundRect,0.140000X-0.140000X-0.170000X0.140000X-0.170000X0.140000X0.170000X-0.140000X0.170000X0*%
%ADD12RoundRect,0.218750X-0.218750X-0.256250X0.218750X-0.256250X0.218750X0.256250X-0.218750X0.256250X0*%
%ADD13R,1.800000X1.200000*%
%ADD14RoundRect,0.200000X-0.275000X0.200000X-0.275000X-0.200000X0.275000X-0.200000X0.275000X0.200000X0*%
%ADD15R,1.400000X1.200000*%
%ADD16RoundRect,0.140000X-0.219203X-0.021213X-0.021213X-0.219203X0.219203X0.021213X0.021213X0.219203X0*%
%ADD17O,0.300000X2.000000*%
%ADD18O,2.000000X0.300000*%
%ADD19RoundRect,0.200000X-0.200000X-0.275000X0.200000X-0.275000X0.200000X0.275000X-0.200000X0.275000X0*%
%ADD20RoundRect,0.200000X0.275000X-0.200000X0.275000X0.200000X-0.275000X0.200000X-0.275000X-0.200000X0*%
%ADD21RoundRect,0.218750X-0.256250X0.218750X-0.256250X-0.218750X0.256250X-0.218750X0.256250X0.218750X0*%
%ADD22RoundRect,0.140000X0.170000X-0.140000X0.170000X0.140000X-0.170000X0.140000X-0.170000X-0.140000X0*%
%ADD23RoundRect,0.140000X-0.170000X0.140000X-0.170000X-0.140000X0.170000X-0.140000X0.170000X0.140000X0*%
%ADD24RoundRect,0.200000X0.200000X0.275000X-0.200000X0.275000X-0.200000X-0.275000X0.200000X-0.275000X0*%
%ADD25R,0.680000X0.280000*%
%ADD26R,0.280000X0.680000*%
%ADD27R,1.000000X0.750000*%
%ADD28R,0.750000X1.000000*%
%ADD29R,1.300000X0.550000*%
%ADD30R,0.660000X0.280000*%
%ADD31R,1.200000X2.000000*%
%ADD32R,0.450000X0.450000*%
%ADD33R,1.000000X0.600000*%
G04 APERTURE END LIST*
D10*
%TO.C,C3*%
X144149001Y-81025000D03*
X143189001Y-81025000D03*
%TD*%
D11*
%TO.C,C6*%
X166529000Y-80700000D03*
X167489000Y-80700000D03*
%TD*%
D12*
%TO.C,L7*%
X138771500Y-102025000D03*
X140346500Y-102025000D03*
%TD*%
D13*
%TO.C,L1*%
X146494001Y-76575000D03*
X146494001Y-78575000D03*
%TD*%
D14*
%TO.C,R4*%
X152684000Y-62225000D03*
X152684000Y-63875000D03*
%TD*%
D11*
%TO.C,C11*%
X130354000Y-105100000D03*
X131314000Y-105100000D03*
%TD*%
D15*
%TO.C,X1*%
X133009000Y-105100000D03*
X135209000Y-105100000D03*
X135209000Y-103400000D03*
X133009000Y-103400000D03*
%TD*%
D11*
%TO.C,C14*%
X142629000Y-88025000D03*
X143589000Y-88025000D03*
%TD*%
D16*
%TO.C,C13*%
X144119589Y-95585589D03*
X144798411Y-96264411D03*
%TD*%
D17*
%TO.C,U9*%
X131734000Y-98600000D03*
X132234000Y-98600000D03*
X132734000Y-98600000D03*
X133234000Y-98600000D03*
X133734000Y-98600000D03*
X134234000Y-98600000D03*
X134734000Y-98600000D03*
X135234000Y-98600000D03*
X135734000Y-98600000D03*
X136234000Y-98600000D03*
X136734000Y-98600000D03*
X137234000Y-98600000D03*
X137734000Y-98600000D03*
X138234000Y-98600000D03*
X138734000Y-98600000D03*
X139234000Y-98600000D03*
D18*
X141234000Y-96600000D03*
X141234000Y-96100000D03*
X141234000Y-95600000D03*
X141234000Y-95100000D03*
X141234000Y-94600000D03*
X141234000Y-94100000D03*
X141234000Y-93600000D03*
X141234000Y-93100000D03*
X141234000Y-92600000D03*
X141234000Y-92100000D03*
X141234000Y-91600000D03*
X141234000Y-91100000D03*
X141234000Y-90600000D03*
X141234000Y-90100000D03*
X141234000Y-89600000D03*
X141234000Y-89100000D03*
D17*
X139234000Y-87100000D03*
X138734000Y-87100000D03*
X138234000Y-87100000D03*
X137734000Y-87100000D03*
X137234000Y-87100000D03*
X136734000Y-87100000D03*
X136234000Y-87100000D03*
X135734000Y-87100000D03*
X135234000Y-87100000D03*
X134734000Y-87100000D03*
X134234000Y-87100000D03*
X133734000Y-87100000D03*
X133234000Y-87100000D03*
X132734000Y-87100000D03*
X132234000Y-87100000D03*
X131734000Y-87100000D03*
D18*
X129734000Y-89100000D03*
X129734000Y-89600000D03*
X129734000Y-90100000D03*
X129734000Y-90600000D03*
X129734000Y-91100000D03*
X129734000Y-91600000D03*
X129734000Y-92100000D03*
X129734000Y-92600000D03*
X129734000Y-93100000D03*
X129734000Y-93600000D03*
X129734000Y-94100000D03*
X129734000Y-94600000D03*
X129734000Y-95100000D03*
X129734000Y-95600000D03*
X129734000Y-96100000D03*
X129734000Y-96600000D03*
%TD*%
D19*
%TO.C,R2*%
X123559000Y-86700000D03*
X125209000Y-86700000D03*
%TD*%
D20*
%TO.C,R3*%
X140419001Y-81800001D03*
X140419001Y-80150001D03*
%TD*%
D21*
%TO.C,D3*%
X155564000Y-59112499D03*
X155564000Y-60687501D03*
%TD*%
D22*
%TO.C,C16*%
X127159000Y-96580000D03*
X127159000Y-95620000D03*
%TD*%
D20*
%TO.C,R1*%
X138894001Y-78800000D03*
X138894001Y-77150000D03*
%TD*%
D14*
%TO.C,R11*%
X158464000Y-62237498D03*
X158464000Y-63887498D03*
%TD*%
D23*
%TO.C,C12*%
X130709000Y-100195000D03*
X130709000Y-101155000D03*
%TD*%
%TO.C,C9*%
X144034000Y-106845000D03*
X144034000Y-107805000D03*
%TD*%
D24*
%TO.C,R9*%
X148809000Y-94125000D03*
X147159000Y-94125000D03*
%TD*%
D10*
%TO.C,C24*%
X137764000Y-100650000D03*
X136804000Y-100650000D03*
%TD*%
D22*
%TO.C,C1*%
X143119001Y-75604999D03*
X143119001Y-74644999D03*
%TD*%
D21*
%TO.C,D1*%
X158449000Y-59024997D03*
X158449000Y-60599999D03*
%TD*%
D10*
%TO.C,C17*%
X143439000Y-84350000D03*
X142479000Y-84350000D03*
%TD*%
D14*
%TO.C,R5*%
X155584000Y-62225000D03*
X155584000Y-63875000D03*
%TD*%
D23*
%TO.C,C10*%
X136909000Y-103420000D03*
X136909000Y-104380000D03*
%TD*%
D25*
%TO.C,U3*%
X154899000Y-96724999D03*
X154899000Y-97225000D03*
X154899000Y-97725000D03*
X154899000Y-98225001D03*
D26*
X155659000Y-98485000D03*
X156159000Y-98485000D03*
X156659000Y-98485000D03*
D25*
X157419000Y-98225001D03*
X157419000Y-97725000D03*
X157419000Y-97225000D03*
X157419000Y-96724999D03*
D26*
X156659000Y-96465000D03*
X156159000Y-96465000D03*
X155659000Y-96465000D03*
%TD*%
D27*
%TO.C,SW1*%
X147059000Y-113100000D03*
X141059000Y-113100000D03*
X147059000Y-109400000D03*
X141059000Y-109400000D03*
%TD*%
D11*
%TO.C,C5*%
X158579000Y-98750000D03*
X159539000Y-98750000D03*
%TD*%
D28*
%TO.C,SW2*%
X129584000Y-76975000D03*
X129584000Y-82975000D03*
X125884000Y-76975000D03*
X125884000Y-82975000D03*
%TD*%
D11*
%TO.C,C15*%
X131429000Y-84950000D03*
X132389000Y-84950000D03*
%TD*%
D10*
%TO.C,C2*%
X144149000Y-79925000D03*
X143189000Y-79925000D03*
%TD*%
D11*
%TO.C,C4*%
X143829000Y-90100000D03*
X144789000Y-90100000D03*
%TD*%
D21*
%TO.C,D2*%
X152659000Y-59112499D03*
X152659000Y-60687501D03*
%TD*%
D29*
%TO.C,U7*%
X157134000Y-74017500D03*
X157134000Y-73067500D03*
X157134000Y-72117500D03*
X154744000Y-72117500D03*
X154734000Y-73067500D03*
X154744000Y-74017500D03*
%TD*%
D30*
%TO.C,U2*%
X141984000Y-76650000D03*
X141984001Y-77150000D03*
X141984000Y-77650000D03*
X141984001Y-78150000D03*
X141984000Y-78650000D03*
X144304000Y-78650000D03*
X144303999Y-78150000D03*
X144304000Y-77650000D03*
X144303999Y-77150000D03*
X144304000Y-76650000D03*
D31*
X143144000Y-77650000D03*
%TD*%
D19*
%TO.C,R10*%
X147159000Y-91900000D03*
X148809000Y-91900000D03*
%TD*%
D32*
%TO.C,U4*%
X166504001Y-83205000D03*
X165854000Y-83205000D03*
X165214000Y-83205000D03*
X164563999Y-83205000D03*
X164563999Y-81745000D03*
X165214000Y-81745000D03*
X165854000Y-81745000D03*
X166504001Y-81745000D03*
%TD*%
D33*
%TO.C,U1*%
X167309000Y-88325000D03*
X167309000Y-89325000D03*
X167309000Y-90325000D03*
X169709000Y-90325000D03*
X169709000Y-89325000D03*
X169709000Y-88325000D03*
%TD*%
M02*
