%TF.GenerationSoftware,KiCad,Pcbnew,8.0.5*%
%TF.CreationDate,2025-05-15T21:27:35-04:00*%
%TF.ProjectId,RTLS_VIC,52544c53-5f56-4494-932e-6b696361645f,rev?*%
%TF.SameCoordinates,Original*%
%TF.FileFunction,Other,Comment*%
%FSLAX46Y46*%
G04 Gerber Fmt 4.6, Leading zero omitted, Abs format (unit mm)*
G04 Created by KiCad (PCBNEW 8.0.5) date 2025-05-15 21:27:35*
%MOMM*%
%LPD*%
G01*
G04 APERTURE LIST*
%ADD10C,0.070000*%
%ADD11C,0.125000*%
%ADD12C,0.200000*%
%ADD13C,0.150000*%
%ADD14C,0.300000*%
%ADD15C,0.400000*%
G04 APERTURE END LIST*
D10*
X156115407Y-122223095D02*
X155715407Y-122223095D01*
X156115407Y-121994524D02*
X155886836Y-122165953D01*
X155715407Y-121994524D02*
X155943979Y-122223095D01*
X155905883Y-121823095D02*
X155905883Y-121689762D01*
X156115407Y-121632619D02*
X156115407Y-121823095D01*
X156115407Y-121823095D02*
X155715407Y-121823095D01*
X155715407Y-121823095D02*
X155715407Y-121632619D01*
X155905883Y-121461190D02*
X155905883Y-121327857D01*
X156115407Y-121270714D02*
X156115407Y-121461190D01*
X156115407Y-121461190D02*
X155715407Y-121461190D01*
X155715407Y-121461190D02*
X155715407Y-121270714D01*
X156115407Y-121099285D02*
X155715407Y-121099285D01*
X155715407Y-121099285D02*
X155715407Y-120946904D01*
X155715407Y-120946904D02*
X155734455Y-120908809D01*
X155734455Y-120908809D02*
X155753502Y-120889762D01*
X155753502Y-120889762D02*
X155791598Y-120870714D01*
X155791598Y-120870714D02*
X155848740Y-120870714D01*
X155848740Y-120870714D02*
X155886836Y-120889762D01*
X155886836Y-120889762D02*
X155905883Y-120908809D01*
X155905883Y-120908809D02*
X155924931Y-120946904D01*
X155924931Y-120946904D02*
X155924931Y-121099285D01*
X155715407Y-120623095D02*
X155715407Y-120546904D01*
X155715407Y-120546904D02*
X155734455Y-120508809D01*
X155734455Y-120508809D02*
X155772550Y-120470714D01*
X155772550Y-120470714D02*
X155848740Y-120451666D01*
X155848740Y-120451666D02*
X155982074Y-120451666D01*
X155982074Y-120451666D02*
X156058264Y-120470714D01*
X156058264Y-120470714D02*
X156096360Y-120508809D01*
X156096360Y-120508809D02*
X156115407Y-120546904D01*
X156115407Y-120546904D02*
X156115407Y-120623095D01*
X156115407Y-120623095D02*
X156096360Y-120661190D01*
X156096360Y-120661190D02*
X156058264Y-120699285D01*
X156058264Y-120699285D02*
X155982074Y-120718333D01*
X155982074Y-120718333D02*
X155848740Y-120718333D01*
X155848740Y-120718333D02*
X155772550Y-120699285D01*
X155772550Y-120699285D02*
X155734455Y-120661190D01*
X155734455Y-120661190D02*
X155715407Y-120623095D01*
X155715407Y-120280237D02*
X156039217Y-120280237D01*
X156039217Y-120280237D02*
X156077312Y-120261190D01*
X156077312Y-120261190D02*
X156096360Y-120242142D01*
X156096360Y-120242142D02*
X156115407Y-120204047D01*
X156115407Y-120204047D02*
X156115407Y-120127856D01*
X156115407Y-120127856D02*
X156096360Y-120089761D01*
X156096360Y-120089761D02*
X156077312Y-120070714D01*
X156077312Y-120070714D02*
X156039217Y-120051666D01*
X156039217Y-120051666D02*
X155715407Y-120051666D01*
X155715407Y-119918332D02*
X155715407Y-119689761D01*
X156115407Y-119804047D02*
X155715407Y-119804047D01*
D11*
X152908809Y-125556427D02*
X152908809Y-125651665D01*
X152908809Y-125651665D02*
X152932619Y-125699284D01*
X152932619Y-125699284D02*
X152956428Y-125723094D01*
X152956428Y-125723094D02*
X153027857Y-125770713D01*
X153027857Y-125770713D02*
X153123095Y-125794522D01*
X153123095Y-125794522D02*
X153313571Y-125794522D01*
X153313571Y-125794522D02*
X153361190Y-125770713D01*
X153361190Y-125770713D02*
X153385000Y-125746903D01*
X153385000Y-125746903D02*
X153408809Y-125699284D01*
X153408809Y-125699284D02*
X153408809Y-125604046D01*
X153408809Y-125604046D02*
X153385000Y-125556427D01*
X153385000Y-125556427D02*
X153361190Y-125532618D01*
X153361190Y-125532618D02*
X153313571Y-125508808D01*
X153313571Y-125508808D02*
X153194523Y-125508808D01*
X153194523Y-125508808D02*
X153146904Y-125532618D01*
X153146904Y-125532618D02*
X153123095Y-125556427D01*
X153123095Y-125556427D02*
X153099285Y-125604046D01*
X153099285Y-125604046D02*
X153099285Y-125699284D01*
X153099285Y-125699284D02*
X153123095Y-125746903D01*
X153123095Y-125746903D02*
X153146904Y-125770713D01*
X153146904Y-125770713D02*
X153194523Y-125794522D01*
X153361190Y-125294523D02*
X153385000Y-125270713D01*
X153385000Y-125270713D02*
X153408809Y-125294523D01*
X153408809Y-125294523D02*
X153385000Y-125318332D01*
X153385000Y-125318332D02*
X153361190Y-125294523D01*
X153361190Y-125294523D02*
X153408809Y-125294523D01*
X152908809Y-125104047D02*
X152908809Y-124794523D01*
X152908809Y-124794523D02*
X153099285Y-124961190D01*
X153099285Y-124961190D02*
X153099285Y-124889761D01*
X153099285Y-124889761D02*
X153123095Y-124842142D01*
X153123095Y-124842142D02*
X153146904Y-124818333D01*
X153146904Y-124818333D02*
X153194523Y-124794523D01*
X153194523Y-124794523D02*
X153313571Y-124794523D01*
X153313571Y-124794523D02*
X153361190Y-124818333D01*
X153361190Y-124818333D02*
X153385000Y-124842142D01*
X153385000Y-124842142D02*
X153408809Y-124889761D01*
X153408809Y-124889761D02*
X153408809Y-125032618D01*
X153408809Y-125032618D02*
X153385000Y-125080237D01*
X153385000Y-125080237D02*
X153361190Y-125104047D01*
X152908809Y-124342143D02*
X152908809Y-124580238D01*
X152908809Y-124580238D02*
X153146904Y-124604047D01*
X153146904Y-124604047D02*
X153123095Y-124580238D01*
X153123095Y-124580238D02*
X153099285Y-124532619D01*
X153099285Y-124532619D02*
X153099285Y-124413571D01*
X153099285Y-124413571D02*
X153123095Y-124365952D01*
X153123095Y-124365952D02*
X153146904Y-124342143D01*
X153146904Y-124342143D02*
X153194523Y-124318333D01*
X153194523Y-124318333D02*
X153313571Y-124318333D01*
X153313571Y-124318333D02*
X153361190Y-124342143D01*
X153361190Y-124342143D02*
X153385000Y-124365952D01*
X153385000Y-124365952D02*
X153408809Y-124413571D01*
X153408809Y-124413571D02*
X153408809Y-124532619D01*
X153408809Y-124532619D02*
X153385000Y-124580238D01*
X153385000Y-124580238D02*
X153361190Y-124604047D01*
X153408809Y-124104048D02*
X153075476Y-124104048D01*
X153123095Y-124104048D02*
X153099285Y-124080238D01*
X153099285Y-124080238D02*
X153075476Y-124032619D01*
X153075476Y-124032619D02*
X153075476Y-123961191D01*
X153075476Y-123961191D02*
X153099285Y-123913572D01*
X153099285Y-123913572D02*
X153146904Y-123889762D01*
X153146904Y-123889762D02*
X153408809Y-123889762D01*
X153146904Y-123889762D02*
X153099285Y-123865953D01*
X153099285Y-123865953D02*
X153075476Y-123818334D01*
X153075476Y-123818334D02*
X153075476Y-123746905D01*
X153075476Y-123746905D02*
X153099285Y-123699286D01*
X153099285Y-123699286D02*
X153146904Y-123675476D01*
X153146904Y-123675476D02*
X153408809Y-123675476D01*
X153408809Y-123437381D02*
X153075476Y-123437381D01*
X153123095Y-123437381D02*
X153099285Y-123413571D01*
X153099285Y-123413571D02*
X153075476Y-123365952D01*
X153075476Y-123365952D02*
X153075476Y-123294524D01*
X153075476Y-123294524D02*
X153099285Y-123246905D01*
X153099285Y-123246905D02*
X153146904Y-123223095D01*
X153146904Y-123223095D02*
X153408809Y-123223095D01*
X153146904Y-123223095D02*
X153099285Y-123199286D01*
X153099285Y-123199286D02*
X153075476Y-123151667D01*
X153075476Y-123151667D02*
X153075476Y-123080238D01*
X153075476Y-123080238D02*
X153099285Y-123032619D01*
X153099285Y-123032619D02*
X153146904Y-123008809D01*
X153146904Y-123008809D02*
X153408809Y-123008809D01*
X152908809Y-122437381D02*
X152908809Y-122104048D01*
X152908809Y-122104048D02*
X153408809Y-122437381D01*
X153408809Y-122437381D02*
X153408809Y-122104048D01*
X153218333Y-121913572D02*
X153218333Y-121532620D01*
X153408809Y-121294524D02*
X152908809Y-121294524D01*
X153408809Y-121008810D02*
X153123095Y-121223095D01*
X152908809Y-121008810D02*
X153194523Y-121294524D01*
X153146904Y-120794524D02*
X153146904Y-120627857D01*
X153408809Y-120556429D02*
X153408809Y-120794524D01*
X153408809Y-120794524D02*
X152908809Y-120794524D01*
X152908809Y-120794524D02*
X152908809Y-120556429D01*
X153146904Y-120342143D02*
X153146904Y-120175476D01*
X153408809Y-120104048D02*
X153408809Y-120342143D01*
X153408809Y-120342143D02*
X152908809Y-120342143D01*
X152908809Y-120342143D02*
X152908809Y-120104048D01*
X153408809Y-119889762D02*
X152908809Y-119889762D01*
X152908809Y-119889762D02*
X152908809Y-119699286D01*
X152908809Y-119699286D02*
X152932619Y-119651667D01*
X152932619Y-119651667D02*
X152956428Y-119627857D01*
X152956428Y-119627857D02*
X153004047Y-119604048D01*
X153004047Y-119604048D02*
X153075476Y-119604048D01*
X153075476Y-119604048D02*
X153123095Y-119627857D01*
X153123095Y-119627857D02*
X153146904Y-119651667D01*
X153146904Y-119651667D02*
X153170714Y-119699286D01*
X153170714Y-119699286D02*
X153170714Y-119889762D01*
X152908809Y-119294524D02*
X152908809Y-119199286D01*
X152908809Y-119199286D02*
X152932619Y-119151667D01*
X152932619Y-119151667D02*
X152980238Y-119104048D01*
X152980238Y-119104048D02*
X153075476Y-119080238D01*
X153075476Y-119080238D02*
X153242142Y-119080238D01*
X153242142Y-119080238D02*
X153337380Y-119104048D01*
X153337380Y-119104048D02*
X153385000Y-119151667D01*
X153385000Y-119151667D02*
X153408809Y-119199286D01*
X153408809Y-119199286D02*
X153408809Y-119294524D01*
X153408809Y-119294524D02*
X153385000Y-119342143D01*
X153385000Y-119342143D02*
X153337380Y-119389762D01*
X153337380Y-119389762D02*
X153242142Y-119413571D01*
X153242142Y-119413571D02*
X153075476Y-119413571D01*
X153075476Y-119413571D02*
X152980238Y-119389762D01*
X152980238Y-119389762D02*
X152932619Y-119342143D01*
X152932619Y-119342143D02*
X152908809Y-119294524D01*
X152908809Y-118865952D02*
X153313571Y-118865952D01*
X153313571Y-118865952D02*
X153361190Y-118842142D01*
X153361190Y-118842142D02*
X153385000Y-118818333D01*
X153385000Y-118818333D02*
X153408809Y-118770714D01*
X153408809Y-118770714D02*
X153408809Y-118675476D01*
X153408809Y-118675476D02*
X153385000Y-118627857D01*
X153385000Y-118627857D02*
X153361190Y-118604047D01*
X153361190Y-118604047D02*
X153313571Y-118580238D01*
X153313571Y-118580238D02*
X152908809Y-118580238D01*
X152908809Y-118413570D02*
X152908809Y-118127856D01*
X153408809Y-118270713D02*
X152908809Y-118270713D01*
X158408809Y-125556427D02*
X158408809Y-125651665D01*
X158408809Y-125651665D02*
X158432619Y-125699284D01*
X158432619Y-125699284D02*
X158456428Y-125723094D01*
X158456428Y-125723094D02*
X158527857Y-125770713D01*
X158527857Y-125770713D02*
X158623095Y-125794522D01*
X158623095Y-125794522D02*
X158813571Y-125794522D01*
X158813571Y-125794522D02*
X158861190Y-125770713D01*
X158861190Y-125770713D02*
X158885000Y-125746903D01*
X158885000Y-125746903D02*
X158908809Y-125699284D01*
X158908809Y-125699284D02*
X158908809Y-125604046D01*
X158908809Y-125604046D02*
X158885000Y-125556427D01*
X158885000Y-125556427D02*
X158861190Y-125532618D01*
X158861190Y-125532618D02*
X158813571Y-125508808D01*
X158813571Y-125508808D02*
X158694523Y-125508808D01*
X158694523Y-125508808D02*
X158646904Y-125532618D01*
X158646904Y-125532618D02*
X158623095Y-125556427D01*
X158623095Y-125556427D02*
X158599285Y-125604046D01*
X158599285Y-125604046D02*
X158599285Y-125699284D01*
X158599285Y-125699284D02*
X158623095Y-125746903D01*
X158623095Y-125746903D02*
X158646904Y-125770713D01*
X158646904Y-125770713D02*
X158694523Y-125794522D01*
X158861190Y-125294523D02*
X158885000Y-125270713D01*
X158885000Y-125270713D02*
X158908809Y-125294523D01*
X158908809Y-125294523D02*
X158885000Y-125318332D01*
X158885000Y-125318332D02*
X158861190Y-125294523D01*
X158861190Y-125294523D02*
X158908809Y-125294523D01*
X158408809Y-125104047D02*
X158408809Y-124794523D01*
X158408809Y-124794523D02*
X158599285Y-124961190D01*
X158599285Y-124961190D02*
X158599285Y-124889761D01*
X158599285Y-124889761D02*
X158623095Y-124842142D01*
X158623095Y-124842142D02*
X158646904Y-124818333D01*
X158646904Y-124818333D02*
X158694523Y-124794523D01*
X158694523Y-124794523D02*
X158813571Y-124794523D01*
X158813571Y-124794523D02*
X158861190Y-124818333D01*
X158861190Y-124818333D02*
X158885000Y-124842142D01*
X158885000Y-124842142D02*
X158908809Y-124889761D01*
X158908809Y-124889761D02*
X158908809Y-125032618D01*
X158908809Y-125032618D02*
X158885000Y-125080237D01*
X158885000Y-125080237D02*
X158861190Y-125104047D01*
X158408809Y-124342143D02*
X158408809Y-124580238D01*
X158408809Y-124580238D02*
X158646904Y-124604047D01*
X158646904Y-124604047D02*
X158623095Y-124580238D01*
X158623095Y-124580238D02*
X158599285Y-124532619D01*
X158599285Y-124532619D02*
X158599285Y-124413571D01*
X158599285Y-124413571D02*
X158623095Y-124365952D01*
X158623095Y-124365952D02*
X158646904Y-124342143D01*
X158646904Y-124342143D02*
X158694523Y-124318333D01*
X158694523Y-124318333D02*
X158813571Y-124318333D01*
X158813571Y-124318333D02*
X158861190Y-124342143D01*
X158861190Y-124342143D02*
X158885000Y-124365952D01*
X158885000Y-124365952D02*
X158908809Y-124413571D01*
X158908809Y-124413571D02*
X158908809Y-124532619D01*
X158908809Y-124532619D02*
X158885000Y-124580238D01*
X158885000Y-124580238D02*
X158861190Y-124604047D01*
X158908809Y-124104048D02*
X158575476Y-124104048D01*
X158623095Y-124104048D02*
X158599285Y-124080238D01*
X158599285Y-124080238D02*
X158575476Y-124032619D01*
X158575476Y-124032619D02*
X158575476Y-123961191D01*
X158575476Y-123961191D02*
X158599285Y-123913572D01*
X158599285Y-123913572D02*
X158646904Y-123889762D01*
X158646904Y-123889762D02*
X158908809Y-123889762D01*
X158646904Y-123889762D02*
X158599285Y-123865953D01*
X158599285Y-123865953D02*
X158575476Y-123818334D01*
X158575476Y-123818334D02*
X158575476Y-123746905D01*
X158575476Y-123746905D02*
X158599285Y-123699286D01*
X158599285Y-123699286D02*
X158646904Y-123675476D01*
X158646904Y-123675476D02*
X158908809Y-123675476D01*
X158908809Y-123437381D02*
X158575476Y-123437381D01*
X158623095Y-123437381D02*
X158599285Y-123413571D01*
X158599285Y-123413571D02*
X158575476Y-123365952D01*
X158575476Y-123365952D02*
X158575476Y-123294524D01*
X158575476Y-123294524D02*
X158599285Y-123246905D01*
X158599285Y-123246905D02*
X158646904Y-123223095D01*
X158646904Y-123223095D02*
X158908809Y-123223095D01*
X158646904Y-123223095D02*
X158599285Y-123199286D01*
X158599285Y-123199286D02*
X158575476Y-123151667D01*
X158575476Y-123151667D02*
X158575476Y-123080238D01*
X158575476Y-123080238D02*
X158599285Y-123032619D01*
X158599285Y-123032619D02*
X158646904Y-123008809D01*
X158646904Y-123008809D02*
X158908809Y-123008809D01*
X158408809Y-122437381D02*
X158408809Y-122104048D01*
X158408809Y-122104048D02*
X158908809Y-122437381D01*
X158908809Y-122437381D02*
X158908809Y-122104048D01*
X158718333Y-121913572D02*
X158718333Y-121532620D01*
X158908809Y-121294524D02*
X158408809Y-121294524D01*
X158908809Y-121008810D02*
X158623095Y-121223095D01*
X158408809Y-121008810D02*
X158694523Y-121294524D01*
X158646904Y-120794524D02*
X158646904Y-120627857D01*
X158908809Y-120556429D02*
X158908809Y-120794524D01*
X158908809Y-120794524D02*
X158408809Y-120794524D01*
X158408809Y-120794524D02*
X158408809Y-120556429D01*
X158646904Y-120342143D02*
X158646904Y-120175476D01*
X158908809Y-120104048D02*
X158908809Y-120342143D01*
X158908809Y-120342143D02*
X158408809Y-120342143D01*
X158408809Y-120342143D02*
X158408809Y-120104048D01*
X158908809Y-119889762D02*
X158408809Y-119889762D01*
X158408809Y-119889762D02*
X158408809Y-119699286D01*
X158408809Y-119699286D02*
X158432619Y-119651667D01*
X158432619Y-119651667D02*
X158456428Y-119627857D01*
X158456428Y-119627857D02*
X158504047Y-119604048D01*
X158504047Y-119604048D02*
X158575476Y-119604048D01*
X158575476Y-119604048D02*
X158623095Y-119627857D01*
X158623095Y-119627857D02*
X158646904Y-119651667D01*
X158646904Y-119651667D02*
X158670714Y-119699286D01*
X158670714Y-119699286D02*
X158670714Y-119889762D01*
X158408809Y-119294524D02*
X158408809Y-119199286D01*
X158408809Y-119199286D02*
X158432619Y-119151667D01*
X158432619Y-119151667D02*
X158480238Y-119104048D01*
X158480238Y-119104048D02*
X158575476Y-119080238D01*
X158575476Y-119080238D02*
X158742142Y-119080238D01*
X158742142Y-119080238D02*
X158837380Y-119104048D01*
X158837380Y-119104048D02*
X158885000Y-119151667D01*
X158885000Y-119151667D02*
X158908809Y-119199286D01*
X158908809Y-119199286D02*
X158908809Y-119294524D01*
X158908809Y-119294524D02*
X158885000Y-119342143D01*
X158885000Y-119342143D02*
X158837380Y-119389762D01*
X158837380Y-119389762D02*
X158742142Y-119413571D01*
X158742142Y-119413571D02*
X158575476Y-119413571D01*
X158575476Y-119413571D02*
X158480238Y-119389762D01*
X158480238Y-119389762D02*
X158432619Y-119342143D01*
X158432619Y-119342143D02*
X158408809Y-119294524D01*
X158408809Y-118865952D02*
X158813571Y-118865952D01*
X158813571Y-118865952D02*
X158861190Y-118842142D01*
X158861190Y-118842142D02*
X158885000Y-118818333D01*
X158885000Y-118818333D02*
X158908809Y-118770714D01*
X158908809Y-118770714D02*
X158908809Y-118675476D01*
X158908809Y-118675476D02*
X158885000Y-118627857D01*
X158885000Y-118627857D02*
X158861190Y-118604047D01*
X158861190Y-118604047D02*
X158813571Y-118580238D01*
X158813571Y-118580238D02*
X158408809Y-118580238D01*
X158408809Y-118413570D02*
X158408809Y-118127856D01*
X158908809Y-118270713D02*
X158408809Y-118270713D01*
D12*
%TO.C,U4*%
X166904002Y-83495000D02*
G75*
G02*
X166704000Y-83495000I-100001J0D01*
G01*
X166704000Y-83495000D02*
G75*
G02*
X166904002Y-83495000I100001J0D01*
G01*
D13*
%TO.C,U3*%
X154829000Y-96715000D02*
G75*
G02*
X154689000Y-96715000I-70000J0D01*
G01*
X154689000Y-96715000D02*
G75*
G02*
X154829000Y-96715000I70000J0D01*
G01*
D14*
%TO.C,X1*%
X133109000Y-105630000D02*
G75*
G02*
X132809000Y-105630000I-150000J0D01*
G01*
X132809000Y-105630000D02*
G75*
G02*
X133109000Y-105630000I150000J0D01*
G01*
%TO.C,U9*%
X131874000Y-99170000D02*
G75*
G02*
X131574000Y-99170000I-150000J0D01*
G01*
X131574000Y-99170000D02*
G75*
G02*
X131874000Y-99170000I150000J0D01*
G01*
D15*
%TO.C,U7*%
X158174000Y-73997500D02*
G75*
G02*
X157774000Y-73997500I-200000J0D01*
G01*
X157774000Y-73997500D02*
G75*
G02*
X158174000Y-73997500I200000J0D01*
G01*
D14*
%TO.C,U2*%
X141644000Y-76650000D02*
G75*
G02*
X141344000Y-76650000I-150000J0D01*
G01*
X141344000Y-76650000D02*
G75*
G02*
X141644000Y-76650000I150000J0D01*
G01*
%TD*%
M02*
